<svg xmlns="http://www.w3.org/2000/svg" xmlns:xlink="http://www.w3.org/1999/xlink" width="15.147" height="17.807" viewBox="0 0 15.147 17.807">
  <defs>
    <clipPath id="clip-path">
      <rect id="사각형_163" data-name="사각형 163" width="15.147" height="17.807" fill="#fff"/>
    </clipPath>
  </defs>
  <g id="ico_foot2" opacity="0.5">
    <g id="그룹_224" data-name="그룹 224" clip-path="url(#clip-path)">
      <path id="패스_153" data-name="패스 153" d="M12.931,2.194a7.64,7.64,0,0,0-10.716,0,7.457,7.457,0,0,0,0,10.608L7.058,17.6a.735.735,0,0,0,1.031,0L12.931,12.8a7.457,7.457,0,0,0,0-10.608m-3.649,7a2.433,2.433,0,0,1-3.417,0,2.375,2.375,0,0,1,0-3.383,2.434,2.434,0,0,1,3.417,0,2.375,2.375,0,0,1,0,3.383" transform="translate(0 0)" fill="#fff"/>
    </g>
  </g>
</svg>
