<svg xmlns="http://www.w3.org/2000/svg" xmlns:xlink="http://www.w3.org/1999/xlink" width="106" height="106" viewBox="0 0 106 106">
  <defs>
    <clipPath id="clip-path">
      <rect id="사각형_229" data-name="사각형 229" width="31.707" height="55.594" fill="none" stroke="#6499af" stroke-width="2"/>
    </clipPath>
  </defs>
  <g id="ico_loca3" transform="translate(-311 -1859)">
    <g id="타원_21" data-name="타원 21" transform="translate(311 1859)" fill="#fff" stroke="#e5e5e5" stroke-width="1">
      <circle cx="53" cy="53" r="53" stroke="none"/>
      <circle cx="53" cy="53" r="52.5" fill="none"/>
    </g>
    <g id="그룹_292" data-name="그룹 292" transform="translate(348.142 1884.203)">
      <g id="그룹_291" data-name="그룹 291" transform="translate(0 0)" clip-path="url(#clip-path)">
        <rect id="사각형_227" data-name="사각형 227" width="29.009" height="30.621" rx="4" transform="translate(1.38 11.055)" fill="none" stroke="#6499af" stroke-linecap="round" stroke-linejoin="round" stroke-width="2"/>
        <rect id="사각형_228" data-name="사각형 228" width="19.486" height="9.962" transform="translate(6.141 15.157)" fill="none" stroke="#6499af" stroke-linecap="round" stroke-linejoin="round" stroke-width="2"/>
        <path id="패스_178" data-name="패스 178" d="M11.48,38.408a2.344,2.344,0,1,1-2.344-2.344A2.344,2.344,0,0,1,11.48,38.408Z" transform="translate(-0.821 -4.362)" fill="none" stroke="#6499af" stroke-linecap="round" stroke-linejoin="round" stroke-width="2"/>
        <path id="패스_179" data-name="패스 179" d="M29.48,38.408a2.344,2.344,0,1,1-2.344-2.344A2.344,2.344,0,0,1,29.48,38.408Z" transform="translate(-2.998 -4.362)" fill="none" stroke="#6499af" stroke-linecap="round" stroke-linejoin="round" stroke-width="2"/>
        <line id="선_33" data-name="선 33" y1="8.791" transform="translate(15.681 1.758)" fill="none" stroke="#6499af" stroke-linecap="round" stroke-linejoin="round" stroke-width="2"/>
        <line id="선_34" data-name="선 34" x2="6.153" transform="translate(12.604 1.318)" fill="none" stroke="#6499af" stroke-linecap="round" stroke-linejoin="round" stroke-width="2"/>
        <path id="패스_180" data-name="패스 180" d="M1.5,60.009l6.153-12.6H24.319l6.153,12.6" transform="translate(-0.181 -5.734)" fill="none" stroke="#6499af" stroke-linecap="round" stroke-linejoin="round" stroke-width="2"/>
        <line id="선_35" data-name="선 35" x2="21.977" transform="translate(4.692 47.909)" fill="none" stroke="#6499af" stroke-linecap="round" stroke-linejoin="round" stroke-width="2"/>
      </g>
    </g>
  </g>
</svg>
