<svg xmlns="http://www.w3.org/2000/svg" xmlns:xlink="http://www.w3.org/1999/xlink" width="20.221" height="21.467" viewBox="0 0 20.221 21.467">
  <defs>
    <clipPath id="clip-path">
      <rect id="사각형_162" data-name="사각형 162" width="20.221" height="21.467" fill="#175068"/>
    </clipPath>
  </defs>
  <g id="ico_loca_fax" transform="translate(0 0)">
    <g id="그룹_222" data-name="그룹 222" transform="translate(0 0)" clip-path="url(#clip-path)">
      <path id="패스_151" data-name="패스 151" d="M17.8,51.234a.423.423,0,0,1,0,.168v3.306H28.035V46.2H17.8Zm3.094-2.843h4.048a.642.642,0,1,1,0,1.284H20.893a.642.642,0,1,1,0-1.284m0,2.983h4.048a.642.642,0,1,1,0,1.284H20.893a.642.642,0,1,1,0-1.284" transform="translate(-12.807 -33.242)" fill="#175068"/>
      <path id="패스_152" data-name="패스 152" d="M17.456,20.187H2.765A2.768,2.768,0,0,0,0,22.952v6.242A2.768,2.768,0,0,0,2.765,31.96h.943V26.841A.642.642,0,0,1,4.35,26.2H15.871a.642.642,0,0,1,.642.642V31.96h.943a2.768,2.768,0,0,0,2.765-2.765V22.952a2.768,2.768,0,0,0-2.765-2.765" transform="translate(0 -14.525)" fill="#175068"/>
      <rect id="사각형_161" data-name="사각형 161" width="10.236" height="4.378" transform="translate(4.992)" fill="#175068"/>
    </g>
  </g>
</svg>
