<svg xmlns="http://www.w3.org/2000/svg" xmlns:xlink="http://www.w3.org/1999/xlink" width="106" height="106" viewBox="0 0 106 106">
  <defs>
    <clipPath id="clip-path">
      <rect id="사각형_226" data-name="사각형 226" width="31.048" height="44.365" fill="none" stroke="#6499af" stroke-width="2"/>
    </clipPath>
  </defs>
  <g id="ico_loca2" transform="translate(-311 -1433)">
    <g id="타원_18" data-name="타원 18" transform="translate(311 1433)" fill="#fff" stroke="#e5e5e5" stroke-width="1">
      <circle cx="53" cy="53" r="53" stroke="none"/>
      <circle cx="53" cy="53" r="52.5" fill="none"/>
    </g>
    <g id="그룹_284" data-name="그룹 284" transform="translate(348.142 1463)">
      <g id="그룹_283" data-name="그룹 283" transform="translate(0 0)" clip-path="url(#clip-path)">
        <circle id="타원_19" data-name="타원 19" cx="2.131" cy="2.131" r="2.131" transform="translate(5.645 27.61)" fill="none" stroke="#6499af" stroke-linecap="round" stroke-linejoin="round" stroke-width="2"/>
        <circle id="타원_20" data-name="타원 20" cx="2.131" cy="2.131" r="2.131" transform="translate(21.625 27.61)" fill="none" stroke="#6499af" stroke-linecap="round" stroke-linejoin="round" stroke-width="2"/>
        <path id="패스_176" data-name="패스 176" d="M7.634,55.026H7.467a1.681,1.681,0,0,1-1.681-1.681V49.433H9.314v3.912A1.681,1.681,0,0,1,7.634,55.026Z" transform="translate(-1.381 -11.803)" fill="none" stroke="#6499af" stroke-linecap="round" stroke-linejoin="round" stroke-width="2"/>
        <path id="패스_177" data-name="패스 177" d="M32.212,55.026h-.167a1.681,1.681,0,0,1-1.682-1.681V49.433h3.529v3.912A1.681,1.681,0,0,1,32.212,55.026Z" transform="translate(-7.25 -11.803)" fill="none" stroke="#6499af" stroke-linecap="round" stroke-linejoin="round" stroke-width="2"/>
        <rect id="사각형_224" data-name="사각형 224" width="28.764" height="32.627" rx="3.083" transform="translate(1.142 4.87)" fill="none" stroke="#6499af" stroke-linecap="round" stroke-linejoin="round" stroke-width="2"/>
        <line id="선_31" data-name="선 31" x2="26.643" transform="translate(2.556 9.727)" fill="none" stroke="#6499af" stroke-linecap="round" stroke-linejoin="round" stroke-width="2"/>
        <line id="선_32" data-name="선 32" x2="26.643" transform="translate(2.556 20.384)" fill="none" stroke="#6499af" stroke-linecap="round" stroke-linejoin="round" stroke-width="2"/>
        <rect id="사각형_225" data-name="사각형 225" width="7.325" height="3.729" transform="translate(11.862 1.142)" fill="none" stroke="#6499af" stroke-linecap="round" stroke-linejoin="round" stroke-width="2"/>
      </g>
    </g>
  </g>
</svg>
