<svg xmlns="http://www.w3.org/2000/svg" xmlns:xlink="http://www.w3.org/1999/xlink" width="15.393" height="15.498" viewBox="0 0 15.393 15.498">
  <defs>
    <clipPath id="clip-path">
      <rect id="사각형_166" data-name="사각형 166" width="15.393" height="15.498" transform="translate(0 0)" fill="none"/>
    </clipPath>
  </defs>
  <g id="ico_tel" transform="translate(0 0)" opacity="0.75">
    <g id="그룹_235" data-name="그룹 235" transform="translate(0 0)" clip-path="url(#clip-path)">
      <path id="패스_156" data-name="패스 156" d="M14.549,10.558c-.662-.419-1.338-.891-2.009-1.4a1.827,1.827,0,0,0-2.457.231c-.06.067-.113.124-.148.158-.658.658-2.017-.1-3-1.086A4.832,4.832,0,0,1,5.68,6.565c-.214-.723.074-1.012.169-1.106.035-.035.091-.087.159-.148a1.826,1.826,0,0,0,.231-2.457c-.512-.669-.984-1.345-1.4-2.009A1.816,1.816,0,0,0,2.013.537C.191,2.359-2.032,6.25,3.556,11.838c2.266,2.266,4.317,3.456,6.271,3.637q.254.023.506.023a6.377,6.377,0,0,0,4.53-2.124,1.816,1.816,0,0,0-.315-2.816m-.821,1.694a4.627,4.627,0,0,1-3.754,1.633c-1.545-.143-3.325-1.212-5.289-3.176C1.172,7.2.653,4.154,3.146,1.661A.215.215,0,0,1,3.3,1.6h.025a.211.211,0,0,1,.16.1c.445.7.944,1.419,1.484,2.126a.222.222,0,0,1-.028.3c-.094.084-.173.158-.222.208a2.6,2.6,0,0,0-.571,2.689,6.324,6.324,0,0,0,1.657,2.57c1.927,1.926,3.99,2.353,5.258,1.086.049-.049.123-.128.207-.222a.221.221,0,0,1,.3-.029h0c.708.541,1.423,1.041,2.125,1.484a.213.213,0,0,1,.1.16.221.221,0,0,1-.067.185" transform="translate(0 0)" fill="#3e3a39"/>
    </g>
  </g>
</svg>
