<svg xmlns="http://www.w3.org/2000/svg" xmlns:xlink="http://www.w3.org/1999/xlink" width="94" height="94" viewBox="0 0 94 94">
  <defs>
    <clipPath id="clip-path">
      <rect id="사각형_391" data-name="사각형 391" width="94" height="94" transform="translate(1.728 0)" fill="none"/>
    </clipPath>
  </defs>
  <g id="ico_prec5" transform="translate(-1.728)">
    <g id="그룹_339" data-name="그룹 339" clip-path="url(#clip-path)">
      <path id="패스_1029" data-name="패스 1029" d="M15.364,91.647a2.342,2.342,0,0,1-2.331-2.116c-.371-3.888.539-6.9,2.707-8.945,3.385-3.2,8.34-2.562,8.893-2.481a2.358,2.358,0,0,1,.7.221c14.19,7.075,30.217,7.421,40.831.879C75.811,73.26,80.91,61.891,80.91,46.323c0-12.637-3.637-21.7-10.813-26.93-10.774-7.854-27.5-5.555-35.685-2.96-3.611,1.144-6.369.779-8.2-1.09-3.58-3.656-1.189-11.278-.673-12.768A2.343,2.343,0,0,1,29.971,4.1c-1.009,2.942-1.423,6.944-.4,7.982.461.471,1.743.432,3.423-.1A61.977,61.977,0,0,1,50.6,9.322h.148c8.945,0,16.385,2.119,22.117,6.3,8.45,6.161,12.734,16.49,12.734,30.7,0,21.82-9.227,32.087-16.968,36.857C56.762,90.5,39.138,90.295,23.619,82.7c-1.081-.074-3.349.038-4.669,1.3-1.056,1.01-1.477,2.724-1.25,5.1a2.339,2.339,0,0,1-2.112,2.548q-.114.011-.225.011" transform="translate(-0.807 -0.065)" fill="#202020"/>
      <path id="패스_1030" data-name="패스 1030" d="M15.364,91.647a2.342,2.342,0,0,1-2.331-2.116c-.371-3.888.539-6.9,2.707-8.945,3.385-3.2,8.34-2.562,8.893-2.481a2.358,2.358,0,0,1,.7.221c14.19,7.075,30.217,7.421,40.831.879C75.811,73.26,80.91,61.891,80.91,46.323c0-12.637-3.637-21.7-10.813-26.93-10.774-7.854-27.5-5.555-35.685-2.96-3.611,1.144-6.369.779-8.2-1.09-3.58-3.656-1.189-11.278-.673-12.768A2.343,2.343,0,0,1,29.971,4.1c-1.009,2.942-1.423,6.944-.4,7.982.461.471,1.743.432,3.423-.1A61.977,61.977,0,0,1,50.6,9.322h.148c8.945,0,16.385,2.119,22.117,6.3,8.45,6.161,12.734,16.49,12.734,30.7,0,21.82-9.227,32.087-16.968,36.857C56.762,90.5,39.138,90.295,23.619,82.7c-1.081-.074-3.349.038-4.669,1.3-1.056,1.01-1.477,2.724-1.25,5.1a2.339,2.339,0,0,1-2.112,2.548Q15.475,91.647,15.364,91.647Z" transform="translate(-0.807 -0.065)" fill="#202020" stroke="#fff" stroke-miterlimit="10" stroke-width="1.5"/>
      <path id="패스_1031" data-name="패스 1031" d="M31.952,36.431C25.165,33.322,21.144,27.349,20,18.679a41.612,41.612,0,0,1,.383-12.73,2.344,2.344,0,0,0-4.58-1c-.045.2-3.328,15.812,4.128,27.158-1.924,2.586-5.6,9.473-2.459,21.448-5.3,2.868-20.243,13.3-15.581,37.812a2.344,2.344,0,0,0,4.607-.871C2.552,69.764,14.012,60.853,18.9,58.063c.441,1.187.941,2.414,1.515,3.685a2.343,2.343,0,0,0,4.275-1.918c-6.048-13.4-3.451-20.919-1.666-23.945a24.009,24.009,0,0,0,6.974,4.792,2.338,2.338,0,1,0,1.958-4.247" transform="translate(-0.062 -0.203)" fill="#202020"/>
      <path id="패스_1032" data-name="패스 1032" d="M31.952,36.431C25.165,33.322,21.144,27.349,20,18.679a41.612,41.612,0,0,1,.383-12.73,2.344,2.344,0,0,0-4.58-1c-.045.2-3.328,15.812,4.128,27.158-1.924,2.586-5.6,9.473-2.459,21.448-5.3,2.868-20.243,13.3-15.581,37.812a2.344,2.344,0,0,0,4.607-.871C2.552,69.764,14.012,60.853,18.9,58.063c.441,1.187.941,2.414,1.515,3.685a2.343,2.343,0,0,0,4.275-1.918c-6.048-13.4-3.451-20.919-1.666-23.945a24.009,24.009,0,0,0,6.974,4.792,2.338,2.338,0,1,0,1.958-4.247Z" transform="translate(-0.062 -0.203)" fill="none" stroke="#fff" stroke-miterlimit="10" stroke-width="1.5"/>
      <path id="패스_1033" data-name="패스 1033" d="M71.638,57.145l-.141,0a3.742,3.742,0,0,1-3.609-3.874c.544-14.682-4.971-20.106-5.027-20.158a3.744,3.744,0,1,1,5.046-5.533c.835.758,8.145,7.923,7.476,25.967a3.746,3.746,0,0,1-3.746,3.6" transform="translate(-3.843 -1.731)" fill="#ff6868"/>
      <path id="패스_1035" data-name="패스 1035" d="M71.718,69.634A4.375,4.375,0,1,0,67.343,74a4.369,4.369,0,0,0,4.375-4.362" transform="translate(-3.926 -4.248)" fill="#ff6868"/>
    </g>
  </g>
</svg>
