<svg xmlns="http://www.w3.org/2000/svg" width="95.498" height="95.497" viewBox="0 0 95.498 95.497">
  <g id="ico_prec7" transform="translate(-524.25 -2325.249)">
    <path id="패스_1021" data-name="패스 1021" d="M73.822,66.543H43.913a2.043,2.043,0,0,1,0-4.086H73.822a2.043,2.043,0,0,1,0,4.086" transform="translate(538.085 2336.557)" fill="#0f4a63" stroke="#0f4a63" stroke-width="2"/>
    <path id="패스_1018" data-name="패스 1018" d="M47,94A47,47,0,1,1,94,47a2.61,2.61,0,1,1-5.22,0A41.779,41.779,0,1,0,47,88.777,2.61,2.61,0,0,1,47,94" transform="translate(525 2325.999)" fill="#202020" stroke="#fff" stroke-width="1.5"/>
    <path id="패스_1019" data-name="패스 1019" d="M31.824,53.323a1.891,1.891,0,0,1-1.89-1.89V26.046a1.891,1.891,0,0,1,1.89-1.89H42.336a10.418,10.418,0,1,1,0,20.837H33.714v6.44a1.891,1.891,0,0,1-1.89,1.89m1.89-12.11h8.622a6.638,6.638,0,1,0,0-13.277H33.714Z" transform="translate(534.134 2335.418)" fill="#0f4a63" stroke="#0f4a63" stroke-width="2"/>
    <path id="패스_1020" data-name="패스 1020" d="M66.391,75.011a1.934,1.934,0,0,1-1.368-3.3l9.014-9.014-9.014-9.014a1.934,1.934,0,0,1,2.735-2.735L78.14,61.327a1.934,1.934,0,0,1,0,2.735L67.759,74.444a1.93,1.93,0,0,1-1.368.566" transform="translate(537.3 2338.362)" fill="#0f4a63" stroke="#0f4a63" stroke-width="2"/>
    <rect id="사각형_388" data-name="사각형 388" width="94" height="94" transform="translate(524.998 2325.998)" fill="none"/>
  </g>
</svg>
