<svg width="77" height="74" viewBox="0 0 77 74" fill="none" xmlns="http://www.w3.org/2000/svg">
<rect width="77" height="28" rx="14" fill="#4378B5"/>
<path d="M51 13.5C50.7239 13.5 50.5 13.7239 50.5 14C50.5 14.2761 50.7239 14.5 51 14.5V13.5ZM61.3536 14.3536C61.5488 14.1583 61.5488 13.8417 61.3536 13.6464L58.1716 10.4645C57.9763 10.2692 57.6597 10.2692 57.4645 10.4645C57.2692 10.6597 57.2692 10.9763 57.4645 11.1716L60.2929 14L57.4645 16.8284C57.2692 17.0237 57.2692 17.3403 57.4645 17.5355C57.6597 17.7308 57.9763 17.7308 58.1716 17.5355L61.3536 14.3536ZM51 14V14.5H61V14V13.5H51V14Z" fill="white"/>
<path d="M51 67.5C50.7239 67.5 50.5 67.7239 50.5 68C50.5 68.2761 50.7239 68.5 51 68.5V67.5ZM61.3536 68.3536C61.5488 68.1583 61.5488 67.8417 61.3536 67.6464L58.1716 64.4645C57.9763 64.2692 57.6597 64.2692 57.4645 64.4645C57.2692 64.6597 57.2692 64.9763 57.4645 65.1716L60.2929 68L57.4645 70.8284C57.2692 71.0237 57.2692 71.3403 57.4645 71.5355C57.6597 71.7308 57.9763 71.7308 58.1716 71.5355L61.3536 68.3536ZM51 68V68.5H61V68V67.5H51V68Z" fill="white"/>
<rect y="46" width="77" height="28" rx="14" fill="#4378B5"/>
<path d="M26 59.5C26.2761 59.5 26.5 59.7239 26.5 60C26.5 60.2761 26.2761 60.5 26 60.5V59.5ZM15.6464 60.3536C15.4512 60.1583 15.4512 59.8417 15.6464 59.6464L18.8284 56.4645C19.0237 56.2692 19.3403 56.2692 19.5355 56.4645C19.7308 56.6597 19.7308 56.9763 19.5355 57.1716L16.7071 60L19.5355 62.8284C19.7308 63.0237 19.7308 63.3403 19.5355 63.5355C19.3403 63.7308 19.0237 63.7308 18.8284 63.5355L15.6464 60.3536ZM26 60V60.5H16V60V59.5H26V60Z" fill="white"/>
<path d="M21.0469 8.25C21.7865 8.25 22.4505 8.39583 23.0391 8.6875C23.6276 8.97396 24.0885 9.3776 24.4219 9.89844C24.7604 10.4141 24.9323 11 24.9375 11.6562C24.9323 12.3177 24.7604 12.9089 24.4219 13.4297C24.0885 13.9453 23.6276 14.349 23.0391 14.6406C22.4505 14.9323 21.7865 15.0781 21.0469 15.0781C20.3125 15.0781 19.6484 14.9323 19.0547 14.6406C18.4661 14.349 18.0052 13.9427 17.6719 13.4219C17.3385 12.901 17.1719 12.3125 17.1719 11.6562C17.1719 11 17.3385 10.4141 17.6719 9.89844C18.0104 9.3776 18.474 8.97396 19.0625 8.6875C19.651 8.39583 20.3125 8.25 21.0469 8.25ZM16.5312 17.0312C18.2604 17.0312 19.875 17.0026 21.375 16.9453C22.875 16.8828 24.3021 16.7552 25.6562 16.5625L25.7969 17.8281C24.401 18.0938 22.9766 18.2656 21.5234 18.3438C20.0755 18.4167 18.4844 18.4531 16.75 18.4531L16.5312 17.0312ZM18.8906 11.6562C18.8906 12.0417 18.9818 12.3802 19.1641 12.6719C19.3516 12.9583 19.6094 13.1797 19.9375 13.3359C20.2656 13.487 20.6354 13.5625 21.0469 13.5625C21.4635 13.5625 21.8359 13.487 22.1641 13.3359C22.4974 13.1797 22.7578 12.9583 22.9453 12.6719C23.138 12.3802 23.2344 12.0417 23.2344 11.6562C23.2344 11.2708 23.138 10.9349 22.9453 10.6484C22.7578 10.362 22.4974 10.1406 22.1641 9.98438C21.8359 9.82812 21.4635 9.75 21.0469 9.75C20.6354 9.75 20.2656 9.82812 19.9375 9.98438C19.6094 10.1406 19.3516 10.3646 19.1641 10.6562C18.9818 10.9427 18.8906 11.276 18.8906 11.6562ZM26.5 7.26562H28.2344V21.4062H26.5V7.26562ZM38.5625 12.5625H33.0938V13.9688H38.9062V15.3281H35.8906V17.2812C37.2188 17.2292 38.4167 17.1458 39.4844 17.0312L39.625 18.2969C37.4792 18.6354 34.8932 18.8047 31.8672 18.8047C31.2839 18.8047 30.8542 18.8021 30.5781 18.7969L30.3594 17.3594L31.5703 17.3672C32.4974 17.3672 33.3542 17.3568 34.1406 17.3359V15.3281H31.3438V11.2812H36.8438V9.90625H31.3281V8.53125H38.5625V12.5625ZM40.3281 7.26562H42.0625V21.4062H40.3281V7.26562Z" fill="white"/>
<path d="M45.2344 67.3906H43.5V53.2656H45.2344V67.3906ZM34.1641 63.4688C35.5234 63.4583 36.5573 63.4427 37.2656 63.4219V62.125C36.7396 62.0417 36.2786 61.8828 35.8828 61.6484C35.487 61.4141 35.1797 61.1198 34.9609 60.7656C34.7474 60.4062 34.6406 60.0052 34.6406 59.5625C34.6406 59.0365 34.7865 58.5729 35.0781 58.1719C35.3698 57.7708 35.7786 57.4609 36.3047 57.2422C36.8307 57.0182 37.4323 56.9062 38.1094 56.9062C38.7969 56.9062 39.4062 57.0182 39.9375 57.2422C40.4688 57.4609 40.8828 57.7708 41.1797 58.1719C41.4766 58.5729 41.625 59.0365 41.625 59.5625C41.625 60 41.5156 60.3984 41.2969 60.7578C41.0833 61.112 40.7786 61.4062 40.3828 61.6406C39.987 61.875 39.526 62.0339 39 62.1172V63.3594C40.3125 63.3021 41.5365 63.1979 42.6719 63.0469L42.7969 64.3438C41.4167 64.5781 39.9922 64.7318 38.5234 64.8047C37.0599 64.8724 35.4792 64.9062 33.7812 64.9062L33.5312 63.4688H34.1641ZM33.8281 54.8906H37.2656V53.3125H39V54.8906H42.4219V56.2656H33.8281V54.8906ZM36.2969 59.5625C36.2917 59.9583 36.4531 60.2708 36.7812 60.5C37.1094 60.7292 37.5443 60.8438 38.0859 60.8438C38.6536 60.8438 39.1068 60.7318 39.4453 60.5078C39.7891 60.2786 39.9583 59.9635 39.9531 59.5625C39.9583 59.1562 39.7917 58.8359 39.4531 58.6016C39.1146 58.362 38.6667 58.2396 38.1094 58.2344C37.5625 58.2396 37.1224 58.362 36.7891 58.6016C36.4557 58.8359 36.2917 59.1562 36.2969 59.5625ZM54.5781 60.0938H60.1719V61.4844H47.2969V60.0938H52.8594V58.25H54.5781V60.0938ZM48 57.6875C48.9479 57.5677 49.7865 57.3281 50.5156 56.9688C51.25 56.6042 51.8177 56.1641 52.2188 55.6484C52.625 55.1328 52.8281 54.5938 52.8281 54.0312V53.5H54.5938V54.0312C54.5938 54.6042 54.7943 55.1484 55.1953 55.6641C55.5964 56.1797 56.1641 56.6172 56.8984 56.9766C57.6328 57.3307 58.4792 57.5677 59.4375 57.6875L58.7656 59.0469C57.6094 58.8698 56.5885 58.5312 55.7031 58.0312C54.8177 57.526 54.151 56.9036 53.7031 56.1641C53.25 56.9036 52.5807 57.526 51.6953 58.0312C50.8099 58.5312 49.7865 58.8698 48.625 59.0469L48 57.6875ZM48.7969 64.8906C48.7969 64.3646 48.9922 63.9167 49.3828 63.5469C49.7734 63.1719 50.3359 62.888 51.0703 62.6953C51.8099 62.5026 52.6927 62.4062 53.7188 62.4062C54.7344 62.4062 55.6068 62.5026 56.3359 62.6953C57.0703 62.888 57.6328 63.1719 58.0234 63.5469C58.4141 63.9167 58.6094 64.3646 58.6094 64.8906C58.6094 65.4219 58.4141 65.8724 58.0234 66.2422C57.638 66.612 57.0781 66.8932 56.3438 67.0859C55.6146 67.2786 54.7396 67.375 53.7188 67.375C52.6927 67.375 51.8099 67.2786 51.0703 67.0859C50.3359 66.8932 49.7734 66.612 49.3828 66.2422C48.9922 65.8724 48.7969 65.4219 48.7969 64.8906ZM50.5625 64.8906C50.5573 65.276 50.8203 65.5677 51.3516 65.7656C51.888 65.9635 52.6771 66.0625 53.7188 66.0625C54.7396 66.0625 55.5182 65.9635 56.0547 65.7656C56.5964 65.5677 56.8698 65.276 56.875 64.8906C56.8698 64.5052 56.599 64.2161 56.0625 64.0234C55.526 63.8307 54.7448 63.7344 53.7188 63.7344C52.6771 63.7344 51.888 63.8307 51.3516 64.0234C50.8203 64.2161 50.5573 64.5052 50.5625 64.8906Z" fill="white"/>
</svg>
