<svg width="80" height="80" viewBox="0 0 80 80" fill="none" xmlns="http://www.w3.org/2000/svg">
<rect width="80" height="80" rx="40" fill="#F4F5F9"/>
<path d="M54.0992 26.2002H19.1992V54.8002H65.1992V37.4002L54.0992 26.2002Z" fill="white" stroke="#36435E" stroke-width="1.5" stroke-miterlimit="10" stroke-linecap="round" stroke-linejoin="round"/>
<path d="M48.3008 37.3996H65.2008L59.0008 31.0996H48.3008V37.3996Z" fill="#62B6F5" stroke="#36435E" stroke-width="1.5" stroke-miterlimit="10" stroke-linecap="round" stroke-linejoin="round"/>
<path d="M28.2008 59.7004C30.907 59.7004 33.1008 57.5066 33.1008 54.8004C33.1008 52.0942 30.907 49.9004 28.2008 49.9004C25.4946 49.9004 23.3008 52.0942 23.3008 54.8004C23.3008 57.5066 25.4946 59.7004 28.2008 59.7004Z" fill="#62B6F5" stroke="#36435E" stroke-width="1.5" stroke-miterlimit="10" stroke-linecap="round" stroke-linejoin="round"/>
<path d="M55.9996 59.7004C58.7058 59.7004 60.8996 57.5066 60.8996 54.8004C60.8996 52.0942 58.7058 49.9004 55.9996 49.9004C53.2934 49.9004 51.0996 52.0942 51.0996 54.8004C51.0996 57.5066 53.2934 59.7004 55.9996 59.7004Z" fill="#62B6F5" stroke="#36435E" stroke-width="1.5" stroke-miterlimit="10" stroke-linecap="round" stroke-linejoin="round"/>
<path d="M39.4996 36.8H35.6996V33H31.3996V36.8H27.5996V41H31.3996V44.8H35.6996V41H39.4996V36.8Z" fill="white" stroke="#36435E" stroke-width="1.5" stroke-miterlimit="10" stroke-linecap="round" stroke-linejoin="round"/>
</svg>
