<svg id="icon2" xmlns="http://www.w3.org/2000/svg" xmlns:xlink="http://www.w3.org/1999/xlink" width="160" height="120" viewBox="0 0 160 120">
  <defs>
    <clipPath id="clip-path">
      <rect id="사각형_243" data-name="사각형 243" width="146.841" height="96.174" fill="none"/>
    </clipPath>
  </defs>
  <g id="그룹_358" data-name="그룹 358" transform="translate(6.58 11.913)">
    <path id="패스_272" data-name="패스 272" d="M145.739,59.68c0,.042-.007.086-.014.129s-.02.078-.03.118-.023.093-.04.14-.029.068-.043.1a1.618,1.618,0,0,1-.074.157c-.016.028-.034.056-.05.084a1.924,1.924,0,0,1-.119.177c-.021.028-.044.055-.065.083a2.9,2.9,0,0,1-.2.215c-.025.024-.049.05-.076.073-.042.04-.09.077-.137.114s-.085.071-.131.1-.108.072-.164.108-.113.077-.174.113L65.1,107.258a4.883,4.883,0,0,1-.643.305l-.17.064c-.143.052-.293.093-.443.135s-.294.08-.446.112c-.185.037-.372.073-.562.1-.047.006-.092.014-.138.019-.254.027-.512.04-.771.042H61.81c-.257,0-.513-.016-.767-.042l-.11-.012a7.264,7.264,0,0,1-.745-.128l-.116-.029a6.164,6.164,0,0,1-.65-.2c-.034-.012-.072-.022-.106-.035a5.1,5.1,0,0,1-.7-.331L5.5,76.594A2.3,2.3,0,0,1,4.149,74.7l-.007,2.637A2.294,2.294,0,0,0,5.5,79.228L58.609,109.9a4.9,4.9,0,0,0,.661.315c.012.006.026.009.038.014.036.014.076.024.113.039.134.048.266.1.406.136.074.021.152.037.227.056.045.011.089.023.135.033s.077.021.116.028c.15.031.3.058.455.079.053.008.108.012.161.018l.121.013c.055.006.109.015.164.019q.226.02.452.026c.048,0,.1,0,.145,0h.119c.069,0,.138,0,.207,0q.256-.009.509-.034l.054-.009c.049,0,.1-.013.147-.019.129-.017.258-.032.384-.054.056-.011.107-.029.162-.041.159-.032.311-.072.465-.116.08-.022.164-.034.241-.059s.123-.048.186-.071.12-.044.18-.068a5.069,5.069,0,0,0,.639-.3l79.318-45.863.055-.033c.037-.022.068-.046.1-.069.063-.04.126-.08.184-.123.04-.029.075-.058.111-.088.055-.044.109-.086.159-.131.007-.006.016-.012.024-.019s.025-.029.04-.042a2.715,2.715,0,0,0,.206-.223c.012-.014.027-.027.039-.041s.018-.028.028-.042a1.9,1.9,0,0,0,.113-.169c.014-.021.031-.042.044-.063s.009-.023.016-.034c.027-.05.049-.1.07-.15.011-.027.027-.052.037-.078,0-.008,0-.017.007-.027.016-.046.027-.092.04-.138.008-.03.02-.061.026-.093,0-.009,0-.018,0-.027.007-.044.01-.085.014-.129s.012-.073.013-.108l.007-2.635v-.04c0,.049-.007.1-.012.148" transform="translate(-1.565 -22.501)" fill="#fdb93d"/>
    <path id="패스_273" data-name="패스 273" d="M144.4,37.385c1.8,1.036,1.8,2.719.021,3.756L65.107,87a7.144,7.144,0,0,1-6.485,0L5.508,56.34c-1.8-1.038-1.806-2.72-.021-3.756L84.8,6.72a7.152,7.152,0,0,1,6.485,0Z" transform="translate(-1.57 -2.246)" fill="#fdb93d"/>
    <path id="패스_274" data-name="패스 274" d="M162.022,63.456l0,1.579-65.6,38.033,0-1.579Z" transform="translate(-36.443 -23.984)" fill="#fff"/>
    <path id="패스_275" data-name="패스 275" d="M68.806,108.653l0,1.579L23.349,83.99l0-1.58Z" transform="translate(-8.825 -31.148)" fill="#fff"/>
    <path id="패스_276" data-name="패스 276" d="M134.408,47.51l-65.6,38.033L23.357,59.3l65.6-38.033Z" transform="translate(-8.828 -8.038)" fill="#fff"/>
    <path id="패스_277" data-name="패스 277" d="M155.091,55.49,120.928,35.766l-1.2.7,34.163,19.724Z" transform="translate(-45.252 -13.518)" fill="#aeb0b3"/>
    <path id="패스_278" data-name="패스 278" d="M147.984,60.159,113.82,40.435l-1.2.7,34.163,19.724Z" transform="translate(-42.566 -15.283)" fill="#aeb0b3"/>
    <path id="패스_279" data-name="패스 279" d="M138.957,64.842,104.794,45.118l-1.2.7,34.163,19.724Z" transform="translate(-39.155 -17.053)" fill="#aeb0b3"/>
    <path id="패스_280" data-name="패스 280" d="M131.1,69.929,96.94,50.2l-1.2.7L129.9,70.625Z" transform="translate(-36.186 -18.975)" fill="#aeb0b3"/>
    <path id="패스_281" data-name="패스 281" d="M180.593,36.739c.019-1.769-2.236-3.794-2.876-5.913.007-.021.01-.042.017-.062s.035-.07.05-.106a3.225,3.225,0,0,1,.188-.378c.043-.073.1-.146.149-.218a3.962,3.962,0,0,1,.267-.365c.1-.108.183-.216.267-.322.017-.023.03-.044.049-.066.06-.079.114-.156.169-.232s.1-.144.152-.215.091-.146.135-.219c.032-.052.069-.107.1-.159.011-.019.018-.037.029-.057.026-.047.049-.093.073-.139.041-.083.083-.164.118-.243.023-.051.044-.1.065-.152s.034-.077.047-.114c.007-.019.01-.037.017-.057a3.871,3.871,0,0,0,.154-.534c0-.006,0-.013.006-.019s0-.034.006-.051a3.554,3.554,0,0,0,.052-.451c0-.018.006-.039.006-.057s0-.053,0-.08l.006-2.029c0,.008,0,.018,0,.027a3.942,3.942,0,0,0-2.109-3.213c-.5-.29-4.228-2.232-10.853-.294-7.141,2.089-14.246-3.266-19.249-.358l-.006,2.029,15.723,9.077,15.724,9.078.058-.035c.046-.028.084-.056.128-.084.079-.05.159-.1.23-.151.051-.037.095-.075.142-.111s.123-.1.176-.144a.328.328,0,0,0,.033-.027c.022-.019.036-.04.057-.059a2.8,2.8,0,0,0,.215-.23c.014-.017.033-.033.046-.05s.026-.039.039-.058c.036-.049.069-.1.1-.147.014-.023.034-.046.047-.07s.016-.035.026-.053c.025-.049.047-.1.069-.146.011-.027.027-.052.037-.078s.009-.034.014-.05c.018-.052.031-.1.045-.157.006-.028.017-.055.023-.083,0-.012,0-.026,0-.039a1.927,1.927,0,0,0,.023-.216c0-.024.007-.049.009-.073v-.038l.006-2.028v.016m-5.537-10.79a5.711,5.711,0,0,1-5.178,0,2.621,2.621,0,0,1-.619-.5c.039-.041.068-.084.113-.124a2.764,2.764,0,0,1,.254-.19c.077-.053.142-.111.23-.162a3.994,3.994,0,0,1,.509-.242l.146-.055c.109-.039.224-.07.338-.1s.244-.066.369-.093c.147-.029.3-.057.446-.077.037,0,.072-.011.109-.014.2-.022.412-.033.619-.034h.091c.2,0,.409.014.611.034l.095.011a5.548,5.548,0,0,1,.582.1c.037.008.075.018.113.028a4.578,4.578,0,0,1,.5.151c.033.011.068.021.1.033a4.088,4.088,0,0,1,.557.263,2.642,2.642,0,0,1,.618.5,2.64,2.64,0,0,1-.6.476" transform="translate(-55.796 -7.475)" fill="#c6c8cc"/>
    <path id="패스_282" data-name="패스 282" d="M178.393,27.671c-3.582,4.143,5.684,8.241.68,11.148l-15.723-9.077-15.724-9.078c5-2.907,12.107,2.447,19.248.358,6.625-1.938,10.349,0,10.853.294.625.361,3.989,2.511.664,6.355m-8.517-1.722a5.713,5.713,0,0,0,5.178,0c1.424-.829,1.417-2.172-.017-3a5.713,5.713,0,0,0-5.178,0c-1.424.827-1.417,2.171.017,3" transform="translate(-55.798 -7.475)" fill="#c6c8cc"/>
    <path id="패스_283" data-name="패스 283" d="M196.537,52.18l0,1.385-8.8,5.111,0-1.385Z" transform="translate(-70.957 -19.722)" fill="#ffca28"/>
    <path id="패스_284" data-name="패스 284" d="M166.158,47.936l-.005,1.385L130.634,28.815l0-1.387Z" transform="translate(-49.375 -10.367)" fill="#ffca28"/>
    <path id="패스_285" data-name="패스 285" d="M174.957,39.719l-8.8,5.111L130.641,24.323l8.8-5.111Z" transform="translate(-49.377 -7.261)" fill="#ffca28"/>
    <g id="그룹_271" data-name="그룹 271">
      <g id="그룹_270" data-name="그룹 270" clip-path="url(#clip-path)">
        <path id="패스_293" data-name="패스 293" d="M123.884,71.95c-1.617-2.943-2.59-7.695-.7-10.521l-8.649-4.517L108.848,62.6l4.516,8.649c2.826-1.887,7.576-.914,10.52.7" transform="translate(-41.141 -21.511)" fill="#e0e1e3"/>
        <path id="패스_294" data-name="패스 294" d="M117.079,67.421a1.608,1.608,0,1,1,2.273,0,1.6,1.6,0,0,1-2.273,0" transform="translate(-44.073 -24.445)" fill="#464749"/>
        <rect id="사각형_241" data-name="사각형 241" width="0.446" height="12.163" transform="translate(73.985 41.996) rotate(-45)" fill="#464749"/>
        <path id="패스_295" data-name="패스 295" d="M112.738,53.269c1.173,1.173.437,3.81-1.644,5.891s-4.718,2.817-5.89,1.644-.437-3.81,1.643-5.89,4.718-2.817,5.891-1.645" transform="translate(-39.552 -19.923)" fill="#ffca28"/>
        <rect id="사각형_242" data-name="사각형 242" width="7.731" height="47.242" transform="translate(32.709 5.873) rotate(-45.003)" fill="#ffd07a"/>
        <path id="패스_296" data-name="패스 296" d="M57.805.4c.851.85.318,2.764-1.192,4.274S53.19,6.722,52.339,5.871,52.022,3.107,53.532,1.6,56.955-.446,57.805.4" transform="translate(-19.629 0)" fill="#fdb93d"/>
        <path id="패스_297" data-name="패스 297" d="M111.508,54.107c.851.851.317,2.764-1.192,4.274s-3.424,2.043-4.274,1.193-.317-2.764,1.192-4.275,3.423-2.043,4.274-1.192" transform="translate(-39.927 -20.298)" fill="#fdb93d"/>
        <path id="패스_298" data-name="패스 298" d="M0,133.035c0,5.378,7.958,9.74,17.775,9.74s17.775-4.362,17.775-9.74-7.959-9.74-17.775-9.74S0,127.655,0,133.035" transform="translate(0 -46.601)" fill="#ffe8bf"/>
        <path id="패스_299" data-name="패스 299" d="M31.291,63.717s2.8,24.207-2.914,45.034h-2.1s-.011-23.828-3-34.072c0,0-2.03,25.09-6.178,34.072H15.063s.454-30.228.2-45.034Z" transform="translate(-5.693 -24.083)" fill="#e39f22"/>
        <path id="패스_300" data-name="패스 300" d="M33.089,136.114l-.012,1.494,1.8,1.861,2.4-.757a2.966,2.966,0,0,1-2.111-2.6Z" transform="translate(-12.502 -51.446)" fill="#ffd9c3"/>
        <path id="패스_301" data-name="패스 301" d="M33.081,137.024v2.257a.736.736,0,0,0,.758.84l3.231.019s.845.059.845-.391c0-.69-1.011-1.044-2.168-1.2-1.1-.156-2.407-.7-2.664-1.521" transform="translate(-12.502 -51.79)" fill="#615751"/>
        <path id="패스_302" data-name="패스 302" d="M15.075,136.114l-.012,1.494,1.8,1.861,2.4-.757a2.966,2.966,0,0,1-2.111-2.6Z" transform="translate(-5.693 -51.446)" fill="#ffd9c3"/>
        <path id="패스_303" data-name="패스 303" d="M15.067,137.024v2.257a.736.736,0,0,0,.758.84l3.231.019s.845.059.845-.391c0-.69-1.011-1.044-2.168-1.2-1.1-.156-2.407-.7-2.664-1.521" transform="translate(-5.693 -51.79)" fill="#615751"/>
        <path id="패스_304" data-name="패스 304" d="M14.64,37.41c.368-15.366,8.216-16.424,8.216-16.424s7.853,1.428,8.179,16.287c.171,7.762,1.547,27.351,1.547,27.351s-11.866,2.35-18.639-.234c0,0,.511-19.219.7-26.98" transform="translate(-5.27 -7.932)" fill="#fff"/>
        <path id="패스_305" data-name="패스 305" d="M26.112,18.841h1.666a3,3,0,0,0,1.355,2.267,2.962,2.962,0,0,1-2.2.854,3.184,3.184,0,0,1-2.2-.846,2.994,2.994,0,0,0,1.374-2.275" transform="translate(-9.35 -7.121)" fill="#ffd9c3"/>
        <path id="패스_306" data-name="패스 306" d="M26.268,8.356s4.066,4.973,2.086,6.9c-1.754,1.707-4.726.795-4.726.795L21.577,10.8Z" transform="translate(-8.155 -3.158)" fill="#ffd9c3"/>
        <path id="패스_307" data-name="패스 307" d="M24.655,10.109c-3.889.909-2.571,5.081-2.571,5.081s-5.851-1.043-4.346-5.767c2.295-7.2,13.188-.783,6.917.685" transform="translate(-6.611 -2.294)" fill="#615751"/>
        <path id="패스_308" data-name="패스 308" d="M67.75,15.581a11.834,11.834,0,0,0,1.36-2.428c.23-.832,1.816.913.01,3.634Z" transform="translate(-25.607 -4.892)" fill="#ffd9c3"/>
        <path id="패스_309" data-name="패스 309" d="M52.037,18.4S44.07,33.656,27.993,30.859c0,0-7.889-1.318-4.7-6.409,2.952-4.718,11.826,6.389,27.37-7.266Z" transform="translate(-8.516 -6.495)" fill="#f0f0ff"/>
      </g>
    </g>
    <path id="패스_315" data-name="패스 315" d="M256.519,95.813l-5.114,2.972,5.147,2.973-5.645,3.279-5.147-2.971-5.114,2.971-5.687-3.282,5.114-2.973-5.147-2.971,5.644-3.28,5.148,2.971,5.114-2.971Z" transform="translate(-193.751 -44.443)" fill="#ffe8bf"/>
  </g>
  <rect id="사각형_240" data-name="사각형 240" width="160" height="120" fill="none"/>
</svg>
