<svg width="140" height="140" viewBox="0 0 140 140" fill="none" xmlns="http://www.w3.org/2000/svg">
<g clip-path="url(#clip0_19_427)">
<mask id="mask0_19_427" style="mask-type:luminance" maskUnits="userSpaceOnUse" x="0" y="0" width="140" height="140">
<path d="M140 0H0V140H140V0Z" fill="white"/>
</mask>
<g mask="url(#mask0_19_427)">
<path d="M60.6364 6.24385C63.6637 4.49599 67.0963 3.57212 70.592 3.56432C74.0876 3.55652 77.5243 4.46508 80.5594 6.19942L120.766 29.1739C123.841 30.9307 126.394 33.4724 128.165 36.5391C129.935 39.6058 130.86 43.0876 130.844 46.6287L130.637 92.9362C130.621 96.4317 129.689 99.8621 127.935 102.885C126.18 105.909 123.664 108.419 120.636 110.167L79.9107 133.68C76.8834 135.428 73.4508 136.352 69.9551 136.359C66.4595 136.367 63.0228 135.459 59.9877 133.724L19.7808 110.75C16.7062 108.993 14.1531 106.451 12.3826 103.385C10.612 100.318 9.68741 96.8362 9.70327 93.2951L9.91024 46.9876C9.926 43.492 10.8576 40.0617 12.6123 37.0384C14.367 34.0151 16.8834 31.5045 19.9107 29.7568L60.6364 6.24385Z" fill="white"/>
</g>
<path d="M102.193 86.394C102.193 88.3516 100.48 89.9014 98.3591 89.9014H42.404C40.2832 89.9014 38.5703 88.3516 38.5703 86.394V47.0786C38.5703 45.1209 40.2832 43.5712 42.404 43.5712H98.3591C100.48 43.5712 102.193 45.1209 102.193 47.0786V86.394Z" fill="#BEEAF8" stroke="#3A4851" stroke-width="0.5"/>
<path d="M98.3598 90.4722H42.4046C39.9576 90.4722 38 88.5961 38 86.3938V47.0784C38 44.7945 39.9576 43 42.4046 43H98.3598C100.807 43 102.764 44.876 102.764 47.0784V86.3938C102.764 88.6777 100.807 90.4722 98.3598 90.4722ZM42.4046 44.2235C40.6102 44.2235 39.2235 45.5286 39.2235 47.0784V86.3938C39.2235 87.9436 40.6917 89.2487 42.4046 89.2487H98.3598C100.154 89.2487 101.541 87.9436 101.541 86.3938V47.0784C101.541 45.5286 100.073 44.2235 98.3598 44.2235H42.4046Z" fill="#3A4851" stroke="#3A4851" stroke-width="0.5"/>
<path d="M98.6042 47.0784H42.4043V82.8049H98.6042V47.0784Z" fill="white"/>
<path d="M98.5228 83.3763H42.4045C42.0782 83.3763 41.752 83.1316 41.752 82.7237V47.0788C41.752 46.7525 41.9967 46.4263 42.4045 46.4263H98.6044C98.9306 46.4263 99.2569 46.671 99.2569 47.0788V82.8053C99.1753 83.1316 98.8491 83.3763 98.5228 83.3763ZM42.9755 82.1527H97.9518V47.7313H42.9755V82.1527Z" fill="#3A4851" stroke="#3A4851" stroke-width="0.5"/>
<path d="M86.0438 95.6111H55.293L60.2686 89.9014H81.5576L86.0438 95.6111Z" fill="#BEEAF8" stroke="#3A4851" stroke-width="0.5"/>
<path d="M86.0434 96.2638H55.2925C55.0478 96.2638 54.8031 96.1007 54.7215 95.9375C54.64 95.6928 54.64 95.4481 54.8031 95.285L59.7787 89.4937C59.8603 89.3306 60.105 89.249 60.2681 89.249H81.5572C81.7203 89.249 81.8835 89.3306 82.0466 89.4937L86.4512 95.1219C86.6144 95.2034 86.6959 95.3666 86.6959 95.6113C86.6959 95.9375 86.3697 96.2638 86.0434 96.2638ZM56.5976 95.0403H84.7383L81.2309 90.4725H60.5128L56.5976 95.0403Z" fill="#3A4851" stroke="#3A4851" stroke-width="0.5"/>
<path d="M87.3471 97.0795C87.3471 97.8952 86.6946 98.5478 85.8789 98.5478H54.7202C53.9045 98.5478 53.252 97.8952 53.252 97.0795C53.252 96.2639 53.9045 95.6113 54.7202 95.6113H85.8789C86.6946 95.6113 87.3471 96.2639 87.3471 97.0795Z" fill="#BEEAF8" stroke="#3A4851" stroke-width="0.5"/>
<path d="M85.9611 99.2004H54.7208C53.5789 99.2004 52.6816 98.3032 52.6816 97.1613C52.6816 96.0193 53.5789 95.1221 54.7208 95.1221H85.8795C87.0215 95.1221 87.9187 96.0193 87.9187 97.1613C88.0003 98.2216 87.103 99.2004 85.9611 99.2004ZM54.7208 96.264C54.2314 96.264 53.9052 96.6719 53.9052 97.0797C53.9052 97.5691 54.313 97.8954 54.7208 97.8954H85.8795C86.3689 97.8954 86.6952 97.4875 86.6952 97.0797C86.6952 96.5903 86.2874 96.264 85.8795 96.264H54.7208Z" fill="#3A4851" stroke="#3A4851" stroke-width="0.5"/>
<path d="M71.2799 86.638C71.2799 87.209 70.872 87.6168 70.3011 87.6168C69.7301 87.6168 69.3223 87.209 69.3223 86.638C69.3223 86.067 69.7301 85.6592 70.3011 85.6592C70.872 85.6592 71.2799 86.1486 71.2799 86.638Z" fill="white" stroke="#3A4851" stroke-width="0.5"/>
<path d="M70.3013 88.2695C69.404 88.2695 68.6699 87.5354 68.6699 86.6382C68.6699 85.7409 69.404 85.0068 70.3013 85.0068C71.1985 85.0068 71.9326 85.7409 71.9326 86.6382C71.9326 87.5354 71.1985 88.2695 70.3013 88.2695ZM70.3013 86.3119C70.1381 86.3119 69.8934 86.475 69.8934 86.7198C69.8934 86.8829 70.0566 87.1276 70.3013 87.1276C70.546 87.1276 70.7091 86.9645 70.7091 86.7198C70.7091 86.475 70.546 86.3119 70.3013 86.3119Z" fill="#3A4851" stroke="#3A4851" stroke-width="0.5"/>
<path d="M64.0075 72.8913C61.2806 70.9254 59.5684 67.8814 59.5684 64.4568C59.5684 58.6225 64.6417 53.8662 70.92 53.8662C77.1983 53.8662 82.335 58.6225 82.335 64.4568C82.335 70.2912 77.2617 75.0475 70.9834 75.0475C69.7785 75.0475 68.637 74.8572 67.5589 74.5401C66.0369 76.4426 62.105 75.5548 62.105 75.5548C63.5636 75.3011 63.9441 73.7157 64.0075 72.8913Z" fill="#FE6D33" stroke="#3A4851" stroke-width="0.5"/>
<path d="M64.0735 76.2529C62.932 76.2529 62.0441 76.0626 62.0441 76.0626C61.8539 75.9992 61.6636 75.809 61.6636 75.6187C61.6636 75.3651 61.7905 75.1748 62.0441 75.1748C63.0588 74.9211 63.4393 73.843 63.5661 73.082C60.7758 70.9893 59.127 67.8184 59.127 64.4573C59.127 58.3693 64.454 53.3594 70.9859 53.3594C77.4545 53.3594 82.7815 58.3693 82.7815 64.4573C82.7815 70.5454 77.4545 75.5553 70.9225 75.5553C69.8444 75.5553 68.7029 75.4285 67.6882 75.1114C66.9272 75.8724 65.6589 76.2529 64.0735 76.2529ZM63.5661 75.3016C63.7564 75.3016 63.8832 75.3016 64.0735 75.3016C65.0881 75.3016 66.4833 75.1114 67.1809 74.2235C67.3077 74.0967 67.498 74.0333 67.6882 74.0967C68.7663 74.4138 69.8444 74.5406 70.9859 74.5406C77.0105 74.5406 81.8936 69.9746 81.8936 64.3939C81.8936 58.8132 77.0105 54.2472 70.9859 54.2472C64.9613 54.2472 60.0782 58.8132 60.0782 64.3939C60.0782 67.5648 61.6636 70.482 64.3271 72.3845C64.454 72.5113 64.5174 72.6381 64.5174 72.8284C64.3906 73.5894 64.2003 74.6041 63.5661 75.3016Z" fill="#3A4851" stroke="#3A4851" stroke-width="0.5"/>
<path d="M75.4392 62.8055H72.427V59.8574H69.479V62.8055H66.4668V65.8177H69.479V68.8298H72.427V65.8177H75.4392V62.8055Z" fill="white" stroke="#3A4851" stroke-width="0.5"/>
</g>
<defs>
<clipPath id="clip0_19_427">
<rect width="140" height="140" fill="white"/>
</clipPath>
</defs>
</svg>
