<svg id="icon3" xmlns="http://www.w3.org/2000/svg" xmlns:xlink="http://www.w3.org/1999/xlink" width="120" height="120" viewBox="0 0 120 120">
  <defs>
    <clipPath id="clip-path">
      <rect id="사각형_217" data-name="사각형 217" width="15.514" height="17.176" fill="none"/>
    </clipPath>
  </defs>
  <g id="그룹_357" data-name="그룹 357" transform="translate(0 8.747)">
    <rect id="사각형_209" data-name="사각형 209" width="8.308" height="18.001" transform="translate(30.914 46.301)" fill="#fff"/>
    <rect id="사각형_210" data-name="사각형 210" width="4.155" height="33.233" transform="translate(10.644 68.84)" fill="#ffd07a"/>
    <rect id="사각형_211" data-name="사각형 211" width="4.154" height="33.233" transform="translate(27.26 68.84)" fill="#ffd07a"/>
    <path id="패스_192" data-name="패스 192" d="M9.332,65.41h-1.6a4.048,4.048,0,0,1-4.047-4.047v-37.6a4.048,4.048,0,0,1,4.047-4.047h1.6a4.048,4.048,0,0,1,4.047,4.047v37.6A4.048,4.048,0,0,1,9.332,65.41" transform="translate(1.418 7.584)" fill="#ffd07a"/>
    <path id="패스_193" data-name="패스 193" d="M29.435,56.562H8.4a4.716,4.716,0,0,1-4.715-4.715V47.43A4.716,4.716,0,0,1,8.4,42.715H29.435A4.715,4.715,0,0,1,34.15,47.43v4.417a4.715,4.715,0,0,1-4.715,4.715" transform="translate(1.418 16.432)" fill="#fdb93d"/>
    <path id="패스_194" data-name="패스 194" d="M50.828,75.944l-8.7-.241-8.7-.242.089-3.207.089-3.206,5.5.152,5.5.152a6.416,6.416,0,0,1,6.235,6.591" transform="translate(12.857 26.562)" fill="#ffe2ac"/>
    <path id="패스_195" data-name="패스 195" d="M45.616,78.485l-6.275-.123-6.277-.123.269-13.7.269-13.7A5.6,5.6,0,0,1,39.31,45.36l.677.012.68.014a5.6,5.6,0,0,1,5.488,5.708l-.271,13.695Z" transform="translate(12.719 17.449)" fill="#d99319"/>
    <path id="패스_196" data-name="패스 196" d="M51.817,54.784a6.57,6.57,0,0,1-8,4.722L33.054,56.736l-.18-.042-7.6-1.952-3.337-.859a5.584,5.584,0,0,1-4.029-6.813l.235-.942.249-.955a5.6,5.6,0,0,1,2.576-3.42,5.533,5.533,0,0,1,4.237-.6l.069.014,7.782,2.008,3.088.789L47.095,46.78a6.57,6.57,0,0,1,4.722,8" transform="translate(6.819 15.764)" fill="#d99319"/>
    <path id="패스_197" data-name="패스 197" d="M44.828,75.944l-8.7-.241-8.7-.242.089-3.207.089-3.206,5.5.152,5.5.152a6.416,6.416,0,0,1,6.235,6.591" transform="translate(10.548 26.562)" fill="#fff1d8"/>
    <path id="패스_198" data-name="패스 198" d="M28.635,52.313H16.582a4.973,4.973,0,0,1-4.972-4.972v-7.86h22v7.86a4.973,4.973,0,0,1-4.972,4.972" transform="translate(4.466 15.188)" fill="#e39f22"/>
    <path id="패스_199" data-name="패스 199" d="M45.819,54.78h0a6.573,6.573,0,0,1-8,4.729L26.875,56.7,15.931,53.881A5.6,5.6,0,0,1,11.9,47.066l.242-.942.242-.943A5.6,5.6,0,0,1,19.2,41.153l10.943,2.814L41.09,46.779a6.573,6.573,0,0,1,4.729,8" transform="translate(4.511 15.763)" fill="#e39f22"/>
    <path id="패스_200" data-name="패스 200" d="M39.616,78.485l-6.275-.123-6.275-.123.269-13.7.269-13.7A5.6,5.6,0,0,1,33.31,45.36l.677.012.68.014a5.6,5.6,0,0,1,5.488,5.708l-.271,13.695Z" transform="translate(10.412 17.449)" fill="#e39f22"/>
    <path id="패스_201" data-name="패스 201" d="M42.765,34.1H23.379a.692.692,0,1,1,0-1.385H42.765a.692.692,0,1,1,0,1.385" transform="translate(8.727 12.585)" fill="#fff" fill-rule="evenodd"/>
    <path id="패스_202" data-name="패스 202" d="M47.8,28.887h0A4.176,4.176,0,0,1,44.72,33.93l-4.061.983L36.6,35.9l-4.06.983-4.061.983a4.178,4.178,0,1,1-1.966-8.121l4.061-.982,4.06-.983,4.06-.983,4.061-.983A4.173,4.173,0,0,1,47.8,28.887" transform="translate(8.97 9.884)" fill="#f0f0ff"/>
    <path id="패스_203" data-name="패스 203" d="M41.893,28.058l1.448-.386,1.447-.386,1.448-.386,1.447-.386a1.2,1.2,0,0,0,.728-.558,1.223,1.223,0,0,0,.15-.433,1.18,1.18,0,0,0-.029-.475,1.2,1.2,0,0,0-.558-.728,1.223,1.223,0,0,0-.433-.15,1.178,1.178,0,0,0-.475.029l-1.448.386-1.447.386-1.448.386-1.447.386a1.2,1.2,0,0,0-.728.558,1.222,1.222,0,0,0-.15.433,1.178,1.178,0,0,0,.029.475,1.2,1.2,0,0,0,.991.878,1.18,1.18,0,0,0,.475-.029" transform="translate(15.536 9.293)" fill="#ffd9c3"/>
    <path id="패스_204" data-name="패스 204" d="M41.346,27.875l.577-.478.577-.478.577-.479.577-.478a1.19,1.19,0,0,0,.3-.37,1.194,1.194,0,0,0,.084-.9,1.187,1.187,0,0,0-.224-.42,1.2,1.2,0,0,0-.81-.429,1.224,1.224,0,0,0-.458.046,1.194,1.194,0,0,0-.418.224l-.577.479-.577.478-.577.478-.577.478a1.2,1.2,0,0,0,1.527,1.846" transform="translate(15.151 9.172)" fill="#ffd9c3"/>
    <path id="패스_205" data-name="패스 205" d="M42.444,28.74l1.447-.386,1.448-.386,1.447-.386,1.448-.386a1.209,1.209,0,0,0,.426-.212,1.2,1.2,0,0,0,.451-.78,1.2,1.2,0,0,0-.587-1.2,1.223,1.223,0,0,0-.433-.15,1.178,1.178,0,0,0-.475.029l-1.448.386-1.447.386-1.448.386-1.447.386a1.2,1.2,0,0,0-.426.212,1.182,1.182,0,0,0-.3.346,1.223,1.223,0,0,0-.15.433,1.178,1.178,0,0,0,.029.475,1.2,1.2,0,0,0,.21.426,1.207,1.207,0,0,0,.781.451,1.18,1.18,0,0,0,.475-.029" transform="translate(15.748 9.555)" fill="#ffd9c3"/>
    <path id="패스_206" data-name="패스 206" d="M42.267,29.755l1.448-.386,1.447-.386,1.447-.386,1.448-.386A1.209,1.209,0,0,0,48.484,28a1.2,1.2,0,0,0,.451-.78,1.2,1.2,0,0,0-.587-1.2,1.223,1.223,0,0,0-.433-.15,1.178,1.178,0,0,0-.475.029l-1.448.386-1.447.386-1.448.386-1.447.386a1.2,1.2,0,0,0-.728.558,1.222,1.222,0,0,0-.15.433,1.178,1.178,0,0,0,.029.475,1.2,1.2,0,0,0,.212.426,1.165,1.165,0,0,0,.346.3,1.2,1.2,0,0,0,.908.12" transform="translate(15.68 9.946)" fill="#ffd9c3"/>
    <path id="패스_207" data-name="패스 207" d="M42.113,30.764l1.448-.386,1.447-.386,1.448-.386,1.447-.386a1.2,1.2,0,0,0,.878-.991,1.18,1.18,0,0,0-.029-.475,1.2,1.2,0,0,0-.558-.728,1.223,1.223,0,0,0-.433-.15,1.2,1.2,0,0,0-.475.029l-1.448.386-1.447.386-1.448.386-1.447.386a1.2,1.2,0,0,0-.728.558,1.223,1.223,0,0,0-.15.433,1.178,1.178,0,0,0,.029.475,1.2,1.2,0,0,0,.991.878,1.18,1.18,0,0,0,.475-.029" transform="translate(15.62 10.334)" fill="#ffd9c3"/>
    <path id="패스_208" data-name="패스 208" d="M37.751,29.825h0a3.149,3.149,0,0,0,2.6,2.3,3.15,3.15,0,0,0,1.245-.076l1.266-.338,1.267-.339,1.268-.338,1.266-.338-.4-1.518-.406-1.518-.314-1.176-.313-1.177a.7.7,0,0,0-.864-.5l-.925.248-.926.246-1.266.338-1.268.338a3.1,3.1,0,0,0-1.116.554,3.129,3.129,0,0,0-1.184,2.047,3.1,3.1,0,0,0,.076,1.245" transform="translate(14.481 9.535)" fill="#ffd9c3"/>
    <path id="패스_209" data-name="패스 209" d="M47.037,27.244l-1.012.27-1.014.27L44,28.055l-1.014.27" transform="translate(16.536 10.481)" fill="none" stroke="#f0beb2" stroke-linecap="round" stroke-width="0.5"/>
    <path id="패스_210" data-name="패스 210" d="M46.967,26.143l-1.012.27-1.014.27-1.012.271-1.012.27" transform="translate(16.509 10.057)" fill="none" stroke="#f0beb2" stroke-linecap="round" stroke-width="0.5"/>
    <path id="패스_211" data-name="패스 211" d="M46.649,24.95l-1.012.27-1.014.27-1.012.271-1.014.27" transform="translate(16.386 9.598)" fill="none" stroke="#f0beb2" stroke-linecap="round" stroke-width="0.5"/>
    <path id="패스_212" data-name="패스 212" d="M41.362,29.48a3.337,3.337,0,0,0,.377-1.076,2.4,2.4,0,0,0-.636-2.135" transform="translate(15.812 10.106)" fill="none" stroke="#f0beb2" stroke-linecap="round" stroke-width="0.5"/>
    <path id="패스_213" data-name="패스 213" d="M33.554,37.781h0a3.812,3.812,0,0,0,.708-.334,3.894,3.894,0,0,0,.609-.454,3.781,3.781,0,0,0,.5-.554,3.85,3.85,0,0,0,.382-.636,3.9,3.9,0,0,0,.255-.7,3.854,3.854,0,0,0,.116-.737,3.772,3.772,0,0,0-.029-.759,3.828,3.828,0,0,0-.186-.76l-.644-1.822-.644-1.822-.645-1.821-.644-1.822-.644-1.822-.644-1.821L31.4,20.1l-.644-1.822a4.044,4.044,0,0,0-.334-.708,3.826,3.826,0,0,0-1.009-1.109,3.858,3.858,0,0,0-1.332-.636,3.763,3.763,0,0,0-.738-.118,3.88,3.88,0,0,0-.759.029,3.894,3.894,0,0,0-1.468.519,3.894,3.894,0,0,0-.609.454,3.791,3.791,0,0,0-.5.555,3.857,3.857,0,0,0-.753,2.069,3.789,3.789,0,0,0,.029.76,3.876,3.876,0,0,0,.186.76l.644,1.822.644,1.821.645,1.822.644,1.821.644,1.822.644,1.822.644,1.821.644,1.822a3.951,3.951,0,0,0,.334.708,3.894,3.894,0,0,0,.454.609,3.791,3.791,0,0,0,.555.5,3.856,3.856,0,0,0,2.07.753,3.775,3.775,0,0,0,.759-.029,3.876,3.876,0,0,0,.76-.186" transform="translate(8.943 6.039)" fill="#f0f0ff"/>
    <path id="패스_214" data-name="패스 214" d="M34.989,25.189V49.85H11.006V25.189a12.565,12.565,0,0,1,.18-2.063,11.44,11.44,0,0,1,.526-1.939,11.166,11.166,0,0,1,.817-1.8,13.526,13.526,0,0,1,1.108-1.634,14.5,14.5,0,0,1,1.357-1.412,11.851,11.851,0,0,1,1.565-1.177,10.6,10.6,0,0,1,1.759-.914,11.415,11.415,0,0,1,1.911-.623,2.835,2.835,0,0,1,.332-.069c.125-.028.235-.055.346-.069a2.584,2.584,0,0,1,.346-.055l.332-.042.36-.042c.111-.014.222-.014.346-.028s.235-.014.346-.014H23c.208,0,.415,0,.609.014l.6.042c.208.028.4.042.6.083s.388.055.582.1l.582.125c.18.055.374.111.554.166s.374.111.554.18l.54.208a1.962,1.962,0,0,1,.249.111l.291.125c.18.083.36.166.526.263s.346.194.512.291.332.208.485.3.332.222.485.346.3.222.457.346.291.249.443.374.277.263.415.4c.277.277.526.554.775.845a11.3,11.3,0,0,1,.692.914c.208.318.415.637.6.983a9.039,9.039,0,0,1,.512,1.039c.152.346.277.72.4,1.094a9.726,9.726,0,0,1,.291,1.135,10.957,10.957,0,0,1,.18,1.177,11.758,11.758,0,0,1,.069,1.219" transform="translate(4.234 5.12)" fill="#ffe8bf"/>
    <path id="패스_215" data-name="패스 215" d="M19.707,34.825l.634.629.634.627.622-.627.622-.629V17.238H19.707V34.825Z" transform="translate(7.581 6.632)" fill="#fdb93d"/>
    <path id="패스_216" data-name="패스 216" d="M20.741,18.658l-.282-.2-.281-.2-.282-.2-.282-.2a.6.6,0,0,1-.219-.3.6.6,0,0,1-.029-.184.635.635,0,0,1,.029-.188l.108-.332.108-.331.108-.331.108-.332a.556.556,0,0,1,.086-.169.593.593,0,0,1,.132-.132.627.627,0,0,1,.166-.084.571.571,0,0,1,.188-.03h1.394a.571.571,0,0,1,.188.03.607.607,0,0,1,.166.084.612.612,0,0,1,.219.3l.107.332.108.331.108.331.108.332a.635.635,0,0,1,.029.188.6.6,0,0,1-.029.184.607.607,0,0,1-.084.166.618.618,0,0,1-.134.134l-.282.2-.281.2-.282.2-.282.2a.548.548,0,0,1-.17.086.593.593,0,0,1-.367,0,.564.564,0,0,1-.17-.086" transform="translate(7.45 5.933)" fill="#fdb93d"/>
    <path id="패스_217" data-name="패스 217" d="M21.793,16.543a8.571,8.571,0,0,1-1.653-.208,6.831,6.831,0,0,1-1.507-.533,6.164,6.164,0,0,1-1.325-.885,6.522,6.522,0,0,1-1.1-1.263,5.942,5.942,0,0,1-.587-1.116,7.31,7.31,0,0,1-.357-1.187,10.425,10.425,0,0,1-.181-1.234c-.036-.415-.054-.836-.061-1.259C15.014,8.477,15,8.1,15,7.721s0-.751.018-1.123a8.772,8.772,0,0,1,.126-1.109,6.38,6.38,0,0,1,.3-1.1A6.971,6.971,0,0,1,16.448,2.57a6.737,6.737,0,0,1,1.465-1.4A6.469,6.469,0,0,1,19.731.277,6.366,6.366,0,0,1,21.793,0,6.364,6.364,0,0,1,27.1,2.5a7.255,7.255,0,0,1,1.292,2.677,7.61,7.61,0,0,1,.122,3.1,7.6,7.6,0,0,1-.123,3.095A7.234,7.234,0,0,1,27.1,14.045a6.35,6.35,0,0,1-5.3,2.5" transform="translate(5.769 0)" fill="#615751"/>
    <path id="패스_218" data-name="패스 218" d="M21.94,18.1h-.781l-.126,0c-.042,0-.083-.006-.123-.011l-.123-.015c-.04-.007-.08-.015-.119-.024s-.08-.018-.119-.028-.078-.022-.115-.035-.076-.026-.114-.04-.075-.03-.111-.047-.073-.033-.108-.051-.072-.036-.105-.055l-.1-.062-.1-.066-.1-.072c-.032-.025-.062-.05-.093-.076s-.06-.053-.089-.08-.057-.055-.084-.084-.054-.06-.08-.09-.053-.061-.078-.093-.048-.064-.072-.1-.046-.066-.068-.1-.043-.069-.064-.105-.04-.071-.058-.107-.037-.073-.054-.111-.033-.075-.05-.114-.029-.078-.043-.116-.026-.079-.039-.119-.022-.08-.033-.122-.018-.082-.026-.123-.015-.084-.022-.127-.011-.084-.015-.127-.007-.087-.01-.13,0-.089,0-.133v-4.5c0-.044,0-.089,0-.133s.006-.087.01-.13.01-.086.015-.127.014-.084.022-.126.017-.083.026-.125.021-.082.033-.122.025-.08.039-.119.028-.078.043-.116.032-.076.05-.114.035-.075.054-.111.037-.072.058-.107.042-.071.064-.105.044-.066.068-.1.047-.065.072-.1.051-.062.078-.093.053-.061.08-.09.057-.057.084-.084.06-.054.089-.08.061-.051.093-.076l.1-.072.1-.066c.033-.021.068-.042.1-.061s.069-.039.105-.057.071-.036.108-.051.073-.032.111-.046.075-.029.114-.042.076-.024.115-.033.079-.021.119-.029.079-.017.119-.024l.123-.015c.04,0,.082-.008.123-.01s.083,0,.126,0h.781c.042,0,.084,0,.126,0s.083.006.123.01l.123.015c.04.007.08.015.119.024s.08.018.119.029.078.021.115.033.076.026.114.042.075.029.111.046.073.033.108.051.071.036.105.057.069.04.1.061l.1.066.1.072c.03.025.062.05.093.076s.06.053.087.08.058.055.086.084.054.06.08.09.051.061.078.093.048.064.072.1.046.066.068.1.043.069.064.105.04.071.058.107.037.073.054.111.033.075.05.114.029.078.043.116.026.079.039.119l.033.122c.01.042.018.082.026.125s.015.083.022.126.011.084.015.127.007.087.01.13,0,.089,0,.133v4.5c0,.044,0,.089,0,.133s-.006.087-.01.13-.01.086-.015.127-.014.084-.022.127-.017.083-.026.123l-.033.122c-.012.04-.025.08-.039.119s-.028.078-.043.116-.032.076-.05.114-.035.075-.054.111-.037.072-.058.107-.042.071-.064.105-.044.066-.068.1-.048.065-.072.1-.051.062-.078.093-.053.061-.08.09-.057.057-.086.084-.058.054-.087.08-.062.051-.093.076l-.1.072-.1.066-.1.062c-.035.019-.069.037-.105.055s-.071.036-.108.051-.073.032-.111.047-.075.028-.114.04-.076.024-.115.035-.079.019-.119.028-.079.017-.119.024l-.123.015c-.04.006-.082.008-.123.011l-.126,0" transform="translate(7.2 3.258)" fill="#f3cbb9"/>
    <path id="패스_219" data-name="패스 219" d="M23.105,16.747a6.222,6.222,0,0,1-2.779-.7,5.2,5.2,0,0,1-1.865-1.695,6.654,6.654,0,0,1-.978-2.412A9.435,9.435,0,0,1,17.371,9.1a9.437,9.437,0,0,1,.112-2.843,6.654,6.654,0,0,1,.978-2.412,5.2,5.2,0,0,1,1.867-1.7,5.905,5.905,0,0,1,5.557,0,5.189,5.189,0,0,1,1.865,1.695,6.654,6.654,0,0,1,.978,2.412A9.433,9.433,0,0,1,28.839,9.1a9.436,9.436,0,0,1-.112,2.843,6.654,6.654,0,0,1-.978,2.412,5.209,5.209,0,0,1-1.867,1.7,6.221,6.221,0,0,1-2.778.694" transform="translate(6.66 0.561)" fill="#ffd9c3"/>
    <path id="패스_220" data-name="패스 220" d="M20.27,13.3V65.656H10.536V25.093a11.956,11.956,0,0,1,.72-4.051,12.186,12.186,0,0,1,2.022-3.493,12.655,12.655,0,0,1,3.074-2.67A12.944,12.944,0,0,1,20.27,13.3" transform="translate(4.053 5.116)" fill="#fff"/>
    <path id="패스_221" data-name="패스 221" d="M30.307,24.9V53.359H23.176V14.048l.291.125c.18.083.36.166.526.263s.346.194.512.291.332.208.485.3.332.222.485.346.3.222.457.346.291.249.443.374.277.263.415.4c.277.277.526.554.775.845a11.3,11.3,0,0,1,.692.914c.208.318.415.637.6.983a9.038,9.038,0,0,1,.512,1.039c.152.346.277.72.4,1.094a9.727,9.727,0,0,1,.291,1.135,10.957,10.957,0,0,1,.18,1.177,11.758,11.758,0,0,1,.069,1.219" transform="translate(8.915 5.404)" fill="#fff"/>
    <path id="패스_222" data-name="패스 222" d="M18.577,12.738l.875.9.875.9.874.9.875.9-.449.8-.447.806-.449.8-.447.806-.877-1.278-.877-1.278-.877-1.278-.877-1.279.45-.428.449-.429.45-.428Z" transform="translate(6.454 4.9)" fill="#ffe8bf"/>
    <path id="패스_223" data-name="패스 223" d="M24.1,12.738l-.875.9-.875.9-.874.9-.875.9.449.8.447.806.449.8.447.806.877-1.278.877-1.278.877-1.278.877-1.279-.45-.428L25,13.6l-.45-.428Z" transform="translate(7.926 4.9)" fill="#ffe8bf"/>
    <path id="패스_224" data-name="패스 224" d="M19.605,6.642a1.923,1.923,0,0,1-1.174,1.771,1.931,1.931,0,0,1-1.5,0,1.923,1.923,0,0,1,0-3.542,1.931,1.931,0,0,1,1.5,0,1.921,1.921,0,0,1,1.174,1.771" transform="translate(6.063 1.816)" fill="#615751"/>
    <path id="패스_225" data-name="패스 225" d="M18.209,10.377l-.1,0c-.035,0-.069,0-.1-.008s-.068-.007-.1-.012-.068-.011-.1-.018-.066-.014-.1-.022l-.1-.028c-.032-.01-.064-.021-.094-.032s-.062-.024-.093-.036l-.089-.04c-.03-.014-.06-.029-.087-.044s-.057-.032-.084-.05-.055-.033-.083-.053L17,9.976c-.026-.019-.051-.04-.076-.061s-.05-.042-.073-.064-.047-.043-.071-.066-.046-.046-.066-.071-.043-.048-.064-.073-.04-.05-.061-.076-.037-.053-.055-.079S16.5,9.431,16.48,9.4l-.05-.086c-.015-.028-.03-.057-.044-.086s-.028-.06-.04-.09-.025-.061-.036-.093-.022-.062-.032-.093-.019-.064-.028-.1-.015-.065-.022-.1-.012-.066-.018-.1-.01-.068-.012-.1-.007-.069-.008-.1,0-.069,0-.1,0-.069,0-.1,0-.069.008-.1.007-.068.012-.1.011-.066.018-.1.014-.066.022-.1.018-.064.028-.1.021-.064.032-.094.024-.062.036-.091.026-.061.04-.09.029-.058.044-.087l.05-.084c.017-.028.035-.055.053-.083s.036-.053.055-.079.04-.051.061-.076.042-.05.064-.073.044-.047.066-.071l.071-.066c.024-.022.048-.043.073-.064s.05-.04.076-.06l.079-.057.083-.053c.028-.017.055-.033.084-.048s.057-.03.087-.046l.089-.04c.03-.012.061-.025.093-.036s.062-.022.094-.032l.1-.028c.032-.008.065-.015.1-.022s.065-.012.1-.018l.1-.012c.033,0,.068-.006.1-.008l.1,0" transform="translate(6.227 2.436)" fill="#ffd9c3"/>
    <path id="패스_226" data-name="패스 226" d="M16.985,6.77h8.294A4.269,4.269,0,0,0,29.548,2.5V2.209a1.3,1.3,0,0,0-1.3-1.3H20.138A3.153,3.153,0,0,0,16.985,4.06V6.77Z" transform="translate(6.534 0.349)" fill="#615751"/>
    <path id="패스_227" data-name="패스 227" d="M9.642,41.154h0a4.174,4.174,0,0,1-2.653-5.278L8.3,31.908l1.314-3.966,1.313-3.966,1.313-3.966a4.178,4.178,0,1,1,7.933,2.627L18.86,26.6l-1.313,3.966-1.313,3.966L14.921,38.5a4.113,4.113,0,0,1-.823,1.44,4.173,4.173,0,0,1-4.456,1.213" transform="translate(2.606 6.596)" fill="#f0f0ff"/>
    <path id="패스_228" data-name="패스 228" d="M6.108,19.826h0A3.593,3.593,0,0,0,3.884,24.4l1.174,3.4,1.176,3.4,1.174,3.4,1.174,3.4a3.591,3.591,0,0,0,4.574,2.222,3.56,3.56,0,0,0,1.23-.724,3.592,3.592,0,0,0,.994-3.848l-1.176-3.4-1.174-3.4-1.174-3.4-1.176-3.4a3.594,3.594,0,0,0-4.572-2.222" transform="translate(1.418 7.551)" fill="#f0f0ff"/>
    <path id="패스_229" data-name="패스 229" d="M5.874,20.974l-.965-1.145-.967-1.147-.965-1.145L2.012,16.39a1.2,1.2,0,0,1-.278-.874,1.223,1.223,0,0,1,.126-.442,1.187,1.187,0,0,1,.3-.372,1.209,1.209,0,0,1,.417-.228,1.205,1.205,0,0,1,.9.078,1.2,1.2,0,0,1,.372.295l.965,1.147.965,1.145.967,1.147.965,1.145a1.2,1.2,0,0,1,.152,1.315,1.207,1.207,0,0,1-.3.372,1.2,1.2,0,0,1-1.315.152,1.207,1.207,0,0,1-.372-.3" transform="translate(0.665 5.548)" fill="#ffd9c3"/>
    <path id="패스_230" data-name="패스 230" d="M5.634,20.582l-.2-.723-.2-.723-.2-.721-.2-.723a1.181,1.181,0,0,1-.033-.475,1.223,1.223,0,0,1,.145-.435,1.2,1.2,0,0,1,.3-.349,1.187,1.187,0,0,1,.425-.216,1.227,1.227,0,0,1,.474-.033,1.211,1.211,0,0,1,.785.444,1.231,1.231,0,0,1,.215.425l.2.723.2.723.2.721.2.723a1.181,1.181,0,0,1,.033.475,1.2,1.2,0,0,1-.147.435,1.179,1.179,0,0,1-.3.349,1.2,1.2,0,0,1-.425.216,1.228,1.228,0,0,1-.474.033,1.194,1.194,0,0,1-1-.87" transform="translate(1.843 6.222)" fill="#ffd9c3"/>
    <path id="패스_231" data-name="패스 231" d="M5.032,21.217l-.965-1.145L3.1,18.925,2.136,17.78,1.17,16.633a1.2,1.2,0,0,1-.278-.874,1.215,1.215,0,0,1,.126-.442,1.2,1.2,0,0,1,1.612-.523A1.2,1.2,0,0,1,3,15.089l.965,1.147.965,1.145L5.9,18.526l.965,1.147a1.187,1.187,0,0,1,.228.417,1.2,1.2,0,0,1-.076.9,1.207,1.207,0,0,1-.3.372,1.2,1.2,0,0,1-1.315.152,1.207,1.207,0,0,1-.372-.3" transform="translate(0.341 5.641)" fill="#ffd9c3"/>
    <path id="패스_232" data-name="패스 232" d="M4.6,22.151l-.965-1.145-.967-1.147L1.7,18.714.734,17.567a1.2,1.2,0,0,1-.278-.874,1.215,1.215,0,0,1,.126-.442,1.187,1.187,0,0,1,.3-.372,1.21,1.21,0,0,1,.417-.228,1.205,1.205,0,0,1,.9.078,1.2,1.2,0,0,1,.372.295l.965,1.147L4.5,18.315l.967,1.147.965,1.145a1.2,1.2,0,0,1,.152,1.315,1.207,1.207,0,0,1-.3.372,1.2,1.2,0,0,1-1.315.152,1.207,1.207,0,0,1-.372-.3" transform="translate(0.174 6)" fill="#ffd9c3"/>
    <path id="패스_233" data-name="패스 233" d="M4.144,23.066,3.179,21.92l-.967-1.147-.965-1.145L.282,18.482A1.2,1.2,0,0,1,0,17.608a1.215,1.215,0,0,1,.126-.442,1.187,1.187,0,0,1,.3-.372,1.209,1.209,0,0,1,.417-.228,1.205,1.205,0,0,1,.9.078,1.2,1.2,0,0,1,.372.295l.965,1.147.965,1.145.967,1.147.965,1.145a1.2,1.2,0,0,1,.152,1.315,1.207,1.207,0,0,1-.3.372,1.2,1.2,0,0,1-1.315.152,1.207,1.207,0,0,1-.372-.3" transform="translate(0 6.352)" fill="#ffd9c3"/>
    <path id="패스_234" data-name="패스 234" d="M9.139,24.754h0a3.138,3.138,0,0,1-1.094.6,3.151,3.151,0,0,1-2.355-.2,3.134,3.134,0,0,1-.978-.777l-.845-1-.845-1-.845-1-.845-1,1.2-1.012,1.2-1.012.932-.784.931-.785a.706.706,0,0,1,.994.084l.618.732.618.734.845,1,.846,1a3.139,3.139,0,0,1-.378,4.425" transform="translate(0.513 6.389)" fill="#ffd9c3"/>
    <path id="패스_235" data-name="패스 235" d="M.931,16.832l.676.8.676.8.674.8.676.8" transform="translate(0.358 6.475)" fill="none" stroke="#f0beb2" stroke-linecap="round" stroke-width="0.5"/>
    <path id="패스_236" data-name="패스 236" d="M1.618,15.97l.676.8.676.8.676.8.674.8" transform="translate(0.622 6.144)" fill="none" stroke="#f0beb2" stroke-linecap="round" stroke-width="0.5"/>
    <path id="패스_237" data-name="패스 237" d="M2.563,15.174l.676.8.676.8.676.8.674.8" transform="translate(0.986 5.838)" fill="none" stroke="#f0beb2" stroke-linecap="round" stroke-width="0.5"/>
    <path id="패스_238" data-name="패스 238" d="M3.95,21.271a3.358,3.358,0,0,1,.307-1.1A2.4,2.4,0,0,1,6,18.787" transform="translate(1.519 7.228)" fill="none" stroke="#f0beb2" stroke-linecap="round" stroke-width="0.5"/>
    <path id="패스_239" data-name="패스 239" d="M69.152,37.869H13.764a2.077,2.077,0,1,1,0-4.154H69.152a2.077,2.077,0,0,1,0,4.154" transform="translate(4.496 12.97)" fill="#fdb93d"/>
    <rect id="사각형_212" data-name="사각형 212" width="4.154" height="52.618" transform="translate(43.877 49.454)" fill="#fdb93d"/>
    <path id="패스_240" data-name="패스 240" d="M55.358,75.944l8.7-.241,8.7-.242-.089-3.207-.089-3.206-5.5.152-5.5.152a6.416,6.416,0,0,0-6.235,6.591" transform="translate(21.295 26.562)" fill="#524847"/>
    <path id="패스_241" data-name="패스 241" d="M59.371,78.485l6.275-.123,6.275-.123-.269-13.7-.269-13.7a5.6,5.6,0,0,0-5.708-5.486L65,45.373l-.678.014a5.6,5.6,0,0,0-5.488,5.708l.27,13.695Z" transform="translate(22.632 17.449)" fill="#e1d6c3"/>
    <rect id="사각형_213" data-name="사각형 213" width="4.154" height="33.233" transform="translate(110.307 68.84)" fill="#ffd07a"/>
    <rect id="사각형_214" data-name="사각형 214" width="4.154" height="33.233" transform="translate(93.691 68.84)" fill="#ffd07a"/>
    <path id="패스_242" data-name="패스 242" d="M69.377,56.562H90.409a4.716,4.716,0,0,0,4.716-4.715V47.43a4.716,4.716,0,0,0-4.716-4.715H69.377a4.715,4.715,0,0,0-4.715,4.715v4.417a4.715,4.715,0,0,0,4.715,4.715" transform="translate(24.875 16.432)" fill="#fdb93d"/>
    <path id="패스_243" data-name="패스 243" d="M54.722,52.5h0a7.963,7.963,0,0,0,2.512,4.153,4.23,4.23,0,0,0,3.75,1.022l7.955-2.045,7.955-2.044a3.608,3.608,0,0,0,2.378-2.3,6.775,6.775,0,0,0,.169-4.131l-.242-.943-.242-.943a6.777,6.777,0,0,0-2.139-3.537,3.606,3.606,0,0,0-3.2-.871L65.667,42.9l-7.955,2.045A4.234,4.234,0,0,0,54.92,47.65a7.952,7.952,0,0,0-.2,4.848" transform="translate(20.943 15.68)" fill="#b6b6c5"/>
    <path id="패스_244" data-name="패스 244" d="M46.358,75.944l8.7-.241,8.7-.242-.089-3.207-.089-3.206-5.5.152-5.5.152a6.416,6.416,0,0,0-6.235,6.591" transform="translate(17.832 26.562)" fill="#615751"/>
    <path id="패스_245" data-name="패스 245" d="M67.825,52.313H79.878a4.971,4.971,0,0,0,4.971-4.972v-7.86h-22v7.86a4.973,4.973,0,0,0,4.972,4.972" transform="translate(24.179 15.188)" fill="#e8e8ed"/>
    <path id="패스_246" data-name="패스 246" d="M50.06,54.78h0a6.573,6.573,0,0,0,8,4.729L69,56.7l10.943-2.814a5.6,5.6,0,0,0,4.028-6.815l-.242-.942-.242-.943a5.6,5.6,0,0,0-6.815-4.028L65.732,43.967,54.789,46.779a6.573,6.573,0,0,0-4.729,8" transform="translate(19.177 15.763)" fill="#f2ede4"/>
    <path id="패스_247" data-name="패스 247" d="M50.371,78.485l6.275-.123,6.275-.123-.269-13.7-.269-13.7a5.6,5.6,0,0,0-5.708-5.486L56,45.373l-.678.014a5.6,5.6,0,0,0-5.488,5.708l.27,13.695Z" transform="translate(19.169 17.449)" fill="#f2ede4"/>
    <path id="패스_248" data-name="패스 248" d="M71.757,17.681a6.615,6.615,0,0,0,6.792-7.313c0-.838,0-1.775,0-2.613.262-8.984-13.847-8.982-13.584,0,0,.838,0,1.775,0,2.613a6.616,6.616,0,0,0,6.792,7.313" transform="translate(24.975 0.392)" fill="#c6c8cc"/>
    <path id="패스_249" data-name="패스 249" d="M69.419,19.487h.795a2.6,2.6,0,0,0,.5-.05,2.537,2.537,0,0,0,.467-.145,2.469,2.469,0,0,0,.421-.228,2.51,2.51,0,0,0,.368-.3,2.665,2.665,0,0,0,.3-.368,2.431,2.431,0,0,0,.228-.422,2.4,2.4,0,0,0,.145-.467,2.468,2.468,0,0,0,.05-.5V12.64a2.492,2.492,0,0,0-.05-.5,2.51,2.51,0,0,0-.374-.888,2.473,2.473,0,0,0-.672-.672,2.469,2.469,0,0,0-.421-.228,2.435,2.435,0,0,0-.467-.145,2.492,2.492,0,0,0-.5-.05h-.795a2.492,2.492,0,0,0-.5.05,2.511,2.511,0,0,0-.888.374,2.585,2.585,0,0,0-.368.3,2.509,2.509,0,0,0-.3.368,2.51,2.51,0,0,0-.374.888,2.492,2.492,0,0,0-.05.5V17a2.468,2.468,0,0,0,.05.5,2.4,2.4,0,0,0,.145.467,2.432,2.432,0,0,0,.228.422,2.663,2.663,0,0,0,.3.368,2.585,2.585,0,0,0,.368.3,2.429,2.429,0,0,0,.422.228,2.522,2.522,0,0,0,.465.145,2.6,2.6,0,0,0,.5.05" transform="translate(25.749 3.907)" fill="#f3cbb9"/>
    <path id="패스_250" data-name="패스 250" d="M75.727,8.855v3.89a5.764,5.764,0,0,1-.119,1.174,5.83,5.83,0,0,1-.341,1.1,5.751,5.751,0,0,1-.539.99,5.635,5.635,0,0,1-.712.865,5.836,5.836,0,0,1-.863.712,6.018,6.018,0,0,1-.993.539,5.573,5.573,0,0,1-1.094.338,5.869,5.869,0,0,1-2.353,0,5.718,5.718,0,0,1-1.1-.338,5.939,5.939,0,0,1-1.854-1.25,5.8,5.8,0,0,1-.712-.865,5.582,5.582,0,0,1-.39-.672c-.053-.1-.1-.21-.148-.318a5.6,5.6,0,0,1-.327-1.05.29.29,0,0,1-.011-.047,5.764,5.764,0,0,1-.119-1.174V8.855a5.8,5.8,0,0,1,1-3.264,5.829,5.829,0,0,1,3.663-2.454,5.824,5.824,0,0,1,3.447.341,5.9,5.9,0,0,1,.993.536,5.923,5.923,0,0,1,1.574,1.577,5.625,5.625,0,0,1,.539.993,5.8,5.8,0,0,1,.46,2.271" transform="translate(24.642 1.161)" fill="#ffd9c3"/>
    <path id="패스_251" data-name="패스 251" d="M66.376,10.7l.206.309.2.309.206.309.206.309.2.309.206.309.206.309.2.309" transform="translate(25.534 4.115)" fill="none" stroke="#f0beb2" stroke-linecap="round" stroke-width="0.75"/>
    <path id="패스_252" data-name="패스 252" d="M74.375,6H65.043a1.7,1.7,0,0,1,0-3.394h9.331a1.7,1.7,0,0,1,1.2,2.9,1.676,1.676,0,0,1-.539.364,1.7,1.7,0,0,1-.66.133" transform="translate(24.369 1.004)" fill="#c6c8cc"/>
    <path id="패스_253" data-name="패스 253" d="M68.609,3.709a2.107,2.107,0,0,1-.622,1.5,2.118,2.118,0,0,1-2.325.454,2.113,2.113,0,0,1-.674-.454,2.159,2.159,0,0,1-.454-.674,2.132,2.132,0,0,1,0-1.651,2.159,2.159,0,0,1,.454-.674,2.121,2.121,0,0,1,2.326-.454,2.092,2.092,0,0,1,.673.454,2.107,2.107,0,0,1,.622,1.5" transform="translate(24.762 0.611)" fill="#c6c8cc"/>
    <path id="패스_254" data-name="패스 254" d="M71.005,6.474a1.99,1.99,0,0,1-.156.777,2.026,2.026,0,0,1-.428.634,1.994,1.994,0,1,1,0-2.822,2.026,2.026,0,0,1,.428.634,1.99,1.99,0,0,1,.156.777" transform="translate(25.781 1.723)" fill="#c6c8cc"/>
    <path id="패스_255" data-name="패스 255" d="M72.3,16.031h0a4.013,4.013,0,0,1-4.014-4.013V4.368h7.178v8.5A3.165,3.165,0,0,1,72.3,16.031" transform="translate(26.269 1.68)" fill="#c6c8cc"/>
    <path id="패스_256" data-name="패스 256" d="M67.652,10.669a2.032,2.032,0,0,0,.8-.162,2.073,2.073,0,0,0,.349-.19,2.037,2.037,0,0,0,.3-.251,2.215,2.215,0,0,0,.252-.3,2.132,2.132,0,0,0,.19-.35,2.018,2.018,0,0,0,.119-.386,2.025,2.025,0,0,0,0-.829,2.018,2.018,0,0,0-.119-.386,2.04,2.04,0,0,0-.442-.655,2.037,2.037,0,0,0-.3-.251,1.979,1.979,0,0,0-.349-.19,2.032,2.032,0,0,0-.8-.162" transform="translate(26.025 2.521)" fill="#ffd9c3"/>
    <path id="패스_257" data-name="패스 257" d="M62.38,25.64V49.164H85.032V25.64A11.326,11.326,0,0,0,76.32,14.62a11.149,11.149,0,0,0-1.284-.228,11.758,11.758,0,0,0-1.331-.076,11.289,11.289,0,0,0-4.355.871A11.177,11.177,0,0,0,67.4,16.237a11.38,11.38,0,0,0-4.125,4.995,11.294,11.294,0,0,0-.892,4.409" transform="translate(23.997 5.507)" fill="#fdb93d"/>
    <path id="패스_258" data-name="패스 258" d="M60.947,38.813l2.17-18.247a4.05,4.05,0,0,1,8.044.957L68.989,39.77a4.05,4.05,0,0,1-8.042-.957" transform="translate(23.434 6.537)" fill="#d99319"/>
    <path id="패스_259" data-name="패스 259" d="M71.743,65.41H89.911a4.048,4.048,0,0,0,4.047-4.047v-37.6a4.048,4.048,0,0,0-4.047-4.047H71.743A4.048,4.048,0,0,0,67.7,23.762v37.6a4.048,4.048,0,0,0,4.047,4.047" transform="translate(26.042 7.584)" fill="#ffd07a"/>
    <path id="패스_260" data-name="패스 260" d="M58.364,44.886l-.576.414-.576.414-.576.415-.576.414a1.136,1.136,0,0,1-1.253.047,1.115,1.115,0,0,1-.33-.306,1.127,1.127,0,0,1-.2-.845,1.119,1.119,0,0,1,.15-.408,1.138,1.138,0,0,1,.307-.33l.576-.414.576-.415.576-.414.576-.414A1.137,1.137,0,0,1,58.293,43a1.115,1.115,0,0,1,.33.306,1.123,1.123,0,0,1,.2.845,1.129,1.129,0,0,1-.457.738" transform="translate(20.875 16.477)" fill="#ffdbc5"/>
    <path id="패스_261" data-name="패스 261" d="M54.49,42.955,54.5,43l.008.04a1.286,1.286,0,0,0,1.515,1.007l1.955-.393,1.955-.395a1.288,1.288,0,0,0,1.007-1.516l-.008-.04-.007-.039a1.287,1.287,0,0,0-1.516-1.008l-1.955.395-1.954.393a1.287,1.287,0,0,0-1.008,1.516" transform="translate(20.952 15.629)" fill="#ffdbc5"/>
    <path id="패스_262" data-name="패스 262" d="M51.7,46.677l.025.032.024.033a1.287,1.287,0,0,0,1.8.248l2.1-1.6,2.1-1.6A1.285,1.285,0,0,0,58,42l-.024-.032-.025-.032a1.284,1.284,0,0,0-1.8-.248l-2.1,1.6-2.1,1.6a1.287,1.287,0,0,0-.248,1.8" transform="translate(19.786 15.935)" fill="#ffdbc5"/>
    <path id="패스_263" data-name="패스 263" d="M54.983,44.157l.014.086.014.087a2.764,2.764,0,0,0,3.158,2.3l.791-.125.791-.123a2.766,2.766,0,0,0,2.3-3.16l-.014-.086-.014-.086a2.763,2.763,0,0,0-3.158-2.3l-.791.125L57.286,41a2.766,2.766,0,0,0-2.3,3.16" transform="translate(21.139 15.663)" fill="#ffdbc5"/>
    <path id="패스_264" data-name="패스 264" d="M62.652,32l-4.9,11.924a4.117,4.117,0,0,0,7.616,3.131l4.9-11.925A4.116,4.116,0,1,0,62.652,32" transform="translate(22.096 11.329)" fill="#d99319"/>
    <rect id="사각형_216" data-name="사각형 216" width="15.514" height="17.176" transform="translate(52.243 1.685)" fill="#fdb93d"/>
    <path id="패스_265" data-name="패스 265" d="M8.507.278V5.221L6.075,7.654l.294.295L8.715,5.6l2.346,2.346.294-.295L8.923,5.221V.278Z" transform="translate(51.285 1.64)" fill="#d99319"/>
    <g id="그룹_255" data-name="그룹 255" transform="translate(52.243 1.685)">
      <g id="그룹_254" data-name="그룹 254" clip-path="url(#clip-path)">
        <path id="패스_266" data-name="패스 266" d="M5.426,4.849,2.665,7a2.217,2.217,0,0,0-.856,1.75v1.686a2.217,2.217,0,0,0,3.99,1.33l.554-.739A2.221,2.221,0,0,0,6.8,9.694V5.519a.848.848,0,0,0-1.369-.67" transform="translate(-0.285 -0.737)" fill="#e39f22"/>
        <path id="패스_267" data-name="패스 267" d="M12.388,4.849,15.15,7a2.217,2.217,0,0,1,.856,1.75v1.686a2.217,2.217,0,0,1-3.99,1.33l-.554-.739a2.221,2.221,0,0,1-.443-1.33V5.519a.848.848,0,0,1,1.369-.67" transform="translate(-1.739 -0.737)" fill="#e39f22"/>
        <path id="패스_268" data-name="패스 268" d="M7.428,16.23H2.441a.139.139,0,0,1,0-.277H7.428a.139.139,0,0,1,0,.277" transform="translate(-0.363 -2.517)" fill="#d99319"/>
        <path id="패스_269" data-name="패스 269" d="M7.428,17.546H2.441a.139.139,0,0,1,0-.277H7.428a.139.139,0,0,1,0,.277" transform="translate(-0.363 -2.725)" fill="#d99319"/>
      </g>
    </g>
  </g>
  <rect id="사각형_215" data-name="사각형 215" width="120" height="120" fill="none"/>
</svg>
