<svg width="120" height="120" viewBox="0 0 120 120" fill="none" xmlns="http://www.w3.org/2000/svg">
<path d="M0 60C0 26.8629 26.8629 0 60 0V0C93.1371 0 120 26.8629 120 60V60C120 93.1371 93.1371 120 60 120V120C26.8629 120 0 93.1371 0 60V60Z" fill="#F4F5F9"/>
<path d="M43.7152 45.6754L39.8803 53.9844L32.7076 58.3875C31.2162 59.3107 30.293 60.9441 30.293 62.7195V72.2359H39.8803H88.8823V46.8117C88.8823 44.6101 87.1069 42.7637 84.8343 42.7637H48.3314C46.3429 42.7637 44.5675 43.8999 43.7152 45.6754Z" fill="white" stroke="#3A4851" stroke-width="1.5" stroke-miterlimit="10" stroke-linecap="round" stroke-linejoin="round"/>
<path d="M48.3303 47.0244H54.4378V53.9841H44.5664L47.5491 47.5215C47.7622 47.1664 48.0463 47.0244 48.3303 47.0244Z" fill="#BEEAF8" stroke="#3A4851" stroke-width="1.5" stroke-miterlimit="10" stroke-linecap="round" stroke-linejoin="round"/>
<path d="M70.5584 47.0244H61.3262V53.9841H70.5584V47.0244Z" fill="#BEEAF8" stroke="#3A4851" stroke-width="1.5" stroke-miterlimit="10" stroke-linecap="round" stroke-linejoin="round"/>
<path d="M83.91 47.0244H74.6777V53.9841H83.91V47.0244Z" fill="#BEEAF8" stroke="#3A4851" stroke-width="1.5" stroke-miterlimit="10" stroke-linecap="round" stroke-linejoin="round"/>
<path d="M61.2572 39H50.8887V42.7639H61.2572V39Z" fill="#BEEAF8" stroke="#3A4851" stroke-width="1.5" stroke-miterlimit="10" stroke-linecap="round" stroke-linejoin="round"/>
<path d="M41.5824 80.9001C45.6222 80.9001 48.8972 77.6251 48.8972 73.5853C48.8972 69.5454 45.6222 66.2705 41.5824 66.2705C37.5425 66.2705 34.2676 69.5454 34.2676 73.5853C34.2676 77.6251 37.5425 80.9001 41.5824 80.9001Z" fill="#BEEAF8" stroke="#3A4851" stroke-width="1.5" stroke-miterlimit="10" stroke-linecap="round" stroke-linejoin="round"/>
<path d="M41.584 76.1418C42.996 76.1418 44.1406 74.9972 44.1406 73.5852C44.1406 72.1732 42.996 71.0286 41.584 71.0286C40.172 71.0286 39.0273 72.1732 39.0273 73.5852C39.0273 74.9972 40.172 76.1418 41.584 76.1418Z" fill="white" stroke="#3A4851" stroke-width="1.5" stroke-miterlimit="10" stroke-linecap="round" stroke-linejoin="round"/>
<path d="M77.8031 80.8998C81.8429 80.8998 85.1179 77.6249 85.1179 73.5851C85.1179 69.5452 81.8429 66.2703 77.8031 66.2703C73.7632 66.2703 70.4883 69.5452 70.4883 73.5851C70.4883 77.6249 73.7632 80.8998 77.8031 80.8998Z" fill="#BEEAF8" stroke="#3A4851" stroke-width="1.5" stroke-miterlimit="10" stroke-linecap="round" stroke-linejoin="round"/>
<path d="M77.8047 76.1416C79.2167 76.1416 80.3613 74.9969 80.3613 73.5849C80.3613 72.173 79.2167 71.0283 77.8047 71.0283C76.3927 71.0283 75.248 72.173 75.248 73.5849C75.248 74.9969 76.3927 76.1416 77.8047 76.1416Z" fill="white" stroke="#3A4851" stroke-width="1.5" stroke-miterlimit="10" stroke-linecap="round" stroke-linejoin="round"/>
<path d="M62.8191 60.5896H59.7653V57.4648H56.4275V60.5896H53.3027V63.9274H56.4275V66.9812H59.7653V63.9274H62.8191V60.5896Z" fill="#FE6D33"/>
</svg>
