<svg width="120" height="120" viewBox="0 0 120 120" fill="none" xmlns="http://www.w3.org/2000/svg">
<path d="M0 60C0 26.8629 26.8629 0 60 0V0C93.1371 0 120 26.8629 120 60V60C120 93.1371 93.1371 120 60 120V120C26.8629 120 0 93.1371 0 60V60Z" fill="#F4F5F9"/>
<path d="M85.3046 83.7938H33.4786C32.7043 83.7938 32.0332 83.1744 32.0332 82.3485V49.1055C32.0332 48.3312 32.6526 47.6602 33.4786 47.6602H85.3046C86.0789 47.6602 86.7499 48.2796 86.7499 49.1055V82.3485C86.7499 83.1228 86.1305 83.7938 85.3046 83.7938Z" fill="#BEEAF8"/>
<path d="M83.9109 81.7291H32.8075C32.3945 81.7291 32.0332 81.3677 32.0332 80.9548V49.1055C32.0332 48.3312 32.6526 47.6602 33.4786 47.6602H83.9109C84.3238 47.6602 84.6851 48.0215 84.6851 48.4344V80.9032C84.6851 81.3677 84.3238 81.7291 83.9109 81.7291Z" fill="#BEEAF8"/>
<path d="M52.6801 47.1436H34.6133V84.3096H52.6801V47.1436Z" fill="#BEEAF8"/>
<path d="M48.0354 86.3738H39.2601C38.1245 86.3738 37.1953 85.4446 37.1953 84.309V47.1429C37.1953 46.0073 38.1245 45.0781 39.2601 45.0781H48.0354C49.171 45.0781 50.1002 46.0073 50.1002 47.1429V84.2574C50.1002 85.4446 49.171 86.3738 48.0354 86.3738Z" fill="#BEEAF8"/>
<path d="M77.4575 51.2734H59.3906V57.984H77.4575V51.2734Z" fill="#74AAFF"/>
<path d="M77.4558 52.8223H60.9375V57.9842H77.4558V52.8223Z" fill="#74AAFF"/>
<path d="M60.4242 65.7272C61.5645 65.7272 62.4889 64.8028 62.4889 63.6624C62.4889 62.5221 61.5645 61.5977 60.4242 61.5977C59.2838 61.5977 58.3594 62.5221 58.3594 63.6624C58.3594 64.8028 59.2838 65.7272 60.4242 65.7272Z" fill="white"/>
<path d="M68.682 65.727C69.8223 65.727 70.7468 64.8025 70.7468 63.6622C70.7468 62.5218 69.8223 61.5974 68.682 61.5974C67.5416 61.5974 66.6172 62.5218 66.6172 63.6622C66.6172 64.8025 67.5416 65.727 68.682 65.727Z" fill="white"/>
<path d="M76.9417 65.7272C78.0821 65.7272 79.0065 64.8028 79.0065 63.6624C79.0065 62.5221 78.0821 61.5977 76.9417 61.5977C75.8014 61.5977 74.877 62.5221 74.877 63.6624C74.877 64.8028 75.8014 65.7272 76.9417 65.7272Z" fill="white"/>
<path d="M60.4242 72.9538C61.5645 72.9538 62.4889 72.0293 62.4889 70.889C62.4889 69.7487 61.5645 68.8242 60.4242 68.8242C59.2838 68.8242 58.3594 69.7487 58.3594 70.889C58.3594 72.0293 59.2838 72.9538 60.4242 72.9538Z" fill="white"/>
<path d="M68.682 72.9535C69.8223 72.9535 70.7468 72.0291 70.7468 70.8888C70.7468 69.7484 69.8223 68.824 68.682 68.824C67.5416 68.824 66.6172 69.7484 66.6172 70.8888C66.6172 72.0291 67.5416 72.9535 68.682 72.9535Z" fill="white"/>
<path d="M76.9417 72.9538C78.0821 72.9538 79.0065 72.0293 79.0065 70.889C79.0065 69.7487 78.0821 68.8242 76.9417 68.8242C75.8014 68.8242 74.877 69.7487 74.877 70.889C74.877 72.0293 75.8014 72.9538 76.9417 72.9538Z" fill="white"/>
<path d="M60.4242 80.1803C61.5645 80.1803 62.4889 79.2559 62.4889 78.1156C62.4889 76.9752 61.5645 76.0508 60.4242 76.0508C59.2838 76.0508 58.3594 76.9752 58.3594 78.1156C58.3594 79.2559 59.2838 80.1803 60.4242 80.1803Z" fill="white"/>
<path d="M68.682 80.1803C69.8223 80.1803 70.7468 79.2559 70.7468 78.1156C70.7468 76.9752 69.8223 76.0508 68.682 76.0508C67.5416 76.0508 66.6172 76.9752 66.6172 78.1156C66.6172 79.2559 67.5416 80.1803 68.682 80.1803Z" fill="white"/>
<path d="M76.9417 80.1803C78.0821 80.1803 79.0065 79.2559 79.0065 78.1156C79.0065 76.9752 78.0821 76.0508 76.9417 76.0508C75.8014 76.0508 74.877 76.9752 74.877 78.1156C74.877 79.2559 75.8014 80.1803 76.9417 80.1803Z" fill="white"/>
<path d="M82.1031 36.8203H54.2285V47.1442H82.1031V36.8203Z" fill="#DCE6F6"/>
<path d="M80.5545 36.8203H54.2285V45.5956H80.5545V36.8203Z" fill="white"/>
<path d="M79.264 42.4978H77.7154V40.9492H79.264V42.4978ZM76.1668 42.4978H74.6182V40.9492H76.1668V42.4978ZM73.0696 42.4978H71.521V40.9492H73.0696V42.4978ZM69.9724 42.4978H68.4239V40.9492H69.9724V42.4978ZM66.8753 42.4978H65.3267V40.9492H66.8753V42.4978ZM63.7781 42.4978H62.2295V40.9492H63.7781V42.4978ZM60.6809 42.4978H59.1323V40.9492H60.6809V42.4978ZM57.5837 42.4978H56.0352V40.9492H57.5837V42.4978Z" fill="#D5E1EF"/>
<path d="M60.4228 66.243C58.9774 66.243 57.8418 65.1074 57.8418 63.662C57.8418 62.2167 58.9774 61.0811 60.4228 61.0811C61.8681 61.0811 63.0038 62.2167 63.0038 63.662C63.0038 65.0558 61.8681 66.243 60.4228 66.243ZM60.4228 62.1134C59.5452 62.1134 58.8742 62.7845 58.8742 63.662C58.8742 64.5396 59.5452 65.2106 60.4228 65.2106C61.3003 65.2106 61.9714 64.5396 61.9714 63.662C61.9714 62.7845 61.3003 62.1134 60.4228 62.1134Z" fill="#3A4851"/>
<path d="M68.6806 66.243C67.2352 66.243 66.0996 65.1074 66.0996 63.662C66.0996 62.2167 67.2352 61.0811 68.6806 61.0811C70.1259 61.0811 71.2616 62.2167 71.2616 63.662C71.2616 65.0558 70.1259 66.243 68.6806 66.243ZM68.6806 62.1134C67.8031 62.1134 67.132 62.7845 67.132 63.662C67.132 64.5396 67.8031 65.2106 68.6806 65.2106C69.5581 65.2106 70.2292 64.5396 70.2292 63.662C70.2292 62.7845 69.5581 62.1134 68.6806 62.1134Z" fill="#3A4851"/>
<path d="M76.9404 66.243C75.495 66.243 74.3594 65.1074 74.3594 63.662C74.3594 62.2167 75.495 61.0811 76.9404 61.0811C78.3857 61.0811 79.5213 62.2167 79.5213 63.662C79.5213 65.0558 78.3857 66.243 76.9404 66.243ZM76.9404 62.1134C76.0628 62.1134 75.3918 62.7845 75.3918 63.662C75.3918 64.5396 76.0628 65.2106 76.9404 65.2106C77.8179 65.2106 78.4889 64.5396 78.4889 63.662C78.4889 62.7845 77.8179 62.1134 76.9404 62.1134Z" fill="#3A4851"/>
<path d="M60.4228 73.4696C58.9774 73.4696 57.8418 72.3339 57.8418 70.8886C57.8418 69.4432 58.9774 68.3076 60.4228 68.3076C61.8681 68.3076 63.0038 69.4432 63.0038 70.8886C63.0038 72.3339 61.8681 73.4696 60.4228 73.4696ZM60.4228 69.34C59.5452 69.34 58.8742 70.0111 58.8742 70.8886C58.8742 71.7661 59.5452 72.4372 60.4228 72.4372C61.3003 72.4372 61.9714 71.7661 61.9714 70.8886C61.9714 70.0111 61.3003 69.34 60.4228 69.34Z" fill="#3A4851"/>
<path d="M68.6806 73.4696C67.2352 73.4696 66.0996 72.3339 66.0996 70.8886C66.0996 69.4432 67.2352 68.3076 68.6806 68.3076C70.1259 68.3076 71.2616 69.4432 71.2616 70.8886C71.2616 72.3339 70.1259 73.4696 68.6806 73.4696ZM68.6806 69.34C67.8031 69.34 67.132 70.0111 67.132 70.8886C67.132 71.7661 67.8031 72.4372 68.6806 72.4372C69.5581 72.4372 70.2292 71.7661 70.2292 70.8886C70.2292 70.0111 69.5581 69.34 68.6806 69.34Z" fill="#3A4851"/>
<path d="M76.9404 73.4696C75.495 73.4696 74.3594 72.3339 74.3594 70.8886C74.3594 69.4432 75.495 68.3076 76.9404 68.3076C78.3857 68.3076 79.5213 69.4432 79.5213 70.8886C79.5213 72.3339 78.3857 73.4696 76.9404 73.4696ZM76.9404 69.34C76.0628 69.34 75.3918 70.0111 75.3918 70.8886C75.3918 71.7661 76.0628 72.4372 76.9404 72.4372C77.8179 72.4372 78.4889 71.7661 78.4889 70.8886C78.4889 70.0111 77.8179 69.34 76.9404 69.34Z" fill="#3A4851"/>
<path d="M60.4228 80.6961C58.9774 80.6961 57.8418 79.5605 57.8418 78.1152C57.8418 76.6698 58.9774 75.5342 60.4228 75.5342C61.8681 75.5342 63.0038 76.6698 63.0038 78.1152C63.0038 79.5605 61.8681 80.6961 60.4228 80.6961ZM60.4228 76.5666C59.5452 76.5666 58.8742 77.2376 58.8742 78.1152C58.8742 78.9927 59.5452 79.6637 60.4228 79.6637C61.3003 79.6637 61.9714 78.9927 61.9714 78.1152C61.9714 77.2376 61.3003 76.5666 60.4228 76.5666Z" fill="#3A4851"/>
<path d="M68.6806 80.6961C67.2352 80.6961 66.0996 79.5605 66.0996 78.1152C66.0996 76.6698 67.2352 75.5342 68.6806 75.5342C70.1259 75.5342 71.2616 76.6698 71.2616 78.1152C71.2616 79.5605 70.1259 80.6961 68.6806 80.6961ZM68.6806 76.5666C67.8031 76.5666 67.132 77.2376 67.132 78.1152C67.132 78.9927 67.8031 79.6637 68.6806 79.6637C69.5581 79.6637 70.2292 78.9927 70.2292 78.1152C70.2292 77.2376 69.5581 76.5666 68.6806 76.5666Z" fill="#3A4851"/>
<path d="M76.9404 80.6961C75.495 80.6961 74.3594 79.5605 74.3594 78.1152C74.3594 76.6698 75.495 75.5342 76.9404 75.5342C78.3857 75.5342 79.5213 76.6698 79.5213 78.1152C79.5213 79.5605 78.3857 80.6961 76.9404 80.6961ZM76.9404 76.5666C76.0628 76.5666 75.3918 77.2376 75.3918 78.1152C75.3918 78.9927 76.0628 79.6637 76.9404 79.6637C77.8179 79.6637 78.4889 78.9927 78.4889 78.1152C78.4889 77.2376 77.8179 76.5666 76.9404 76.5666Z" fill="#3A4851"/>
<path d="M36.4201 84.8264H33.4777C32.084 84.8264 31 83.6908 31 82.3487V49.1057C31 47.7119 32.1356 46.6279 33.4777 46.6279H36.4201C36.833 46.6279 37.1943 46.9893 37.1943 47.4022C37.1943 47.8152 36.833 48.1765 36.4201 48.1765H33.4777C32.9615 48.1765 32.5486 48.5895 32.5486 49.1057V82.297C32.5486 82.8132 32.9615 83.2262 33.4777 83.2262H36.4201C36.833 83.2262 37.1943 83.5875 37.1943 84.0005C37.1943 84.4134 36.833 84.8264 36.4201 84.8264Z" fill="#3A4851"/>
<path d="M85.3041 84.8264H50.8739C50.4609 84.8264 50.0996 84.4651 50.0996 84.0521C50.0996 83.6391 50.4609 83.2778 50.8739 83.2778H85.3041C85.8203 83.2778 86.2333 82.8649 86.2333 82.3487V49.1057C86.2333 48.5895 85.8203 48.1765 85.3041 48.1765H50.8739C50.4609 48.1765 50.0996 47.8152 50.0996 47.4022C50.0996 46.9893 50.4609 46.6279 50.8739 46.6279H85.3041C86.6979 46.6279 87.7819 47.7636 87.7819 49.1057V82.297C87.7819 83.6908 86.6463 84.8264 85.3041 84.8264Z" fill="#3A4851"/>
<path d="M47.8281 87.4063H39.4658C37.6075 87.4063 36.1621 85.9094 36.1621 84.1027V47.3496C36.1621 45.4912 37.6591 44.0459 39.4658 44.0459H47.7765C49.6348 44.0459 51.0802 45.5429 51.0802 47.3496V84.1027C51.1318 85.9094 49.6348 87.4063 47.8281 87.4063ZM39.4658 45.5945C38.485 45.5945 37.7107 46.3688 37.7107 47.3496V84.1027C37.7107 85.0834 38.485 85.8577 39.4658 85.8577H47.7765C48.7573 85.8577 49.5316 85.0834 49.5316 84.1027V47.3496C49.5316 46.3688 48.7573 45.5945 47.7765 45.5945H39.4658Z" fill="#3A4851"/>
<path d="M82.1036 47.66H54.2291C53.9194 47.66 53.7129 47.4535 53.7129 47.1438V36.8199C53.7129 36.5102 53.9194 36.3037 54.2291 36.3037H82.1036C82.4134 36.3037 82.6198 36.5102 82.6198 36.8199V47.1438C82.6198 47.4019 82.4134 47.66 82.1036 47.66ZM54.7453 46.6276H81.5875V37.3361H54.7453V46.6276Z" fill="#3A4851"/>
<path d="M77.4561 58.4998H59.3892C59.0795 58.4998 58.873 58.2933 58.873 57.9836V51.273C58.873 50.9633 59.0795 50.7568 59.3892 50.7568H77.4561C77.7658 50.7568 77.9723 50.9633 77.9723 51.273V57.9836C77.9723 58.2417 77.7658 58.4998 77.4561 58.4998ZM59.9054 57.4674H76.9399V51.7892H59.9054V57.4674Z" fill="#3A4851"/>
<path d="M41.0673 45.0794C40.6543 45.0794 40.293 44.718 40.293 44.3051V41.2079C40.293 40.7949 40.6543 40.4336 41.0673 40.4336C41.4802 40.4336 41.8416 40.7949 41.8416 41.2079V44.3051C41.8416 44.718 41.4802 45.0794 41.0673 45.0794Z" fill="#3A4851"/>
</svg>
