<svg xmlns="http://www.w3.org/2000/svg" xmlns:xlink="http://www.w3.org/1999/xlink" width="94" height="71" viewBox="0 0 94 71">
  <defs>
    <clipPath id="clip-path">
      <rect id="사각형_338" data-name="사각형 338" width="71" height="71" transform="translate(0.231)" fill="none"/>
    </clipPath>
  </defs>
  <g id="ico_7_2_bnr" transform="translate(-1052 -3170)">
    <circle id="타원_29" data-name="타원 29" cx="31" cy="31" r="31" transform="translate(1081 3179)" fill="#f1f7f8" opacity="0.2"/>
    <g id="그룹_292" data-name="그룹 292" transform="translate(1053.769 3170)">
      <path id="패스_978" data-name="패스 978" d="M80,24.326H72.5v-7.5h-9.64v7.5h-7.5v9.64h7.5v7.5H72.5v-7.5H80Z" transform="translate(-19.582 -5.956)" fill="#a76b03"/>
      <g id="그룹_285" data-name="그룹 285">
        <g id="그룹_284" data-name="그룹 284" clip-path="url(#clip-path)">
          <path id="패스_979" data-name="패스 979" d="M31.621,85.357h0a16.414,16.414,0,0,1-10.627-4.163A160.143,160.143,0,0,1,4.146,64.351c-5.477-6.344-5.534-14.867-.136-20.265l3.565-3.564a1.623,1.623,0,0,1,2.295,0L20.834,51.483a1.622,1.622,0,0,1,0,2.294L18.309,56.3a3.092,3.092,0,0,0,0,4.373l6.363,6.362a3.095,3.095,0,0,0,4.375,0l2.524-2.523a1.669,1.669,0,0,1,2.294,0L44.828,75.472a1.623,1.623,0,0,1,0,2.294l-3.565,3.565a13.39,13.39,0,0,1-9.643,4.026M8.723,43.963,6.3,46.38C2.074,50.609,2.2,57.128,6.6,62.232a156.988,156.988,0,0,0,16.507,16.5,13.18,13.18,0,0,0,8.509,3.376,10.2,10.2,0,0,0,7.349-3.075l2.418-2.418-8.669-8.667-1.377,1.377a6.341,6.341,0,0,1-8.963,0l-6.363-6.362a6.336,6.336,0,0,1,0-8.962l1.377-1.376Z" transform="translate(0 -14.064)" fill="#fff"/>
          <path id="패스_980" data-name="패스 980" d="M61.671,46.275a23.154,23.154,0,0,1-11.224-2.9l-9.611,2.574a1.623,1.623,0,0,1-1.987-1.987l2.576-9.608A23.153,23.153,0,1,1,61.671,46.275m-11-6.258a1.616,1.616,0,0,1,.829.228A19.894,19.894,0,1,0,44.56,33.3a1.624,1.624,0,0,1,.173,1.25l-2.022,7.542,7.544-2.02a1.614,1.614,0,0,1,.419-.055" transform="translate(-13.52 0)" fill="#fff"/>
        </g>
      </g>
    </g>
    <rect id="사각형_1091" data-name="사각형 1091" width="94" height="70" transform="translate(1052 3170)" fill="none"/>
  </g>
</svg>
