<svg width="120" height="120" viewBox="0 0 120 120" fill="none" xmlns="http://www.w3.org/2000/svg">
<path d="M0 60C0 26.8629 26.8629 0 60 0V0C93.1371 0 120 26.8629 120 60V60C120 93.1371 93.1371 120 60 120V120C26.8629 120 0 93.1371 0 60V60Z" fill="#F4F5F9"/>
<path d="M36.228 39.4784C35.6211 40.0853 35.1963 40.8136 34.8928 41.6026C32.6473 48.8248 37.6846 60.8415 47.8199 70.9768C57.9552 81.1121 70.0326 86.1494 77.2548 83.8432C78.0437 83.6004 78.772 83.1149 79.3789 82.508L84.2342 77.6527C85.1445 76.7424 85.1445 75.2251 84.2342 74.3148L73.9168 63.9974C73.0064 63.087 71.4892 63.087 70.5788 63.9974L64.3277 70.3092C63.8422 70.7947 63.1746 70.9768 62.5677 70.8554C61.1111 70.5519 58.2586 69.2774 53.8889 64.9077C49.5192 60.538 48.3054 57.6856 47.9413 56.229C47.8199 55.6221 48.002 54.9545 48.4875 54.469L54.7386 48.2786C55.649 47.3682 55.649 45.8509 54.7386 44.9406L44.4212 34.6232C43.5109 33.7128 41.9936 33.7128 41.0832 34.6232L36.228 39.4784Z" fill="#5BA7FB"/>
<path d="M75.6151 80.3227C76.4041 80.0799 77.0717 79.6551 77.6786 79.0482L82.4125 74.3143C82.7766 73.9502 82.9587 73.586 83.0194 73.1612L73.9158 64.1183C73.0055 63.208 71.5489 63.208 70.6385 64.1183L64.5088 70.1874C64.084 70.6122 63.4164 70.855 62.8095 70.6729C61.3529 70.3694 57.9542 68.5487 53.6452 64.3004C49.3362 60.0521 48.1224 57.2603 47.8189 55.8644C47.2727 54.8327 46.9692 54.0437 46.8479 53.4368C46.7265 52.8299 46.9086 52.1623 47.3941 51.7375L53.5238 45.6684C53.888 45.3043 54.07 44.9401 54.1307 44.5153L44.3596 34.8048C43.4492 33.8945 41.9926 33.8945 41.0823 34.8048L36.3484 39.5387C35.7415 40.1456 35.3167 40.8132 35.0739 41.6022C34.1029 44.6367 34.467 48.5209 35.9843 52.7692C38.1691 57.7458 41.8712 63.0259 46.7265 67.8204C56.6797 77.6523 68.5144 82.5682 75.6151 80.3227Z" fill="#74AAFF"/>
<path d="M73.429 85.3C65.8427 85.3 55.7074 80.1413 47.15 71.584C37.0147 61.4486 31.6133 49.0071 34.1016 41.2994C34.405 40.3891 34.8906 39.5394 35.6188 38.8111L40.4741 33.9559C41.7486 32.6814 43.8121 32.6814 45.0866 33.9559L55.4039 44.2733C56.0108 44.8802 56.375 45.7298 56.375 46.5795C56.375 47.4292 56.0108 48.2788 55.4039 48.8857L49.1528 55.1368C48.9101 55.3796 48.7887 55.7437 48.8494 56.0472C49.1528 57.261 50.2452 59.9921 54.5543 64.3011C58.8633 68.6101 61.5337 69.7026 62.8082 70.006C63.1116 70.0667 63.4758 69.9453 63.7185 69.7026L69.909 63.4514C71.1835 62.1769 73.2469 62.1769 74.5214 63.4514L84.8388 73.7688C86.1133 75.0433 86.1133 77.1068 84.8388 78.3813L79.9836 83.2365C79.2553 83.9648 78.4056 84.4503 77.4953 84.7538C76.2814 85.1179 74.8856 85.3 73.429 85.3ZM42.7803 34.8662C42.4162 34.8662 42.052 34.9876 41.7486 35.2911L36.8933 40.1463C36.4078 40.6318 35.983 41.2387 35.8009 41.9063C33.5554 49.0071 38.7747 60.7204 48.4852 70.3701C58.1957 80.0806 69.9089 85.2393 76.949 83.0545C77.5559 82.8724 78.1629 82.5082 78.7091 81.962L83.5643 77.1068C84.1105 76.5606 84.1105 75.6502 83.5643 75.0433L73.2469 64.7259C72.7007 64.1797 71.7297 64.1797 71.1835 64.7259L64.993 70.9771C64.3254 71.6446 63.3544 71.9481 62.3833 71.766C60.6233 71.4019 57.6495 70.006 53.2798 65.5756C48.9101 61.1452 47.5142 58.1714 47.0893 56.472C46.9073 55.5617 47.15 54.5906 47.8783 53.8623L54.0687 47.6719C54.3722 47.3685 54.4936 47.0043 54.4936 46.6402C54.4936 46.276 54.3722 45.9119 54.0687 45.6084L43.7514 35.2911C43.5086 34.9876 43.1445 34.8662 42.7803 34.8662Z" fill="#3A4851"/>
<path d="M81.0771 80.4447C80.895 80.4447 80.7736 80.384 80.6523 80.2627L67.6645 67.2749C67.4217 67.0321 67.4217 66.668 67.6645 66.4252C67.9073 66.1825 68.2714 66.1825 68.5142 66.4252L81.5019 79.413C81.7447 79.6558 81.7447 80.0199 81.5019 80.2627C81.4412 80.384 81.2592 80.4447 81.0771 80.4447Z" fill="#3A4851"/>
<path d="M51.9443 51.3129C51.7622 51.3129 51.6408 51.2522 51.5194 51.1308L38.5317 38.1431C38.2889 37.9003 38.2889 37.5362 38.5317 37.2934C38.7744 37.0506 39.1386 37.0506 39.3813 37.2934L52.3691 50.2812C52.6119 50.5239 52.6119 50.8881 52.3691 51.1308C52.2477 51.2522 52.1263 51.3129 51.9443 51.3129Z" fill="#3A4851"/>
</svg>
