<svg xmlns="http://www.w3.org/2000/svg" width="30" height="30" viewBox="0 0 30 30">
  <g id="ico_7_1" transform="translate(2 3)">
    <path id="패스_965" data-name="패스 965" d="M26.739,10.372v3.057H23.682V15.77h3.057v3.057H29.08V15.77h3.057V13.429H29.08V10.372Z" transform="translate(-14.91 -6.669)" fill="#fff" opacity="0.8"/>
    <path id="패스_966" data-name="패스 966" d="M1.9,19.23H4.24v2.344H1.9Zm19.863,0H24.1v2.344H21.76ZM1.9,13.986H4.24v2.344H1.9Zm19.863,0H24.1v2.344H21.76ZM1.9,8.742H4.24v2.343H1.9Zm19.863,0H24.1v2.343H21.76ZM2.957,0V2.083h1.86v3.98H0V24.252H6.9V2.083H19.1V24.252H26V6.063H21.183V2.083h1.86V0Z" transform="translate(0 -0.126)" fill="#fff" opacity="0.5"/>
    <path id="패스_967" data-name="패스 967" d="M22.266,37.707V48.242H24.72v-8.08h4.705v8.08H31.88V37.707Z" transform="translate(-14.073 -24.116)" fill="#fff" opacity="0.5"/>
    <rect id="사각형_1089" data-name="사각형 1089" width="30" height="30" transform="translate(-2 -3)" fill="none"/>
  </g>
</svg>
