<svg xmlns="http://www.w3.org/2000/svg" xmlns:xlink="http://www.w3.org/1999/xlink" width="26" height="26" viewBox="0 0 26 26">
  <defs>
    <clipPath id="clip-path">
      <rect id="사각형_344" data-name="사각형 344" width="26" height="26" transform="translate(0)" fill="#0f4a63"/>
    </clipPath>
  </defs>
  <g id="ico_man" transform="translate(0 0)">
    <g id="그룹_299" data-name="그룹 299" transform="translate(0 0.001)" clip-path="url(#clip-path)">
      <path id="패스_981" data-name="패스 981" d="M3.326,6.587A11.375,11.375,0,1,0,20.639,8.042l1.569-1.57v1a1.9,1.9,0,1,0,3.792,0V1.9c0-.011,0-.021,0-.032a1.926,1.926,0,0,0-.034-.34c-.012-.057-.033-.11-.049-.165a1.927,1.927,0,0,0-.058-.189,2.033,2.033,0,0,0-.1-.182c-.027-.048-.048-.1-.079-.145a1.882,1.882,0,0,0-.236-.289A1.856,1.856,0,0,0,25.155.32c-.046-.032-.1-.052-.145-.079a2.037,2.037,0,0,0-.182-.1C24.767.12,24.7.105,24.64.086s-.108-.037-.165-.049A1.921,1.921,0,0,0,24.135,0c-.011,0-.021,0-.031,0H18.526a1.9,1.9,0,0,0,0,3.792h1l-1.57,1.569A11.391,11.391,0,0,0,3.326,6.587m13.4,13.4a7.583,7.583,0,1,1,0-10.724,7.592,7.592,0,0,1,0,10.724" transform="translate(0 0)" fill="#0f4a63"/>
    </g>
  </g>
</svg>
