<svg width="140" height="140" viewBox="0 0 140 140" fill="none" xmlns="http://www.w3.org/2000/svg">
<g clip-path="url(#clip0_19_502)">
<mask id="mask0_19_502" style="mask-type:luminance" maskUnits="userSpaceOnUse" x="0" y="0" width="140" height="140">
<path d="M140 0H0V140H140V0Z" fill="white"/>
</mask>
<g mask="url(#mask0_19_502)">
<path d="M60.6364 6.24385C63.6637 4.49599 67.0963 3.57212 70.592 3.56432C74.0876 3.55652 77.5243 4.46508 80.5594 6.19942L120.766 29.1739C123.841 30.9307 126.394 33.4724 128.165 36.5391C129.935 39.6058 130.86 43.0876 130.844 46.6287L130.637 92.9362C130.621 96.4317 129.689 99.8621 127.935 102.885C126.18 105.909 123.664 108.419 120.636 110.167L79.9107 133.68C76.8834 135.428 73.4508 136.352 69.9551 136.359C66.4595 136.367 63.0228 135.459 59.9877 133.724L19.7808 110.75C16.7062 108.993 14.1531 106.451 12.3826 103.385C10.612 100.318 9.68741 96.8362 9.70327 93.2951L9.91024 46.9876C9.926 43.492 10.8576 40.0617 12.6123 37.0384C14.367 34.0151 16.8834 31.5045 19.9107 29.7568L60.6364 6.24385Z" fill="white"/>
</g>
<path d="M66.307 100.947C61.7768 100.947 58.0703 97.2511 58.0703 92.7337V78.2918C58.0703 77.1282 58.9626 76.2384 60.1295 76.2384C61.2963 76.2384 62.1887 77.1282 62.1887 78.2918V92.8022C62.1887 95.0609 64.0419 96.9089 66.307 96.9089C68.5721 96.9089 70.4253 95.0609 70.4253 92.8022V84.1781C70.4253 80.4136 73.5141 77.3335 77.2892 77.3335C81.0644 77.3335 84.1532 80.4136 84.1532 84.1781V85.0679C84.1532 86.6421 85.3887 87.8741 86.9674 87.8741C88.5461 87.8741 89.7816 86.6421 89.7816 85.0679V69.6676C89.7816 68.504 90.6739 67.6143 91.8407 67.6143C93.0076 67.6143 93.8999 68.504 93.8999 69.6676V85.0679C93.8999 88.9008 90.8111 91.9808 86.9674 91.9808C83.1236 91.9808 80.0348 88.9008 80.0348 85.0679V84.1781C80.0348 82.6723 78.7993 81.4402 77.2892 81.4402C75.7792 81.4402 74.5437 82.6723 74.5437 84.1781V92.7337C74.475 97.2511 70.8372 100.947 66.307 100.947Z" fill="white" stroke="#3A4851" stroke-width="1.5" stroke-miterlimit="10" stroke-linecap="round" stroke-linejoin="round"/>
<path d="M60.1302 77.7435C55.8059 77.7435 51.8249 76.1008 48.7361 73.0208C45.716 70.0092 44 65.9709 44 61.6588V47.6959C44 46.5324 44.8923 45.6426 46.0592 45.6426H51.9621C53.129 45.6426 54.0213 46.5324 54.0213 47.6959C54.0213 48.8595 53.129 49.7493 51.9621 49.7493H48.187V61.6588C48.187 64.8758 49.4225 67.8189 51.6876 70.0776C53.9527 72.3363 56.9728 73.5683 60.1302 73.5683C66.7195 73.5683 72.0734 68.2296 72.0734 61.6588V49.7493H68.2296C67.0627 49.7493 66.1704 48.8595 66.1704 47.6959C66.1704 46.5324 67.0627 45.6426 68.2296 45.6426H74.1325C75.2994 45.6426 76.1917 46.5324 76.1917 47.6959V61.6588C76.1917 70.4883 68.9846 77.7435 60.1302 77.7435Z" fill="white" stroke="#3A4851" stroke-width="1.5" stroke-miterlimit="10" stroke-linecap="round" stroke-linejoin="round"/>
<path d="M53.1295 51.3921C51.9626 51.3921 51.0703 50.4339 51.0703 49.3387V46.0534C51.0703 44.8898 52.0313 44 53.1295 44C54.2963 44 55.1887 44.9582 55.1887 46.0534V49.3387C55.1887 50.5023 54.2963 51.3921 53.1295 51.3921Z" fill="#FE6D33" stroke="#3A4851" stroke-width="1.5" stroke-miterlimit="10" stroke-linecap="round" stroke-linejoin="round"/>
<path d="M67.1994 51.3921C68.3662 51.3921 69.2585 50.4339 69.2585 49.3387V46.0534C69.2585 44.8898 68.2976 44 67.1994 44C66.0325 44 65.1402 44.9582 65.1402 46.0534V49.3387C65.0715 50.5023 66.0325 51.3921 67.1994 51.3921Z" fill="#FE6D33" stroke="#3A4851" stroke-width="1.5" stroke-miterlimit="10" stroke-linecap="round" stroke-linejoin="round"/>
<path d="M67.0624 71.5156H53.1973V77.265H57.5215V80.9611H62.8067V77.265H67.0624V71.5156Z" fill="#BEEAF8" stroke="#3A4851" stroke-width="1.5" stroke-miterlimit="10" stroke-linecap="round" stroke-linejoin="round"/>
<path d="M91.8419 70.1465C96.353 70.1465 100.01 66.4998 100.01 62.0015C100.01 57.5031 96.353 53.8564 91.8419 53.8564C87.3308 53.8564 83.6738 57.5031 83.6738 62.0015C83.6738 66.4998 87.3308 70.1465 91.8419 70.1465Z" fill="#BEEAF8" stroke="#3A4851" stroke-width="1.5" stroke-miterlimit="10" stroke-linecap="round" stroke-linejoin="round"/>
<path d="M91.8421 64.4652C93.2068 64.4652 94.3131 63.362 94.3131 62.0011C94.3131 60.6403 93.2068 59.5371 91.8421 59.5371C90.4774 59.5371 89.3711 60.6403 89.3711 62.0011C89.3711 63.362 90.4774 64.4652 91.8421 64.4652Z" fill="white" stroke="#3A4851" stroke-width="1.5" stroke-miterlimit="10" stroke-linecap="round" stroke-linejoin="round"/>
</g>
<defs>
<clipPath id="clip0_19_502">
<rect width="140" height="140" fill="white"/>
</clipPath>
</defs>
</svg>
