<svg width="80" height="80" viewBox="0 0 80 80" fill="none" xmlns="http://www.w3.org/2000/svg">
<rect width="80" height="80" rx="40" fill="#F4F5F9"/>
<path d="M26 59.5004V56.4004H54.8V59.5004" stroke="#36435E" stroke-width="1.5" stroke-miterlimit="10" stroke-linecap="round" stroke-linejoin="round"/>
<path d="M56.1992 56.4H24.2992C21.4992 56.4 19.1992 54.1 19.1992 51.3V33.1C19.1992 30.3 21.4992 28 24.2992 28H56.1992C58.9992 28 61.2992 30.3 61.2992 33.1V51.3C61.1992 54.1 58.9992 56.4 56.1992 56.4Z" fill="white" stroke="#36435E" stroke-width="1.5" stroke-miterlimit="10" stroke-linecap="round" stroke-linejoin="round"/>
<path d="M47.3996 39.4996H42.9996V35.0996H37.4996V39.4996H33.0996V44.9996H37.4996V49.3996H42.9996V44.9996H47.3996V39.4996Z" fill="#62B6F5" stroke="#36435E" stroke-width="1.5" stroke-miterlimit="10" stroke-linecap="round" stroke-linejoin="round"/>
<path d="M48.0004 21.2002H32.4004V28.0002H48.0004V21.2002Z" stroke="#36435E" stroke-width="1.5" stroke-miterlimit="10" stroke-linecap="round" stroke-linejoin="round"/>
</svg>
