<svg xmlns="http://www.w3.org/2000/svg" xmlns:xlink="http://www.w3.org/1999/xlink" width="94" height="94" viewBox="0 0 94 94">
  <defs>
    <clipPath id="clip-path">
      <rect id="사각형_383" data-name="사각형 383" width="94" height="94" transform="translate(-8.57 -1.648)" fill="none"/>
    </clipPath>
  </defs>
  <g id="ico_prec6" transform="translate(-1238.277 -1813.921)">
    <path id="패스_999" data-name="패스 999" d="M6.866,4.091,21.049,29.542l8.84-13.054,8.319,13.054L53.771,4.091" transform="translate(1255.368 1821.968)" fill="none" stroke="#fdb93d" stroke-linecap="round" stroke-miterlimit="10" stroke-width="5"/>
    <g id="그룹_338" data-name="그룹 338" transform="translate(1246.847 1815.569)">
      <g id="그룹_337" data-name="그룹 337" transform="translate(0 0)" clip-path="url(#clip-path)">
        <path id="패스_1000" data-name="패스 1000" d="M21.817,19.69a3.17,3.17,0,1,1-3.171-3.143,3.157,3.157,0,0,1,3.171,3.143" transform="translate(20.114 25.61)" fill="#fdb93d"/>
        <path id="패스_1001" data-name="패스 1001" d="M21.878,27.357a3.17,3.17,0,1,1-3.171-3.143,3.157,3.157,0,0,1,3.171,3.143" transform="translate(20.189 30.477)" fill="#fdb93d"/>
        <path id="패스_1002" data-name="패스 1002" d="M21.878,33.606a3.17,3.17,0,1,1-3.171-3.143,3.157,3.157,0,0,1,3.171,3.143" transform="translate(20.189 36.762)" fill="#fdb93d"/>
        <path id="패스_1003" data-name="패스 1003" d="M71.818,26.083h9.543v43.1S81.891,82.5,68.089,82.5H14.005C1,82.5,1,69.186,1,69.186V12.58L24.7,1.3,37.153,19.8,49.684,1.3,71.818,12.58V72.332" transform="translate(1.258 1.983)" fill="none" stroke="#202020" stroke-linecap="round" stroke-miterlimit="10" stroke-width="3"/>
      </g>
    </g>
  </g>
</svg>
