<svg xmlns="http://www.w3.org/2000/svg" xmlns:xlink="http://www.w3.org/1999/xlink" width="20" height="20" viewBox="0 0 20 20">
  <defs>
    <clipPath id="clip-path">
      <rect id="사각형_344" data-name="사각형 344" width="20" height="20" fill="#0f4a63"/>
    </clipPath>
  </defs>
  <g id="icon_남" transform="translate(0 0)">
    <g id="그룹_299" data-name="그룹 299" transform="translate(0 0.001)" clip-path="url(#clip-path)">
      <path id="패스_981" data-name="패스 981" d="M2.559,5.067A8.75,8.75,0,1,0,15.876,6.186l1.207-1.207v.77a1.458,1.458,0,1,0,2.917,0V1.459c0-.008,0-.016,0-.024a1.481,1.481,0,0,0-.026-.261c-.009-.044-.025-.085-.038-.127A1.482,1.482,0,0,0,19.888.9a1.564,1.564,0,0,0-.073-.14c-.021-.037-.037-.076-.061-.111a1.448,1.448,0,0,0-.181-.223A1.428,1.428,0,0,0,19.35.246c-.036-.024-.075-.04-.111-.061A1.567,1.567,0,0,0,19.1.111c-.047-.019-.1-.03-.145-.045s-.083-.029-.127-.038A1.478,1.478,0,0,0,18.566,0l-.024,0H14.251a1.458,1.458,0,0,0,0,2.917h.77L13.814,4.124a8.762,8.762,0,0,0-11.255.944M12.87,15.379a5.833,5.833,0,1,1,0-8.249,5.84,5.84,0,0,1,0,8.249" transform="translate(0 0)" fill="#0f4a63"/>
    </g>
  </g>
</svg>
