<svg xmlns="http://www.w3.org/2000/svg" xmlns:xlink="http://www.w3.org/1999/xlink" width="64" height="48" viewBox="0 0 64 48">
  <defs>
    <clipPath id="clip-path">
      <rect id="사각형_338" data-name="사각형 338" width="48" height="48" transform="translate(-0.352)" fill="none"/>
    </clipPath>
  </defs>
  <g id="icon_전화" transform="translate(-1052 -3170)">
    <circle id="타원_29" data-name="타원 29" cx="21" cy="21" r="21" transform="translate(1072 3176)" fill="#f1f7f8" opacity="0.2"/>
    <g id="그룹_292" data-name="그룹 292" transform="translate(1053.352 3170)">
      <path id="패스_978" data-name="패스 978" d="M72.019,21.9H66.949V16.828H60.432V21.9H55.363v6.517h5.069v5.07h6.517v-5.07h5.069Z" transform="translate(-31.33 -9.478)" fill="#a76b03"/>
      <g id="그룹_285" data-name="그룹 285" transform="translate(0)">
        <g id="그룹_284" data-name="그룹 284" clip-path="url(#clip-path)">
          <path id="패스_979" data-name="패스 979" d="M21.377,70.679h0a11.1,11.1,0,0,1-7.185-2.814A108.267,108.267,0,0,1,2.8,56.478c-3.7-4.289-3.742-10.051-.092-13.7l2.41-2.409a1.1,1.1,0,0,1,1.551,0l7.412,7.41a1.1,1.1,0,0,1,0,1.551l-1.707,1.706a2.091,2.091,0,0,0,0,2.956l4.3,4.3a2.092,2.092,0,0,0,2.958,0l1.707-1.706a1.129,1.129,0,0,1,1.551,0L30.306,64a1.1,1.1,0,0,1,0,1.551l-2.41,2.41a9.052,9.052,0,0,1-6.519,2.722M5.9,42.694,4.262,44.329c-2.86,2.859-2.777,7.266.2,10.717A106.133,106.133,0,0,0,15.624,66.2a8.91,8.91,0,0,0,5.753,2.282,6.9,6.9,0,0,0,4.968-2.079l1.635-1.635-5.861-5.859-.931.931a4.287,4.287,0,0,1-6.06,0l-4.3-4.3a4.283,4.283,0,0,1,0-6.058l.931-.93Z" transform="translate(-0.156 -22.481)" fill="#fff"/>
          <path id="패스_980" data-name="패스 980" d="M54.17,31.285a15.653,15.653,0,0,1-7.588-1.958l-6.5,1.74a1.1,1.1,0,0,1-1.343-1.343l1.741-6.5A15.653,15.653,0,1,1,54.17,31.285m-7.434-4.231a1.093,1.093,0,0,1,.561.154A13.45,13.45,0,1,0,42.6,22.514a1.1,1.1,0,0,1,.117.845l-1.367,5.1,5.1-1.366a1.091,1.091,0,0,1,.283-.037" transform="translate(-21.774 0)" fill="#fff"/>
        </g>
      </g>
    </g>
    <rect id="사각형_1091" data-name="사각형 1091" width="64" height="47" transform="translate(1052 3170)" fill="none"/>
  </g>
</svg>
