<svg xmlns="http://www.w3.org/2000/svg" width="94" height="94" viewBox="0 0 94 94">
  <g id="icon3" transform="translate(-654.377 -1249.002)">
    <path id="패스_997" data-name="패스 997" d="M81.109,37.242a24.171,24.171,0,0,0,4.376-13.886C85.485,10.454,75.7,0,63.627,0c-8.69,0-16.133,5.461-19.652,13.316C40.451,5.461,33.008,0,24.315,0,12.242,0,2.46,10.454,2.46,23.355A24.21,24.21,0,0,0,6.839,37.247l-.044.021.343.367C8.25,39.159,43.975,77,43.975,77S79.69,39.169,80.8,37.651l.365-.388Z" transform="translate(657.621 1261.002)" fill="#ff635a"/>
    <path id="패스_998" data-name="패스 998" d="M0,19.214H22.208l6.8,15.441L40.679,8.116,52.366,34.655,64.053,8.116l5.263,11.945H89.1" transform="translate(656.826 1274.414)" fill="none" stroke="#202020" stroke-linecap="round" stroke-miterlimit="10" stroke-width="4"/>
    <rect id="사각형_1087" data-name="사각형 1087" width="94" height="94" transform="translate(654.377 1249.002)" fill="none"/>
  </g>
</svg>
