<svg id="icon" xmlns="http://www.w3.org/2000/svg" xmlns:xlink="http://www.w3.org/1999/xlink" width="12" height="12" viewBox="0 0 12 12">
  <defs>
    <clipPath id="clip-path">
      <rect id="사각형_163" data-name="사각형 163" width="10.207" height="12" fill="#fff"/>
    </clipPath>
  </defs>
  <g id="그룹_224" data-name="그룹 224" transform="translate(1)" clip-path="url(#clip-path)">
    <path id="패스_153" data-name="패스 153" d="M8.715,1.479a5.149,5.149,0,0,0-7.221,0,5.025,5.025,0,0,0,0,7.149l3.263,3.231a.5.5,0,0,0,.695,0L8.715,8.628a5.025,5.025,0,0,0,0-7.149M6.255,6.193a1.64,1.64,0,0,1-2.3,0,1.6,1.6,0,0,1,0-2.28,1.64,1.64,0,0,1,2.3,0,1.6,1.6,0,0,1,0,2.28" transform="translate(0 0)" fill="#fff"/>
  </g>
  <rect id="사각형_1082" data-name="사각형 1082" width="12" height="12" fill="none"/>
</svg>
