<svg xmlns="http://www.w3.org/2000/svg" width="94" height="94" viewBox="0 0 94 94">
  <g id="icon8" transform="translate(-1248.578 -2328.419)">
    <rect id="사각형_392" data-name="사각형 392" width="9.553" height="4.658" transform="translate(1329.548 2330.513)" fill="#10a0b4"/>
    <path id="패스_1036" data-name="패스 1036" d="M102.122,8.172H92.568a1.758,1.758,0,0,1-1.757-1.757V1.757A1.758,1.758,0,0,1,92.568,0h9.554a1.758,1.758,0,0,1,1.757,1.757V6.415a1.758,1.758,0,0,1-1.757,1.757m-7.8-3.514h6.04V3.514h-6.04Z" transform="translate(1236.979 2328.756)" fill="#10a0b4"/>
    <path id="패스_1037" data-name="패스 1037" d="M56.727,60.079H16.982a1.758,1.758,0,0,1-1.757-1.757V31.9a1.757,1.757,0,0,1,1.757-1.757H56.727A1.756,1.756,0,0,1,58.484,31.9V58.322a1.757,1.757,0,0,1-1.757,1.757M18.739,56.565H54.97V33.655H18.739Z" transform="translate(1246.727 2324.963)" fill="#202020" stroke="#fff" stroke-width="0.5"/>
    <path id="패스_1038" data-name="패스 1038" d="M50.612,49.619a32.655,32.655,0,0,1-24.987,0l3.7-8.942a22.965,22.965,0,0,0,17.579,0l3.7,8.942" transform="translate(1245.281 2323.675)" fill="#10a0b4"/>
    <path id="패스_1039" data-name="패스 1039" d="M88.879,6.566H76.436a1.684,1.684,0,0,0-1.683,1.687V21.826a7.928,7.928,0,0,0,5.764,7.62V71.717A17.7,17.7,0,0,1,45.15,72.949H65.364a1.685,1.685,0,0,0,1.683-1.687V62.826a1.684,1.684,0,0,0-1.683-1.687H60.825V18.8a1.685,1.685,0,0,0-1.683-1.687H7.905A1.684,1.684,0,0,0,6.222,18.8V61.139H1.684A1.684,1.684,0,0,0,0,62.826v8.437a1.685,1.685,0,0,0,1.683,1.687H41.761a21.077,21.077,0,0,0,42.12-1.232V29.644a7.924,7.924,0,0,0,6.68-7.818V8.253a1.685,1.685,0,0,0-1.683-1.687M9.588,20.491H57.46V61.139H9.588ZM3.366,69.576V64.512H63.681v5.064ZM87.2,21.826a4.539,4.539,0,1,1-9.078,0V9.939H87.2Z" transform="translate(1250.297 2327.958)" fill="#202020" stroke="#fff" stroke-width="0.5"/>
    <rect id="사각형_393" data-name="사각형 393" width="94" height="94" transform="translate(1248.578 2328.419)" fill="none"/>
  </g>
</svg>
