<svg xmlns="http://www.w3.org/2000/svg" xmlns:xlink="http://www.w3.org/1999/xlink" width="421.935" height="347.935" viewBox="0 0 421.935 347.935">
  <defs>
    <filter id="사각형_330" x="0" y="0" width="320" height="120" filterUnits="userSpaceOnUse">
      <feOffset dy="3" input="SourceAlpha"/>
      <feGaussianBlur stdDeviation="5" result="blur"/>
      <feFlood flood-opacity="0.102" result="color"/>
      <feComposite operator="out" in="SourceGraphic" in2="blur"/>
      <feComposite operator="in" in="color"/>
      <feComposite operator="in" in2="SourceGraphic"/>
    </filter>
    <clipPath id="clip-path">
      <path id="패스_59" data-name="패스 59" d="M39.109,21.692A12.753,12.753,0,1,0,51.863,8.938,12.753,12.753,0,0,0,39.109,21.692" transform="translate(-39.109 -8.938)" fill="#fff"/>
    </clipPath>
    <clipPath id="clip-path-2">
      <path id="패스_60" data-name="패스 60" d="M47.42,28.02V46.436h8.55A9.868,9.868,0,0,1,65.837,56.3V69.878H47.42v8.487a9.928,9.928,0,0,1-9.93,9.93H23.979v15.65H82.106a7.308,7.308,0,0,0,7.309-7.31V35.33a7.308,7.308,0,0,0-7.309-7.31Z" transform="translate(-23.979 -28.02)" fill="#fff"/>
    </clipPath>
    <clipPath id="clip-path-3">
      <path id="패스_61" data-name="패스 61" d="M24.152,0A12.753,12.753,0,1,0,36.905,12.754,12.753,12.753,0,0,0,24.152,0Z" transform="translate(-11.4)" fill="#fff"/>
    </clipPath>
    <clipPath id="clip-path-4">
      <path id="패스_62" data-name="패스 62" d="M7.309,19.084A7.308,7.308,0,0,0,0,26.394V95.01H42V76.593H33.509a9.932,9.932,0,0,1-9.932-9.93V53.15H42V44.665a9.929,9.929,0,0,1,9.93-9.93h13.51v-8.34a7.309,7.309,0,0,0-7.31-7.31Z" transform="translate(0 -19.084)" fill="#fff"/>
    </clipPath>
    <clipPath id="clip-path-5">
      <rect id="사각형_338" data-name="사각형 338" width="48" height="48" transform="translate(-0.352)" fill="none"/>
    </clipPath>
  </defs>
  <g id="그룹_352" data-name="그룹 352" transform="translate(-980 -3114)">
    <g id="그룹_350" data-name="그룹 350">
      <g data-type="innerShadowGroup">
        <rect id="사각형_330-2" data-name="사각형 330" width="320" height="120" transform="translate(980 3114)" fill="#fdb93d"/>
        <g transform="matrix(1, 0, 0, 1, 980, 3114)" filter="url(#사각형_330)">
          <rect id="사각형_330-3" data-name="사각형 330" width="320" height="120" fill="#fff"/>
        </g>
      </g>
      <g id="그룹_229" data-name="그룹 229" transform="translate(1166.497 3114)" opacity="0.15">
        <g id="그룹_32" data-name="그룹 32" transform="translate(68.495 15.654)">
          <g id="그룹_31" data-name="그룹 31" clip-path="url(#clip-path)">
            <rect id="사각형_67" data-name="사각형 67" width="35.556" height="35.556" transform="matrix(0.578, -0.816, 0.816, 0.578, -12.031, 16.981)" fill="#fff"/>
          </g>
        </g>
        <g id="그룹_34" data-name="그룹 34" transform="translate(41.997 49.074)">
          <g id="그룹_33" data-name="그룹 33" clip-path="url(#clip-path-2)">
            <rect id="사각형_68" data-name="사각형 68" width="99.781" height="97.285" transform="translate(-35.814 50.553) rotate(-54.685)" fill="#fff"/>
          </g>
        </g>
        <g id="그룹_36" data-name="그룹 36" transform="translate(19.966)">
          <g id="그룹_35" data-name="그룹 35" clip-path="url(#clip-path-3)">
            <rect id="사각형_69" data-name="사각형 69" width="35.769" height="35.769" transform="translate(-12.328 16.016) rotate(-52.415)" fill="#fff"/>
          </g>
        </g>
        <g id="그룹_38" data-name="그룹 38" transform="translate(0 33.423)">
          <g id="그룹_37" data-name="그룹 37" clip-path="url(#clip-path-4)">
            <rect id="사각형_70" data-name="사각형 70" width="100.08" height="98.166" transform="translate(-36.699 47.679) rotate(-52.415)" fill="#fff"/>
          </g>
        </g>
      </g>
      <rect id="사각형_339" data-name="사각형 339" width="330" height="97" transform="translate(1100 3393.346) rotate(-45)" fill="#fff"/>
    </g>
    <g id="icon_전화" transform="translate(-42 -20)">
      <circle id="타원_29" data-name="타원 29" cx="21" cy="21" r="21" transform="translate(1072 3176)" fill="#f1f7f8" opacity="0.2"/>
      <g id="그룹_292" data-name="그룹 292" transform="translate(1053.352 3170)">
        <path id="패스_978" data-name="패스 978" d="M72.019,21.9H66.949V16.828H60.432V21.9H55.363v6.517h5.069v5.07h6.517v-5.07h5.069Z" transform="translate(-31.33 -9.478)" fill="#a76b03"/>
        <g id="그룹_285" data-name="그룹 285" transform="translate(0)">
          <g id="그룹_284" data-name="그룹 284" clip-path="url(#clip-path-5)">
            <path id="패스_979" data-name="패스 979" d="M21.377,70.679h0a11.1,11.1,0,0,1-7.185-2.814A108.267,108.267,0,0,1,2.8,56.478c-3.7-4.289-3.742-10.051-.092-13.7l2.41-2.409a1.1,1.1,0,0,1,1.551,0l7.412,7.41a1.1,1.1,0,0,1,0,1.551l-1.707,1.706a2.091,2.091,0,0,0,0,2.956l4.3,4.3a2.092,2.092,0,0,0,2.958,0l1.707-1.706a1.129,1.129,0,0,1,1.551,0L30.306,64a1.1,1.1,0,0,1,0,1.551l-2.41,2.41a9.052,9.052,0,0,1-6.519,2.722M5.9,42.694,4.262,44.329c-2.86,2.859-2.777,7.266.2,10.717A106.133,106.133,0,0,0,15.624,66.2a8.91,8.91,0,0,0,5.753,2.282,6.9,6.9,0,0,0,4.968-2.079l1.635-1.635-5.861-5.859-.931.931a4.287,4.287,0,0,1-6.06,0l-4.3-4.3a4.283,4.283,0,0,1,0-6.058l.931-.93Z" transform="translate(-0.156 -22.481)" fill="#fff"/>
            <path id="패스_980" data-name="패스 980" d="M54.17,31.285a15.653,15.653,0,0,1-7.588-1.958l-6.5,1.74a1.1,1.1,0,0,1-1.343-1.343l1.741-6.5A15.653,15.653,0,1,1,54.17,31.285m-7.434-4.231a1.093,1.093,0,0,1,.561.154A13.45,13.45,0,1,0,42.6,22.514a1.1,1.1,0,0,1,.117.845l-1.367,5.1,5.1-1.366a1.091,1.091,0,0,1,.283-.037" transform="translate(-21.774 0)" fill="#fff"/>
          </g>
        </g>
      </g>
      <rect id="사각형_1091" data-name="사각형 1091" width="64" height="47" transform="translate(1052 3170)" fill="none"/>
    </g>
  </g>
</svg>
