<svg xmlns="http://www.w3.org/2000/svg" xmlns:xlink="http://www.w3.org/1999/xlink" width="421.935" height="347.935" viewBox="0 0 421.935 347.935">
  <defs>
    <filter id="사각형_330" x="0" y="0" width="320" height="120" filterUnits="userSpaceOnUse">
      <feOffset dy="3" input="SourceAlpha"/>
      <feGaussianBlur stdDeviation="5" result="blur"/>
      <feFlood flood-opacity="0.102" result="color"/>
      <feComposite operator="out" in="SourceGraphic" in2="blur"/>
      <feComposite operator="in" in="color"/>
      <feComposite operator="in" in2="SourceGraphic"/>
    </filter>
    <clipPath id="clip-path">
      <path id="패스_59" data-name="패스 59" d="M39.109,21.692A12.753,12.753,0,1,0,51.863,8.938,12.753,12.753,0,0,0,39.109,21.692" transform="translate(-39.109 -8.938)" fill="#fff"/>
    </clipPath>
    <clipPath id="clip-path-2">
      <path id="패스_60" data-name="패스 60" d="M47.42,28.02V46.436h8.55A9.868,9.868,0,0,1,65.837,56.3V69.878H47.42v8.487a9.928,9.928,0,0,1-9.93,9.93H23.979v15.65H82.106a7.308,7.308,0,0,0,7.309-7.31V35.33a7.308,7.308,0,0,0-7.309-7.31Z" transform="translate(-23.979 -28.02)" fill="#fff"/>
    </clipPath>
    <clipPath id="clip-path-3">
      <path id="패스_61" data-name="패스 61" d="M24.152,0A12.753,12.753,0,1,0,36.905,12.754,12.753,12.753,0,0,0,24.152,0Z" transform="translate(-11.4)" fill="#fff"/>
    </clipPath>
    <clipPath id="clip-path-4">
      <path id="패스_62" data-name="패스 62" d="M7.309,19.084A7.308,7.308,0,0,0,0,26.394V95.01H42V76.593H33.509a9.932,9.932,0,0,1-9.932-9.93V53.15H42V44.665a9.929,9.929,0,0,1,9.93-9.93h13.51v-8.34a7.309,7.309,0,0,0-7.31-7.31Z" transform="translate(0 -19.084)" fill="#fff"/>
    </clipPath>
  </defs>
  <g id="그룹_350" data-name="그룹 350" transform="translate(-980 -3114)">
    <g data-type="innerShadowGroup">
      <rect id="사각형_330-2" data-name="사각형 330" width="320" height="120" transform="translate(980 3114)" fill="#fdb93d"/>
      <g transform="matrix(1, 0, 0, 1, 980, 3114)" filter="url(#사각형_330)">
        <rect id="사각형_330-3" data-name="사각형 330" width="320" height="120" fill="#fff"/>
      </g>
    </g>
    <g id="그룹_229" data-name="그룹 229" transform="translate(1166.497 3114)" opacity="0.15">
      <g id="그룹_32" data-name="그룹 32" transform="translate(68.495 15.654)">
        <g id="그룹_31" data-name="그룹 31" clip-path="url(#clip-path)">
          <rect id="사각형_67" data-name="사각형 67" width="35.556" height="35.556" transform="matrix(0.578, -0.816, 0.816, 0.578, -12.031, 16.981)" fill="#fff"/>
        </g>
      </g>
      <g id="그룹_34" data-name="그룹 34" transform="translate(41.997 49.074)">
        <g id="그룹_33" data-name="그룹 33" clip-path="url(#clip-path-2)">
          <rect id="사각형_68" data-name="사각형 68" width="99.781" height="97.285" transform="translate(-35.814 50.553) rotate(-54.685)" fill="#fff"/>
        </g>
      </g>
      <g id="그룹_36" data-name="그룹 36" transform="translate(19.966)">
        <g id="그룹_35" data-name="그룹 35" clip-path="url(#clip-path-3)">
          <rect id="사각형_69" data-name="사각형 69" width="35.769" height="35.769" transform="translate(-12.328 16.016) rotate(-52.415)" fill="#fff"/>
        </g>
      </g>
      <g id="그룹_38" data-name="그룹 38" transform="translate(0 33.423)">
        <g id="그룹_37" data-name="그룹 37" clip-path="url(#clip-path-4)">
          <rect id="사각형_70" data-name="사각형 70" width="100.08" height="98.166" transform="translate(-36.699 47.679) rotate(-52.415)" fill="#fff"/>
        </g>
      </g>
    </g>
    <rect id="사각형_339" data-name="사각형 339" width="330" height="97" transform="translate(1100 3393.346) rotate(-45)" fill="#fff"/>
  </g>
</svg>
