<svg xmlns="http://www.w3.org/2000/svg" xmlns:xlink="http://www.w3.org/1999/xlink" width="90" height="90" viewBox="0 0 90 90">
  <defs>
    <clipPath id="clip-path">
      <rect id="사각형_674" data-name="사각형 674" width="42.223" height="62.048" fill="none"/>
    </clipPath>
  </defs>
  <g id="ico_cont_223_6" transform="translate(-260 -2739)">
    <g id="타원_132" data-name="타원 132" transform="translate(260 2739)" fill="none" stroke="#f5f5f5" stroke-width="1">
      <circle cx="45" cy="45" r="45" stroke="none"/>
      <circle cx="45" cy="45" r="44.5" fill="none"/>
    </g>
    <g id="그룹_825" data-name="그룹 825" transform="translate(283.889 2752.976)">
      <g id="그룹_824" data-name="그룹 824" clip-path="url(#clip-path)">
        <path id="패스_1060" data-name="패스 1060" d="M36.772,13.247A6.623,6.623,0,1,1,43.4,6.624a6.63,6.63,0,0,1-6.624,6.623m0-11.565a4.941,4.941,0,1,0,4.942,4.942,4.947,4.947,0,0,0-4.942-4.942" transform="translate(-15.661)" fill="#333"/>
        <path id="패스_1061" data-name="패스 1061" d="M26.04,77.379a4.607,4.607,0,0,1-4.6-4.6V54.761h-.647V72.777a4.6,4.6,0,1,1-9.2,0V63.028a.829.829,0,0,1-.014-.151V49.7a1.613,1.613,0,0,1,.012-.183v0q0-.034,0-.068l0-.041c0-.029,0-.058,0-.087a.822.822,0,0,1-.005-.1V43.551L6.907,51.112a3.728,3.728,0,0,1-5.126,1.23A3.726,3.726,0,0,1,.55,47.216L7.6,35.8a.841.841,0,1,1,1.433.879l-.512.836L1.983,48.1a2.046,2.046,0,0,0,3.491,2.134l5.818-9.423a.843.843,0,0,1,1.122-.295,1.63,1.63,0,0,1,.842,1.425v7.275l0,.023.008.076a.754.754,0,0,1,0,.087v.057c0,.033,0,.061,0,.085v.021a.883.883,0,0,1-.007.107l0,13.058a.815.815,0,0,1,.014.15v9.9a2.919,2.919,0,1,0,5.839,0V53.92a.841.841,0,0,1,.841-.841h2.329a.841.841,0,0,1,.841.841V72.777a2.92,2.92,0,1,0,5.84,0v-23.6a.827.827,0,0,1,0-.093V41.939a1.636,1.636,0,0,1,.853-1.43.841.841,0,0,1,1.121.3l5.818,9.424a2.046,2.046,0,1,0,3.491-2.134L32.719,35.916l-.022-.035-1.92-3.126c-.577-.938-1.657-1.416-3.3-1.46l-.263-.011c-2.942-.115-7.02-.116-12.117,0-2.58.054-3.109.736-3.692,1.532l-.769,1.253A.841.841,0,0,1,9.2,33.184L9.986,31.9c.012-.02.025-.039.038-.057.872-1.19,1.852-2.18,5.033-2.247,5.13-.113,9.242-.111,12.222.006l.253.012c2.212.059,3.791.819,4.677,2.26l1.906,3.1.018.027L41.67,47.213a3.727,3.727,0,1,1-6.356,3.9l-4.692-7.6.014,5.571a.72.72,0,0,1,0,.093v23.6a4.607,4.607,0,0,1-4.6,4.6" transform="translate(0 -15.331)" fill="#333"/>
        <path id="패스_1062" data-name="패스 1062" d="M31.649,116.551v-.24a.961.961,0,1,1,1.922,0v.24a.961.961,0,0,1-1.922,0" transform="translate(-16.44 -59.919)" fill="#a3daf7"/>
        <path id="패스_1063" data-name="패스 1063" d="M31.649,100.228V99.74a.961.961,0,0,1,1.922,0v.488a.961.961,0,1,1-1.922,0m0-3.905v-.488a.961.961,0,0,1,1.922,0v.488a.961.961,0,1,1-1.922,0m0-3.905v-.488a.961.961,0,0,1,1.922,0v.488a.961.961,0,1,1-1.922,0" transform="translate(-16.44 -47.253)" fill="#a3daf7"/>
      </g>
    </g>
  </g>
</svg>
