<svg xmlns="http://www.w3.org/2000/svg" viewBox="0 0 70 70"><defs><style>.cls-1{fill:#f4f5f9;}.cls-2{fill:#ff375a;}.cls-3{fill:#202020;stroke:#202020;stroke-width:0.5px;}</style></defs><g id="레이어_2" data-name="레이어 2"><g id="레이어_1-2" data-name="레이어 1"><path id="패스_827" data-name="패스 827" class="cls-1" d="M70,35A35,35,0,1,1,35,0,35,35,0,0,1,70,35"/><path class="cls-2" d="M39.81,24.49a110.43,110.43,0,0,0-.32,17.58s.13,5.28,3,6.53c0,0,6.23,3.17,9.93,3.94,0,0,4,.71,4.61-3.28,0,0,1.55-7.8-4.3-18.52,0,0-3.15-5.73-7.66-8.25C45.09,22.49,41.23,20.37,39.81,24.49Z"/><path class="cls-3" d="M53.13,53h0a5.45,5.45,0,0,1-.76,0c-3.72-.78-9.78-3.85-10-4-3.08-1.33-3.24-6.66-3.25-6.89a112.22,112.22,0,0,1,.32-17.63s0-.06,0-.09c.81-2.33,2.35-2.82,3.51-2.82a5.39,5.39,0,0,1,2.36.6c4.56,2.54,7.69,8.16,7.82,8.4C59,41.27,57.51,49,57.45,49.34A4.06,4.06,0,0,1,53.13,53Zm-.61-.86a4.27,4.27,0,0,0,.61,0,3.24,3.24,0,0,0,3.51-3c0-.1,1.45-7.82-4.25-18.27,0-.05-3.15-5.65-7.5-8.08a4.76,4.76,0,0,0-2-.49,2.82,2.82,0,0,0-2.72,2.22A110.46,110.46,0,0,0,39.9,42c0,.07.16,5.05,2.78,6.19.08,0,6.24,3.16,9.84,3.91Z"/><path class="cls-2" d="M30.19,24.49a110.43,110.43,0,0,1,.32,17.58s-.13,5.28-3,6.53c0,0-6.23,3.17-9.93,3.94,0,0-4,.71-4.61-3.28,0,0-1.54-7.8,4.3-18.52,0,0,3.15-5.73,7.66-8.25C24.91,22.49,28.77,20.37,30.19,24.49Z"/><path class="cls-3" d="M16.87,53a4.06,4.06,0,0,1-4.32-3.68c-.06-.31-1.51-8,4.34-18.78.13-.24,3.26-5.86,7.82-8.4a5.39,5.39,0,0,1,2.36-.6c1.16,0,2.71.49,3.51,2.82,0,0,0,.06,0,.09a112.41,112.41,0,0,1,.32,17.65c0,.21-.17,5.54-3.27,6.88-.24.12-6.3,3.19-10,4A4.07,4.07,0,0,1,16.87,53Zm10.2-30.64a4.76,4.76,0,0,0-2,.49c-4.36,2.43-7.47,8-7.5,8.08-5.7,10.45-4.27,18.17-4.26,18.25a3.27,3.27,0,0,0,3.52,3,4.33,4.33,0,0,0,.62,0c3.59-.75,9.75-3.87,9.81-3.9,2.65-1.15,2.8-6.13,2.8-6.18a110.6,110.6,0,0,0-.31-17.48A2.82,2.82,0,0,0,27.07,22.36Z"/><path class="cls-3" d="M30.9,30.89a.39.39,0,0,1-.21-.06.41.41,0,0,1-.2-.33l-.15-2.64a.41.41,0,0,1,.21-.38l2.16-1.16V17.41a.4.4,0,0,1,.4-.41h3.61a.41.41,0,0,1,.41.41v8.83l2.58,1.23a.42.42,0,0,1,.24.4l-.18,2.64a.43.43,0,0,1-.2.32.4.4,0,0,1-.38,0l-4-1.86H35l-3.94,1.86A.33.33,0,0,1,30.9,30.89Zm4-2.72h.32a.33.33,0,0,1,.17,0L39,29.86l.12-1.77-2.57-1.22a.4.4,0,0,1-.23-.37V17.82H33.52v8.75a.41.41,0,0,1-.21.36l-2.14,1.15.1,1.77,3.47-1.64A.58.58,0,0,1,34.92,28.17Z"/></g></g></svg>