<svg xmlns="http://www.w3.org/2000/svg" width="70" height="70" viewBox="0 0 70 70">
  <g id="icon17" transform="translate(-29.999 -30)">
    <path id="패스_826" data-name="패스 826" d="M70.265,35.534a35,35,0,1,1-35-35,35,35,0,0,1,35,35" transform="translate(29.734 29.466)" fill="#f4f5f9"/>
    <g id="그룹_1094" data-name="그룹 1094" transform="translate(-266.84 -69.432)">
      <path id="사각형_1333" data-name="사각형 1333" d="M1.717,0H20.43a0,0,0,0,1,0,0V3.435a0,0,0,0,1,0,0H1.717A1.717,1.717,0,0,1,0,1.717v0A1.717,1.717,0,0,1,1.717,0Z" transform="translate(314.246 143.878)" fill="#fff" stroke="#202020" stroke-linecap="round" stroke-linejoin="round" stroke-width="1.5"/>
      <path id="패스_1491" data-name="패스 1491" d="M354.019,133.837a16.725,16.725,0,0,1-8.078,17.66l-3.816-4.576a10.923,10.923,0,0,0,2.969-17.844l3.3-4.865A16.688,16.688,0,0,1,354.019,133.837Z" transform="translate(-6.602 -3.473)" fill="#fff" stroke="#202020" stroke-linecap="round" stroke-linejoin="round" stroke-width="1.5"/>
      <path id="패스_1492" data-name="패스 1492" d="M349.717,122.256l-8.465,8.465-6.152,6.161-7.449-7.449,3.166-3.157,5.478-5.478,5.982-5.982Z" transform="translate(-3.174 -1.248)" fill="#fff" stroke="#202020" stroke-linecap="round" stroke-linejoin="round" stroke-width="1.5"/>
      <rect id="사각형_1334" data-name="사각형 1334" width="13.016" height="4.129" transform="translate(323.601 127.307) rotate(45)" fill="#62b6f5" stroke="#202020" stroke-linecap="round" stroke-linejoin="round" stroke-width="1.5"/>
      <rect id="사각형_1335" data-name="사각형 1335" width="6.312" height="3.377" transform="translate(342.978 112.67) rotate(45)" fill="#e9efef" stroke="#33323f" stroke-linecap="round" stroke-linejoin="round" stroke-width="1.8"/>
      <rect id="사각형_1336" data-name="사각형 1336" width="9.173" height="2.99" transform="translate(344.081 109.545) rotate(45)" fill="#62b6f5" stroke="#202020" stroke-linecap="round" stroke-linejoin="round" stroke-width="1.5"/>
      <path id="패스_1493" data-name="패스 1493" d="M345.244,162.932H335.3a2.349,2.349,0,0,1-2.056-3.49l1.545-2.8,2.884-5.223.537-.964a2.354,2.354,0,0,1,4.121,0l.538.972,2.884,5.214,1.552,2.8A2.35,2.35,0,0,1,345.244,162.932Z" transform="translate(-4.428 -9.4)" fill="#62b6f5" stroke="#202020" stroke-linecap="round" stroke-linejoin="round" stroke-width="1.5"/>
      <circle id="타원_331" data-name="타원 331" cx="1.392" cy="1.392" r="1.392" transform="translate(334.457 145.294)" fill="#e9efef" stroke="#202020" stroke-linecap="round" stroke-linejoin="round" stroke-width="1.5"/>
      <rect id="사각형_1339" data-name="사각형 1339" width="35.266" height="4.016" rx="2.008" transform="translate(314.246 151.304)" fill="#fff" stroke="#202020" stroke-linecap="round" stroke-linejoin="round" stroke-width="1.5"/>
    </g>
  </g>
</svg>
