<svg xmlns="http://www.w3.org/2000/svg" xmlns:xlink="http://www.w3.org/1999/xlink" width="49.475" height="51.05" viewBox="0 0 49.475 51.05">
  <defs>
    <clipPath id="clip-path">
      <rect id="사각형_99" data-name="사각형 99" width="49.475" height="51.05" transform="translate(0 0)" fill="none"/>
    </clipPath>
  </defs>
  <g id="icon_병원소개" transform="translate(0 0)">
    <path id="패스_159" data-name="패스 159" d="M1,16.075H1Z" fill="#fff"/>
    <g id="그룹_193" data-name="그룹 193">
      <g id="그룹_192" data-name="그룹 192" clip-path="url(#clip-path)">
        <line id="선_28" data-name="선 28" x1="8.662" transform="translate(1 16.075)" fill="none" stroke="#1a2444" stroke-linecap="round" stroke-linejoin="round" stroke-width="2"/>
      </g>
    </g>
    <path id="패스_160" data-name="패스 160" d="M1,34.975H1Z" fill="#fff"/>
    <g id="그룹_195" data-name="그룹 195">
      <g id="그룹_194" data-name="그룹 194" clip-path="url(#clip-path)">
        <line id="선_29" data-name="선 29" x1="8.662" transform="translate(1 34.975)" fill="none" stroke="#1a2444" stroke-linecap="round" stroke-linejoin="round" stroke-width="2"/>
      </g>
    </g>
    <path id="패스_161" data-name="패스 161" d="M1,50.05v0Z" fill="#fff"/>
    <g id="그룹_197" data-name="그룹 197">
      <g id="그룹_196" data-name="그룹 196" clip-path="url(#clip-path)">
        <line id="선_30" data-name="선 30" y2="49.05" transform="translate(1 1)" fill="none" stroke="#1a2444" stroke-linecap="round" stroke-linejoin="round" stroke-width="2"/>
        <path id="패스_162" data-name="패스 162" d="M48.475,25.525A20.475,20.475,0,1,1,28,5.05,20.475,20.475,0,0,1,48.475,25.525" fill="#fff"/>
        <circle id="타원_10" data-name="타원 10" cx="20.475" cy="20.475" r="20.475" transform="translate(7.525 5.05)" fill="none" stroke="#1a2444" stroke-linecap="round" stroke-linejoin="round" stroke-width="2"/>
        <path id="패스_163" data-name="패스 163" d="M34.516,21.615H31.91V19.009a3.91,3.91,0,1,0-7.82,0v2.606H21.484a3.91,3.91,0,1,0,0,7.819H24.09v2.607a3.91,3.91,0,0,0,7.82,0V29.434h2.606a3.91,3.91,0,1,0,0-7.819" fill="#5adee8"/>
        <path id="패스_164" data-name="패스 164" d="M34.516,21.615H31.91V19.009a3.91,3.91,0,1,0-7.82,0v2.606H21.484a3.91,3.91,0,1,0,0,7.819H24.09v2.607a3.91,3.91,0,0,0,7.82,0V29.434h2.606a3.91,3.91,0,1,0,0-7.819Z" fill="none" stroke="#1a2444" stroke-linecap="round" stroke-linejoin="round" stroke-width="2"/>
      </g>
    </g>
  </g>
</svg>
