<svg xmlns="http://www.w3.org/2000/svg" xmlns:xlink="http://www.w3.org/1999/xlink" width="140" height="140" viewBox="0 0 140 140">
  <defs>
    <clipPath id="clip-path">
      <rect id="사각형_1234" data-name="사각형 1234" width="140" height="140" transform="translate(386 1014)" fill="none"/>
    </clipPath>
    <clipPath id="clip-path-2">
      <rect id="사각형_432" data-name="사각형 432" width="73.701" height="53.728" fill="none"/>
    </clipPath>
  </defs>
  <g id="icon_원무과퇴원수속" transform="translate(-642 -1758)">
    <g id="마스크_그룹_105" data-name="마스크 그룹 105" transform="translate(256 744)" clip-path="url(#clip-path)">
      <path id="다각형_15" data-name="다각형 15" d="M93.513,0a20,20,0,0,1,17.276,9.923l23.333,40a20,20,0,0,1,0,20.155l-23.333,40A20,20,0,0,1,93.513,120H46.487a20,20,0,0,1-17.276-9.923l-23.333-40a20,20,0,0,1,0-20.155l23.333-40A20,20,0,0,1,46.487,0Z" transform="translate(365.652 1067) rotate(-30)" fill="#fff"/>
    </g>
    <g id="icon_원무과퇴원수속-2" data-name="icon_원무과퇴원수속" transform="translate(675.149 1801.098)">
      <path id="패스_636" data-name="패스 636" d="M38.782,13.169l-6.3,9.656,6.3,9.657,4.2-7.978Z" transform="translate(-3.779 -1.532)" fill="#5ba7fb"/>
      <path id="패스_637" data-name="패스 637" d="M38.782,13.169l-6.3,9.656,6.3,9.657,4.2-7.978Z" transform="translate(-3.779 -1.532)" fill="none" stroke="#3a4851" stroke-linecap="round" stroke-linejoin="round" stroke-width="1.5"/>
      <g id="그룹_548" data-name="그룹 548" transform="translate(0 0)">
        <g id="그룹_547" data-name="그룹 547" clip-path="url(#clip-path-2)">
          <path id="패스_638" data-name="패스 638" d="M50.075,29.725A12.864,12.864,0,0,0,42.46,17.984l-5.254,9.1-5.256-9.1a12.864,12.864,0,0,0-7.616,11.741v9.194h7.02v0h11.7v0h7.02Z" transform="translate(-2.831 -2.092)" fill="#5ba7fb"/>
          <path id="패스_639" data-name="패스 639" d="M50.075,29.725A12.864,12.864,0,0,0,42.46,17.984l-5.254,9.1-5.256-9.1a12.864,12.864,0,0,0-7.616,11.741v9.194h7.02v0h11.7v0h7.02Z" transform="translate(-2.831 -2.092)" fill="none" stroke="#3a4851" stroke-linecap="round" stroke-linejoin="round" stroke-width="1.5"/>
          <path id="패스_640" data-name="패스 640" d="M46.3,9.342A8.525,8.525,0,1,1,37.778.816,8.525,8.525,0,0,1,46.3,9.342" transform="translate(-3.403 -0.095)" fill="#fff"/>
          <path id="패스_641" data-name="패스 641" d="M46.3,9.342A8.525,8.525,0,1,1,37.778.816,8.525,8.525,0,0,1,46.3,9.342Z" transform="translate(-3.403 -0.095)" fill="none" stroke="#3a4851" stroke-linecap="round" stroke-linejoin="round" stroke-width="1.5"/>
          <path id="패스_642" data-name="패스 642" d="M68.172,57.607H.75l8.4-18.562H59.776Z" transform="translate(-0.087 -4.542)" fill="#beeaf8"/>
          <path id="패스_643" data-name="패스 643" d="M68.172,57.607H.75l8.4-18.562H59.776Z" transform="translate(-0.087 -4.542)" fill="none" stroke="#3a4851" stroke-linecap="round" stroke-linejoin="round" stroke-width="1.5"/>
          <rect id="사각형_428" data-name="사각형 428" width="18.557" height="15.794" transform="translate(25.095 26.614)" fill="#fff"/>
          <rect id="사각형_429" data-name="사각형 429" width="18.557" height="15.794" transform="translate(25.095 26.614)" fill="none" stroke="#3a4851" stroke-linecap="round" stroke-linejoin="round" stroke-width="1.5"/>
          <path id="패스_644" data-name="패스 644" d="M75.361,3.6V5.682H66.7V3.6H61.832V22.664h18.4V3.6Z" transform="translate(-7.193 -0.419)" fill="#beeaf8"/>
          <path id="패스_645" data-name="패스 645" d="M75.361,3.6V5.682H66.7V3.6H61.832V22.664h18.4V3.6Z" transform="translate(-7.193 -0.419)" fill="none" stroke="#3a4851" stroke-linecap="round" stroke-linejoin="round" stroke-width="1.5"/>
          <rect id="사각형_430" data-name="사각형 430" width="8.658" height="4.6" transform="translate(59.51 0.663)" fill="#fff"/>
          <rect id="사각형_431" data-name="사각형 431" width="8.658" height="4.6" transform="translate(59.51 0.663)" fill="none" stroke="#3a4851" stroke-linecap="round" stroke-linejoin="round" stroke-width="1.5"/>
          <path id="패스_646" data-name="패스 646" d="M67.159,14.781,70.7,18.237l5.876-6.05" transform="translate(-7.812 -1.417)" fill="none" stroke="#3a4851" stroke-linecap="round" stroke-linejoin="round" stroke-width="1.5"/>
          <path id="패스_647" data-name="패스 647" d="M15.171,16.216A3.313,3.313,0,1,1,11.858,12.9a3.313,3.313,0,0,1,3.313,3.314" transform="translate(-0.994 -1.501)" fill="#fff"/>
          <path id="패스_648" data-name="패스 648" d="M15.171,16.216A3.313,3.313,0,1,1,11.858,12.9,3.313,3.313,0,0,1,15.171,16.216Z" transform="translate(-0.994 -1.501)" fill="none" stroke="#3a4851" stroke-linecap="round" stroke-linejoin="round" stroke-width="1.5"/>
        </g>
      </g>
    </g>
  </g>
</svg>
