<svg xmlns="http://www.w3.org/2000/svg" width="70" height="70" viewBox="0 0 70 70">
  <g id="ico_dpt21" transform="translate(-290 -723)">
    <path id="패스_894" data-name="패스 894" d="M70,35A35,35,0,1,1,35,0,35,35,0,0,1,70,35" transform="translate(290 723)" fill="#f2f2f1"/>
    <g id="그룹_989" data-name="그룹 989" transform="translate(160.346 -9.076)">
      <g id="그룹_988" data-name="그룹 988" transform="translate(138.043 742.635)">
        <circle id="타원_228" data-name="타원 228" cx="4" cy="4" r="4" transform="translate(32.611 3.441)" fill="#fff"/>
        <path id="패스_1393" data-name="패스 1393" d="M34.469,13.779,31.281,15.25l-1.715,5.516-.736,6.5v2.82l-4.291-1.471-3.187-.736-1.715.736-2.574,3.923L14,37.194,11.3,41.24l.734,2.7L14,44.672l3.066-1.716,1.225-2.329,1.35-2.329.734,1.1v8.213l2.207,1.349,1.961-1.349,1.35-1.594V35.11l2.941.736,2.451,1.349h3.188l1.84-1.349,1.227-2.7.857-6.5.857-7.11-.857-3.678L36.309,14.27Z" fill="#fff"/>
        <path id="패스_1384" data-name="패스 1384" d="M73.9,10.22h0a5.11,5.11,0,1,1,5.062-4.46A5.1,5.1,0,0,1,73.9,10.22m-.011-8.477a3.367,3.367,0,0,0-.423,6.706,3.467,3.467,0,0,0,.434.027,3.367,3.367,0,0,0,.422-6.706,3.448,3.448,0,0,0-.434-.027" transform="translate(-37.705 2.212)" fill="#231815"/>
        <path id="패스_1385" data-name="패스 1385" d="M33.676,61.537a1.7,1.7,0,0,1-.211-.012,3.611,3.611,0,0,1-3.14-3.619l.045-5.406L28.03,56a3.611,3.611,0,0,1-3.447,1.567,3.563,3.563,0,0,1-1.541-.578A3.6,3.6,0,0,1,22.053,52l7.758-11.592a3.6,3.6,0,0,1,4.167-1.4L38.859,40.7l1.4-10.906A5.526,5.526,0,0,1,51.22,31.2L49.429,45.161a5.535,5.535,0,0,1-5.475,4.823h0a5.612,5.612,0,0,1-.709-.046.849.849,0,0,1-.188-.046l-5.456-2-.083,10.068a3.607,3.607,0,0,1-3.6,3.567l-.105,0c-.047,0-.094,0-.14,0m-2.41-12.813a.855.855,0,0,1,.256.039.872.872,0,0,1,.615.84l-.069,8.318A1.866,1.866,0,0,0,33.682,59.8l-.006,0,.07,0c.048,0,.1,0,.143,0h0a1.867,1.867,0,0,0,1.885-1.839l.093-11.3a.871.871,0,0,1,1.171-.811l6.52,2.386a3.8,3.8,0,0,0,4.14-3.281L49.49,30.977a3.787,3.787,0,0,0-3.271-4.233,3.963,3.963,0,0,0-.487-.031,3.788,3.788,0,0,0-3.746,3.3L40.452,41.984a.872.872,0,0,1-1.15.713l-5.9-2.043a1.878,1.878,0,0,0-2.148.721L23.5,52.966a1.855,1.855,0,0,0,.509,2.571,1.836,1.836,0,0,0,.794.3,1.866,1.866,0,0,0,1.776-.808l3.96-5.916a.871.871,0,0,1,.725-.387" transform="translate(-10.994 -11.876)" fill="#202020"/>
        <path id="패스_1386" data-name="패스 1386" d="M68.4,73.467a.87.87,0,0,1-.779-.48l-4.087-8.118a.872.872,0,0,1,.779-1.263h9.28l3.488-16.787a.871.871,0,1,1,1.707.355L75.153,64.655a.871.871,0,0,1-.853.694H65.725L69.175,72.2a.872.872,0,0,1-.778,1.263" transform="translate(-34.688 -23.812)" fill="#62b6f5"/>
        <circle id="타원_229" data-name="타원 229" cx="7" cy="7" r="7" transform="translate(9.537 7.962)" fill="#fff"/>
        <path id="패스_1387" data-name="패스 1387" d="M7.339,14.677a7.339,7.339,0,1,1,7.339-7.339,7.347,7.347,0,0,1-7.339,7.339m0-13.428a6.089,6.089,0,1,0,6.09,6.089,6.1,6.1,0,0,0-6.09-6.089" transform="translate(8.934 7.635)" fill="#202020" stroke="#202020" stroke-width="0.5"/>
        <rect id="사각형_1207" data-name="사각형 1207" width="37.223" height="51.873" transform="translate(8)" fill="none"/>
      </g>
      <rect id="사각형_1208" data-name="사각형 1208" width="2.387" height="6.962" transform="translate(153.34 754.257)" fill="#62b6f5"/>
      <rect id="사각형_1209" data-name="사각형 1209" width="6.963" height="2.387" transform="translate(151.051 756.544)" fill="#62b6f5"/>
    </g>
  </g>
</svg>
