<svg xmlns="http://www.w3.org/2000/svg" xmlns:xlink="http://www.w3.org/1999/xlink" width="70" height="70" viewBox="0 0 70 70">
  <defs>
    <clipPath id="clip-path">
      <rect id="사각형_565" data-name="사각형 565" width="56.542" height="43.864" fill="none"/>
    </clipPath>
  </defs>
  <g id="ico_dpt9" transform="translate(-29.999 -30)">
    <path id="패스_898" data-name="패스 898" d="M70.265,35.534a35,35,0,1,1-35-35,35,35,0,0,1,35,35" transform="translate(29.734 29.466)" fill="#f4f5f9"/>
    <g id="그룹_727" data-name="그룹 727" transform="translate(36.73 43.568)">
      <g id="그룹_726" data-name="그룹 726" clip-path="url(#clip-path)">
        <path id="패스_915" data-name="패스 915" d="M40.323.75A10.949,10.949,0,0,0,29.374,11.7a10.95,10.95,0,0,0-21.9,0,28.354,28.354,0,0,0,10.33,21.889l11.569,9.526,11.568-9.526A28.354,28.354,0,0,0,51.272,11.7,10.949,10.949,0,0,0,40.323.75" transform="translate(0 0)" fill="#fff" stroke="#202020" stroke-width="1.5"/>
        <path id="패스_917" data-name="패스 917" d="M27.848,33.9a2.222,2.222,0,0,1-2.1-1.485l-5.322-15.12-1.816,5.289a2.222,2.222,0,0,1-2.1,1.5H2.973a2.223,2.223,0,1,1,0-4.446h11.95L18.3,9.8a2.224,2.224,0,0,1,2.094-1.5H20.4a2.224,2.224,0,0,1,2.1,1.485L27.778,24.78l3.035-9.22a2.223,2.223,0,0,1,4.192-.088l2.485,6.606,1.795-2.333a2.224,2.224,0,0,1,1.762-.868H53.569a2.223,2.223,0,1,1,0,4.446H42.141l-3.563,4.632a2.223,2.223,0,0,1-3.842-.573l-1.672-4.443-3.1,9.432A2.224,2.224,0,0,1,27.871,33.9Z" transform="translate(0 0)" fill="#ff375a"/>
        <path id="패스_918" data-name="패스 918" d="M27.848,33.9a2.222,2.222,0,0,1-2.1-1.485l-5.322-15.12-1.816,5.289a2.222,2.222,0,0,1-2.1,1.5H2.973a2.223,2.223,0,1,1,0-4.446h11.95L18.3,9.8a2.224,2.224,0,0,1,2.094-1.5H20.4a2.224,2.224,0,0,1,2.1,1.485L27.778,24.78l3.035-9.22a2.223,2.223,0,0,1,4.192-.088l2.485,6.606,1.795-2.333a2.224,2.224,0,0,1,1.762-.868H53.569a2.223,2.223,0,1,1,0,4.446H42.141l-3.563,4.632a2.223,2.223,0,0,1-3.842-.573l-1.672-4.443-3.1,9.432A2.224,2.224,0,0,1,27.871,33.9Z" transform="translate(0 0)" fill="none" stroke="#202020" stroke-linecap="round" stroke-linejoin="round" stroke-width="1.5"/>
      </g>
    </g>
  </g>
</svg>
