<svg xmlns="http://www.w3.org/2000/svg" width="70" height="70" viewBox="0 0 70 70">
  <g id="ico_dpt29" transform="translate(-1000 -571)">
    <path id="패스_703" data-name="패스 703" d="M70,35A35,35,0,1,1,35,0,35,35,0,0,1,70,35" transform="translate(1000 571)" fill="#f4f5f9"/>
    <g id="그룹_798" data-name="그룹 798" transform="translate(1000.09 571.091)">
      <path id="패스_705" data-name="패스 705" d="M40.519,58.289V56.628a2.459,2.459,0,0,0-2.94-2.411,28.3,28.3,0,0,1-11.212,0,2.459,2.459,0,0,0-2.94,2.411v1.661h-.3a1.609,1.609,0,0,0,0,3.217h.3v1a2.445,2.445,0,0,0,1.9,2.4,30.659,30.659,0,0,0,13.3,0,2.445,2.445,0,0,0,1.9-2.4v-1a1.609,1.609,0,0,0,0-3.217Z" transform="translate(3.088 -4.44)" fill="#fff" stroke="#202020" stroke-linejoin="round" stroke-width="1.5"/>
      <path id="패스_707" data-name="패스 707" d="M40.519,40.485V38.824a2.459,2.459,0,0,0-2.94-2.411,28.3,28.3,0,0,1-11.212,0,2.459,2.459,0,0,0-2.94,2.411v1.661h-.3a1.609,1.609,0,0,0,0,3.217h.3v1a2.445,2.445,0,0,0,1.9,2.4,30.658,30.658,0,0,0,13.3,0,2.445,2.445,0,0,0,1.9-2.4v-1a1.609,1.609,0,0,0,0-3.217Z" transform="translate(3.088 -0.335)" fill="#fff" stroke="#202020" stroke-linejoin="round" stroke-width="1.5"/>
      <path id="패스_709" data-name="패스 709" d="M40.519,22.682V21.021a2.459,2.459,0,0,0-2.94-2.411,28.3,28.3,0,0,1-11.212,0,2.459,2.459,0,0,0-2.94,2.411v1.661h-.3a1.609,1.609,0,0,0,0,3.217h.3v1a2.445,2.445,0,0,0,1.9,2.4,30.659,30.659,0,0,0,13.3,0,2.445,2.445,0,0,0,1.9-2.4v-1a1.609,1.609,0,0,0,0-3.217Z" transform="translate(3.088 3.769)" fill="#90e2ac" stroke="#202020" stroke-linejoin="round" stroke-width="1.5"/>
      <path id="패스_711" data-name="패스 711" d="M40.519,4.878V3.217A2.459,2.459,0,0,0,37.579.805a28.3,28.3,0,0,1-11.212,0,2.459,2.459,0,0,0-2.94,2.411V4.878h-.3a1.609,1.609,0,0,0,0,3.217h.3v1a2.445,2.445,0,0,0,1.9,2.4,30.659,30.659,0,0,0,13.3,0,2.445,2.445,0,0,0,1.9-2.4v-1a1.609,1.609,0,0,0,0-3.217Z" transform="translate(3.088 7.874)" fill="#fff" stroke="#202020" stroke-linejoin="round" stroke-width="1.5"/>
    </g>
  </g>
</svg>
