<svg xmlns="http://www.w3.org/2000/svg" xmlns:xlink="http://www.w3.org/1999/xlink" width="90" height="90" viewBox="0 0 90 90">
  <defs>
    <clipPath id="clip-path">
      <rect id="사각형_671" data-name="사각형 671" width="50.289" height="52.491" fill="none"/>
    </clipPath>
  </defs>
  <g id="ico_cont_223_3" transform="translate(-260 -1927)">
    <g id="타원_129" data-name="타원 129" transform="translate(260 1927)" fill="none" stroke="#f5f5f5" stroke-width="1">
      <circle cx="45" cy="45" r="45" stroke="none"/>
      <circle cx="45" cy="45" r="44.5" fill="none"/>
    </g>
    <g id="그룹_819" data-name="그룹 819" transform="translate(278.855 1944.255)">
      <g id="그룹_818" data-name="그룹 818" transform="translate(0 0)" clip-path="url(#clip-path)">
        <path id="패스_1042" data-name="패스 1042" d="M52.4,52.491a.964.964,0,0,1-.964-.964V36.578A10.166,10.166,0,0,0,41.279,26.424H35.3a.965.965,0,0,1-.964-.964V23.1a.965.965,0,0,1,.964-.964h1.656c.351-.078,1.918-.5,1.918-1.822V17.525a.964.964,0,0,1,.964-.964H41l-1.17-3.869a.97.97,0,0,1-.03-.422,9.17,9.17,0,0,0,.1-1.354,8.988,8.988,0,1,0-15.675,6,.967.967,0,0,1,.247.645v7.895a.964.964,0,0,1-.964.964h-5.5A10.166,10.166,0,0,0,7.861,36.578V51.527a.964.964,0,0,1-1.928,0V36.578A12.1,12.1,0,0,1,18.016,24.5h4.533V17.924a10.916,10.916,0,1,1,19.285-7.008,11.059,11.059,0,0,1-.092,1.421l1.484,4.909a.964.964,0,0,1-.923,1.243H40.8v1.822c0,2.469-2.347,3.524-3.588,3.737a.974.974,0,0,1-.163.013h-.788V24.5h5.018A12.1,12.1,0,0,1,53.362,36.578V51.527a.964.964,0,0,1-.964.964" transform="translate(-3.073 0)" fill="#333"/>
        <path id="패스_1043" data-name="패스 1043" d="M22.089,94.04a.964.964,0,0,1-.964-.964V81.188a.964.964,0,1,1,1.928,0V93.076a.964.964,0,0,1-.964.964" transform="translate(-10.941 -41.549)" fill="#231815"/>
        <path id="패스_1044" data-name="패스 1044" d="M86.089,94.04a.964.964,0,0,1-.964-.964V81.188a.964.964,0,1,1,1.928,0V93.076a.964.964,0,0,1-.964.964" transform="translate(-44.088 -41.549)" fill="#231815"/>
        <path id="패스_1045" data-name="패스 1045" d="M26.689,51.141a2.25,2.25,0,1,0-2.25,2.25,2.25,2.25,0,0,0,2.25-2.25" transform="translate(-11.492 -25.321)" fill="#a3daf7"/>
        <path id="패스_1046" data-name="패스 1046" d="M23.4,53.319a3.214,3.214,0,1,1,3.214-3.214A3.218,3.218,0,0,1,23.4,53.319m0-4.5a1.286,1.286,0,1,0,1.286,1.286A1.287,1.287,0,0,0,23.4,48.819" transform="translate(-10.456 -24.286)" fill="#a3daf7"/>
        <path id="패스_1047" data-name="패스 1047" d="M9.125,40.792l-3.891-2.55-.805,2.55L0,36.9l3.22.671.805-2.415Z" transform="translate(0 -18.208)" fill="#a3daf7"/>
        <path id="패스_1048" data-name="패스 1048" d="M18.638,30.543,17.1,24.951l-2.854,1.721-.934-7.289,2.459,3.282,2.744-1.595Z" transform="translate(-6.894 -10.039)" fill="#a3daf7"/>
      </g>
    </g>
  </g>
</svg>
