<svg xmlns="http://www.w3.org/2000/svg" xmlns:xlink="http://www.w3.org/1999/xlink" width="70" height="70" viewBox="0 0 70 70">
  <defs>
    <clipPath id="clip-path">
      <rect id="사각형_560" data-name="사각형 560" width="38.885" height="56.803" fill="none"/>
    </clipPath>
  </defs>
  <g id="ico_dpt17" transform="translate(-289.999 -571)">
    <path id="패스_895" data-name="패스 895" d="M70.265,35.534a35,35,0,1,1-35-35,35,35,0,0,1,35,35" transform="translate(289.734 570.466)" fill="#f4f5f9"/>
    <g id="그룹_718" data-name="그룹 718" transform="translate(305.559 577.599)" clip-path="url(#clip-path)">
      <path id="패스_877" data-name="패스 877" d="M26.528,7.07V3.417A2.667,2.667,0,0,0,23.861.75H15.346a2.668,2.668,0,0,0-2.667,2.667V7.07a18.854,18.854,0,1,0,13.85,0" transform="translate(-0.161 -0.161)" fill="#fff"/>
      <path id="패스_878" data-name="패스 878" d="M26.528,7.07V3.417A2.667,2.667,0,0,0,23.861.75H15.346a2.668,2.668,0,0,0-2.667,2.667V7.07a18.854,18.854,0,1,0,13.85,0Z" transform="translate(-0.161 -0.161)" fill="none" stroke="#202020" stroke-linecap="round" stroke-linejoin="round" stroke-width="1.5"/>
      <path id="패스_879" data-name="패스 879" d="M33.444,27.866A11.949,11.949,0,1,1,21.494,15.917,11.949,11.949,0,0,1,33.444,27.866" transform="translate(-2.052 -3.422)" fill="#90e2ac"/>
      <circle id="타원_47" data-name="타원 47" cx="11.949" cy="11.949" r="11.949" transform="translate(7.493 12.495)" fill="none" stroke="#202020" stroke-miterlimit="10" stroke-width="1.5"/>
      <path id="패스_880" data-name="패스 880" d="M34.673,54.4H7.389l6.688-13.125H27.985Z" transform="translate(-1.588 -8.873)" fill="#fff"/>
      <path id="패스_881" data-name="패스 881" d="M34.673,54.4H7.389l6.688-13.125H27.985Z" transform="translate(-1.588 -8.873)" fill="none" stroke="#202020" stroke-linecap="round" stroke-linejoin="round" stroke-width="1.5"/>
      <rect id="사각형_554" data-name="사각형 554" width="27.284" height="4.347" transform="translate(5.8 45.526)" fill="#e5e5e5"/>
      <rect id="사각형_555" data-name="사각형 555" width="27.284" height="4.347" transform="translate(5.8 45.526)" fill="none" stroke="#202020" stroke-miterlimit="10" stroke-width="1.5"/>
      <rect id="사각형_556" data-name="사각형 556" width="21.522" height="6.341" transform="translate(8.681 49.873)" fill="#e5e5e5"/>
      <rect id="사각형_557" data-name="사각형 557" width="21.522" height="6.341" transform="translate(8.681 49.873)" fill="none" stroke="#202020" stroke-miterlimit="10" stroke-width="1.5"/>
      <rect id="사각형_558" data-name="사각형 558" width="4.8" height="2.742" transform="translate(17.043 4.361)" fill="#fff"/>
      <rect id="사각형_559" data-name="사각형 559" width="4.8" height="2.742" transform="translate(17.043 4.361)" fill="none" stroke="#202020" stroke-linecap="round" stroke-linejoin="round" stroke-width="1.5"/>
    </g>
  </g>
</svg>
