<svg xmlns="http://www.w3.org/2000/svg" width="62.5" height="70.5" viewBox="0 0 62.5 70.5">
  <g id="ico_reserv01" transform="translate(-705.362 -142.497)">
    <path id="패스_1450" data-name="패스 1450" d="M750.064,211.747H711.937a5.38,5.38,0,0,1-5.325-5.431V149.995a5.379,5.379,0,0,1,5.325-5.43h38.127a5.377,5.377,0,0,1,5.325,5.43v56.321a5.379,5.379,0,0,1-5.325,5.431" fill="#91dfe6"/>
    <path id="패스_1451" data-name="패스 1451" d="M750.064,211.747H711.937a5.38,5.38,0,0,1-5.325-5.431V149.995a5.379,5.379,0,0,1,5.325-5.43h38.127a5.377,5.377,0,0,1,5.325,5.43v56.321A5.379,5.379,0,0,1,750.064,211.747Z" fill="none" stroke="#333" stroke-linecap="round" stroke-linejoin="round" stroke-width="2.5"/>
    <rect id="사각형_1270" data-name="사각형 1270" width="36.355" height="54.511" transform="translate(712.823 150.899)" fill="#fff"/>
    <rect id="사각형_1271" data-name="사각형 1271" width="36.355" height="54.511" transform="translate(712.823 150.899)" fill="none" stroke="#333" stroke-linecap="round" stroke-linejoin="round" stroke-width="2.5"/>
    <rect id="사각형_1272" data-name="사각형 1272" width="24.842" height="7.153" transform="translate(718.58 143.747)" fill="#fff"/>
    <rect id="사각형_1273" data-name="사각형 1273" width="24.842" height="7.153" transform="translate(718.58 143.747)" fill="none" stroke="#333" stroke-linecap="round" stroke-linejoin="round" stroke-width="2.5"/>
    <path id="패스_1452" data-name="패스 1452" d="M736.681,161.4H733.4v-3.349H728.6V161.4h-3.283v4.889H728.6v3.349H733.4v-3.349h3.283Z" fill="#91dfe6"/>
    <rect id="사각형_1274" data-name="사각형 1274" width="4.803" height="4.9" transform="translate(717.813 173.271)" fill="#fff"/>
    <rect id="사각형_1275" data-name="사각형 1275" width="4.803" height="4.9" transform="translate(717.813 173.271)" fill="none" stroke="#333" stroke-linecap="round" stroke-linejoin="round" stroke-width="2.5"/>
    <line id="선_457" data-name="선 457" x2="16.704" transform="translate(727.487 175.721)" fill="#fff"/>
    <line id="선_458" data-name="선 458" x2="16.704" transform="translate(727.487 175.721)" fill="none" stroke="#333" stroke-linecap="round" stroke-linejoin="round" stroke-width="2.5"/>
    <rect id="사각형_1276" data-name="사각형 1276" width="4.803" height="4.901" transform="translate(717.813 182.868)" fill="#fff"/>
    <rect id="사각형_1277" data-name="사각형 1277" width="4.803" height="4.901" transform="translate(717.813 182.868)" fill="none" stroke="#333" stroke-linecap="round" stroke-linejoin="round" stroke-width="2.5"/>
    <line id="선_459" data-name="선 459" x2="16.704" transform="translate(727.487 185.318)" fill="#fff"/>
    <line id="선_460" data-name="선 460" x2="16.704" transform="translate(727.487 185.318)" fill="none" stroke="#333" stroke-linecap="round" stroke-linejoin="round" stroke-width="2.5"/>
    <rect id="사각형_1278" data-name="사각형 1278" width="4.803" height="4.9" transform="translate(717.813 192.465)" fill="#fff"/>
    <rect id="사각형_1279" data-name="사각형 1279" width="4.803" height="4.9" transform="translate(717.813 192.465)" fill="none" stroke="#333" stroke-linecap="round" stroke-linejoin="round" stroke-width="2.5"/>
    <line id="선_461" data-name="선 461" x2="16.704" transform="translate(727.487 194.915)" fill="#fff"/>
    <line id="선_462" data-name="선 462" x2="16.704" transform="translate(727.487 194.915)" fill="none" stroke="#333" stroke-linecap="round" stroke-linejoin="round" stroke-width="2.5"/>
    <path id="패스_1453" data-name="패스 1453" d="M744.6,196.084l-4.185-4.269,22.009-22.449,4.186,4.27Z" fill="#91dfe6"/>
    <path id="패스_1454" data-name="패스 1454" d="M744.6,196.084l-4.185-4.269,22.009-22.449,4.186,4.27Z" fill="none" stroke="#333" stroke-linecap="round" stroke-linejoin="round" stroke-width="2.5"/>
    <path id="패스_1455" data-name="패스 1455" d="M736.236,200.349l4.181-8.534,4.186,4.269Z" fill="#fff"/>
    <path id="패스_1456" data-name="패스 1456" d="M736.236,200.349l4.181-8.534,4.186,4.269Z" fill="none" stroke="#333" stroke-linecap="round" stroke-linejoin="round" stroke-width="2.5"/>
  </g>
</svg>
