<svg xmlns="http://www.w3.org/2000/svg" xmlns:xlink="http://www.w3.org/1999/xlink" width="90" height="90" viewBox="0 0 90 90">
  <defs>
    <clipPath id="clip-path">
      <rect id="사각형_678" data-name="사각형 678" width="61.523" height="47.348" fill="none"/>
    </clipPath>
  </defs>
  <g id="ico_cont_223_11" transform="translate(-260 -4280)">
    <g id="타원_137" data-name="타원 137" transform="translate(260 4280)" fill="none" stroke="#f5f5f5" stroke-width="1">
      <circle cx="45" cy="45" r="45" stroke="none"/>
      <circle cx="45" cy="45" r="44.5" fill="none"/>
    </g>
    <g id="그룹_837" data-name="그룹 837" transform="translate(278.693 4303.878)">
      <g id="그룹_836" data-name="그룹 836" transform="translate(0 0)" clip-path="url(#clip-path)">
        <path id="패스_1099" data-name="패스 1099" d="M87.8,90.643a.787.787,0,0,1-.769-.948c.01-.047,1.009-4.792,1.778-10.484a.785.785,0,1,1,1.557.21c-.778,5.753-1.788,10.551-1.8,10.6a.786.786,0,0,1-.767.623" transform="translate(-47.972 -43.294)" fill="#333" stroke="#333" stroke-width="0.5"/>
        <path id="패스_1100" data-name="패스 1100" d="M45.12,31.649c-.024,0-.048,0-.072,0a.786.786,0,0,1-.711-.853,65.99,65.99,0,0,0,.311-6.76,19.609,19.609,0,0,0-2.563-9.86C35.809,4.4,14.773,2.1,6.02,1.57A.785.785,0,0,1,6.116,0c11.169.682,30.865,3.32,37.292,13.322a21.221,21.221,0,0,1,2.812,10.687,67.763,67.763,0,0,1-.318,6.924.785.785,0,0,1-.781.714" transform="translate(-2.912 0)" fill="#333" stroke="#333" stroke-width="0.5"/>
        <path id="패스_1101" data-name="패스 1101" d="M14.718,79.712H14.7a.785.785,0,0,1-.765-.8c.054-2.133.218-4.056.363-5.752.347-4.071.6-7.014-.873-9.481C12.245,61.7,7.631,60.46.764,60.274A.785.785,0,1,1,.807,58.7c5.323.144,12.067.984,13.965,4.165,1.73,2.9,1.447,6.219,1.089,10.42-.143,1.675-.305,3.572-.358,5.658a.785.785,0,0,1-.785.765" transform="translate(0 -32.364)" fill="#333" stroke="#333" stroke-width="0.5"/>
        <path id="패스_1102" data-name="패스 1102" d="M122.781,36.878a.785.785,0,0,1-.521-1.373,14.279,14.279,0,0,0,4.849-9.057,14.743,14.743,0,0,0-4.14-11.931.785.785,0,1,1,1.137-1.084,16.308,16.308,0,0,1,4.562,13.2A16.045,16.045,0,0,1,123.3,36.681a.784.784,0,0,1-.52.2" transform="translate(-67.257 -7.271)" fill="#a3daf7"/>
        <path id="패스_1103" data-name="패스 1103" d="M114.4,36.96a.785.785,0,0,1-.512-1.382,10.066,10.066,0,0,0,3.507-6.411,10.256,10.256,0,0,0-3.167-8.574.785.785,0,0,1,1.1-1.122,11.812,11.812,0,0,1,3.627,9.886,11.628,11.628,0,0,1-4.044,7.414.782.782,0,0,1-.511.189" transform="translate(-62.638 -10.611)" fill="#a3daf7"/>
        <path id="패스_1104" data-name="패스 1104" d="M106.488,37.047a.785.785,0,0,1-.49-1.4,5.9,5.9,0,0,0,2.24-3.9,6.109,6.109,0,0,0-2.247-5.374.785.785,0,0,1,1.011-1.2,7.671,7.671,0,0,1,2.8,6.764,7.462,7.462,0,0,1-2.821,4.937.781.781,0,0,1-.489.171" transform="translate(-58.274 -13.777)" fill="#a3daf7"/>
      </g>
    </g>
  </g>
</svg>
