<svg xmlns="http://www.w3.org/2000/svg" width="70" height="70" viewBox="0 0 70 70">
  <g id="ico_dpt13" transform="translate(-29.999 -30)">
    <g id="그룹_1094" data-name="그룹 1094">
      <g id="icon12">
        <path id="패스_826" data-name="패스 826" d="M70.265,35.534a35,35,0,1,1-35-35,35,35,0,0,1,35,35" transform="translate(29.734 29.466)" fill="#f4f5f9"/>
      </g>
    </g>
    <g id="그룹_1075" data-name="그룹 1075" transform="translate(-281.289 -286.544)">
      <path id="패스_1468" data-name="패스 1468" d="M391.93,368.011a1.93,1.93,0,0,0,1.93-1.93V353.675a4.291,4.291,0,0,1,1.266-3.055l1.956-1.957A8.182,8.182,0,0,0,391.3,334.7h-8.3a1.93,1.93,0,0,0,0,3.861h8.3a4.321,4.321,0,0,1,3.056,7.377L392.4,347.89a8.128,8.128,0,0,0-2.4,5.785v12.406A1.93,1.93,0,0,0,391.93,368.011Z" transform="translate(-28.889 -3.007)" fill="#fff" stroke="#202020" stroke-linecap="round" stroke-linejoin="round" stroke-width="1.5"/>
      <ellipse id="타원_315" data-name="타원 315" cx="5.266" cy="6.938" rx="5.266" ry="6.938" transform="translate(357.774 356.136)" fill="#62b6f5" stroke="#202020" stroke-linecap="round" stroke-linejoin="round" stroke-width="1.5"/>
      <path id="패스_1469" data-name="패스 1469" d="M330.671,368.011a1.93,1.93,0,0,1-1.93-1.93V353.675a4.29,4.29,0,0,0-1.266-3.055l-1.956-1.957A8.182,8.182,0,0,1,331.3,334.7h8.3a1.93,1.93,0,1,1,0,3.861h-8.3a4.321,4.321,0,0,0-3.056,7.377l1.957,1.957a8.128,8.128,0,0,1,2.4,5.785v12.406A1.93,1.93,0,0,1,330.671,368.011Z" transform="translate(0 -3.007)" fill="#fff" stroke="#202020" stroke-linecap="round" stroke-linejoin="round" stroke-width="1.5"/>
      <path id="패스_1470" data-name="패스 1470" d="M370.5,382.138v.761a4.9,4.9,0,0,1-1.964,3.982l-3.138,2.245a4.975,4.975,0,0,1-1.362.695,4.774,4.774,0,0,1-2.951.006,5.153,5.153,0,0,1-1.362-.7l-3.133-2.245a4.889,4.889,0,0,1-1.969-3.982v-.761a2.955,2.955,0,0,1,2.554-3.034V360.021h10.772V379.1A2.951,2.951,0,0,1,370.5,382.138Z" transform="translate(-15.705 -15.634)" fill="#ffd4dc" stroke="#202020" stroke-linecap="round" stroke-linejoin="round" stroke-width="1.5"/>
      <path id="패스_1471" data-name="패스 1471" d="M370.464,357.733v30.948a4.774,4.774,0,0,1-2.951.006V357.733Z" transform="translate(-22.133 -14.493)" fill="#e5e5e5" stroke="#202020" stroke-linecap="round" stroke-linejoin="round" stroke-width="1.5"/>
      <ellipse id="타원_316" data-name="타원 316" cx="13.412" cy="9.109" rx="13.412" ry="9.109" transform="translate(333.444 328.665)" fill="#ffd4dc" stroke="#202020" stroke-linecap="round" stroke-linejoin="round" stroke-width="1.5"/>
      <ellipse id="타원_317" data-name="타원 317" cx="5.266" cy="6.938" rx="5.266" ry="6.938" transform="translate(325.405 356.136)" fill="#62b6f5" stroke="#202020" stroke-linecap="round" stroke-linejoin="round" stroke-width="1.5"/>
    </g>
  </g>
</svg>
