<svg xmlns="http://www.w3.org/2000/svg" xmlns:xlink="http://www.w3.org/1999/xlink" width="100" height="100" viewBox="0 0 100 100">
  <defs>
    <clipPath id="clip-path">
      <rect id="사각형_295" data-name="사각형 295" width="56" height="51.491" fill="none"/>
    </clipPath>
  </defs>
  <g id="icon03" transform="translate(-260 -1300)">
    <rect id="사각형_271" data-name="사각형 271" width="100" height="100" rx="30" transform="translate(260 1300)" fill="#f1f7fb"/>
    <g id="icon03-2" data-name="icon03" transform="translate(282 1324.255)">
      <line id="선_70" data-name="선 70" x2="3.29" y2="3.289" transform="translate(11.819 13.428)" fill="#fff"/>
      <line id="선_71" data-name="선 71" x2="3.29" y2="3.289" transform="translate(11.819 13.428)" fill="none" stroke="#a9d1ea" stroke-linecap="round" stroke-width="2"/>
      <g id="그룹_383" data-name="그룹 383" transform="translate(0 0)">
        <g id="그룹_382" data-name="그룹 382" clip-path="url(#clip-path)">
          <path id="패스_387" data-name="패스 387" d="M20.195,24.853,16.9,21.563A1.481,1.481,0,0,1,19,19.468l3.291,3.29a1.481,1.481,0,0,1-2.095,2.094" transform="translate(-6.133 -7.088)" fill="#fff"/>
          <path id="패스_388" data-name="패스 388" d="M20.195,24.853,16.9,21.563A1.481,1.481,0,0,1,19,19.468l3.291,3.29a1.481,1.481,0,0,1-2.095,2.094Z" transform="translate(-6.133 -7.088)" fill="none" stroke="#a9d1ea" stroke-linecap="round" stroke-width="2"/>
          <line id="선_72" data-name="선 72" x1="3.29" y2="3.289" transform="translate(43.093 13.428)" fill="#fff"/>
          <line id="선_73" data-name="선 73" x1="3.29" y2="3.289" transform="translate(43.093 13.428)" fill="none" stroke="#a9d1ea" stroke-linecap="round" stroke-width="2"/>
          <path id="패스_389" data-name="패스 389" d="M66.733,24.853a1.482,1.482,0,0,1,0-2.1l3.291-3.289a1.481,1.481,0,0,1,2.094,2.095l-3.29,3.291a1.483,1.483,0,0,1-2.095,0" transform="translate(-24.689 -7.088)" fill="#fff"/>
          <path id="패스_390" data-name="패스 390" d="M66.733,24.853a1.482,1.482,0,0,1,0-2.1l3.291-3.289a1.481,1.481,0,0,1,2.094,2.095l-3.29,3.291a1.483,1.483,0,0,1-2.095,0Z" transform="translate(-24.689 -7.088)" fill="none" stroke="#a9d1ea" stroke-linecap="round" stroke-width="2"/>
          <line id="선_74" data-name="선 74" x1="2.189" y2="5.113" transform="translate(15.591 44.268)" fill="#fff"/>
          <line id="선_75" data-name="선 75" x1="2.189" y2="5.113" transform="translate(15.591 44.268)" fill="none" stroke="#a9d1ea" stroke-linecap="round" stroke-width="2"/>
          <path id="패스_391" data-name="패스 391" d="M23.377,76.129a1.482,1.482,0,0,1-.779-1.946l2.19-5.112a1.482,1.482,0,1,1,2.725,1.167l-2.19,5.111a1.479,1.479,0,0,1-1.946.779" transform="translate(-8.371 -25.387)" fill="#fff"/>
          <path id="패스_392" data-name="패스 392" d="M23.377,76.129a1.482,1.482,0,0,1-.779-1.946l2.19-5.112a1.482,1.482,0,1,1,2.725,1.167l-2.19,5.111a1.479,1.479,0,0,1-1.946.779Z" transform="translate(-8.371 -25.387)" fill="none" stroke="#a9d1ea" stroke-linecap="round" stroke-width="2"/>
          <line id="선_76" data-name="선 76" x2="2.19" y2="5.113" transform="translate(40.42 44.268)" fill="#fff"/>
          <line id="선_77" data-name="선 77" x2="2.19" y2="5.113" transform="translate(40.42 44.268)" fill="none" stroke="#a9d1ea" stroke-linecap="round" stroke-width="2"/>
          <path id="패스_393" data-name="패스 393" d="M64.353,75.35l-2.19-5.111a1.481,1.481,0,1,1,2.723-1.167l2.192,5.112a1.481,1.481,0,1,1-2.724,1.166" transform="translate(-23.104 -25.387)" fill="#fff"/>
          <path id="패스_394" data-name="패스 394" d="M64.353,75.35l-2.19-5.111a1.481,1.481,0,1,1,2.723-1.167l2.192,5.112a1.481,1.481,0,1,1-2.724,1.166Z" transform="translate(-23.104 -25.387)" fill="none" stroke="#a9d1ea" stroke-linecap="round" stroke-width="2"/>
          <path id="패스_395" data-name="패스 395" d="M17.963,10.48A7.1,7.1,0,0,0,7.917,20.527a7.47,7.47,0,0,0,.831.7l9.918-9.918a7.329,7.329,0,0,0-.7-.831" transform="translate(-2.174 -3.128)" fill="#a9d1ea"/>
          <path id="패스_396" data-name="패스 396" d="M17.963,10.48A7.1,7.1,0,0,0,7.917,20.527a7.47,7.47,0,0,0,.831.7l9.918-9.918A7.329,7.329,0,0,0,17.963,10.48Z" transform="translate(-2.174 -3.128)" fill="none" stroke="#0074db" stroke-width="2"/>
          <path id="패스_397" data-name="패스 397" d="M67.158,10.48A7.1,7.1,0,1,1,77.2,20.527a7.573,7.573,0,0,1-.83.7l-9.918-9.918a7.317,7.317,0,0,1,.7-.831" transform="translate(-24.747 -3.128)" fill="#a9d1ea"/>
          <path id="패스_398" data-name="패스 398" d="M67.158,10.48A7.1,7.1,0,1,1,77.2,20.527a7.573,7.573,0,0,1-.83.7l-9.918-9.918A7.317,7.317,0,0,1,67.158,10.48Z" transform="translate(-24.747 -3.128)" fill="none" stroke="#0074db" stroke-width="2"/>
          <path id="패스_399" data-name="패스 399" d="M53.826,34.844A18.341,18.341,0,1,1,35.484,16.5a18.341,18.341,0,0,1,18.342,18.34" transform="translate(-6.384 -6.146)" fill="#dceaf4"/>
          <path id="패스_400" data-name="패스 400" d="M53.826,34.844A18.341,18.341,0,1,1,35.484,16.5,18.341,18.341,0,0,1,53.826,34.844Z" transform="translate(-6.384 -6.146)" fill="none" stroke="#a9d1ea" stroke-linecap="round" stroke-width="2"/>
          <path id="패스_401" data-name="패스 401" d="M36.229,52.674A17.085,17.085,0,1,1,53.316,35.589,17.1,17.1,0,0,1,36.229,52.674Z" transform="translate(-7.129 -6.891)" fill="none" stroke="#fff" stroke-linecap="round" stroke-width="2"/>
          <path id="패스_403" data-name="패스 403" d="M76.14,49.825a2.694,2.694,0,1,1-2.694-2.694,2.694,2.694,0,0,1,2.694,2.694" transform="translate(-37.202 -7.039)" fill="#fff"/>
          <path id="패스_404" data-name="패스 404" d="M81.382,72.829a1.552,1.552,0,1,1-1.553-1.553,1.553,1.553,0,0,1,1.553,1.553" transform="translate(-29.149 -26.542)" fill="#a9d1ea"/>
          <line id="선_78" data-name="선 78" y2="4.707" transform="translate(2.354 25.575)" fill="none" stroke="#0074db" stroke-linejoin="round" stroke-width="2"/>
          <line id="선_79" data-name="선 79" x2="4.707" transform="translate(0 27.929)" fill="none" stroke="#0074db" stroke-linejoin="round" stroke-width="2"/>
          <line id="선_80" data-name="선 80" y2="4.707" transform="translate(29.184)" fill="none" stroke="#0074db" stroke-linejoin="round" stroke-width="2"/>
          <line id="선_81" data-name="선 81" x2="4.707" transform="translate(26.83 2.354)" fill="none" stroke="#0074db" stroke-linejoin="round" stroke-width="2"/>
          <line id="선_82" data-name="선 82" x2="1.83" transform="translate(23.43 34.989)" fill="none" stroke="#2f4382" stroke-width="2"/>
          <line id="선_83" data-name="선 83" x2="1.83" transform="translate(27.013 34.989)" fill="none" stroke="#2f4382" stroke-width="2"/>
          <line id="선_84" data-name="선 84" x2="1.83" transform="translate(30.596 34.989)" fill="none" stroke="#2f4382" stroke-width="2"/>
        </g>
      </g>
      <g id="그룹_386" data-name="그룹 386" transform="translate(37 21.745)">
        <g id="그룹_387" data-name="그룹 387" transform="translate(0 0)">
          <path id="패스_405" data-name="패스 405" d="M15.941,2.268a4.332,4.332,0,0,0-6.124,0l-.712.714-.713-.714A4.33,4.33,0,0,0,2.268,8.392l.713.711,6.124,6.124L15.228,9.1l.714-.711a4.332,4.332,0,0,0,0-6.124" transform="translate(-0.263 -0.263)" fill="#fff"/>
          <path id="패스_406" data-name="패스 406" d="M15.941,2.268a4.332,4.332,0,0,0-6.124,0l-.712.714-.713-.714A4.33,4.33,0,0,0,2.268,8.392l.713.711,6.124,6.124L15.228,9.1l.714-.711A4.332,4.332,0,0,0,15.941,2.268Z" transform="translate(-0.263 -0.263)" fill="none" stroke="#ff6161" stroke-width="2"/>
        </g>
      </g>
    </g>
  </g>
</svg>
