<svg xmlns="http://www.w3.org/2000/svg" xmlns:xlink="http://www.w3.org/1999/xlink" width="70" height="70" viewBox="0 0 70 70">
  <defs>
    <clipPath id="clip-path">
      <rect id="사각형_1211" data-name="사각형 1211" width="40.059" height="47.492" fill="none"/>
    </clipPath>
  </defs>
  <g id="ico_dpt25" transform="translate(-290 -716)">
    <path id="패스_900" data-name="패스 900" d="M70,35A35,35,0,1,1,35,0,35,35,0,0,1,70,35" transform="translate(290 716)" fill="#f2f2f1"/>
    <g id="그룹_992" data-name="그룹 992" transform="translate(305.553 726.554)">
      <g id="그룹_991" data-name="그룹 991" transform="translate(0 0)">
        <g id="그룹_990" data-name="그룹 990" transform="translate(0 0)" clip-path="url(#clip-path)">
          <path id="패스_1392" data-name="패스 1392" d="M11,2.5,16.1,1.07h7.49l3.664,2.391,4.463,3.187,3.666,5.9L36.5,19.557v2.39L38.252,28l.639,2.55H34.428v5.418l-2.709,4.144H27.256l-.8,1.115V46.49H5.1V30.553L2.076,25.772.324,19.557l.8-5.737L4.148,8.4l4.3-3.984Z" fill="#fff"/>
          <path id="패스_1388" data-name="패스 1388" d="M37.121,24.536a6.249,6.249,0,0,0-8.837,0l-.24.241-.241-.241a6.248,6.248,0,0,0-8.836,8.837l.24.24,8.837,8.837,8.836-8.837.241-.241a6.248,6.248,0,0,0,0-8.837" transform="translate(-9.661 -12.802)" fill="#ffd4dc"/>
          <path id="패스_1389" data-name="패스 1389" d="M26.916,42.2a.868.868,0,0,1-.617-.256l-9.078-9.078a7.121,7.121,0,0,1,9.694-10.421,7.121,7.121,0,0,1,9.694,10.421L27.533,41.94a.87.87,0,0,1-.617.256M22.257,22.451a5.376,5.376,0,0,0-3.8,9.178l8.46,8.46,8.461-8.461a5.376,5.376,0,0,0-7.6-7.6l-.24.241a.873.873,0,0,1-.617.256h0a.872.872,0,0,1-.617-.256l-.241-.241a5.34,5.34,0,0,0-3.8-1.575" transform="translate(-8.534 -11.675)" fill="#ffd4dc"/>
          <path id="패스_1391" data-name="패스 1391" d="M34.021,36.049a.869.869,0,0,1-.617-.256L28.55,30.939a.872.872,0,0,1,1.233-1.233l4.238,4.237L44.465,23.5A.872.872,0,1,1,45.7,24.732L34.638,35.793a.869.869,0,0,1-.617.256" transform="translate(-15.953 -13.105)" fill="#202020"/>
          <path id="패스_1390" data-name="패스 1390" d="M26.606,47.492H5.447a.872.872,0,0,1-.872-.872V31.009a18.741,18.741,0,1,1,32.91-12.267,18.939,18.939,0,0,1-.182,2.621l2.719,8.993a.873.873,0,0,1-.835,1.125h-3.56v4.13c0,3.862-3.747,5.524-5.729,5.863a.88.88,0,0,1-.147.012H27.478V46.62a.872.872,0,0,1-.872.872M6.319,45.747H25.733V40.614a.872.872,0,0,1,.872-.872h3.063c.559-.112,4.213-.97,4.213-4.131v-5a.872.872,0,0,1,.872-.872h3.256l-2.435-8.054a.873.873,0,0,1-.027-.383,17.228,17.228,0,0,0,.191-2.557A17,17,0,1,0,6.1,30.1a.872.872,0,0,1,.224.583Z" transform="translate(0 0)" fill="#202020"/>
        </g>
      </g>
      <rect id="사각형_1210" data-name="사각형 1210" width="3.502" height="18.736" transform="translate(16.631 26.883)" fill="#ffd4dc"/>
    </g>
  </g>
</svg>
