<svg xmlns="http://www.w3.org/2000/svg" xmlns:xlink="http://www.w3.org/1999/xlink" width="70" height="70" viewBox="0 0 70 70">
  <defs>
    <clipPath id="clip-path">
      <rect id="사각형_1196" data-name="사각형 1196" width="43.586" height="33.728" fill="none"/>
    </clipPath>
  </defs>
  <g id="ico_dpt22" transform="translate(-32.343 -32)">
    <path id="패스_827" data-name="패스 827" d="M70.265,35.534a35,35,0,1,1-35-35,35,35,0,0,1,35,35" transform="translate(32.078 31.466)" fill="#f2f2f1"/>
    <g id="그룹_978" data-name="그룹 978" transform="translate(45.551 50.136)">
      <path id="패스_1329" data-name="패스 1329" d="M-17517.754-2767.864h27.41v7.587l1.053,8.047,3.066,6.8,3.16,10.346h-42.055l3.064-10.346,3.162-6.227,1.533-8.143Z" transform="translate(17525.793 2767.864)" fill="#fff5f7"/>
      <g id="그룹_977" data-name="그룹 977" transform="translate(0 0)" clip-path="url(#clip-path)">
        <rect id="사각형_1195" data-name="사각형 1195" width="19.436" height="17.113" rx="8.557" transform="translate(13.309 12.5)" fill="#ffd4dc"/>
        <path id="패스_1325" data-name="패스 1325" d="M44.942,48.11h-.307a.992.992,0,1,1,0-1.983h.307a5.507,5.507,0,0,0,2.1-.412A.992.992,0,0,1,47.8,47.55a7.485,7.485,0,0,1-2.854.56m-5.191,0H38.583a7.548,7.548,0,0,1-1.913-.246.992.992,0,0,1,.5-1.918,5.568,5.568,0,0,0,1.411.18h1.168a.992.992,0,0,1,0,1.983m-6.682-3.026a.991.991,0,0,1-.837-.458,7.438,7.438,0,0,1-1.114-3.06.991.991,0,1,1,1.966-.256,5.467,5.467,0,0,0,.82,2.249.991.991,0,0,1-.835,1.525m17.8-.753a.993.993,0,0,1-.9-1.411,5.491,5.491,0,0,0,.516-2.34,1,1,0,0,1,.992-1.006.98.98,0,0,1,.992.978v.028a7.47,7.47,0,0,1-.7,3.178.992.992,0,0,1-.9.573M32.045,37.542a.986.986,0,0,1-.992-.985v-.013a7.465,7.465,0,0,1,.7-3.165.992.992,0,0,1,1.8.835,5.5,5.5,0,0,0-.511,2.33,1,1,0,0,1-.992,1m19.378-.879a.991.991,0,0,1-.982-.86,5.487,5.487,0,0,0-.825-2.249.992.992,0,0,1,1.67-1.071,7.446,7.446,0,0,1,1.121,3.056.991.991,0,0,1-.851,1.114.951.951,0,0,1-.133.009M36.093,31.488a.992.992,0,0,1-.378-1.909,7.5,7.5,0,0,1,2.869-.566h.294a.992.992,0,0,1,0,1.983h-.294a5.52,5.52,0,0,0-2.113.416.993.993,0,0,1-.378.075m10.5-.282a.992.992,0,0,1-.25-.032,5.553,5.553,0,0,0-1.4-.178H43.76a.992.992,0,1,1,0-1.983h1.182a7.57,7.57,0,0,1,1.9.241.992.992,0,0,1-.249,1.952" transform="translate(-18.736 -17.505)" fill="#202020"/>
        <path id="패스_1326" data-name="패스 1326" d="M.993,33.729c-.025,0-.049,0-.074,0A.991.991,0,0,1,0,32.664c.016-.221.442-5.507,4.32-12.994C7.982,12.6,7.284,1.172,7.276,1.058A.992.992,0,1,1,9.256.928c.032.491.739,12.1-3.172,19.654-3.692,7.13-4.1,12.177-4.1,12.227a.992.992,0,0,1-.988.919" transform="translate(0 -0.001)" fill="#202020"/>
        <path id="패스_1327" data-name="패스 1327" d="M94.706,33.728a.991.991,0,0,1-.988-.919c0-.049-.429-5.133-4.1-12.227C85.7,13.032,86.412,1.418,86.443.928a.992.992,0,0,1,1.979.129c-.008.115-.7,11.557,2.953,18.614,3.878,7.487,4.3,12.772,4.32,12.994a.991.991,0,0,1-.916,1.061c-.025,0-.049,0-.074,0" transform="translate(-52.113 0)" fill="#202020"/>
        <path id="패스_1328" data-name="패스 1328" d="M53.432,52.382a.991.991,0,0,1-.992-.992V49.672a.992.992,0,1,1,1.983,0V51.39a.991.991,0,0,1-.992.992" transform="translate(-31.639 -29.371)" fill="#202020"/>
      </g>
    </g>
  </g>
</svg>
