<svg xmlns="http://www.w3.org/2000/svg" xmlns:xlink="http://www.w3.org/1999/xlink" width="72" height="70" viewBox="0 0 72 70">
  <defs>
    <clipPath id="clip-path">
      <rect id="사각형_1215" data-name="사각형 1215" width="43.578" height="46.183" transform="translate(-2 -2)" fill="none"/>
    </clipPath>
  </defs>
  <g id="ico_dpt28" transform="translate(-644.999 -571)">
    <path id="패스_712" data-name="패스 712" d="M72.265,35.534c0,19.33-16.118,35-36,35s-36-15.67-36-35,16.118-35,36-35,36,15.67,36,35" transform="translate(644.734 570.466)" fill="#f4f5f9"/>
    <g id="그룹_996" data-name="그룹 996" transform="translate(661.211 584.908)">
      <g id="그룹_995" data-name="그룹 995" transform="translate(0 0)" clip-path="url(#clip-path)">
        <rect id="사각형_1213" data-name="사각형 1213" width="29.147" height="36.005" rx="2" transform="translate(10.01 0.422)" fill="#62b6f5"/>
        <path id="패스_1405" data-name="패스 1405" d="M50.992,36.848H24.5A1.749,1.749,0,0,1,22.749,35.1V1.747A1.749,1.749,0,0,1,24.5,0h26.5a1.75,1.75,0,0,1,1.747,1.747V35.1a1.749,1.749,0,0,1-1.747,1.747M24.5.843a.906.906,0,0,0-.9.9V35.1a.905.905,0,0,0,.9.9h26.5a.905.905,0,0,0,.9-.9V1.747a.906.906,0,0,0-.9-.9Z" transform="translate(-13.161 0)" fill="#202020" stroke="#202020" stroke-width="0.5"/>
        <rect id="사각형_1214" data-name="사각형 1214" width="29.147" height="36.005" rx="2" transform="translate(0.422 5.757)" fill="#202020"/>
        <path id="패스_1406" data-name="패스 1406" d="M28.243,49.506H1.746A1.749,1.749,0,0,1,0,47.76V14.405a1.749,1.749,0,0,1,1.747-1.747h26.5a1.749,1.749,0,0,1,1.747,1.747V47.76a1.749,1.749,0,0,1-1.747,1.747M1.746,13.5a.905.905,0,0,0-.9.9V47.76a.9.9,0,0,0,.9.9h26.5a.9.9,0,0,0,.9-.9V14.405a.905.905,0,0,0-.9-.9Z" transform="translate(0.001 -7.323)" fill="#202020" stroke="#202020" stroke-width="0.5"/>
        <path id="패스_1407" data-name="패스 1407" d="M34.676,37.847l-2.458,4.182-2.381-4.182V17.559h4.839Z" transform="translate(-17.261 -10.158)" fill="#fff"/>
        <path id="패스_1408" data-name="패스 1408" d="M17.189,77.156a2.426,2.426,0,0,0-2.426-2.426c-1.34,0-2.427.608-2.427,1.947a3.2,3.2,0,0,0,1.42,2.681V83.35h2.013V79.358a2.422,2.422,0,0,0,1.42-2.2" transform="translate(-7.137 -43.233)" fill="#fff"/>
        <path id="패스_1409" data-name="패스 1409" d="M47.3,77.156A2.427,2.427,0,0,1,49.73,74.73c1.34,0,2.426.608,2.426,1.947a3.2,3.2,0,0,1-1.42,2.681V83.35H48.723V79.358a2.421,2.421,0,0,1-1.42-2.2" transform="translate(-27.366 -43.233)" fill="#fff"/>
        <path id="패스_1410" data-name="패스 1410" d="M20.4,56.229a13.909,13.909,0,0,1-.958-5.984,4.517,4.517,0,1,0-7.848,3.049c.808.88,5.51,6.2,5.936,6.586a2.089,2.089,0,0,0,3.487-1.555,4.506,4.506,0,0,0-.616-2.1m-2.6-.267a.774.774,0,0,1-1.079-.189L15.3,53.747a.775.775,0,1,1,1.268-.891l1.424,2.027a.774.774,0,0,1-.188,1.079m1.548,3.03a.774.774,0,1,1,.188-1.077.773.773,0,0,1-.188,1.077" transform="translate(-6.022 -26.455)" fill="#fff"/>
        <path id="패스_1411" data-name="패스 1411" d="M35.577,58.326a2.09,2.09,0,0,0,3.487,1.555C39.49,59.5,44.191,54.176,45,53.3a4.516,4.516,0,1,0-7.848-3.049,13.911,13.911,0,0,1-.958,5.984,4.506,4.506,0,0,0-.616,2.1m3.03-3.441,1.424-2.027a.774.774,0,1,1,1.267.89l-1.425,2.027a.774.774,0,1,1-1.267-.89m-1.549,3.031a.774.774,0,1,1,.189,1.077.773.773,0,0,1-.189-1.077" transform="translate(-20.582 -26.456)" fill="#fff"/>
        <path id="패스_1412" data-name="패스 1412" d="M33.237,23.53H25.959a.716.716,0,1,0,0,1.432h7.279a.716.716,0,0,0,0-1.432" transform="translate(-14.603 -13.613)" fill="#fff"/>
        <path id="패스_1413" data-name="패스 1413" d="M33.237,32.35H25.959a.716.716,0,1,0,0,1.432h7.279a.716.716,0,0,0,0-1.432" transform="translate(-14.603 -18.715)" fill="#fff"/>
        <path id="패스_1414" data-name="패스 1414" d="M33.237,41.166H25.959a.716.716,0,1,0,0,1.433h7.279a.716.716,0,0,0,0-1.433" transform="translate(-14.603 -23.815)" fill="#fff"/>
      </g>
    </g>
  </g>
</svg>
