<svg xmlns="http://www.w3.org/2000/svg" xmlns:xlink="http://www.w3.org/1999/xlink" width="90" height="90" viewBox="0 0 90 90">
  <defs>
    <clipPath id="clip-path">
      <rect id="사각형_673" data-name="사각형 673" width="65.706" height="62.261" fill="none"/>
    </clipPath>
  </defs>
  <g id="ico_cont_223_5" transform="translate(-260 -2469)">
    <g id="타원_131" data-name="타원 131" transform="translate(260 2469)" fill="none" stroke="#f5f5f5" stroke-width="1">
      <circle cx="45" cy="45" r="45" stroke="none"/>
      <circle cx="45" cy="45" r="44.5" fill="none"/>
    </g>
    <g id="그룹_823" data-name="그룹 823" transform="translate(274.146 2474.703)">
      <g id="그룹_822" data-name="그룹 822" transform="translate(0 0)" clip-path="url(#clip-path)">
        <path id="패스_1054" data-name="패스 1054" d="M.576,84.717a.662.662,0,0,1-.293-.434,14.539,14.539,0,0,1,2.949-12.1A14.293,14.293,0,0,1,12.1,67.245a.665.665,0,1,1,.2,1.315,12.793,12.793,0,0,0-8.046,4.474,13.213,13.213,0,0,0-2.666,11,.665.665,0,0,1-1.013.685" transform="translate(0 -28.79)" fill="#a3daf7"/>
        <path id="패스_1055" data-name="패스 1055" d="M8.309,87.869a.663.663,0,0,1-.289-.411,10.518,10.518,0,0,1,2.049-9.152,10.355,10.355,0,0,1,6.6-3.6.665.665,0,0,1,.181,1.319,9.027,9.027,0,0,0-5.758,3.135,9.2,9.2,0,0,0-1.776,8.006.665.665,0,0,1-1.008.707" transform="translate(-3.31 -31.984)" fill="#a3daf7"/>
        <path id="패스_1056" data-name="패스 1056" d="M15.622,90.847a.665.665,0,0,1-.276-.363,6.821,6.821,0,0,1,1.163-6.4,6.636,6.636,0,0,1,4.484-2.333.665.665,0,0,1,.133,1.324,5.313,5.313,0,0,0-3.593,1.859,5.5,5.5,0,0,0-.915,5.159.665.665,0,0,1-1,.755" transform="translate(-6.429 -35.003)" fill="#a3daf7"/>
        <path id="패스_1057" data-name="패스 1057" d="M50.587,49.122H28.7a.9.9,0,0,1-.9-.9V32.073A19.385,19.385,0,1,1,61.839,19.385a19.59,19.59,0,0,1-.189,2.71l2.812,9.3a.9.9,0,0,1-.864,1.164H59.918v4.272c0,3.994-3.876,5.714-5.925,6.065a.911.911,0,0,1-.152.013h-2.35V48.22a.9.9,0,0,1-.9.9M29.6,47.318H49.685V42.009a.9.9,0,0,1,.9-.9h3.168c.578-.116,4.358-1,4.358-4.273V31.659a.9.9,0,0,1,.9-.9h3.368l-2.518-8.331a.9.9,0,0,1-.028-.4,17.82,17.82,0,0,0,.2-2.645A17.581,17.581,0,1,0,29.373,31.129a.9.9,0,0,1,.231.6Z" transform="translate(-8.952 13.139)" fill="#333"/>
        <path id="패스_1058" data-name="패스 1058" d="M35.905,93.327A2.669,2.669,0,1,0,33.237,96a2.668,2.668,0,0,0,2.669-2.669" transform="translate(-13.089 -38.818)" fill="#a3daf7"/>
        <path id="패스_1059" data-name="패스 1059" d="M32.38,96.283a3.812,3.812,0,1,1,3.812-3.812,3.817,3.817,0,0,1-3.812,3.812m0-5.337a1.525,1.525,0,1,0,1.525,1.525,1.526,1.526,0,0,0-1.525-1.525" transform="translate(-12.232 -37.962)" fill="#a3daf7"/>
      </g>
    </g>
  </g>
</svg>
