<svg xmlns="http://www.w3.org/2000/svg" width="42.828" height="38.828" viewBox="0 0 42.828 38.828">
  <g id="ico_quick1_on" transform="translate(-544.739 -317.943)">
    <path id="패스_1466" data-name="패스 1466" d="M555.913,357.325l11.248-11.638,11.248,11.638" transform="translate(-1.295 -1.968)" fill="none" stroke="#fff" stroke-linecap="round" stroke-linejoin="round" stroke-width="2"/>
    <path id="사각형_1300" data-name="사각형 1300" d="M8.227,0h.206A8.227,8.227,0,0,1,16.66,8.227v.1a0,0,0,0,1,0,0H0a0,0,0,0,1,0,0v-.1A8.227,8.227,0,0,1,8.227,0Z" transform="translate(546.154 331.138) rotate(-45)" fill="#437dea" stroke="#fff" stroke-linecap="round" stroke-linejoin="round" stroke-width="2"/>
    <path id="사각형_1301" data-name="사각형 1301" d="M0,0H16.66a0,0,0,0,1,0,0V.1A8.227,8.227,0,0,1,8.433,8.33H8.227A8.227,8.227,0,0,1,0,.1V0A0,0,0,0,1,0,0Z" transform="translate(580.263 337.028) rotate(-135)" fill="#437dea" stroke="#fff" stroke-linecap="round" stroke-linejoin="round" stroke-width="2"/>
    <circle id="타원_314" data-name="타원 314" cx="14" cy="14" r="14" transform="translate(551.864 325.759)" fill="#437dea" stroke="#fff" stroke-linecap="round" stroke-linejoin="round" stroke-width="2"/>
    <path id="패스_1467" data-name="패스 1467" d="M560.662,339.652h5.4v-8.035" transform="translate(-0.201 -0.089)" fill="none" stroke="#5adee8" stroke-linecap="round" stroke-linejoin="round" stroke-width="2"/>
  </g>
</svg>
