<svg xmlns="http://www.w3.org/2000/svg" viewBox="0 0 70 70"><defs><style>.cls-1{fill:#f4f5f9;}.cls-2{fill:#fff;}.cls-3{fill:#202020;stroke:#202020;stroke-width:0.5px;}.cls-4{fill:#62b6f5;}.cls-5{fill:#ff375a;}</style></defs><g id="레이어_2" data-name="레이어 2"><g id="레이어_1-2" data-name="레이어 1"><path id="패스_827" data-name="패스 827" class="cls-1" d="M70,35A35,35,0,1,1,35,0,35,35,0,0,1,70,35"/><polygon class="cls-2" points="16.27 17.57 22.66 17.57 22.27 24.85 38.33 24.85 41.83 25.24 50.84 36.3 51.31 51.92 44.84 51.92 44.27 45.63 24.77 45.69 19.44 43.13 15.77 38.57 15.38 31.13 16.27 17.57"/><path class="cls-3" d="M51.26,53a.63.63,0,0,1-.64-.62c0-.61-.41-15.15-.41-17,0-5.38-4.88-9.75-10.88-9.75H22a.63.63,0,0,1-.46-.2.64.64,0,0,1-.17-.47l.41-7.4a.65.65,0,0,1,.67-.6.64.64,0,0,1,.6.67l-.38,6.73H39.33c6.7,0,12.15,4.93,12.15,11,0,1.81.41,16.8.41,17a.64.64,0,0,1-.62.65Z"/><path class="cls-3" d="M44.75,53a.64.64,0,0,1-.64-.59l-.37-6H27c-6.7,0-12.15-4.94-12.15-11,0-1.67.79-17.14.82-17.8a.64.64,0,0,1,1.27.07c0,.16-.82,16.09-.82,17.73,0,5.38,4.88,9.75,10.88,9.75H44.34a.63.63,0,0,1,.63.59l.41,6.59a.63.63,0,0,1-.59.67Z"/><path class="cls-4" d="M49.22,51.92l-.55-16.15a5.94,5.94,0,0,0-2.56-.59c-2.1,0-2.1.84-4.2.84s-2.11-.84-4.21-.84-2.11.84-4.21.84-2.1-.84-4.21-.84-2.1.84-4.2.84-2.1-.84-4.21-.84c-1.69,0-2,.54-3.18.75.2,4.25,4.23,7.66,9.15,7.66H46.6l.46,8.33Z"/><path class="cls-2" d="M28.42,39.38a1.28,1.28,0,1,0-1.27,1.28A1.27,1.27,0,0,0,28.42,39.38Z"/><path class="cls-2" d="M32,40.64a.85.85,0,1,0-.84.85A.85.85,0,0,0,32,40.64Z"/><path class="cls-2" d="M52.59,24.44a7.34,7.34,0,0,0-.6-.53l-1.63-1a7.12,7.12,0,1,0,2.23,1.51Z"/><path class="cls-3" d="M47.56,37a7.58,7.58,0,1,1,3-14.54.47.47,0,0,1,.24.61.46.46,0,0,1-.61.25,6.66,6.66,0,1,0,2.07,1.41,6.52,6.52,0,0,0-.55-.5.47.47,0,0,1,.58-.73c.22.18.44.37.64.57A7.57,7.57,0,0,1,47.56,37Z"/><path class="cls-5" d="M51.61,25.42a5.73,5.73,0,1,0,0,8.1A5.72,5.72,0,0,0,51.61,25.42Z"/><polygon class="cls-2" points="44.27 28.27 46.36 28.27 46.36 26.18 48.76 26.18 48.76 28.27 50.84 28.27 50.84 30.67 48.76 30.67 48.76 32.75 46.36 32.75 46.36 30.67 44.27 30.67 44.27 28.27"/></g></g></svg>