<svg xmlns="http://www.w3.org/2000/svg" width="70" height="70" viewBox="0 0 70 70">
  <g id="ico_dpt77" transform="translate(-298.999 -579)">
    <path id="패스_895" data-name="패스 895" d="M70.265,35.534a35,35,0,1,1-35-35,35,35,0,0,1,35,35" transform="translate(298.734 578.466)" fill="#f4f5f9"/>
    <g id="cont" transform="translate(-41.776 -39.58)">
      <g id="_02" data-name="02">
        <path id="패스_1191" data-name="패스 1191" d="M368.246,629c-.284.34-10.948,17.117-10.166,25.292s4.479,21.256,4.479,23.459,22.037.5,22.037.5.854-10.45,0-15.782-1.991-8.6,1.563-15.924S393.98,629,393.98,629,368.53,628.659,368.246,629Z" fill="#fff5f7"/>
        <path id="패스_1188" data-name="패스 1188" d="M414.02,677.8l-.047,0a.465.465,0,0,1-.415-.509c0-.046.462-4.606.462-8.318,0-1.8-.2-3.963-.4-6.256-.374-4.113-.761-8.368-.045-11.059.52-1.952,2.9-7.4,5.2-12.675,1.665-3.815,3.238-7.418,4.108-9.68a.465.465,0,0,1,.868.334c-.877,2.281-2.455,5.893-4.124,9.718-2.288,5.24-4.654,10.659-5.155,12.542-.674,2.532-.3,6.7.071,10.736.21,2.314.409,4.5.409,6.34,0,3.76-.462,8.366-.467,8.412A.465.465,0,0,1,414.02,677.8Z" transform="translate(-29.65 0)" fill="#202020"/>
        <path id="패스_1187" data-name="패스 1187" d="M362.527,677.8a.464.464,0,0,1-.465-.465c0-.321-.376-1.831-.81-3.581a127.273,127.273,0,0,1-3.37-17.288,25.208,25.208,0,0,1,.9-9.287c1.809-6.151,8.639-17.474,8.929-17.953a.465.465,0,0,1,.8.481c-.07.116-7.058,11.7-8.833,17.735a24.26,24.26,0,0,0-.862,8.935,126.633,126.633,0,0,0,3.347,17.152,28.56,28.56,0,0,1,.838,3.806A.464.464,0,0,1,362.527,677.8Z" transform="translate(0 0)" fill="#202020"/>
        <path id="패스_1196" data-name="패스 1196" d="M371.194,652.011s-5-1.946-5.84-.819,10.244,3.914,11.476,3.237S371.194,652.011,371.194,652.011Z" transform="matrix(0.996, -0.087, 0.087, 0.996, -54.58, 35.074)" fill="#f7ff8b"/>
      </g>
      <g id="_01" data-name="01">
        <path id="패스_1195" data-name="패스 1195" d="M385.336,650.974c-1.49-2.646-5.08-9.08-5.525-13.267-.316-2.974,1.82-4.057.778-6.126h0a2.14,2.14,0,0,0-1.473-1.217c-2.8-.6-8.03,1.674-8.066,1.69-1.711.754-2.634,1.451-2.98,2.751-.651,2.44,2,4.517,3.753,5.892a11.984,11.984,0,0,1,1.231,1.04c1.152,1.253,5.654,11.78,5.654,11.78" transform="translate(249.943 -69.491) rotate(21)" fill="#e6ff91" stroke="#202020" stroke-miterlimit="10" stroke-width="1"/>
        <path id="패스_1301" data-name="패스 1301" d="M9.57-.024A15.831,15.831,0,0,0,.247.18C-.3.768.007,2.074.007,2.074c0,1.8,2.009,3.262,4.486,3.262H5.23c2.478,0,4.486-1.46,4.486-3.262A11.709,11.709,0,0,0,9.57-.024Z" transform="matrix(0.998, 0.07, -0.07, 0.998, 367.417, 654.1)" fill="#fff" stroke="#202020" stroke-width="1"/>
        <path id="패스_1194" data-name="패스 1194" d="M387.672,630.263c-1.635,2.905-6.214,11.429-6.7,16.026-.347,3.265,2,4.453.855,6.725h0a2.349,2.349,0,0,1-1.617,1.336c-3.069.664-8.815-1.838-8.855-1.855-1.878-.828-2.891-1.593-3.271-3.02-.714-2.678,2.2-4.959,4.12-6.468a13.152,13.152,0,0,0,1.352-1.142c1.265-1.375,5.527-11.227,5.527-11.227" transform="translate(-1.786 -1.683)" fill="#e6ff91" stroke="#202020" stroke-miterlimit="10" stroke-width="1"/>
        <path id="패스_1301-2" data-name="패스 1301" d="M21.8,41.3c-1.3.78-7.195,1.372-9.331.04-.475-.476-.342-1.793-.342-1.793,0-1.8,2.009-3.262,4.486-3.262h.737c2.478,0,4.415,1.624,4.682,2.783C22.157,40.281,22.17,39.8,21.8,41.3Z" transform="translate(367.319 606.569) rotate(16)" fill="#fff" stroke="#202020" stroke-width="1"/>
      </g>
    </g>
  </g>
</svg>
