<svg xmlns="http://www.w3.org/2000/svg" xmlns:xlink="http://www.w3.org/1999/xlink" width="90" height="90" viewBox="0 0 90 90">
  <defs>
    <clipPath id="clip-path">
      <rect id="사각형_668" data-name="사각형 668" width="45.723" height="42" fill="none"/>
    </clipPath>
  </defs>
  <g id="ico_cont_223_1" transform="translate(-260 -1590)">
    <g id="타원_77" data-name="타원 77" transform="translate(260 1590)" fill="none" stroke="#f5f5f5" stroke-width="1">
      <circle cx="45" cy="45" r="45" stroke="none"/>
      <circle cx="45" cy="45" r="44.5" fill="none"/>
    </g>
    <g id="그룹_815" data-name="그룹 815" transform="translate(283.639 1613)">
      <g id="그룹_814" data-name="그룹 814" transform="translate(0 0)" clip-path="url(#clip-path)">
        <path id="패스_1026" data-name="패스 1026" d="M13.672,42H2.941a.824.824,0,0,1,0-1.648H13.672A10.177,10.177,0,0,0,23.849,30.174V27.366a.823.823,0,0,1,.328-.658A7,7,0,0,1,28.8,25.413a.825.825,0,0,1,.58.287,7.225,7.225,0,0,0,5.491,2.53H38.09a7.23,7.23,0,1,0,0-14.46H34.869a7.224,7.224,0,0,0-5.491,2.53.825.825,0,0,1-.581.287,7,7,0,0,1-4.619-1.294.825.825,0,0,1-.328-.659V11.827A10.191,10.191,0,0,0,13.671,1.648H2.941A.824.824,0,0,1,2.941,0h10.73A11.84,11.84,0,0,1,25.5,11.827V14.2a5.4,5.4,0,0,0,2.877.751,8.865,8.865,0,0,1,6.5-2.829H38.09a8.877,8.877,0,1,1,0,17.755H34.869a8.868,8.868,0,0,1-6.5-2.829h-.041A5.353,5.353,0,0,0,25.5,27.8v2.376A11.825,11.825,0,0,1,13.672,42" transform="translate(-1.245 0)" fill="#333"/>
        <path id="패스_1027" data-name="패스 1027" d="M48.036,99.61H6.158a.824.824,0,1,1,0-1.648H48.036a.824.824,0,1,1,0,1.648" transform="translate(-3.137 -57.61)" fill="#333"/>
        <path id="패스_1028" data-name="패스 1028" d="M65.53,50.63h-.206a.824.824,0,1,1,0-1.648h.206a.824.824,0,0,1,0,1.648" transform="translate(-37.931 -28.805)" fill="#a3daf7"/>
        <path id="패스_1029" data-name="패스 1029" d="M28.939,50.63h-.419a.824.824,0,1,1,0-1.648h.419a.824.824,0,0,1,0,1.648m-3.348,0h-.419a.824.824,0,1,1,0-1.648h.419a.824.824,0,0,1,0,1.648m-3.348,0h-.419a.824.824,0,0,1,0-1.648h.419a.824.824,0,1,1,0,1.648m-3.348,0h-.419a.824.824,0,1,1,0-1.648H18.9a.824.824,0,1,1,0,1.648m-3.348,0H15.13a.824.824,0,1,1,0-1.648h.419a.824.824,0,1,1,0,1.648m-3.348,0h-.419a.824.824,0,1,1,0-1.648H12.2a.824.824,0,0,1,0,1.648m-3.348,0H8.435a.824.824,0,1,1,0-1.648h.419a.824.824,0,0,1,0,1.648" transform="translate(-4.476 -28.805)" fill="#a3daf7"/>
        <path id="패스_1030" data-name="패스 1030" d="M1.03,50.63H.824a.824.824,0,0,1,0-1.648H1.03a.824.824,0,0,1,0,1.648" transform="translate(0 -28.805)" fill="#a3daf7"/>
        <path id="패스_1031" data-name="패스 1031" d="M97.235,82.135a.823.823,0,0,1-.824-.824V74.8a3.878,3.878,0,0,0-2.081-3.759,5.654,5.654,0,0,0-2.262-.582.824.824,0,0,1,0-1.648,7.278,7.278,0,0,1,2.951.732A5.447,5.447,0,0,1,98.059,74.8v6.506a.824.824,0,0,1-.824.824" transform="translate(-53.661 -40.469)" fill="#333"/>
        <path id="패스_1032" data-name="패스 1032" d="M55.106,87.094a.824.824,0,0,1-.824-.824V78.307a.824.824,0,1,1,1.648,0V86.27a.824.824,0,0,1-.824.824" transform="translate(-31.922 -45.566)" fill="#333"/>
        <path id="패스_1033" data-name="패스 1033" d="M.823,15.014a.824.824,0,0,1-.144-1.635c5.483-.979,8.1-2.733,8.122-2.751a.824.824,0,0,1,.936,1.356C9.621,12.063,6.844,13.951.969,15a.807.807,0,0,1-.146.013" transform="translate(0 -6.165)" fill="#333"/>
        <path id="패스_1034" data-name="패스 1034" d="M9.267,85.011a.821.821,0,0,1-.466-.145c-.026-.018-2.639-1.772-8.122-2.751a.824.824,0,1,1,.29-1.622c5.876,1.05,8.653,2.937,8.769,3.017a.824.824,0,0,1-.47,1.5" transform="translate(0 -47.328)" fill="#333"/>
      </g>
    </g>
  </g>
</svg>
