<svg xmlns="http://www.w3.org/2000/svg" xmlns:xlink="http://www.w3.org/1999/xlink" width="140" height="140" viewBox="0 0 140 140">
  <defs>
    <clipPath id="clip-path">
      <rect id="사각형_1225" data-name="사각형 1225" width="140" height="140" transform="translate(386 1014)" fill="none"/>
    </clipPath>
    <clipPath id="clip-path-2">
      <rect id="사각형_407" data-name="사각형 407" width="63.221" height="64.538" fill="none"/>
    </clipPath>
  </defs>
  <g id="icon_진료" transform="translate(-638 -1014)">
    <g id="마스크_그룹_96" data-name="마스크 그룹 96" transform="translate(252)" clip-path="url(#clip-path)">
      <path id="다각형_6" data-name="다각형 6" d="M93.513,0a20,20,0,0,1,17.276,9.923l23.333,40a20,20,0,0,1,0,20.155l-23.333,40A20,20,0,0,1,93.513,120H46.487a20,20,0,0,1-17.276-9.923l-23.333-40a20,20,0,0,1,0-20.155l23.333-40A20,20,0,0,1,46.487,0Z" transform="translate(365.652 1067) rotate(-30)" fill="#fff"/>
    </g>
    <g id="icon_진료-2" data-name="icon_진료" transform="translate(677.244 1053.793)">
      <g id="그룹_530" data-name="그룹 530" transform="translate(0 0)" clip-path="url(#clip-path-2)">
        <path id="패스_582" data-name="패스 582" d="M30.28,72.368a9.12,9.12,0,0,1-9.111-9.111V47.135a2.286,2.286,0,1,1,4.572,0V63.257a4.539,4.539,0,0,0,9.077,0V53.718a7.645,7.645,0,1,1,15.29,0v1.016a3.116,3.116,0,1,0,6.232,0V37.585a2.286,2.286,0,1,1,4.572,0V54.734a7.688,7.688,0,1,1-15.376,0V53.718a3.073,3.073,0,1,0-6.146,0v9.539a9.121,9.121,0,0,1-9.111,9.111" transform="translate(-5.038 -8.401)" fill="#fff"/>
        <path id="패스_583" data-name="패스 583" d="M30.28,72.368a9.12,9.12,0,0,1-9.111-9.111V47.135a2.286,2.286,0,1,1,4.572,0V63.257a4.539,4.539,0,0,0,9.077,0V53.718a7.645,7.645,0,1,1,15.29,0v1.016a3.116,3.116,0,1,0,6.232,0V37.585a2.286,2.286,0,1,1,4.572,0V54.734a7.688,7.688,0,1,1-15.376,0V53.718a3.073,3.073,0,1,0-6.146,0v9.539A9.121,9.121,0,0,1,30.28,72.368Z" transform="translate(-5.038 -8.401)" fill="none" stroke="#3a4851" stroke-linecap="round" stroke-linejoin="round" stroke-width="1.5"/>
        <path id="패스_584" data-name="패스 584" d="M18.6,38.854A17.845,17.845,0,0,1,.75,21V5.439A2.286,2.286,0,0,1,3.036,3.153H9.552a2.286,2.286,0,0,1,0,4.572H5.322V21a13.273,13.273,0,1,0,26.547,0V7.725H27.63a2.286,2.286,0,0,1,0-4.572h6.525a2.286,2.286,0,0,1,2.286,2.286V21A17.87,17.87,0,0,1,18.6,38.854" transform="translate(-0.178 -0.75)" fill="#fff"/>
        <path id="패스_585" data-name="패스 585" d="M18.6,38.854A17.845,17.845,0,0,1,.75,21V5.439A2.286,2.286,0,0,1,3.036,3.153H9.552a2.286,2.286,0,0,1,0,4.572H5.322V21a13.273,13.273,0,1,0,26.547,0V7.725H27.63a2.286,2.286,0,0,1,0-4.572h6.525a2.286,2.286,0,0,1,2.286,2.286V21A17.87,17.87,0,0,1,18.6,38.854Z" transform="translate(-0.178 -0.75)" fill="none" stroke="#3a4851" stroke-linecap="round" stroke-linejoin="round" stroke-width="1.5"/>
        <path id="패스_586" data-name="패스 586" d="M13.22,8.984h0a2.3,2.3,0,0,1-2.3-2.3V3.051a2.3,2.3,0,1,1,4.6,0V6.683a2.3,2.3,0,0,1-2.3,2.3" transform="translate(-2.598 -0.178)" fill="#5ba7fb"/>
        <path id="패스_587" data-name="패스 587" d="M13.22,8.984h0a2.3,2.3,0,0,1-2.3-2.3V3.051a2.3,2.3,0,1,1,4.6,0V6.683A2.3,2.3,0,0,1,13.22,8.984Z" transform="translate(-2.598 -0.178)" fill="none" stroke="#3a4851" stroke-width="1.5"/>
        <path id="패스_588" data-name="패스 588" d="M33.682,8.984h0a2.3,2.3,0,0,0,2.3-2.3V3.051a2.3,2.3,0,1,0-4.6,0V6.683a2.3,2.3,0,0,0,2.3,2.3" transform="translate(-7.468 -0.178)" fill="#5ba7fb"/>
        <path id="패스_589" data-name="패스 589" d="M33.682,8.984h0a2.3,2.3,0,0,0,2.3-2.3V3.051a2.3,2.3,0,1,0-4.6,0V6.683A2.3,2.3,0,0,0,33.682,8.984Z" transform="translate(-7.468 -0.178)" fill="none" stroke="#3a4851" stroke-width="1.5"/>
        <path id="패스_590" data-name="패스 590" d="M29.451,40.993H14.09v6.363h4.733v4.1h5.9v-4.1h4.733Z" transform="translate(-3.353 -9.756)" fill="#beeaf8"/>
        <path id="패스_591" data-name="패스 591" d="M29.451,40.993H14.09v6.363h4.733v4.1h5.9v-4.1h4.733Z" transform="translate(-3.353 -9.756)" fill="none" stroke="#3a4851" stroke-linecap="round" stroke-linejoin="round" stroke-width="1.5"/>
        <path id="패스_592" data-name="패스 592" d="M76.556,24.228a9.062,9.062,0,1,1-9.062-9.062,9.062,9.062,0,0,1,9.062,9.062" transform="translate(-13.906 -3.609)" fill="#beeaf8"/>
        <circle id="타원_42" data-name="타원 42" cx="9.062" cy="9.062" r="9.062" transform="translate(44.526 11.557)" fill="none" stroke="#3a4851" stroke-linecap="round" stroke-linejoin="round" stroke-width="1.5"/>
        <path id="패스_593" data-name="패스 593" d="M72.2,26.207a2.725,2.725,0,1,1-2.725-2.725A2.725,2.725,0,0,1,72.2,26.207" transform="translate(-15.886 -5.588)" fill="#fff"/>
        <circle id="타원_43" data-name="타원 43" cx="2.725" cy="2.725" r="2.725" transform="translate(50.863 17.894)" fill="none" stroke="#3a4851" stroke-linecap="round" stroke-linejoin="round" stroke-width="1.5"/>
      </g>
    </g>
  </g>
</svg>
