<svg xmlns="http://www.w3.org/2000/svg" xmlns:xlink="http://www.w3.org/1999/xlink" width="70" height="70" viewBox="0 0 70 70">
  <defs>
    <clipPath id="clip-path">
      <rect id="사각형_1212" data-name="사각형 1212" width="34.566" height="47.713" transform="translate(-2 -2)" fill="none"/>
    </clipPath>
  </defs>
  <g id="ico_dpt30" transform="translate(-29.999 -30)">
    <path id="패스_868" data-name="패스 868" d="M70.265,35.534a35,35,0,1,1-35-35,35,35,0,0,1,35,35" transform="translate(29.734 29.466)" fill="#f4f5f9"/>
    <g id="그룹_994" data-name="그룹 994" transform="translate(50 43.144)">
      <g id="그룹_993" data-name="그룹 993" transform="translate(0 0)" clip-path="url(#clip-path)">
        <path id="패스_1394" data-name="패스 1394" d="M28.662,1H3.134C3.134,13.074,1,12.744,1,22.472s2.134,9.4,2.134,21.472H28.662c0-12.075,2.134-11.744,2.134-21.472S28.662,13.074,28.662,1" transform="translate(-0.615 -0.615)" fill="#fff5f7"/>
        <path id="패스_1395" data-name="패스 1395" d="M29.216,46.7H14.223a3.881,3.881,0,0,0,0,7.762H29.216a3.881,3.881,0,1,0,0-7.762" transform="translate(-6.361 -28.724)" fill="#ff375a"/>
        <path id="패스_1396" data-name="패스 1396" d="M28.6,54.231H13.608a4.266,4.266,0,0,1,0-8.532H28.6a4.266,4.266,0,1,1,0,8.532M13.608,46.469a3.5,3.5,0,0,0,0,6.992H28.6a3.5,3.5,0,1,0,0-6.992Z" transform="translate(-5.746 -28.109)" fill="#202020" stroke="#202020" stroke-width="0.5"/>
        <path id="패스_1397" data-name="패스 1397" d="M31.149,10.286c-1.733-1.528-2.707-1.508-2.707-3.914V1h-10.2V6.372c0,2.406-.974,2.386-2.707,3.914a6.493,6.493,0,0,0-2.3,4.776c0,3.242,2.628,5.1,5.87,5.1a5.848,5.848,0,0,0,4.234-1.811,5.848,5.848,0,0,0,4.234,1.811c3.242,0,5.87-1.858,5.87-5.1a6.491,6.491,0,0,0-2.3-4.776" transform="translate(-8.143 -0.615)" fill="#fff"/>
        <path id="패스_1398" data-name="패스 1398" d="M26.961,19.932a6.19,6.19,0,0,1-4.234-1.657,6.19,6.19,0,0,1-4.234,1.657c-3.683,0-6.255-2.256-6.255-5.485a6.839,6.839,0,0,1,2.427-5.065c.422-.373.8-.652,1.126-.9a2.652,2.652,0,0,0,1.451-2.727V.385a.385.385,0,0,1,.77,0V5.757A3.391,3.391,0,0,1,16.252,9.1c-.318.237-.679.507-1.078.859a6.071,6.071,0,0,0-2.166,4.487c0,3.257,2.755,4.715,5.485,4.715a5.436,5.436,0,0,0,3.956-1.692.4.4,0,0,1,.556,0,5.436,5.436,0,0,0,3.956,1.692c2.73,0,5.485-1.458,5.485-4.715A6.071,6.071,0,0,0,30.28,9.96c-.4-.352-.76-.622-1.078-.859a3.391,3.391,0,0,1-1.76-3.343V.385a.385.385,0,0,1,.77,0V5.757a2.652,2.652,0,0,0,1.451,2.727c.33.246.7.526,1.126.9a6.839,6.839,0,0,1,2.427,5.065c0,3.229-2.572,5.485-6.255,5.485" transform="translate(-7.527 0)" fill="#202020" stroke="#202020" stroke-width="0.5"/>
        <path id="패스_1399" data-name="패스 1399" d="M36.342,39.453a.384.384,0,0,1-.272-.113,6.214,6.214,0,0,1-1.832-4.423.385.385,0,0,1,.77,0A5.45,5.45,0,0,0,36.614,38.8a.385.385,0,0,1-.272.657" transform="translate(-21.059 -21.241)" fill="#202020" stroke="#202020" stroke-width="0.5"/>
        <path id="패스_1400" data-name="패스 1400" d="M15.535,72.659c1.733,1.528,2.707,1.508,2.707,3.914v5.372h10.2V76.573c0-2.406.974-2.386,2.707-3.914a6.493,6.493,0,0,0,2.3-4.776c0-3.242-2.628-5.1-5.87-5.1a5.848,5.848,0,0,0-4.234,1.811,5.848,5.848,0,0,0-4.234-1.811c-3.242,0-5.87,1.858-5.87,5.1a6.493,6.493,0,0,0,2.3,4.776" transform="translate(-8.143 -38.617)" fill="#fff"/>
        <path id="패스_1401" data-name="패스 1401" d="M27.827,81.715a.385.385,0,0,1-.385-.385V75.958a3.391,3.391,0,0,1,1.76-3.343c.318-.238.678-.507,1.078-.859a6.072,6.072,0,0,0,2.166-4.487c0-3.258-2.755-4.715-5.485-4.715A5.435,5.435,0,0,0,23,64.245a.4.4,0,0,1-.556,0,5.435,5.435,0,0,0-3.956-1.692c-2.73,0-5.485,1.458-5.485,4.715a6.072,6.072,0,0,0,2.166,4.487c.4.352.76.621,1.078.859a3.391,3.391,0,0,1,1.76,3.343V81.33a.385.385,0,1,1-.77,0V75.958a2.652,2.652,0,0,0-1.451-2.727c-.33-.247-.7-.526-1.126-.9a6.839,6.839,0,0,1-2.427-5.065c0-3.229,2.572-5.485,6.255-5.485a6.19,6.19,0,0,1,4.234,1.657,6.19,6.19,0,0,1,4.234-1.657c3.683,0,6.255,2.256,6.255,5.485a6.839,6.839,0,0,1-2.427,5.065c-.422.373-.8.652-1.126.9a2.652,2.652,0,0,0-1.451,2.727V81.33a.385.385,0,0,1-.385.385" transform="translate(-7.527 -38.002)" fill="#202020" stroke="#202020" stroke-width="0.5"/>
        <path id="패스_1402" data-name="패스 1402" d="M40.376,71.17a.385.385,0,0,1-.385-.385,5.449,5.449,0,0,0-1.607-3.878.385.385,0,0,1,.544-.544,6.213,6.213,0,0,1,1.832,4.423.385.385,0,0,1-.385.385" transform="translate(-23.54 -40.749)" fill="#202020" stroke="#202020" stroke-width="0.5"/>
        <path id="패스_1403" data-name="패스 1403" d="M72.25,43.713a.385.385,0,0,1-.385-.385,51.88,51.88,0,0,1,1.161-12.119A40.28,40.28,0,0,0,74,21.857a40.291,40.291,0,0,0-.973-9.353A51.875,51.875,0,0,1,71.865.385a.385.385,0,0,1,.77,0A51.2,51.2,0,0,0,73.781,12.35a40.956,40.956,0,0,1,.988,9.507,40.948,40.948,0,0,1-.988,9.506,51.2,51.2,0,0,0-1.146,11.966.385.385,0,0,1-.385.385" transform="translate(-44.203 0)" fill="#202020" stroke="#202020" stroke-width="0.5"/>
        <path id="패스_1404" data-name="패스 1404" d="M2.519,43.713a.385.385,0,0,1-.385-.385A51.2,51.2,0,0,0,.988,31.362,40.948,40.948,0,0,1,0,21.857,40.956,40.956,0,0,1,.988,12.35,51.2,51.2,0,0,0,2.134.385a.385.385,0,1,1,.77,0A51.874,51.874,0,0,1,1.743,12.5,40.291,40.291,0,0,0,.77,21.857a40.28,40.28,0,0,0,.973,9.353A51.88,51.88,0,0,1,2.9,43.328a.385.385,0,0,1-.385.385" transform="translate(0 0)" fill="#202020" stroke="#202020" stroke-width="0.5"/>
      </g>
    </g>
  </g>
</svg>
