<svg xmlns="http://www.w3.org/2000/svg" xmlns:xlink="http://www.w3.org/1999/xlink" width="90" height="90" viewBox="0 0 90 90">
  <defs>
    <clipPath id="clip-path">
      <rect id="사각형_670" data-name="사각형 670" width="53.195" height="55.224" fill="none"/>
    </clipPath>
  </defs>
  <g id="ico_cont_223_2" transform="translate(-260 -1737)">
    <g id="타원_128" data-name="타원 128" transform="translate(260 1737)" fill="none" stroke="#f5f5f5" stroke-width="1">
      <circle cx="45" cy="45" r="45" stroke="none"/>
      <circle cx="45" cy="45" r="44.5" fill="none"/>
    </g>
    <g id="그룹_817" data-name="그룹 817" transform="translate(278.402 1754.388)">
      <g id="그룹_816" data-name="그룹 816" clip-path="url(#clip-path)">
        <path id="패스_1035" data-name="패스 1035" d="M45.988,83.76a1.014,1.014,0,0,1-1.014-1.014V73.531a1.014,1.014,0,0,1,.8-.992,6.375,6.375,0,0,0-1.349-12.606,6.332,6.332,0,0,0-4.537,1.9,1.044,1.044,0,0,1-1.443,0A6.374,6.374,0,0,0,27.531,66.31a6.406,6.406,0,0,0,5.027,6.229,1.014,1.014,0,0,1,.8.992v9.215a1.014,1.014,0,0,1-2.029,0V74.307a8.4,8.4,0,0,1,2.578-16.4,8.333,8.333,0,0,1,5.258,1.85A8.4,8.4,0,0,1,52.829,66.31a8.451,8.451,0,0,1-5.827,8v8.438a1.014,1.014,0,0,1-1.014,1.014" transform="translate(-12.568 -28.536)" fill="#333"/>
        <path id="패스_1036" data-name="패스 1036" d="M44.425,25.855a8.334,8.334,0,0,1-5.259-1.849A8.4,8.4,0,0,1,25.5,17.45a8.451,8.451,0,0,1,5.828-8V1.014a1.014,1.014,0,1,1,2.029,0v9.215a1.014,1.014,0,0,1-.8.992,6.375,6.375,0,0,0,1.35,12.606,6.328,6.328,0,0,0,4.536-1.9,1.047,1.047,0,0,1,1.444,0A6.373,6.373,0,0,0,50.8,17.45a6.405,6.405,0,0,0-5.026-6.229,1.013,1.013,0,0,1-.8-.992V1.014a1.014,1.014,0,1,1,2.029,0V9.453a8.4,8.4,0,0,1-2.578,16.4" transform="translate(-12.568)" fill="#333"/>
        <path id="패스_1037" data-name="패스 1037" d="M51.782,54.471H28.758a1.014,1.014,0,0,1,0-2.029H51.782a1.014,1.014,0,1,1,0,2.029" transform="translate(-13.673 -25.844)" fill="#a3daf7"/>
        <path id="패스_1038" data-name="패스 1038" d="M14.7,58.989,8.434,63.1l-1.3-4.109L0,65.259l5.19-1.082,1.3,3.893Z" transform="translate(0 -29.07)" fill="#a3daf7"/>
        <path id="패스_1039" data-name="패스 1039" d="M75.891,58.989,82.162,63.1l1.3-4.109,7.136,6.271-5.19-1.082-1.3,3.893Z" transform="translate(-37.4 -29.07)" fill="#a3daf7"/>
        <path id="패스_1040" data-name="패스 1040" d="M75.891,41.07l6.271-4.109,1.3,4.109L90.595,34.8l-5.19,1.082-1.3-3.893Z" transform="translate(-37.4 -15.764)" fill="#a3daf7"/>
        <path id="패스_1041" data-name="패스 1041" d="M14.7,41.07l-6.27-4.109-1.3,4.109L0,34.8l5.19,1.082,1.3-3.893Z" transform="translate(0 -15.764)" fill="#a3daf7"/>
      </g>
    </g>
  </g>
</svg>
