<svg xmlns="http://www.w3.org/2000/svg" xmlns:xlink="http://www.w3.org/1999/xlink" width="90" height="90" viewBox="0 0 90 90">
  <defs>
    <clipPath id="clip-path">
      <rect id="사각형_677" data-name="사각형 677" width="55.178" height="57.958" fill="none"/>
    </clipPath>
  </defs>
  <g id="ico_cont_223_10" transform="translate(-260 -3986)">
    <g id="타원_136" data-name="타원 136" transform="translate(260 3986)" fill="none" stroke="#f5f5f5" stroke-width="1">
      <circle cx="45" cy="45" r="45" stroke="none"/>
      <circle cx="45" cy="45" r="44.5" fill="none"/>
    </g>
    <g id="그룹_835" data-name="그룹 835" transform="translate(271 4002.021)">
      <g id="그룹_834" data-name="그룹 834" transform="translate(0 0)" clip-path="url(#clip-path)">
        <path id="패스_1093" data-name="패스 1093" d="M70.659,13.42a6.71,6.71,0,1,1,6.71-6.711,6.717,6.717,0,0,1-6.71,6.711m0-11.291a4.581,4.581,0,1,0,4.581,4.58,4.585,4.585,0,0,0-4.581-4.58" transform="translate(-29.909 0)" fill="#333"/>
        <path id="패스_1094" data-name="패스 1094" d="M42.282,69.076c-3.975,0-6.543-2.15-6.543-5.479V46.618a6.531,6.531,0,0,1,.347-2.1l3.526-10.4-.884.249-2.96,7.99a4,4,0,0,1-7.5-2.776l3.666-9.9A4.008,4.008,0,0,1,34.6,27.22l11.732-3.3a4,4,0,0,1,2.566.136l2.75,1.1a3.991,3.991,0,0,1,1.72,1.322l7.42,9.948,5.053,2.144a4,4,0,1,1-3.122,7.361l-6.05-2.567a3.991,3.991,0,0,1-1.643-1.29l-2.954-3.961L48.825,47.7V63.6c0,3.328-2.568,5.479-6.543,5.479m-1.013-37.6a1.065,1.065,0,0,1,1.008,1.407L38.1,45.2a4.41,4.41,0,0,0-.234,1.416V63.6c0,3.023,3.087,3.35,4.414,3.35S46.7,66.62,46.7,63.6V47.522a1.068,1.068,0,0,1,.056-.342l3.956-11.67a1.064,1.064,0,0,1,1.861-.294L56.736,40.8a1.87,1.87,0,0,0,.767.6l6.051,2.567a1.869,1.869,0,0,0,1.459-3.441l-5.318-2.256a1.065,1.065,0,0,1-.438-.344L51.666,27.751a1.861,1.861,0,0,0-.8-.617l-2.75-1.1a1.883,1.883,0,0,0-1.2-.064L35.18,29.27a1.869,1.869,0,0,0-1.246,1.149l-3.667,9.9a1.869,1.869,0,1,0,3.5,1.3l3.147-8.5a1.065,1.065,0,0,1,.71-.655l3.351-.943a1.071,1.071,0,0,1,.289-.039" transform="translate(-13.106 -11.118)" fill="#333"/>
        <path id="패스_1095" data-name="패스 1095" d="M92.84,87.706a1.065,1.065,0,0,1-1.065-1.065V64.67a1.065,1.065,0,1,1,2.129,0V86.642a1.064,1.064,0,0,1-1.065,1.065" transform="translate(-42.924 -29.748)" fill="#333"/>
        <path id="패스_1096" data-name="패스 1096" d="M.537,41.484a.616.616,0,0,1-.273-.4A13.535,13.535,0,0,1,3.009,29.817a13.305,13.305,0,0,1,8.255-4.6.619.619,0,0,1,.188,1.224,11.909,11.909,0,0,0-7.49,4.165A12.3,12.3,0,0,0,1.48,40.847a.619.619,0,0,1-.943.638" transform="translate(0 -11.792)" fill="#a3daf7"/>
        <path id="패스_1097" data-name="패스 1097" d="M8.269,44.934A.617.617,0,0,1,8,44.551a9.791,9.791,0,0,1,1.907-8.519,9.636,9.636,0,0,1,6.144-3.354A.619.619,0,0,1,16.22,33.9a8.4,8.4,0,0,0-5.36,2.918,8.564,8.564,0,0,0-1.653,7.453.619.619,0,0,1-.938.658" transform="translate(-3.615 -15.281)" fill="#a3daf7"/>
        <path id="패스_1098" data-name="패스 1098" d="M15.58,48.194a.619.619,0,0,1-.257-.338A6.349,6.349,0,0,1,16.406,41.9a6.178,6.178,0,0,1,4.174-2.172.619.619,0,1,1,.124,1.232,4.945,4.945,0,0,0-3.345,1.73,5.116,5.116,0,0,0-.852,4.8.619.619,0,0,1-.927.7" transform="translate(-7.023 -18.578)" fill="#a3daf7"/>
      </g>
    </g>
  </g>
</svg>
