<svg xmlns="http://www.w3.org/2000/svg" xmlns:xlink="http://www.w3.org/1999/xlink" width="70" height="70" viewBox="0 0 70 70">
  <defs>
    <clipPath id="clip-path">
      <rect id="사각형_1219" data-name="사각형 1219" width="55.572" height="43.028" transform="translate(-2 -2)" fill="none"/>
    </clipPath>
  </defs>
  <g id="ico_dpt6" transform="translate(-30.339 -30)">
    <path id="패스_914" data-name="패스 914" d="M70.265,35.534a35,35,0,1,1-35-35,35,35,0,0,1,35,35" transform="translate(30.074 29.466)" fill="#f4f5f9"/>
    <g id="그룹_1029" data-name="그룹 1029" transform="translate(39.553 44.486)">
      <g id="그룹_1028" data-name="그룹 1028" transform="translate(0 0)" clip-path="url(#clip-path)">
        <path id="패스_1415" data-name="패스 1415" d="M46.582,49.974l-8.558-1.84v8.684a3.577,3.577,0,0,0,3.7,3.446c2.042,0,3.7-.325,3.7-2.228a1.167,1.167,0,0,1,2.328,0c0,1.9,1.655,2.228,3.7,2.228a3.578,3.578,0,0,0,3.7-3.446V48.134Z" transform="translate(-20.796 -26.326)" fill="#dee8ff" stroke="#202020" stroke-width="1.5"/>
        <path id="패스_1416" data-name="패스 1416" d="M50.9,60.17c-1.242,0-4.15,0-4.15-2.681a.716.716,0,0,0-1.422,0c0,2.681-2.908,2.681-4.15,2.681a4.035,4.035,0,0,1-4.15-3.9V47.587a.453.453,0,0,1,.548-.443l8.463,1.82,8.463-1.82a.453.453,0,0,1,.548.443v8.684a4.035,4.035,0,0,1-4.15,3.9m-4.861-4.22a1.581,1.581,0,0,1,1.617,1.539c0,1.294.879,1.775,3.244,1.775a3.129,3.129,0,0,0,3.244-2.993V48.148L46.13,49.87a.464.464,0,0,1-.19,0l-8.01-1.722v8.123a3.129,3.129,0,0,0,3.244,2.993c2.365,0,3.244-.481,3.244-1.775a1.581,1.581,0,0,1,1.617-1.539" transform="translate(-20.249 -25.779)"/>
        <path id="패스_1417" data-name="패스 1417" d="M13.772,45.536a3.5,3.5,0,0,0-3.5-3.5,3.569,3.569,0,0,0-2.385.941,3.174,3.174,0,0,1-2.52.694,4.366,4.366,0,0,0-1.34,8.521,1.9,1.9,0,0,1,1.34,1.666v9.708h6.141V50.509a2.772,2.772,0,0,1,1.135-2.4,3.486,3.486,0,0,0,1.13-2.573" transform="translate(-0.547 -22.989)" fill="#fff"/>
        <path id="패스_1418" data-name="패스 1418" d="M10.959,63.471a.453.453,0,0,1-.453-.453V49.962a3.169,3.169,0,0,1,1.187-2.65l.095-.084A3.046,3.046,0,0,0,9.723,41.94a3.116,3.116,0,0,0-2.082.825,3.339,3.339,0,0,1-2.583.815c-.085,0-.165-.005-.24-.005a3.913,3.913,0,0,0-1.2,7.636,2.337,2.337,0,0,1,1.654,2.1v9.708a.453.453,0,0,1-.906,0V53.309a1.449,1.449,0,0,0-1.025-1.236,4.819,4.819,0,0,1,1.478-9.4c.084,0,.174,0,.268.006a2.467,2.467,0,0,0,1.951-.584,4.044,4.044,0,0,1,2.686-1.056,3.952,3.952,0,0,1,2.679,6.86l-.115.1a2.264,2.264,0,0,0-.874,1.965V63.018a.453.453,0,0,1-.453.453" transform="translate(0 -22.442)" fill="#202020" stroke="#202020" stroke-width="0.5"/>
        <path id="패스_1419" data-name="패스 1419" d="M84.637,45.536a3.5,3.5,0,0,1,3.5-3.5,3.567,3.567,0,0,1,2.384.941,3.175,3.175,0,0,0,2.521.694,4.366,4.366,0,0,1,1.339,8.521,1.9,1.9,0,0,0-1.339,1.666v9.708H86.9V50.509a2.772,2.772,0,0,0-1.135-2.4,3.485,3.485,0,0,1-1.13-2.573" transform="translate(-46.29 -22.989)" fill="#fff"/>
        <path id="패스_1420" data-name="패스 1420" d="M92.5,63.471a.453.453,0,0,1-.453-.453V53.309a2.336,2.336,0,0,1,1.653-2.1,3.913,3.913,0,0,0-1.2-7.637c-.075,0-.155,0-.24.005a3.34,3.34,0,0,1-2.582-.814,3.114,3.114,0,0,0-2.083-.826,3.046,3.046,0,0,0-2.065,5.287l.1.084a3.17,3.17,0,0,1,1.186,2.65V63.018a.453.453,0,0,1-.906,0V49.962A2.264,2.264,0,0,0,85.028,48l-.115-.1a3.952,3.952,0,0,1,2.679-6.861,4.041,4.041,0,0,1,2.686,1.057,2.469,2.469,0,0,0,1.951.584c.095,0,.184-.006.268-.006a4.819,4.819,0,0,1,1.478,9.405,1.448,1.448,0,0,0-1.025,1.235v9.708a.453.453,0,0,1-.453.453" transform="translate(-45.743 -22.442)" stroke="#202020" stroke-width="0.5"/>
        <path id="패스_1421" data-name="패스 1421" d="M45.451,1A6.8,6.8,0,0,0,38.6,6.889a1.408,1.408,0,0,1-2.413,1.09A8.814,8.814,0,0,1,35.02,5.543c-.584-1.192-1.912-.854-2.512.471-.216.477-.48,1.915-2.017,1.915s-1.8-1.438-2.018-1.915c-.6-1.325-1.929-1.663-2.512-.471a8.789,8.789,0,0,1-1.168,2.436,1.407,1.407,0,0,1-2.412-1.09A6.8,6.8,0,0,0,15.531,1a6.925,6.925,0,0,0-2.75,13.282,5.77,5.77,0,0,1,2.864,2.235,18.67,18.67,0,0,0,3.074,3c.9.771.809,2.171.809,2.994a2.974,2.974,0,0,0,2.016,2.783A4.234,4.234,0,0,1,23.157,26.4,5.513,5.513,0,0,0,27.01,28.48c1.086,0,1.643-.739,2.075-1.672.213-.459.409-1.285,1.406-1.285s1.193.827,1.405,1.285c.433.933.99,1.672,2.076,1.672A5.515,5.515,0,0,0,37.825,26.4a4.232,4.232,0,0,1,1.612-1.112,2.974,2.974,0,0,0,2.016-2.783c0-.824-.087-2.224.809-2.994a18.7,18.7,0,0,0,3.074-3A5.763,5.763,0,0,1,48.2,14.282,6.925,6.925,0,0,0,45.451,1M32.787,23.333c-1.37,0-1.649-.432-2.3-.432s-.927.432-2.3.432-4.72-4.67-4.72-6.649,2.817-3.476,7.017-3.476,7.016,1.5,7.016,3.476-3.35,6.649-4.72,6.649" transform="translate(-4.705 -0.547)" fill="#fff"/>
        <path id="패스_1422" data-name="패스 1422" d="M33.426,28.386a2.749,2.749,0,0,1-2.487-1.935c-.03-.065-.059-.135-.091-.21-.209-.5-.365-.813-.9-.813s-.695.309-.9.812c-.031.075-.061.146-.092.212a2.748,2.748,0,0,1-2.486,1.934,6.067,6.067,0,0,1-4.193-2.232,3.755,3.755,0,0,0-1.425-.984,3.4,3.4,0,0,1-2.316-3.21v-.205a3.16,3.16,0,0,0-.652-2.446l-.444-.379a15.892,15.892,0,0,1-2.7-2.7l-.073-.1a5.35,5.35,0,0,0-2.609-1.984A7.469,7.469,0,0,1,7.6,7.381,7.39,7.39,0,0,1,14.984,0a7.28,7.28,0,0,1,7.3,6.3c.076.725.368,1.093.869,1.093a1.255,1.255,0,0,0,.783-.287,3.9,3.9,0,0,0,.709-1.407,9.409,9.409,0,0,1,.36-.9,1.6,1.6,0,0,1,1.43-.987,2.229,2.229,0,0,1,1.9,1.469c.035.077.072.176.112.29.26.716.57,1.359,1.492,1.359s1.232-.642,1.492-1.358c.042-.114.078-.214.113-.291a2.228,2.228,0,0,1,1.9-1.469,1.6,1.6,0,0,1,1.43.987,9.378,9.378,0,0,1,.36.9A3.912,3.912,0,0,0,35.95,7.1a1.259,1.259,0,0,0,.783.287c.5,0,.794-.368.87-1.093A7.278,7.278,0,0,1,44.9,0a7.39,7.39,0,0,1,7.381,7.381,7.469,7.469,0,0,1-4.446,6.768,5.344,5.344,0,0,0-2.609,1.985l-.072.1a15.909,15.909,0,0,1-2.7,2.7l-.444.379a3.158,3.158,0,0,0-.652,2.446v.205a3.4,3.4,0,0,1-2.317,3.21,3.823,3.823,0,0,0-1.425.984,6.066,6.066,0,0,1-4.193,2.232m-3.481-3.864a1.824,1.824,0,0,1,1.741,1.372c.026.063.051.122.076.176.471,1.014.937,1.41,1.665,1.41a5.036,5.036,0,0,0,3.512-1.923,4.648,4.648,0,0,1,1.8-1.24,2.508,2.508,0,0,0,1.716-2.357v-.2a3.891,3.891,0,0,1,.967-3.138l.449-.383a15.261,15.261,0,0,0,2.553-2.534l.069-.1a6.2,6.2,0,0,1,2.977-2.287,6.56,6.56,0,0,0,3.911-5.941A6.482,6.482,0,0,0,44.9.906a6.364,6.364,0,0,0-6.4,5.483c-.185,1.767-1.4,1.9-1.771,1.9a2.159,2.159,0,0,1-1.4-.53A4.439,4.439,0,0,1,34.39,6a8.694,8.694,0,0,0-.323-.808.732.732,0,0,0-.617-.479c-.324,0-.782.29-1.077.938-.027.059-.054.137-.087.226a2.382,2.382,0,0,1-4.688,0c-.032-.088-.059-.166-.086-.225-.294-.648-.753-.938-1.077-.938a.731.731,0,0,0-.616.479A8.625,8.625,0,0,0,25.5,6a4.441,4.441,0,0,1-.943,1.761,2.158,2.158,0,0,1-1.4.53c-.369,0-1.586-.137-1.771-1.9a6.364,6.364,0,0,0-6.4-5.483A6.483,6.483,0,0,0,8.509,7.381a6.56,6.56,0,0,0,3.911,5.941A6.213,6.213,0,0,1,15.4,15.607l.07.1a15.276,15.276,0,0,0,2.553,2.534l.449.383a3.891,3.891,0,0,1,.968,3.139v.2a2.508,2.508,0,0,0,1.716,2.357,4.663,4.663,0,0,1,1.8,1.239,5.036,5.036,0,0,0,3.513,1.924c.728,0,1.194-.4,1.664-1.41.025-.054.05-.115.077-.178a1.824,1.824,0,0,1,1.741-1.37m2.3-1.284a4.647,4.647,0,0,1-1.741-.3,1.247,1.247,0,0,0-1.11,0,4.648,4.648,0,0,1-1.742.3c-1.779,0-5.173-5.038-5.173-7.1,0-2.313,3.072-3.929,7.47-3.929s7.469,1.616,7.469,3.929c0,2.064-3.394,7.1-5.173,7.1m-2.3-1.338a2.439,2.439,0,0,1,.857.182,3.742,3.742,0,0,0,1.439.25c1.043,0,4.267-4.359,4.267-6.2,0-1.752-2.76-3.023-6.563-3.023s-6.564,1.271-6.564,3.023c0,1.837,3.225,6.2,4.267,6.2a3.749,3.749,0,0,0,1.44-.25,2.437,2.437,0,0,1,.857-.182" transform="translate(-4.158 0)" fill="#202020" stroke="#202020" stroke-width="0.5"/>
      </g>
    </g>
  </g>
</svg>
