<svg xmlns="http://www.w3.org/2000/svg" xmlns:xlink="http://www.w3.org/1999/xlink" width="70" height="70" viewBox="0 0 70 70">
  <defs>
    <clipPath id="clip-path">
      <rect id="사각형_1201" data-name="사각형 1201" width="51.898" height="41.676" transform="translate(-1 -1)" fill="none"/>
    </clipPath>
  </defs>
  <g id="ico_dpt20" transform="translate(-1354.999 -569)">
    <path id="패스_868" data-name="패스 868" d="M70.265,35.534a35,35,0,1,1-35-35,35,35,0,0,1,35,35" transform="translate(1354.734 568.466)" fill="#f2f2f1"/>
    <g id="그룹_983" data-name="그룹 983" transform="translate(1365.051 585.444)" clip-path="url(#clip-path)">
      <path id="패스_1354" data-name="패스 1354" d="M42.619,11.8H20.73l9.412-5.434a2.877,2.877,0,1,0-2.877-4.983L17.853,6.817C12.739,9.773,8.974,11.8,5.7,13.718H1V32.26H5.7c1.865,1.864,5.355,2.557,8.711,2.557H26.392a2.877,2.877,0,0,0,0-5.754h2.157a2.877,2.877,0,1,0,0-5.754h.718a2.877,2.877,0,0,0,0-5.754H42.619a2.877,2.877,0,1,0,0-5.754" transform="translate(-0.59 -0.588)" fill="#fff5f7"/>
      <path id="패스_1355" data-name="패스 1355" d="M25.8,34.639H13.818c-2.32,0-6.521-.336-8.877-2.557H.41a.41.41,0,0,1,0-.82h4.7a.409.409,0,0,1,.29.12c1.549,1.548,4.619,2.437,8.421,2.437H25.8a2.467,2.467,0,0,0,0-4.934.41.41,0,1,1,0-.82h2.157a2.467,2.467,0,0,0,0-4.934.41.41,0,1,1,0-.82h.718a2.467,2.467,0,0,0,0-4.934.41.41,0,1,1,0-.82H42.029a2.467,2.467,0,1,0,0-4.934H20.14a.41.41,0,0,1-.205-.765l9.413-5.434A2.467,2.467,0,1,0,26.88,1.149L17.468,6.584c-2.618,1.513-4.9,2.791-6.907,3.919C8.6,11.6,6.912,12.549,5.314,13.484a.408.408,0,0,1-.207.057H.41a.41.41,0,0,1,0-.82H5c1.576-.921,3.241-1.855,5.164-2.933,2.009-1.126,4.285-2.4,6.9-3.913L26.47.439a3.287,3.287,0,1,1,3.287,5.694L21.671,10.8H42.029a3.287,3.287,0,1,1,0,6.574H30.846a3.286,3.286,0,0,1-.993,5.536,3.286,3.286,0,0,1-1.881,5.972,3.286,3.286,0,0,1-2.17,5.754" transform="translate(0 0)" fill="#202020" stroke="#202020" stroke-width="0.5"/>
      <line id="선_425" data-name="선 425" x1="2.157" transform="translate(25.801 22.721)" fill="#fff"/>
      <path id="패스_1356" data-name="패스 1356" d="M64.474,55.216H62.317a.41.41,0,0,1,0-.82h2.157a.41.41,0,0,1,0,.82" transform="translate(-36.516 -32.085)" fill="#202020" stroke="#202020" stroke-width="0.5"/>
      <line id="선_426" data-name="선 426" x1="2.875" transform="translate(25.801 16.966)" fill="#fff"/>
      <path id="패스_1357" data-name="패스 1357" d="M65.192,41.186H62.317a.41.41,0,0,1,0-.82h2.875a.41.41,0,0,1,0,.82" transform="translate(-36.516 -23.81)" fill="#202020" stroke="#202020" stroke-width="0.5"/>
      <path id="패스_1358" data-name="패스 1358" d="M92.985,25.353H80v7.382H92.985a3.691,3.691,0,0,0,0-7.382" transform="translate(-47.188 -14.954)" fill="#fff"/>
      <path id="패스_1359" data-name="패스 1359" d="M92.4,32.555H79.41a.41.41,0,0,1-.41-.41V24.763a.41.41,0,0,1,.41-.41H92.4a4.1,4.1,0,1,1,0,8.2m-12.575-.82H92.4a3.281,3.281,0,1,0,0-6.562H79.82Z" transform="translate(-46.598 -14.365)" fill="#202020" stroke="#202020" stroke-width="0.5"/>
      <path id="패스_1360" data-name="패스 1360" d="M108.946,26.58l-5.032,6.879h3.177a3.689,3.689,0,0,0,1.854-6.879" transform="translate(-61.294 -15.678)" fill="#fff"/>
      <path id="패스_1361" data-name="패스 1361" d="M106.5,33.279h-3.177a.411.411,0,0,1-.331-.653l5.032-6.878a.409.409,0,0,1,.538-.112,4.1,4.1,0,0,1-2.061,7.643m-2.369-.82H106.5a3.278,3.278,0,0,0,1.955-5.911Z" transform="translate(-60.703 -15.088)" fill="#202020" stroke="#202020" stroke-width="0.5"/>
      <path id="패스_1362" data-name="패스 1362" d="M89.944,25.353l.41,7.382H84l5.4-7.382Z" transform="translate(-49.547 -14.954)" fill="#fff"/>
      <path id="패스_1363" data-name="패스 1363" d="M89.773,32.555H83.41a.411.411,0,0,1-.331-.653l5.4-7.381a.41.41,0,0,1,.331-.168h.544a.41.41,0,0,1,.41.387l.406,7.3a.415.415,0,0,1,.013.1.41.41,0,0,1-.41.41m-5.554-.82h5.113l-.361-6.5Z" transform="translate(-48.958 -14.365)" fill="#202020" stroke="#202020" stroke-width="0.5"/>
      <path id="패스_1364" data-name="패스 1364" d="M81,25.353l5.4,7.382h7.175l-5.4-7.382Z" transform="translate(-47.778 -14.954)" fill="#fff"/>
      <path id="패스_1365" data-name="패스 1365" d="M92.985,32.555H85.81a.41.41,0,0,1-.331-.168l-5.4-7.382a.41.41,0,0,1,.331-.652h7.175a.409.409,0,0,1,.331.168l5.4,7.381a.411.411,0,0,1-.331.653m-6.967-.82h6.159l-4.8-6.562H81.218Z" transform="translate(-47.188 -14.365)" fill="#202020" stroke="#202020" stroke-width="0.5"/>
      <path id="패스_1366" data-name="패스 1366" d="M90.905,15.051l3.48,2.937-1.16-5.12Z" transform="translate(-53.62 -7.59)" fill="#fff"/>
      <path id="패스_1367" data-name="패스 1367" d="M93.8,17.809a.41.41,0,0,1-.265-.1l-3.48-2.937a.41.41,0,0,1-.017-.612l2.321-2.183a.41.41,0,0,1,.681.208l1.16,5.12a.411.411,0,0,1-.4.5m-2.864-3.364L93.126,16.3l-.731-3.228Z" transform="translate(-53.031 -7)" fill="#202020" stroke="#202020" stroke-width="0.5"/>
      <path id="패스_1368" data-name="패스 1368" d="M100.551,12.868l-1.16,5.12,3.48-2.937Z" transform="translate(-58.626 -7.59)" fill="#fff"/>
      <path id="패스_1369" data-name="패스 1369" d="M98.8,17.809a.409.409,0,0,1-.4-.5l1.16-5.12a.41.41,0,0,1,.681-.208l2.32,2.183a.41.41,0,0,1-.016.612l-3.48,2.937a.408.408,0,0,1-.265.1m1.4-4.74L99.472,16.3l2.193-1.852Z" transform="translate(-58.036 -7)" fill="#202020" stroke="#202020" stroke-width="0.5"/>
      <path id="패스_1370" data-name="패스 1370" d="M94.384,62.819a3.553,3.553,0,0,0,3.553-3.553c0-2.218-1.041-3.869-3.553-5.849-2.512,1.979-3.553,3.631-3.553,5.849a3.553,3.553,0,0,0,3.553,3.553" transform="translate(-53.577 -31.509)" fill="#ff375a"/>
      <path id="패스_1373" data-name="패스 1373" d="M96.167,89.371a2.312,2.312,0,0,0,2.313-2.313c0-1.444-.678-2.518-2.313-3.807-1.635,1.289-2.313,2.364-2.313,3.807a2.313,2.313,0,0,0,2.313,2.313" transform="translate(-55.36 -49.106)" fill="#ff375a"/>
    </g>
  </g>
</svg>
