<svg xmlns="http://www.w3.org/2000/svg" xmlns:xlink="http://www.w3.org/1999/xlink" width="90" height="90" viewBox="0 0 90 90">
  <defs>
    <clipPath id="clip-path">
      <rect id="사각형_681" data-name="사각형 681" width="53.772" height="53.772" fill="none"/>
    </clipPath>
  </defs>
  <g id="ico_cont_223_13" transform="translate(-260 -4542)">
    <g id="타원_139" data-name="타원 139" transform="translate(260 4542)" fill="none" stroke="#f5f5f5" stroke-width="1">
      <circle cx="45" cy="45" r="45" stroke="none"/>
      <circle cx="45" cy="45" r="44.5" fill="none"/>
    </g>
    <g id="그룹_841" data-name="그룹 841" transform="translate(278.114 4560.114)">
      <g id="그룹_840" data-name="그룹 840" clip-path="url(#clip-path)">
        <path id="패스_1116" data-name="패스 1116" d="M37.9,53.772h0a9.122,9.122,0,0,1-8.617-12L12,24.494a8.642,8.642,0,0,1-2.894.492A9.171,9.171,0,0,1,0,16.04,8.455,8.455,0,0,1,7.422,7.42,8.45,8.45,0,0,1,15.876,0a9.122,9.122,0,0,1,8.618,12L41.777,29.277a8.638,8.638,0,0,1,2.893-.491,9.172,9.172,0,0,1,9.1,8.946,8.456,8.456,0,0,1-7.419,8.62A8.453,8.453,0,0,1,37.9,53.772M12.235,22.348a.988.988,0,0,1,.7.289l18.2,18.2a.988.988,0,0,1,.2,1.1,7,7,0,0,0,1.528,7.746A7.082,7.082,0,0,0,37.9,51.8a6.487,6.487,0,0,0,6.548-6.39.988.988,0,0,1,.964-.963A6.488,6.488,0,0,0,51.8,37.769a7.2,7.2,0,0,0-7.127-7.007,6.645,6.645,0,0,0-2.728.576.988.988,0,0,1-1.1-.2l-18.2-18.2a.988.988,0,0,1-.2-1.1,7,7,0,0,0-1.528-7.746,7.082,7.082,0,0,0-5.031-2.11,6.485,6.485,0,0,0-6.548,6.39.987.987,0,0,1-.963.963A6.488,6.488,0,0,0,1.977,16,7.2,7.2,0,0,0,9.1,23.01a6.642,6.642,0,0,0,2.729-.576.989.989,0,0,1,.4-.086" transform="translate(0)" fill="#333"/>
        <path id="패스_1117" data-name="패스 1117" d="M42.471,54.281a.988.988,0,0,1-.7-1.686L52.6,41.772a.988.988,0,0,1,1.4,1.4L43.169,53.992a.983.983,0,0,1-.7.289" transform="translate(-20.996 -20.996)" fill="#333"/>
        <rect id="사각형_680" data-name="사각형 680" width="5.888" height="16.485" transform="translate(18.976 23.139) rotate(-45)" fill="#a3daf7"/>
      </g>
    </g>
  </g>
</svg>
