<svg width="71" height="70" viewBox="0 0 71 70" fill="none" xmlns="http://www.w3.org/2000/svg">
<g clip-path="url(#clip0_3505_1018)">
<path d="M71 35C71 41.9223 68.918 48.6892 65.0172 54.445C61.1164 60.2007 55.5721 64.6867 49.0853 67.3358C42.5985 69.9849 35.4606 70.678 28.5743 69.3275C21.688 67.977 15.3625 64.6436 10.3977 59.7487C5.43296 54.8539 2.05191 48.6175 0.682138 41.8282C-0.687637 35.0388 0.0153815 28.0015 2.70229 21.6061C5.3892 15.2107 9.93933 9.74441 15.7773 5.89856C21.6152 2.05271 28.4788 0 35.5 0C44.9152 0 53.9448 3.68749 60.6023 10.2513C67.2598 16.815 71 25.7174 71 35Z" fill="#F4F5F9"/>
<path d="M43.9641 29.2375C45.1339 22.0571 40.2613 15.2879 33.0809 14.1181C25.9005 12.9483 19.1313 17.8208 17.9615 25.0012C16.7917 32.1816 21.6642 38.9508 28.8447 40.1206C36.0251 41.2905 42.7942 36.4179 43.9641 29.2375Z" fill="#FFD682"/>
<path d="M27.7958 57.8074L51.7364 55.4029L53.2 39.8259C53.2 39.8259 52.3636 37.8395 52.05 37.5259C51.7363 37.2123 48.9137 36.8986 48.9137 36.8986L47.7637 37.5259L46.7183 35.1214L43.5819 34.1805L41.9092 34.8078L40.5502 33.0305C40.5502 33.0305 39.6093 31.776 38.3548 31.9851C37.1002 32.1942 35.0094 33.0305 35.0094 33.0305L34.173 26.967L30.3049 20.0671C30.3049 20.0671 27.2731 19.2308 27.064 20.4853C26.7504 21.7398 25.8095 23.0989 25.8095 23.0989C25.8095 23.0989 26.6459 25.0852 26.7504 25.3988C26.8549 25.6079 28.7367 31.3578 28.7367 31.3578L29.7822 39.0941L26.2277 40.7668C26.2277 40.7668 23.7186 43.0667 24.0323 45.8894C24.1368 48.7121 24.555 55.1938 27.7958 57.8074Z" fill="#FFF5F7"/>
<ellipse cx="31.1278" cy="28.5056" rx="2.94853" ry="1.17941" transform="rotate(-26.004 31.1278 28.5056)" fill="#FF375A"/>
<path d="M52.7817 37.2123C53.5136 37.9441 53.8272 38.9895 53.7226 39.9304L53.5136 47.5621C53.5136 47.6666 53.5136 47.6666 53.5136 47.7712C53.409 50.1757 53.0954 52.5802 52.6772 54.8801C52.5727 55.1938 52.259 55.5074 51.9454 55.5074H51.8409C51.4227 55.4029 51.2136 54.9847 51.2136 54.6711C51.7363 51.8484 52.0499 49.0257 52.0499 46.203C52.0499 46.0985 52.0499 45.9939 52.1545 45.8894L52.3636 40.0349C52.3636 39.4077 52.1545 38.7804 51.8409 38.3622C51.4227 37.9441 50.9 37.6304 50.2727 37.6304C49.1227 37.6304 48.1818 38.5713 48.0773 39.8258L47.8682 43.1712C47.8682 43.5894 47.45 43.9031 47.0318 43.9031C46.6137 43.9031 46.3 43.4849 46.4046 43.0667L46.5091 41.0804L46.6137 37.3168C46.6137 36.6895 46.4046 36.1668 45.9864 35.6441C45.5682 35.2259 45.0455 35.0168 44.4182 35.0168C43.2683 35.0168 42.3274 35.9577 42.2228 37.2123L42.1183 39.5122V42.0213C42.1183 42.4394 41.8047 42.7531 41.3865 42.7531C40.9683 42.7531 40.6547 42.4394 40.6547 42.0213V39.8258V39.7213V39.5122V34.9123C40.6547 34.285 40.4456 33.7623 40.0274 33.3441C39.6092 32.926 38.982 32.7169 38.4593 32.7169C37.3093 32.7169 36.3684 33.7623 36.3684 35.0168L36.4729 40.1395L36.682 42.0213C36.682 42.4394 36.4729 42.7531 36.0547 42.8576C35.6366 42.8576 35.3229 42.6485 35.2184 42.2304L35.0093 40.3486L33.6502 27.9079L30.8276 22.367C30.6185 21.7398 30.0958 21.3216 29.573 21.1125C28.7367 20.5898 28.1094 20.6943 27.5867 20.9034C26.6458 21.4261 26.2276 22.7852 26.6458 23.8307L29.2594 29.8942C29.2594 29.9987 29.2594 29.9987 29.364 30.1033L31.5594 48.9212C31.5594 49.3393 31.3503 49.653 30.9321 49.7575H30.8276C30.4094 49.7575 30.0958 49.4439 30.0958 49.1302L29.0503 40.0349C26.5413 40.9758 24.9731 43.2758 24.9731 45.8894V48.3984C24.9731 51.8484 25.914 54.462 27.9003 56.7619C28.214 57.0756 28.1094 57.4937 27.7958 57.8074C27.6913 57.9119 27.4822 58.0165 27.2731 58.0165C27.064 58.0165 26.8549 57.9119 26.7504 57.8074C24.4504 55.1938 23.405 52.2666 23.405 48.503V45.9939C23.405 43.5894 24.4504 41.4985 26.2276 40.0349C20.8959 37.9441 17.2369 32.926 17.2369 27.0715C17.2369 19.5444 23.405 13.3763 30.9321 13.3763C38.4593 13.3763 44.6273 19.5444 44.6273 27.0715C44.6273 28.2215 44.5228 29.476 44.2092 30.5215C44.2092 30.7305 44.1046 30.8351 44.0001 30.9396C43.791 31.1487 43.4774 31.1487 43.2683 31.1487C42.8501 31.0442 42.641 30.626 42.7455 30.2078C42.9546 29.1624 43.1637 28.117 43.1637 27.0715C43.1637 20.3807 37.7274 14.8399 30.9321 14.8399C24.2413 14.8399 18.7005 20.3807 18.7005 27.0715C18.7005 32.6123 22.4641 37.5259 27.7958 38.885C28.1094 38.7804 28.4231 38.5713 28.7367 38.4668L27.7958 30.4169L25.1822 24.4579C24.4504 22.5761 25.1822 20.4853 26.9594 19.5444C27.9003 19.1262 28.8412 19.0216 29.8867 19.3353C30.8276 19.6489 31.5594 20.3807 31.9775 21.3216L34.8002 26.967C34.8002 27.0715 34.9048 27.1761 34.9048 27.1761L35.4275 32.4032C36.0547 31.5669 36.9956 30.9396 38.1456 30.9396C39.1911 30.9396 40.132 31.2533 40.8638 31.9851C41.491 32.6123 41.9092 33.3441 41.9092 34.1805C42.5365 33.6578 43.2683 33.3441 44.1046 33.2396H44.2092C45.2546 33.2396 46.1955 33.6578 46.8228 34.3896C47.45 35.0168 47.7636 35.8532 47.7636 36.6895C48.3909 36.1668 49.1227 35.8532 49.9591 35.8532C49.9591 35.8532 49.9591 35.8532 50.0636 35.8532C51.109 36.0623 52.0499 36.4804 52.7817 37.2123Z" fill="#202020"/>
<path d="M36.7386 20.7311V20.7321L36.7503 20.735C37.0746 20.8161 37.2501 21.1413 37.1644 21.4908L36.8509 22.6412L36.7991 22.8307H36.9954C37.0782 22.8307 37.1883 22.8521 37.2874 22.8961C37.3883 22.941 37.4579 23 37.4886 23.0612C37.5283 23.1406 37.5511 23.2474 37.5511 23.36C37.5511 23.4726 37.5283 23.5793 37.4886 23.6588L36.7571 25.1227L36.7523 25.1324L36.7484 25.1422C36.6726 25.3693 36.4397 25.4576 36.264 25.4576C36.1617 25.4576 36.1139 25.455 36.056 25.3971L36.0462 25.3864L36.0335 25.3785L35.9388 25.3043C35.8491 25.2229 35.7776 25.1221 35.7376 25.0182C35.6852 24.8818 35.6899 24.7519 35.761 24.6451L35.7669 24.6383L35.7708 24.6295L35.9798 24.2115L36.0882 23.9938H35.846C35.7694 23.9938 35.7251 23.9763 35.6907 23.9489C35.6511 23.9171 35.611 23.8617 35.5618 23.7633C35.508 23.6556 35.4641 23.5665 35.4427 23.4811C35.4227 23.401 35.4253 23.3343 35.4573 23.2701L35.4632 23.2584L35.4661 23.2467L36.0941 21.1559L36.096 21.149C36.1811 20.8085 36.515 20.6571 36.7386 20.7311Z" fill="#202020" stroke="#EBAF34" stroke-width="0.3"/>
<path d="M24.0234 30.2341C24.1306 30.202 24.2195 30.2072 24.2792 30.2371L24.2929 30.2439L24.3076 30.2478L25.8749 30.6667H25.8779C26.203 30.7481 26.3785 31.0749 26.291 31.4255C26.2096 31.7509 25.883 31.9273 25.5322 31.8396L25.1142 31.7351L24.9277 31.6882V31.8806C24.9276 32.0235 24.8654 32.0894 24.7626 32.1921C24.6843 32.2704 24.5123 32.3582 24.3456 32.3582H24.2558L22.0605 32.1492H22.0458C21.7315 32.1491 21.482 31.8284 21.5644 31.4988C21.6108 31.3133 21.7012 31.1617 21.8144 31.0691C21.9235 30.9798 22.0581 30.9401 22.2187 30.9802L22.2294 30.9832L22.2411 30.9841L23.3915 31.0886L23.5546 31.1042V30.9392C23.5546 30.8318 23.5552 30.7176 23.5771 30.6189C23.5992 30.5198 23.6363 30.4687 23.6816 30.446L23.7031 30.4353L23.7197 30.4187C23.8075 30.3308 23.9176 30.2659 24.0234 30.2341Z" fill="#202020" stroke="#EBAF34" stroke-width="0.3"/>
</g>
<defs>
<clipPath id="clip0_3505_1018">
<rect width="71" height="70" fill="white"/>
</clipPath>
</defs>
</svg>
