<svg xmlns="http://www.w3.org/2000/svg" xmlns:xlink="http://www.w3.org/1999/xlink" width="140" height="140" viewBox="0 0 140 140">
  <defs>
    <clipPath id="clip-path">
      <rect id="사각형_1243" data-name="사각형 1243" width="140" height="140" transform="translate(386 1014)" fill="none"/>
    </clipPath>
  </defs>
  <g id="icon_직원날인및" transform="translate(-1148 -1191)">
    <g id="마스크_그룹_114" data-name="마스크 그룹 114" transform="translate(762 177)" clip-path="url(#clip-path)">
      <path id="다각형_24" data-name="다각형 24" d="M93.513,0a20,20,0,0,1,17.276,9.923l23.333,40a20,20,0,0,1,0,20.155l-23.333,40A20,20,0,0,1,93.513,120H46.487a20,20,0,0,1-17.276-9.923l-23.333-40a20,20,0,0,1,0-20.155l23.333-40A20,20,0,0,1,46.487,0Z" transform="translate(365.652 1067) rotate(-30)" fill="#fff"/>
    </g>
    <g id="icon_직원날인및-2" data-name="icon_직원날인및" transform="translate(1191.411 1227.656)">
      <g id="그룹_562" data-name="그룹 562" transform="translate(0.75 0.75)">
        <path id="패스_664" data-name="패스 664" d="M32.122,10.435a9.685,9.685,0,1,0-19.369,0,5.452,5.452,0,0,0,.309,1.222,74.317,74.317,0,0,1,3.352,16.774l1.418,16.39h9.213l1.418-16.39a74.3,74.3,0,0,1,3.352-16.773,5.471,5.471,0,0,0,.309-1.223" transform="translate(0.438 -0.75)" fill="#beeaf8"/>
        <path id="패스_665" data-name="패스 665" d="M32.122,10.435a9.685,9.685,0,1,0-19.369,0,5.452,5.452,0,0,0,.309,1.222,74.317,74.317,0,0,1,3.352,16.774l1.418,16.39h9.213l1.418-16.39a74.3,74.3,0,0,1,3.352-16.773A5.471,5.471,0,0,0,32.122,10.435Z" transform="translate(0.438 -0.75)" fill="none" stroke="#3a4851" stroke-linecap="round" stroke-linejoin="round" stroke-width="1.5"/>
        <path id="패스_666" data-name="패스 666" d="M46.5,51.035H.75V44.757A4.917,4.917,0,0,1,5.667,39.84H41.584A4.917,4.917,0,0,1,46.5,44.757Z" transform="translate(-0.75 3.118)" fill="#beeaf8"/>
        <path id="패스_667" data-name="패스 667" d="M46.5,51.035H.75V44.757A4.917,4.917,0,0,1,5.667,39.84H41.584A4.917,4.917,0,0,1,46.5,44.757Z" transform="translate(-0.75 3.118)" fill="none" stroke="#3a4851" stroke-linecap="round" stroke-linejoin="round" stroke-width="1.5"/>
        <rect id="사각형_444" data-name="사각형 444" width="40.56" height="3.375" transform="translate(2.596 54.153)" fill="#fff"/>
        <rect id="사각형_445" data-name="사각형 445" width="40.56" height="3.375" transform="translate(2.596 54.153)" fill="none" stroke="#3a4851" stroke-linecap="round" stroke-linejoin="round" stroke-width="1.5"/>
        <path id="패스_668" data-name="패스 668" d="M29.907,36.9H15.025a2.551,2.551,0,1,1,0-5.1H29.907a2.551,2.551,0,1,1,0,5.1" transform="translate(0.41 2.323)" fill="#beeaf8"/>
        <path id="패스_669" data-name="패스 669" d="M29.907,36.9H15.025a2.551,2.551,0,1,1,0-5.1H29.907a2.551,2.551,0,1,1,0,5.1Z" transform="translate(0.41 2.323)" fill="none" stroke="#3a4851" stroke-linecap="round" stroke-linejoin="round" stroke-width="1.5"/>
        <path id="패스_670" data-name="패스 670" d="M58.6,23.421A12.026,12.026,0,1,1,46.571,11.4,12.026,12.026,0,0,1,58.6,23.421" transform="translate(2.594 0.303)" fill="#5ba7fb"/>
        <path id="패스_671" data-name="패스 671" d="M58.6,23.421A12.026,12.026,0,1,1,46.571,11.4,12.026,12.026,0,0,1,58.6,23.421Z" transform="translate(2.594 0.303)" fill="none" stroke="#3a4851" stroke-linecap="round" stroke-linejoin="round" stroke-width="1.5"/>
        <path id="패스_672" data-name="패스 672" d="M52.615,19.626l-8.143,8.143-4.118-4.118" transform="translate(3.169 1.118)" fill="none" stroke="#fff" stroke-linecap="round" stroke-linejoin="round" stroke-width="1.5"/>
      </g>
    </g>
  </g>
</svg>
