<svg xmlns="http://www.w3.org/2000/svg" width="70" height="70" viewBox="0 0 70 70">
  <g id="ico_dpt26" transform="translate(-291.999 -716)">
    <path id="패스_826" data-name="패스 826" d="M70.265,35.534a35,35,0,1,1-35-35,35,35,0,0,1,35,35" transform="translate(291.734 715.466)" fill="#f4f5f9"/>
    <g id="그룹_1093" data-name="그룹 1093" transform="translate(-11.801 614.906)">
      <path id="패스_1483" data-name="패스 1483" d="M330.243,134.407H349.4V116.2h3.484v37.1H349.4V137.891H330.243Z" transform="translate(-8.809)" fill="#ebaf34" stroke="#202020" stroke-linecap="round" stroke-linejoin="round" stroke-width="1.5"/>
      <path id="패스_1484" data-name="패스 1484" d="M381.443,144.525H362.284V121.616H358.8v37.467h3.484V148.01h19.159Z" transform="translate(-25.099 -3.091)" fill="#fff" stroke="#202020" stroke-linecap="round" stroke-linejoin="round" stroke-width="1.5"/>
      <path id="패스_1485" data-name="패스 1485" d="M327.767,148.651a5.4,5.4,0,0,0,0-7.438,5.42,5.42,0,0,0-2.125-10.406A10.842,10.842,0,0,0,314.8,141.65v6.565a10.841,10.841,0,0,0,10.842,10.842,5.42,5.42,0,0,0,2.125-10.406Z" transform="translate(0 -8.334)" fill="#ffd4dc" stroke="#202020" stroke-linecap="round" stroke-linejoin="round" stroke-width="1.5"/>
      <path id="패스_1486" data-name="패스 1486" d="M342.882,151.926a5.418,5.418,0,0,1,0,10.106" transform="translate(-16.019 -20.381)" fill="#ffd4dc" stroke="#202020" stroke-linecap="round" stroke-linejoin="round" stroke-width="1.5"/>
      <g id="그룹_1092" data-name="그룹 1092" transform="translate(346.356 122.474)">
        <path id="패스_1487" data-name="패스 1487" d="M391.553,148.651a5.4,5.4,0,0,1,0-7.438,5.42,5.42,0,0,1,2.125-10.406A10.842,10.842,0,0,1,404.52,141.65v6.565a10.842,10.842,0,0,1-10.842,10.842,5.42,5.42,0,0,1-2.125-10.406Z" transform="translate(-388.259 -130.808)" fill="#ffd4dc" stroke="#202020" stroke-linecap="round" stroke-linejoin="round" stroke-width="1.5"/>
        <path id="패스_1488" data-name="패스 1488" d="M408.3,187.706a7.924,7.924,0,0,1-1.109.5" transform="translate(-399.055 -163.264)" fill="none" stroke="#fff" stroke-linecap="round" stroke-linejoin="round" stroke-width="1.5"/>
        <path id="패스_1489" data-name="패스 1489" d="M416.588,171.33a7.977,7.977,0,0,1-2.2,5.51" transform="translate(-403.162 -153.923)" fill="none" stroke="#fff" stroke-linecap="round" stroke-linejoin="round" stroke-width="1.5"/>
        <path id="패스_1490" data-name="패스 1490" d="M395.934,151.926a5.418,5.418,0,0,0,0,10.106" transform="translate(-390.661 -142.854)" fill="#ffd4dc" stroke="#202020" stroke-linecap="round" stroke-linejoin="round" stroke-width="1.5"/>
      </g>
    </g>
  </g>
</svg>
