<svg xmlns="http://www.w3.org/2000/svg" xmlns:xlink="http://www.w3.org/1999/xlink" width="140" height="140" viewBox="0 0 140 140">
  <defs>
    <clipPath id="clip-path">
      <rect id="사각형_1229" data-name="사각형 1229" width="140" height="140" transform="translate(386 1014)" fill="none"/>
    </clipPath>
    <clipPath id="clip-path-2">
      <rect id="사각형_330" data-name="사각형 330" width="56.532" height="61.497" fill="none"/>
    </clipPath>
  </defs>
  <g id="icon_병원시설" transform="translate(-637 -767)">
    <g id="마스크_그룹_100" data-name="마스크 그룹 100" transform="translate(251 -247)" clip-path="url(#clip-path)">
      <path id="다각형_10" data-name="다각형 10" d="M93.513,0a20,20,0,0,1,17.276,9.923l23.333,40a20,20,0,0,1,0,20.155l-23.333,40A20,20,0,0,1,93.513,120H46.487a20,20,0,0,1-17.276-9.923l-23.333-40a20,20,0,0,1,0-20.155l23.333-40A20,20,0,0,1,46.487,0Z" transform="translate(365.652 1067) rotate(-30)" fill="#fff"/>
    </g>
    <g id="icon_병원시설-2" data-name="icon_병원시설" transform="translate(678.649 802.251)">
      <rect id="사각형_328" data-name="사각형 328" width="55.372" height="29.703" transform="translate(0.58 31.214)" fill="#5ba7fb"/>
      <g id="그룹_440" data-name="그룹 440" transform="translate(0 0)">
        <g id="그룹_439" data-name="그룹 439" clip-path="url(#clip-path-2)">
          <rect id="사각형_329" data-name="사각형 329" width="55.372" height="29.703" transform="translate(0.58 31.214)" fill="none" stroke="#3a4851" stroke-linecap="round" stroke-width="1.5"/>
        </g>
      </g>
      <path id="패스_467" data-name="패스 467" d="M15.631,19.016v46.2H26.852V52.679h9.9V65.22H47.974v-46.2Z" transform="translate(-3.537 -4.303)" fill="#fff"/>
      <g id="그룹_442" data-name="그룹 442" transform="translate(0 0)">
        <g id="그룹_441" data-name="그룹 441" clip-path="url(#clip-path-2)">
          <path id="패스_468" data-name="패스 468" d="M47.975,19.016H15.632v46.2H26.852V52.679h9.9V65.22H47.975Z" transform="translate(-3.537 -4.303)" fill="none" stroke="#3a4851" stroke-linecap="round" stroke-width="1.5"/>
        </g>
      </g>
      <path id="패스_469" data-name="패스 469" d="M23.493,37.409h0Z" transform="translate(-5.316 -8.464)" fill="#18a4ea"/>
      <line id="선_134" data-name="선 134" x2="3.905" transform="translate(18.177 28.945)" fill="none" stroke="#3a4851" stroke-linecap="round" stroke-width="1.5"/>
      <path id="패스_470" data-name="패스 470" d="M34.008,37.409h0Z" transform="translate(-7.695 -8.464)" fill="#18a4ea"/>
      <line id="선_135" data-name="선 135" x2="3.905" transform="translate(26.314 28.945)" fill="none" stroke="#3a4851" stroke-linecap="round" stroke-width="1.5"/>
      <path id="패스_471" data-name="패스 471" d="M44.524,37.409h0Z" transform="translate(-10.074 -8.464)" fill="#18a4ea"/>
      <line id="선_136" data-name="선 136" x2="3.905" transform="translate(34.45 28.945)" fill="none" stroke="#3a4851" stroke-linecap="round" stroke-width="1.5"/>
      <path id="패스_472" data-name="패스 472" d="M23.493,48.765h0Z" transform="translate(-5.316 -11.034)" fill="#18a4ea"/>
      <line id="선_137" data-name="선 137" x2="3.905" transform="translate(18.177 37.732)" fill="none" stroke="#3a4851" stroke-linecap="round" stroke-width="1.5"/>
      <path id="패스_473" data-name="패스 473" d="M34.008,48.765h0Z" transform="translate(-7.695 -11.034)" fill="#18a4ea"/>
      <line id="선_138" data-name="선 138" x2="3.905" transform="translate(26.314 37.732)" fill="none" stroke="#3a4851" stroke-linecap="round" stroke-width="1.5"/>
      <path id="패스_474" data-name="패스 474" d="M44.524,48.765h0Z" transform="translate(-10.074 -11.034)" fill="#18a4ea"/>
      <line id="선_139" data-name="선 139" x2="3.905" transform="translate(34.45 37.732)" fill="none" stroke="#3a4851" stroke-linecap="round" stroke-width="1.5"/>
      <g id="그룹_444" data-name="그룹 444" transform="translate(0 0)">
        <g id="그룹_443" data-name="그룹 443" clip-path="url(#clip-path-2)">
          <path id="패스_475" data-name="패스 475" d="M45.1,12.449A11.7,11.7,0,1,1,33.4.75a11.7,11.7,0,0,1,11.7,11.7" transform="translate(-4.91 -0.17)" fill="#9cdbef"/>
          <path id="패스_476" data-name="패스 476" d="M45.1,12.449A11.7,11.7,0,1,1,33.4.75,11.7,11.7,0,0,1,45.1,12.449Z" transform="translate(-4.91 -0.17)" fill="none" stroke="#3a4851" stroke-linecap="round" stroke-width="1.5"/>
          <path id="패스_477" data-name="패스 477" d="M41.1,11.926H37.229V8.055H32.875v3.872h-3.87V16.28h3.87v3.869h4.354V16.28H41.1Z" transform="translate(-6.563 -1.823)" fill="#fff"/>
          <path id="패스_478" data-name="패스 478" d="M41.1,11.926H37.229V8.055H32.875v3.872h-3.87V16.28h3.87v3.869h4.354V16.28H41.1Z" transform="translate(-6.563 -1.823)" fill="none" stroke="#3a4851" stroke-linecap="round" stroke-width="1.5"/>
        </g>
      </g>
    </g>
  </g>
</svg>
