<svg xmlns="http://www.w3.org/2000/svg" width="16.5" height="18" viewBox="0 0 16.5 18">
  <path id="ico_phone2" d="M11.418,17.741C5.892,20.266-2.684,3.6,2.717.779L4.3,0,6.916,5.113l-1.562.77c-1.642.881,1.778,7.56,3.457,6.746.068-.031,1.543-.755,1.548-.758L13,16.966C12.994,16.969,11.508,17.7,11.418,17.741ZM10.264,7.684l2.188.653A2.283,2.283,0,0,0,10.916,5.5l-.652,2.187ZM11.617,3.14a4.741,4.741,0,0,1,3.191,5.9l-1.346-.4a3.337,3.337,0,0,0-2.246-4.15l.4-1.347ZM12.33.75a7.237,7.237,0,0,1,4.868,9l-1.38-.411a5.794,5.794,0,0,0-3.9-7.208Z" transform="translate(-1)" fill="#13a0a6"/>
</svg>
