<svg xmlns="http://www.w3.org/2000/svg" width="60.002" height="25.001" viewBox="0 0 60.002 25.001">
  <g id="ico_quick3" transform="translate(-324.211 -236.968)">
    <g id="그룹_1064" data-name="그룹 1064" transform="translate(324.211 236.968)">
      <path id="패스_1459" data-name="패스 1459" d="M371.713,261.969h-35a12.5,12.5,0,1,1,0-25h35a12.5,12.5,0,0,1,0,25" transform="translate(-324.211 -236.968)" fill="#ffeb00" fill-rule="evenodd"/>
    </g>
    <g id="그룹_1067" data-name="그룹 1067" transform="translate(331.428 242.968)">
      <g id="그룹_1066" data-name="그룹 1066">
        <g id="그룹_1065" data-name="그룹 1065">
          <path id="패스_1460" data-name="패스 1460" d="M354.24,256.262c-3.767,0-6.822,2.412-6.822,5.389a5.252,5.252,0,0,0,3.165,4.549l-.643,2.4a.2.2,0,0,0,.049.2.188.188,0,0,0,.258.012l2.764-1.867a8.685,8.685,0,0,0,1.228.09c3.768,0,6.823-2.412,6.823-5.389S358.008,256.262,354.24,256.262Z" transform="translate(-347.418 -256.262)" fill-rule="evenodd"/>
        </g>
      </g>
      <path id="패스_1461" data-name="패스 1461" d="M404.287,266.659v3.48h-2.478V257.306h1.748l.305.815a3.519,3.519,0,0,1,2.614-1.086c2.427,0,3.582,1.816,3.565,4.753,0,3.072-1.782,5.041-4.328,5.041A5.427,5.427,0,0,1,404.287,266.659Zm0-7.282v5.551a7.235,7.235,0,0,0,.8.051c1.766,0,2.445-1.239,2.445-3.191,0-1.715-.459-2.75-1.868-2.75A3.223,3.223,0,0,0,404.287,259.377Z" transform="translate(-384.894 -256.795)"/>
      <path id="패스_1462" data-name="패스 1462" d="M437.06,260.922h1.409v-.305c0-1.018-.577-1.494-1.579-1.494a6.212,6.212,0,0,0-2.546.611l-.679-1.663a6.487,6.487,0,0,1,3.446-1.035c2.376,0,3.666,1.256,3.666,3.649v5.89h-1.748l-.254-.781a4.686,4.686,0,0,1-2.75,1.036,2.623,2.623,0,0,1-2.835-2.92C433.19,261.958,434.548,260.922,437.06,260.922Zm1.409,3.276v-1.7h-1.137c-1.273,0-1.918.458-1.918,1.375,0,.7.357,1.036,1.086,1.036A3.418,3.418,0,0,0,438.469,264.2Z" transform="translate(-406.516 -256.795)"/>
      <path id="패스_1463" data-name="패스 1463" d="M468.023,265.436c-.866,2.309-1.9,3.989-3.412,4.923l-1.528-1.409a8.573,8.573,0,0,0,2.054-2.512l-3.293-8.979,2.461-.662,2.1,7.282,2.088-7.316,2.427.679Z" transform="translate(-426.259 -256.606)"/>
    </g>
  </g>
</svg>
