<svg xmlns="http://www.w3.org/2000/svg" xmlns:xlink="http://www.w3.org/1999/xlink" width="90" height="90" viewBox="0 0 90 90">
  <defs>
    <clipPath id="clip-path">
      <rect id="사각형_672" data-name="사각형 672" width="51.122" height="57.958" fill="none"/>
    </clipPath>
  </defs>
  <g id="ico_cont_223_4" transform="translate(-260 -2199)">
    <g id="타원_130" data-name="타원 130" transform="translate(260 2199)" fill="none" stroke="#f5f5f5" stroke-width="1">
      <circle cx="45" cy="45" r="45" stroke="none"/>
      <circle cx="45" cy="45" r="44.5" fill="none"/>
    </g>
    <g id="그룹_821" data-name="그룹 821" transform="translate(277 2215.021)">
      <g id="그룹_820" data-name="그룹 820" transform="translate(0 0)" clip-path="url(#clip-path)">
        <path id="패스_1049" data-name="패스 1049" d="M63.041,13.42a6.71,6.71,0,1,1,6.71-6.711,6.717,6.717,0,0,1-6.71,6.711m0-11.291a4.581,4.581,0,1,0,4.581,4.58,4.585,4.585,0,0,0-4.581-4.58" transform="translate(-26.346 0)" fill="#333"/>
        <path id="패스_1050" data-name="패스 1050" d="M34.664,69.075c-3.975,0-6.542-2.15-6.542-5.479V46.618a6.53,6.53,0,0,1,.346-2.1l3.526-10.4-.884.249-2.959,7.99a4,4,0,0,1-7.5-2.776l3.666-9.9a4.007,4.007,0,0,1,2.666-2.46l11.732-3.3a4.005,4.005,0,0,1,2.567.136l2.75,1.1a3.989,3.989,0,0,1,1.719,1.322l7.42,9.947,5.053,2.144A4,4,0,1,1,55.1,45.931l-6.049-2.567a4,4,0,0,1-1.644-1.29l-2.954-3.961L41.207,47.7V63.6c0,3.328-2.568,5.479-6.543,5.479m-1.013-37.6a1.065,1.065,0,0,1,1.008,1.407L30.484,45.2a4.41,4.41,0,0,0-.233,1.416V63.6c0,3.023,3.086,3.35,4.413,3.35s4.414-.326,4.414-3.35V47.522a1.068,1.068,0,0,1,.056-.342L43.09,35.51a1.064,1.064,0,0,1,1.861-.294L49.118,40.8a1.87,1.87,0,0,0,.767.6l6.051,2.567a1.869,1.869,0,1,0,1.458-3.441l-5.318-2.256a1.067,1.067,0,0,1-.438-.344L44.047,27.751a1.865,1.865,0,0,0-.8-.617l-2.75-1.1a1.883,1.883,0,0,0-1.2-.064l-11.733,3.3a1.87,1.87,0,0,0-1.246,1.149l-3.666,9.9a1.868,1.868,0,1,0,3.5,1.3l3.147-8.5a1.065,1.065,0,0,1,.71-.655l3.351-.943a1.072,1.072,0,0,1,.289-.039" transform="translate(-9.543 -11.118)" fill="#333"/>
        <path id="패스_1051" data-name="패스 1051" d="M85.221,87.706a1.064,1.064,0,0,1-1.065-1.065V64.67a1.065,1.065,0,1,1,2.129,0V86.642a1.065,1.065,0,0,1-1.065,1.065" transform="translate(-39.36 -29.749)" fill="#333"/>
        <path id="패스_1052" data-name="패스 1052" d="M11.345,60.083l-4.838-3.17-1,3.17L0,55.245l4,.835,1-3Z" transform="translate(0 -24.824)" fill="#a3daf7"/>
        <path id="패스_1053" data-name="패스 1053" d="M17.007,69.227l-7.58,1.255,1.873,4L1.566,74.7,6.23,71.917,4.507,68.082Z" transform="translate(-0.732 -31.842)" fill="#a3daf7"/>
      </g>
    </g>
  </g>
</svg>
