<svg xmlns="http://www.w3.org/2000/svg" xmlns:xlink="http://www.w3.org/1999/xlink" width="11.234" height="13.897" viewBox="0 0 11.234 13.897">
  <defs>
    <clipPath id="clip-path">
      <rect id="사각형_1062" data-name="사각형 1062" width="11.234" height="13.897" fill="#707070"/>
    </clipPath>
  </defs>
  <g id="ico_secret" transform="translate(0 0)">
    <g id="그룹_881" data-name="그룹 881" transform="translate(0 0)" clip-path="url(#clip-path)">
      <path id="패스_1176" data-name="패스 1176" d="M14.423,18.48a1.27,1.27,0,1,0-1.791,1.158V22.03h1.042V19.638a1.269,1.269,0,0,0,.749-1.158" transform="translate(-7.536 -10.914)" fill="#707070"/>
      <path id="패스_1177" data-name="패스 1177" d="M12.669,4.783H5.344V3.662a3.662,3.662,0,1,1,7.325,0Zm-6.228-1.1h5.13V3.662a2.565,2.565,0,1,0-5.13,0Z" transform="translate(-3.389 0)" fill="#707070"/>
      <path id="패스_1178" data-name="패스 1178" d="M11.234,20.287H0V10.075H11.234ZM1.1,19.189h9.04V11.172H1.1Z" transform="translate(0 -6.39)" fill="#707070"/>
    </g>
  </g>
</svg>
