<svg xmlns="http://www.w3.org/2000/svg" width="70" height="70" viewBox="0 0 70 70">
  <g id="ico_dpt8" transform="translate(-29.671 -30)">
    <g id="icon07">
      <path id="패스_897" data-name="패스 897" d="M70.265,35.534a35,35,0,1,1-35-35,35,35,0,0,1,35,35" transform="translate(29.406 29.466)" fill="#f4f5f9"/>
    </g>
    <g id="그룹_1076" data-name="그룹 1076" transform="translate(-496.686 -700.688)">
      <ellipse id="타원_318" data-name="타원 318" cx="2.71" cy="2.71" rx="2.71" ry="2.71" transform="translate(570.584 760.271)" fill="#fff" stroke="#202020" stroke-linecap="round" stroke-linejoin="round" stroke-width="1.5"/>
      <ellipse id="타원_319" data-name="타원 319" cx="13.088" cy="13.088" rx="13.088" ry="13.088" transform="translate(539.111 762.063)" fill="#ffd4dc" stroke="#202020" stroke-linecap="round" stroke-linejoin="round" stroke-width="1.5"/>
      <circle id="타원_320" data-name="타원 320" cx="5.265" cy="5.265" r="5.265" transform="translate(547.795 769.782)" fill="#fff" stroke="#202020" stroke-linecap="round" stroke-linejoin="round" stroke-width="1.5"/>
      <ellipse id="타원_321" data-name="타원 321" cx="6.646" cy="11.556" rx="6.646" ry="11.556" transform="translate(556.254 750.536) rotate(-45)" fill="#ffd4dc" stroke="#202020" stroke-linecap="round" stroke-linejoin="round" stroke-width="1.5"/>
      <ellipse id="타원_322" data-name="타원 322" cx="1.838" cy="5.265" rx="1.838" ry="5.265" transform="translate(564.101 751.584) rotate(-45)" fill="#fff" stroke="#202020" stroke-linecap="round" stroke-linejoin="round" stroke-width="1.5"/>
      <circle id="타원_323" data-name="타원 323" cx="2.392" cy="2.392" r="2.392" transform="translate(536.72 758.677)" fill="#fff" stroke="#202020" stroke-linecap="round" stroke-linejoin="round" stroke-width="1.5"/>
      <circle id="타원_324" data-name="타원 324" cx="3.983" cy="3.983" r="3.983" transform="translate(546.147 750.688)" fill="#add891" stroke="#202020" stroke-linecap="round" stroke-linejoin="round" stroke-width="1.5"/>
      <ellipse id="타원_325" data-name="타원 325" cx="4.512" cy="4.512" rx="4.512" ry="4.512" transform="translate(570.949 772.09)" fill="#add891" stroke="#202020" stroke-linecap="round" stroke-linejoin="round" stroke-width="1.5"/>
    </g>
  </g>
</svg>
