<svg xmlns="http://www.w3.org/2000/svg" xmlns:xlink="http://www.w3.org/1999/xlink" width="90" height="90" viewBox="0 0 90 90">
  <defs>
    <clipPath id="clip-path">
      <rect id="사각형_676" data-name="사각형 676" width="57.012" height="54.265" fill="none"/>
    </clipPath>
  </defs>
  <g id="ico_cont_223_8" transform="translate(-260 -3280)">
    <g id="타원_134" data-name="타원 134" transform="translate(260 3280)" fill="none" stroke="#f5f5f5" stroke-width="1">
      <circle cx="45" cy="45" r="45" stroke="none"/>
      <circle cx="45" cy="45" r="44.5" fill="none"/>
    </g>
    <g id="그룹_829" data-name="그룹 829" transform="translate(276.494 3295.867)">
      <g id="그룹_828" data-name="그룹 828" transform="translate(0 0)" clip-path="url(#clip-path)">
        <path id="패스_1074" data-name="패스 1074" d="M53.219,86.829H3.793a3.793,3.793,0,0,1,0-7.586H53.219a3.793,3.793,0,0,1,0,7.586M3.793,81.337a1.7,1.7,0,0,0,0,3.4H53.219a1.7,1.7,0,0,0,0-3.4Z" transform="translate(0 -37.751)" fill="#333"/>
        <path id="패스_1075" data-name="패스 1075" d="M11.535,97.845A1.048,1.048,0,0,1,10.488,96.8V92.526a1.047,1.047,0,1,1,2.094,0V96.8a1.047,1.047,0,0,1-1.047,1.047" transform="translate(-4.996 -43.58)" fill="#333"/>
        <path id="패스_1076" data-name="패스 1076" d="M53.488,97.845A1.048,1.048,0,0,1,52.441,96.8V92.526a1.047,1.047,0,1,1,2.094,0V96.8a1.048,1.048,0,0,1-1.047,1.047" transform="translate(-24.982 -43.58)" fill="#333"/>
        <path id="패스_1077" data-name="패스 1077" d="M95.441,97.845A1.048,1.048,0,0,1,94.394,96.8V92.526a1.047,1.047,0,1,1,2.094,0V96.8a1.047,1.047,0,0,1-1.047,1.047" transform="translate(-44.968 -43.58)" fill="#333"/>
        <path id="패스_1078" data-name="패스 1078" d="M8.238,63.978a5.624,5.624,0,1,1,5.624-5.624,5.63,5.63,0,0,1-5.624,5.624m0-9.153a3.529,3.529,0,1,0,3.529,3.529,3.533,3.533,0,0,0-3.529-3.529" transform="translate(-1.245 -25.12)" fill="#333"/>
        <path id="패스_1079" data-name="패스 1079" d="M63.181,58.438h-19.9c-.1,0-.2,0-.3-.012l-.027,0c-.083.006-.167.01-.251.01H32.64a7.3,7.3,0,1,1,0-14.6H42.685l7.524-4.515a4.74,4.74,0,0,1,1.941-.647l10.373-1.068a4.708,4.708,0,0,1,.965,9.367l-9.244.952-2.4,2.012H63.181a4.251,4.251,0,1,1,0,8.5M43,56.33c.029,0,.059,0,.088,0,.067.006.133.01.2.01h19.9a2.156,2.156,0,1,0,0-4.312H48.954a1.047,1.047,0,0,1-.672-1.85l4.863-4.068a1.046,1.046,0,0,1,.564-.238l9.563-.985a2.614,2.614,0,1,0-.536-5.2L52.364,40.758a2.633,2.633,0,0,0-1.077.359l-7.794,4.676a1.035,1.035,0,0,1-.578.149l-.208-.012H32.64a5.207,5.207,0,1,0,0,10.414H42.707c.038,0,.075,0,.112-.005l.133-.008H43" transform="translate(-12.071 -17.903)" fill="#333"/>
        <path id="패스_1080" data-name="패스 1080" d="M57.911,6.577a4.576,4.576,0,1,0-4.576,4.576,4.577,4.577,0,0,0,4.576-4.576" transform="translate(-23.228 -0.953)" fill="#a3daf7"/>
        <path id="패스_1081" data-name="패스 1081" d="M52.382,11.247a5.624,5.624,0,1,1,5.624-5.624,5.63,5.63,0,0,1-5.624,5.624m0-9.153a3.529,3.529,0,1,0,3.529,3.529,3.533,3.533,0,0,0-3.529-3.529" transform="translate(-22.275 0)" fill="#a3daf7"/>
        <path id="패스_1082" data-name="패스 1082" d="M79.379,22.106a3.143,3.143,0,0,0-3.75-2.383l-8.118,1.809-9.354-.306a3.132,3.132,0,0,0-1.374.27,9.65,9.65,0,0,1-6.181-.013L55.489,27.5l4.189,2.618v-2.56l8.025.263a3.122,3.122,0,0,0,.786-.074L77,25.855a3.141,3.141,0,0,0,2.383-3.75" transform="translate(-24.106 -9.359)" fill="#a3daf7"/>
        <path id="패스_1083" data-name="패스 1083" d="M53.089,34.187l-7-4.5L39.73,22.825a3.14,3.14,0,0,0-5.442,2.029L32.1,35.694a9.191,9.191,0,0,1,4.276-.96h4.1L37.863,32.2a1.582,1.582,0,0,1-.093-2.251l3.985,4.3a3.174,3.174,0,0,0,.605.507l7.331,4.712a3.142,3.142,0,0,0,3.4-5.285" transform="translate(-15.294 -10.394)" fill="#a3daf7"/>
      </g>
    </g>
  </g>
</svg>
