<svg xmlns="http://www.w3.org/2000/svg" xmlns:xlink="http://www.w3.org/1999/xlink" width="22" height="26" viewBox="0 0 22 26">
  <defs>
    <clipPath id="clip-path">
      <rect id="사각형_1062" data-name="사각형 1062" width="22" height="26" transform="translate(-0.488 0.008)" fill="#129ba9"/>
    </clipPath>
  </defs>
  <g id="ico_secret2" transform="translate(0.488 -0.008)">
    <g id="icon" transform="translate(0 0)" clip-path="url(#clip-path)">
      <path id="패스_1176" data-name="패스 1176" d="M16.637,19.587a2.377,2.377,0,1,0-3.352,2.167V26.23h1.95V21.754a2.374,2.374,0,0,0,1.4-2.167" transform="translate(-3.748 -5.428)" fill="#129ba9"/>
      <path id="패스_1177" data-name="패스 1177" d="M19.052,8.951H5.344v-2.1a6.854,6.854,0,0,1,13.708,0ZM7.4,6.9H17V6.854a4.8,4.8,0,1,0-9.6,0Z" transform="translate(-1.686 0)" fill="#129ba9"/>
      <path id="패스_1178" data-name="패스 1178" d="M21.024,29.185H0V10.075H21.024ZM2.054,27.132H18.971v-15H2.054Z" transform="translate(0 -3.178)" fill="#129ba9"/>
    </g>
  </g>
</svg>
