<svg xmlns="http://www.w3.org/2000/svg" width="110" height="26" viewBox="0 0 110 26">
  <g id="kakaopay_logo" transform="translate(-298.549 -122.246)">
    <path id="패스_1474" data-name="패스 1474" d="M300.847,142.048h-2.3v-19.3l2.3-.5Zm6.143-14.009,1.8,1.3-4.42,5.543,5.119,6.143-1.773,1.373-6.043-7.392Z" transform="translate(0)"/>
    <path id="패스_1475" data-name="패스 1475" d="M326.536,145.767a3.908,3.908,0,0,1,1.386-3.238,6.317,6.317,0,0,1,4.033-1.114H334.6v-.9q0-3.25-2.8-3.251a7.507,7.507,0,0,0-1.885.256,10.564,10.564,0,0,0-1.81.64l-.674-1.664a9.257,9.257,0,0,1,2.21-.909,8.851,8.851,0,0,1,2.31-.32q4.844,0,4.845,5.3v8.959h-1.7l-.275-1.536a8.137,8.137,0,0,1-2.185,1.305,5.986,5.986,0,0,1-2.21.461,3.809,3.809,0,0,1-2.859-1.062A4.016,4.016,0,0,1,326.536,145.767Zm4.3,2.1a4.044,4.044,0,0,0,.986-.128,7.823,7.823,0,0,0,1.024-.333,5.39,5.39,0,0,0,.961-.5,5.641,5.641,0,0,0,.8-.627V143h-2.4a4.4,4.4,0,0,0-2.659.64,2.383,2.383,0,0,0-.837,2.022Q328.708,147.867,330.831,147.867Z" transform="translate(-15.327 -7.134)"/>
    <path id="패스_1476" data-name="패스 1476" d="M361.512,142.048h-2.3v-19.3l2.3-.5Zm6.143-14.009,1.8,1.3-4.42,5.543,5.119,6.143-1.773,1.373-6.043-7.392Z" transform="translate(-33.36)"/>
    <path id="패스_1477" data-name="패스 1477" d="M387.2,145.767a3.907,3.907,0,0,1,1.386-3.238,6.315,6.315,0,0,1,4.033-1.114h2.647v-.9q0-3.25-2.8-3.251a7.5,7.5,0,0,0-1.885.256,10.552,10.552,0,0,0-1.81.64L388.1,136.5a9.264,9.264,0,0,1,2.21-.909,8.854,8.854,0,0,1,2.31-.32q4.844,0,4.844,5.3v8.959h-1.7l-.275-1.536a8.134,8.134,0,0,1-2.185,1.305,5.988,5.988,0,0,1-2.21.461,3.81,3.81,0,0,1-2.859-1.062A4.016,4.016,0,0,1,387.2,145.767Zm4.3,2.1a4.044,4.044,0,0,0,.986-.128,7.826,7.826,0,0,0,1.024-.333,5.412,5.412,0,0,0,.962-.5,5.658,5.658,0,0,0,.8-.627V143h-2.4a4.4,4.4,0,0,0-2.659.64,2.383,2.383,0,0,0-.836,2.022Q389.374,147.867,391.5,147.867Z" transform="translate(-48.748 -7.134)"/>
    <path id="패스_1478" data-name="패스 1478" d="M424.207,135.328a5.576,5.576,0,0,1,4.47,1.894,8.105,8.105,0,0,1,1.623,5.426,7.958,7.958,0,0,1-1.61,5.349,6.3,6.3,0,0,1-8.952,0,7.913,7.913,0,0,1-1.623-5.349,8.062,8.062,0,0,1,1.636-5.426A5.582,5.582,0,0,1,424.207,135.328Zm0,1.894a3.157,3.157,0,0,0-2.759,1.382,7.068,7.068,0,0,0-.961,4.044,6.822,6.822,0,0,0,.961,3.98,3.531,3.531,0,0,0,5.544,0,6.826,6.826,0,0,0,.961-3.98,7.072,7.072,0,0,0-.961-4.044A3.182,3.182,0,0,0,424.207,137.222Z" transform="translate(-65.752 -7.164)"/>
    <path id="패스_1479" data-name="패스 1479" d="M456.205,149.154v5.12h-3.646v-18.88h2.572l.45,1.2a5.176,5.176,0,0,1,3.846-1.6c3.571,0,5.269,2.672,5.244,6.993,0,4.52-2.622,7.417-6.368,7.417A7.989,7.989,0,0,1,456.205,149.154Zm0-10.713v8.166a10.458,10.458,0,0,0,1.174.075c2.6,0,3.6-1.823,3.6-4.7,0-2.522-.674-4.046-2.747-4.046A4.739,4.739,0,0,0,456.205,138.441Z" transform="translate(-84.694 -6.627)"/>
    <path id="패스_1480" data-name="패스 1480" d="M489.992,140.854h2.073v-.461a2.038,2.038,0,0,0-2.322-2.252,8.953,8.953,0,0,0-3.746.921l-1-2.507a9.381,9.381,0,0,1,5.07-1.561c3.5,0,5.394,1.894,5.394,5.5v8.878H492.89l-.375-1.177a6.793,6.793,0,0,1-4.046,1.561c-2.672,0-4.17-1.638-4.17-4.4C484.3,142.414,486.3,140.854,489.992,140.854Zm2.073,4.938v-2.559h-1.673c-1.873,0-2.822.691-2.822,2.073a1.39,1.39,0,0,0,1.6,1.561A4.953,4.953,0,0,0,492.066,145.792Z" transform="translate(-102.221 -6.981)"/>
    <path id="패스_1481" data-name="패스 1481" d="M522.371,147.48c-1.274,3.4-2.8,5.869-5.02,7.242l-2.247-2.073a12.616,12.616,0,0,0,3.022-3.7l-4.845-13.211,3.621-.974,3.1,10.713,3.072-10.764,3.571,1Z" transform="translate(-118.092 -6.476)"/>
  </g>
</svg>
