<svg xmlns="http://www.w3.org/2000/svg" width="317.226" height="52" viewBox="0 0 317.226 52">
  <g id="loca_map_mo2" transform="translate(-18 -1246)">
    <text id="문산제일고" transform="translate(100.722 1279)" font-size="12" font-family="Pretendard-Regular, Pretendard"><tspan x="-25.92" y="0">문산제일고</tspan></text>
    <text id="금촌역" transform="translate(236.966 1279)" font-size="12" font-family="Pretendard-Regular, Pretendard"><tspan x="-15.552" y="0">금촌역</tspan></text>
    <text id="웅지세무대학_정문" data-name="웅지세무대학
정문" transform="translate(303.226 1279)" font-size="12" font-family="Pretendard-Regular, Pretendard"><tspan x="-31.104" y="0">웅지세무대학</tspan><tspan x="-10.368" y="16">정문</tspan></text>
    <rect id="사각형_1059" data-name="사각형 1059" width="261" height="5" transform="translate(38 1251)" fill="#e1e4ec"/>
    <g id="타원_12" data-name="타원 12" transform="translate(93.247 1246)" fill="#fff" stroke="#e1e4ec" stroke-width="2">
      <circle cx="7.5" cy="7.5" r="7.5" stroke="none"/>
      <circle cx="7.5" cy="7.5" r="6.5" fill="none"/>
    </g>
    <g id="타원_16" data-name="타원 16" transform="translate(229.47 1246)" fill="#fff" stroke="#e1e4ec" stroke-width="2">
      <circle cx="7.5" cy="7.5" r="7.5" stroke="none"/>
      <circle cx="7.5" cy="7.5" r="6.5" fill="none"/>
    </g>
    <g id="타원_20" data-name="타원 20" transform="translate(295.691 1246)" fill="#fff" stroke="#e1e4ec" stroke-width="2">
      <circle cx="7.5" cy="7.5" r="7.5" stroke="none"/>
      <circle cx="7.5" cy="7.5" r="6.5" fill="none"/>
    </g>
    <text id="풀무골" transform="translate(34 1279)" font-size="12" font-family="Pretendard-Regular, Pretendard"><tspan x="-15.552" y="0">풀무골</tspan></text>
    <g id="타원_8" data-name="타원 8" transform="translate(26 1246)" fill="#fff" stroke="#e1e4ec" stroke-width="2">
      <circle cx="7.5" cy="7.5" r="7.5" stroke="none"/>
      <circle cx="7.5" cy="7.5" r="6.5" fill="none"/>
    </g>
    <text id="메디인병원" transform="translate(172 1280)" font-size="15" font-family="Pretendard-SemiBold, Pretendard" font-weight="600"><tspan x="-32.4" y="0">메디인병원</tspan></text>
    <g id="타원_25" data-name="타원 25" transform="translate(162 1246)" fill="#fff" stroke="#0d64b7" stroke-width="2">
      <circle cx="7.5" cy="7.5" r="7.5" stroke="none"/>
      <circle cx="7.5" cy="7.5" r="6.5" fill="none"/>
    </g>
  </g>
</svg>
