<svg xmlns="http://www.w3.org/2000/svg" xmlns:xlink="http://www.w3.org/1999/xlink" width="1244.228" height="427.568" viewBox="0 0 1244.228 427.568">
  <defs>
    <linearGradient id="linear-gradient" y1="-1.911" x2="2.402" y2="-1.732" gradientUnits="objectBoundingBox">
      <stop offset="0" stop-color="#19a8ce"/>
      <stop offset="1" stop-color="#016fb1"/>
    </linearGradient>
  </defs>
  <g id="_02" data-name="02" transform="translate(-330 -1670)">
    <text id="용상골" transform="translate(390 1709)" fill="#707070" font-size="15" font-family="Pretendard-Regular, Pretendard"><tspan x="-19.446" y="0">용상골</tspan></text>
    <text id="신성교하차고지" transform="translate(390 1928)" fill="#707070" font-size="15" font-family="Pretendard-Regular, Pretendard"><tspan x="-45.374" y="0">신성교하차고지</tspan></text>
    <text id="용상골-2" data-name="용상골" transform="translate(389 1777)" fill="#707070" font-size="15" font-family="Pretendard-Regular, Pretendard"><tspan x="-19.446" y="0">용상골</tspan></text>
    <text id="국민은행" transform="translate(581.5 2017)" fill="#707070" font-size="15" font-family="Pretendard-Regular, Pretendard"><tspan x="-25.928" y="0">국민은행</tspan></text>
    <text id="문산터미널" transform="translate(485 2070)" fill="#707070" font-size="15" font-family="Pretendard-Regular, Pretendard"><tspan x="-32.41" y="0">문산터미널</tspan></text>
    <text id="문산읍행정복지센터" transform="translate(389 2017)" fill="#707070" font-size="15" font-family="Pretendard-Regular, Pretendard"><tspan x="-58.337" y="0">문산읍행정복지센터</tspan></text>
    <text id="명성슈퍼" transform="translate(496.5 1709)" fill="#707070" font-size="15" font-family="Pretendard-Regular, Pretendard"><tspan x="-25.928" y="0">명성슈퍼</tspan></text>
    <text id="교하동_행정복지센터" data-name="교하동
행정복지센터" transform="translate(496 1928)" fill="#707070" font-size="15" font-family="Pretendard-Regular, Pretendard"><tspan x="-19.446" y="0">교하동</tspan><tspan x="-38.892" y="20">행정복지센터</tspan></text>
    <text id="명성슈퍼-2" data-name="명성슈퍼" transform="translate(523.5 1777)" fill="#707070" font-size="15" font-family="Pretendard-Regular, Pretendard"><tspan x="-25.928" y="0">명성슈퍼</tspan></text>
    <text id="안골입구" transform="translate(680 2073)" fill="#707070" font-size="15" font-family="Pretendard-Regular, Pretendard"><tspan x="-25.928" y="0">안골입구</tspan></text>
    <text id="문산제일고" transform="translate(604 1709)" fill="#707070" font-size="15" font-family="Pretendard-Regular, Pretendard"><tspan x="-32.41" y="0">문산제일고</tspan></text>
    <text id="교하파출소" transform="translate(599 1928)" fill="#707070" font-size="15" font-family="Pretendard-Regular, Pretendard"><tspan x="-32.41" y="0">교하파출소</tspan></text>
    <text id="문산제일고-2" data-name="문산제일고" transform="translate(656.059 1777)" fill="#707070" font-size="15" font-family="Pretendard-Regular, Pretendard"><tspan x="-32.41" y="0">문산제일고</tspan></text>
    <text id="낙하리입구" transform="translate(776.5 2017)" fill="#707070" font-size="15" font-family="Pretendard-Regular, Pretendard"><tspan x="-32.41" y="0">낙하리입구</tspan></text>
    <text id="금촌체육공원" transform="translate(711 1709)" fill="#707070" font-size="15" font-family="Pretendard-Regular, Pretendard"><tspan x="-38.892" y="0">금촌체육공원</tspan></text>
    <text id="메디인병원" transform="translate(710 1933)" fill="#4378b5" font-size="20" font-family="Pretendard-SemiBold, Pretendard" font-weight="600"><tspan x="-43.213" y="0">메디인병원</tspan></text>
    <text id="금촌체육공원-2" data-name="금촌체육공원" transform="translate(788.779 1777)" fill="#707070" font-size="15" font-family="Pretendard-Regular, Pretendard"><tspan x="-38.892" y="0">금촌체육공원</tspan></text>
    <text id="목장앞" transform="translate(874 2070)" fill="#707070" font-size="15" font-family="Pretendard-Regular, Pretendard"><tspan x="-19.446" y="0">목장앞</tspan></text>
    <text id="메디인병원-2" data-name="메디인병원" transform="translate(815 1714)" fill="#4378b5" font-size="20" font-family="Pretendard-SemiBold, Pretendard" font-weight="600"><tspan x="-43.213" y="0">메디인병원</tspan></text>
    <text id="금화초등학교" transform="translate(818 1928)" fill="#707070" font-size="15" font-family="Pretendard-Regular, Pretendard"><tspan x="-38.892" y="0">금화초등학교</tspan></text>
    <text id="메디인병원-3" data-name="메디인병원" transform="translate(925.5 1782)" fill="#4378b5" font-size="20" font-family="Pretendard-SemiBold, Pretendard" font-weight="600"><tspan x="-43.213" y="0">메디인병원</tspan></text>
    <text id="오금리입구" transform="translate(972.5 2017)" fill="#707070" font-size="15" font-family="Pretendard-Regular, Pretendard"><tspan x="-32.41" y="0">오금리입구</tspan></text>
    <text id="주공단지입구" transform="translate(926 1709)" fill="#707070" font-size="15" font-family="Pretendard-Regular, Pretendard"><tspan x="-38.892" y="0">주공단지입구</tspan></text>
    <text id="쇠재마을5단지" transform="translate(927 1928)" fill="#707070" font-size="15" font-family="Pretendard-Regular, Pretendard"><tspan x="-43.367" y="0">쇠재마을5단지</tspan></text>
    <text id="주공단지입구-2" data-name="주공단지입구" transform="translate(1062.221 1777)" fill="#707070" font-size="15" font-family="Pretendard-Regular, Pretendard"><tspan x="-38.892" y="0">주공단지입구</tspan></text>
    <text id="맥금13통._상골" data-name="맥금13통. 상골" transform="translate(1070 2070)" fill="#707070" font-size="15" font-family="Pretendard-Regular, Pretendard"><tspan x="-44.114" y="0">맥금13통. 상골</tspan></text>
    <text id="금촌로타리" transform="translate(1030.026 1709)" fill="#707070" font-size="15" font-family="Pretendard-Regular, Pretendard"><tspan x="-32.41" y="0">금촌로타리</tspan></text>
    <text id="흰돌아파트" transform="translate(1028 1928)" fill="#707070" font-size="15" font-family="Pretendard-Regular, Pretendard"><tspan x="-32.41" y="0">흰돌아파트</tspan></text>
    <text id="금촌로타리-2" data-name="금촌로타리" transform="translate(1190.5 1777)" fill="#707070" font-size="15" font-family="Pretendard-Regular, Pretendard"><tspan x="-32.41" y="0">금촌로타리</tspan></text>
    <text id="검산초등학교" transform="translate(1166.5 2070)" fill="#707070" font-size="15" font-family="Pretendard-Regular, Pretendard"><tspan x="-38.892" y="0">검산초등학교</tspan></text>
    <text id="장안아파트" transform="translate(1136 1709)" fill="#707070" font-size="15" font-family="Pretendard-Regular, Pretendard"><tspan x="-32.41" y="0">장안아파트</tspan></text>
    <text id="파주병원" transform="translate(1136 1928)" fill="#707070" font-size="15" font-family="Pretendard-Regular, Pretendard"><tspan x="-25.928" y="0">파주병원</tspan></text>
    <text id="장안아파트-2" data-name="장안아파트" transform="translate(1325.166 1777)" fill="#707070" font-size="15" font-family="Pretendard-Regular, Pretendard"><tspan x="-32.41" y="0">장안아파트</tspan></text>
    <text id="대방아파트" transform="translate(1263.5 2070)" fill="#707070" font-size="15" font-family="Pretendard-Regular, Pretendard"><tspan x="-32.41" y="0">대방아파트</tspan></text>
    <text id="금촌역" transform="translate(1244 1709)" fill="#707070" font-size="15" font-family="Pretendard-Regular, Pretendard"><tspan x="-19.446" y="0">금촌역</tspan></text>
    <text id="파주보건소" transform="translate(1244 1928)" fill="#707070" font-size="15" font-family="Pretendard-Regular, Pretendard"><tspan x="-32.41" y="0">파주보건소</tspan></text>
    <text id="금촌역-2" data-name="금촌역" transform="translate(1458 1777)" fill="#707070" font-size="15" font-family="Pretendard-Regular, Pretendard"><tspan x="-19.446" y="0">금촌역</tspan></text>
    <text id="문산제일고등학교" transform="translate(1361 2017)" fill="#707070" font-size="15" font-family="Pretendard-Regular, Pretendard"><tspan x="-51.855" y="0">문산제일고등학교</tspan></text>
    <text id="파주여고" transform="translate(1351 1709)" fill="#707070" font-size="15" font-family="Pretendard-Regular, Pretendard"><tspan x="-25.928" y="0">파주여고</tspan></text>
    <text id="금촌사거리" transform="translate(1351 1928)" fill="#707070" font-size="15" font-family="Pretendard-Regular, Pretendard"><tspan x="-32.41" y="0">금촌사거리</tspan></text>
    <text id="영태5리" transform="translate(1457.5 1709)" fill="#707070" font-size="15" font-family="Pretendard-Regular, Pretendard"><tspan x="-23.921" y="0">영태5리</tspan></text>
    <text id="금촌역-3" data-name="금촌역" transform="translate(1458 1928)" fill="#707070" font-size="15" font-family="Pretendard-Regular, Pretendard"><tspan x="-19.446" y="0">금촌역</tspan></text>
    <text id="팜스프링아파트" transform="translate(1458 2070)" fill="#707070" font-size="15" font-family="Pretendard-Regular, Pretendard"><tspan x="-45.374" y="0">팜스프링아파트</tspan></text>
    <rect id="사각형_1033" data-name="사각형 1033" width="1114" height="5" transform="translate(392 1674)" fill="#e1e4ec"/>
    <rect id="사각형_1044" data-name="사각형 1044" width="1117" height="5" transform="translate(392 1894.805)" fill="#e1e4ec"/>
    <rect id="사각형_1034" data-name="사각형 1034" width="1114" height="5" transform="translate(392 1743)" fill="#e1e4ec"/>
    <rect id="사각형_1043" data-name="사각형 1043" width="1115" height="5" transform="translate(392 2036.805)" fill="#e1e4ec"/>
    <g id="타원_148" data-name="타원 148" transform="translate(382 1670)" fill="#fff" stroke="#e1e4ec" stroke-width="2">
      <circle cx="7.5" cy="7.5" r="7.5" stroke="none"/>
      <circle cx="7.5" cy="7.5" r="6.5" fill="none"/>
    </g>
    <g id="타원_188" data-name="타원 188" transform="translate(382 1889.805)" fill="#fff" stroke="#e1e4ec" stroke-width="2">
      <circle cx="7.5" cy="7.5" r="7.5" stroke="none"/>
      <circle cx="7.5" cy="7.5" r="6.5" fill="none"/>
    </g>
    <g id="타원_159" data-name="타원 159" transform="translate(382 1738)" fill="#fff" stroke="#e1e4ec" stroke-width="2">
      <circle cx="7.5" cy="7.5" r="7.5" stroke="none"/>
      <circle cx="7.5" cy="7.5" r="6.5" fill="none"/>
    </g>
    <g id="타원_189" data-name="타원 189" transform="translate(576 2031.805)" fill="#fff" stroke="#e1e4ec" stroke-width="2">
      <circle cx="7.5" cy="7.5" r="7.5" stroke="none"/>
      <circle cx="7.5" cy="7.5" r="6.5" fill="none"/>
    </g>
    <g id="타원_190" data-name="타원 190" transform="translate(479 2031.805)" fill="#fff" stroke="#e1e4ec" stroke-width="2">
      <circle cx="7.5" cy="7.5" r="7.5" stroke="none"/>
      <circle cx="7.5" cy="7.5" r="6.5" fill="none"/>
    </g>
    <g id="타원_191" data-name="타원 191" transform="translate(382 2031.805)" fill="#fff" stroke="#e1e4ec" stroke-width="2">
      <circle cx="7.5" cy="7.5" r="7.5" stroke="none"/>
      <circle cx="7.5" cy="7.5" r="6.5" fill="none"/>
    </g>
    <g id="타원_153" data-name="타원 153" transform="translate(916 1670)" fill="#fff" stroke="#e1e4ec" stroke-width="2">
      <circle cx="7.5" cy="7.5" r="7.5" stroke="none"/>
      <circle cx="7.5" cy="7.5" r="6.5" fill="none"/>
    </g>
    <g id="타원_178" data-name="타원 178" transform="translate(916 1889.805)" fill="#fff" stroke="#e1e4ec" stroke-width="2">
      <circle cx="7.5" cy="7.5" r="7.5" stroke="none"/>
      <circle cx="7.5" cy="7.5" r="6.5" fill="none"/>
    </g>
    <g id="타원_165" data-name="타원 165" transform="translate(1050 1738)" fill="#fff" stroke="#e1e4ec" stroke-width="2">
      <circle cx="7.5" cy="7.5" r="7.5" stroke="none"/>
      <circle cx="7.5" cy="7.5" r="6.5" fill="none"/>
    </g>
    <g id="타원_169" data-name="타원 169" transform="translate(1062 2031.805)" fill="#fff" stroke="#e1e4ec" stroke-width="2">
      <circle cx="7.5" cy="7.5" r="7.5" stroke="none"/>
      <circle cx="7.5" cy="7.5" r="6.5" fill="none"/>
    </g>
    <g id="타원_149" data-name="타원 149" transform="translate(489 1670)" fill="#fff" stroke="#e1e4ec" stroke-width="2">
      <circle cx="7.5" cy="7.5" r="7.5" stroke="none"/>
      <circle cx="7.5" cy="7.5" r="6.5" fill="none"/>
    </g>
    <g id="타원_179" data-name="타원 179" transform="translate(489 1889.805)" fill="#fff" stroke="#e1e4ec" stroke-width="2">
      <circle cx="7.5" cy="7.5" r="7.5" stroke="none"/>
      <circle cx="7.5" cy="7.5" r="6.5" fill="none"/>
    </g>
    <g id="타원_161" data-name="타원 161" transform="translate(516 1738)" fill="#fff" stroke="#e1e4ec" stroke-width="2">
      <circle cx="7.5" cy="7.5" r="7.5" stroke="none"/>
      <circle cx="7.5" cy="7.5" r="6.5" fill="none"/>
    </g>
    <g id="타원_170" data-name="타원 170" transform="translate(673 2031.805)" fill="#fff" stroke="#e1e4ec" stroke-width="2">
      <circle cx="7.5" cy="7.5" r="7.5" stroke="none"/>
      <circle cx="7.5" cy="7.5" r="6.5" fill="none"/>
    </g>
    <g id="타원_154" data-name="타원 154" transform="translate(1023 1670)" fill="#fff" stroke="#e1e4ec" stroke-width="2">
      <circle cx="7.5" cy="7.5" r="7.5" stroke="none"/>
      <circle cx="7.5" cy="7.5" r="6.5" fill="none"/>
    </g>
    <g id="타원_180" data-name="타원 180" transform="translate(1023 1889.805)" fill="#fff" stroke="#e1e4ec" stroke-width="2">
      <circle cx="7.5" cy="7.5" r="7.5" stroke="none"/>
      <circle cx="7.5" cy="7.5" r="6.5" fill="none"/>
    </g>
    <g id="타원_166" data-name="타원 166" transform="translate(1183 1738)" fill="#fff" stroke="#e1e4ec" stroke-width="2">
      <circle cx="7.5" cy="7.5" r="7.5" stroke="none"/>
      <circle cx="7.5" cy="7.5" r="6.5" fill="none"/>
    </g>
    <g id="타원_171" data-name="타원 171" transform="translate(1159 2031.805)" fill="#fff" stroke="#e1e4ec" stroke-width="2">
      <circle cx="7.5" cy="7.5" r="7.5" stroke="none"/>
      <circle cx="7.5" cy="7.5" r="6.5" fill="none"/>
    </g>
    <g id="타원_150" data-name="타원 150" transform="translate(596 1670)" fill="#fff" stroke="#e1e4ec" stroke-width="2">
      <circle cx="7.5" cy="7.5" r="7.5" stroke="none"/>
      <circle cx="7.5" cy="7.5" r="6.5" fill="none"/>
    </g>
    <g id="타원_181" data-name="타원 181" transform="translate(596 1889.805)" fill="#fff" stroke="#e1e4ec" stroke-width="2">
      <circle cx="7.5" cy="7.5" r="7.5" stroke="none"/>
      <circle cx="7.5" cy="7.5" r="6.5" fill="none"/>
    </g>
    <g id="타원_162" data-name="타원 162" transform="translate(649 1738)" fill="#fff" stroke="#e1e4ec" stroke-width="2">
      <circle cx="7.5" cy="7.5" r="7.5" stroke="none"/>
      <circle cx="7.5" cy="7.5" r="6.5" fill="none"/>
    </g>
    <g id="타원_172" data-name="타원 172" transform="translate(770 2031.805)" fill="#fff" stroke="#e1e4ec" stroke-width="2">
      <circle cx="7.5" cy="7.5" r="7.5" stroke="none"/>
      <circle cx="7.5" cy="7.5" r="6.5" fill="none"/>
    </g>
    <g id="타원_155" data-name="타원 155" transform="translate(1130 1670)" fill="#fff" stroke="#e1e4ec" stroke-width="2">
      <circle cx="7.5" cy="7.5" r="7.5" stroke="none"/>
      <circle cx="7.5" cy="7.5" r="6.5" fill="none"/>
    </g>
    <g id="타원_182" data-name="타원 182" transform="translate(1130 1889.805)" fill="#fff" stroke="#e1e4ec" stroke-width="2">
      <circle cx="7.5" cy="7.5" r="7.5" stroke="none"/>
      <circle cx="7.5" cy="7.5" r="6.5" fill="none"/>
    </g>
    <g id="타원_167" data-name="타원 167" transform="translate(1317 1738)" fill="#fff" stroke="#e1e4ec" stroke-width="2">
      <circle cx="7.5" cy="7.5" r="7.5" stroke="none"/>
      <circle cx="7.5" cy="7.5" r="6.5" fill="none"/>
    </g>
    <g id="타원_173" data-name="타원 173" transform="translate(1256 2031.805)" fill="#fff" stroke="#e1e4ec" stroke-width="2">
      <circle cx="7.5" cy="7.5" r="7.5" stroke="none"/>
      <circle cx="7.5" cy="7.5" r="6.5" fill="none"/>
    </g>
    <g id="타원_151" data-name="타원 151" transform="translate(702 1670)" fill="#fff" stroke="#e1e4ec" stroke-width="2">
      <circle cx="7.5" cy="7.5" r="7.5" stroke="none"/>
      <circle cx="7.5" cy="7.5" r="6.5" fill="none"/>
    </g>
    <g id="타원_183" data-name="타원 183" transform="translate(702 1889.805)" fill="#fff" stroke="#0d64b7" stroke-width="2">
      <circle cx="7.5" cy="7.5" r="7.5" stroke="none"/>
      <circle cx="7.5" cy="7.5" r="6.5" fill="none"/>
    </g>
    <g id="타원_163" data-name="타원 163" transform="translate(783 1738)" fill="#fff" stroke="#e1e4ec" stroke-width="2">
      <circle cx="7.5" cy="7.5" r="7.5" stroke="none"/>
      <circle cx="7.5" cy="7.5" r="6.5" fill="none"/>
    </g>
    <g id="타원_174" data-name="타원 174" transform="translate(867 2031.805)" fill="#fff" stroke="#e1e4ec" stroke-width="2">
      <circle cx="7.5" cy="7.5" r="7.5" stroke="none"/>
      <circle cx="7.5" cy="7.5" r="6.5" fill="none"/>
    </g>
    <g id="타원_156" data-name="타원 156" transform="translate(1236 1670)" fill="#fff" stroke="#e1e4ec" stroke-width="2">
      <circle cx="7.5" cy="7.5" r="7.5" stroke="none"/>
      <circle cx="7.5" cy="7.5" r="6.5" fill="none"/>
    </g>
    <g id="타원_184" data-name="타원 184" transform="translate(1236 1889.805)" fill="#fff" stroke="#e1e4ec" stroke-width="2">
      <circle cx="7.5" cy="7.5" r="7.5" stroke="none"/>
      <circle cx="7.5" cy="7.5" r="6.5" fill="none"/>
    </g>
    <g id="타원_175" data-name="타원 175" transform="translate(1353 2031.805)" fill="#fff" stroke="#e1e4ec" stroke-width="2">
      <circle cx="7.5" cy="7.5" r="7.5" stroke="none"/>
      <circle cx="7.5" cy="7.5" r="6.5" fill="none"/>
    </g>
    <g id="타원_152" data-name="타원 152" transform="translate(809 1670)" fill="#fff" stroke="#0d64b7" stroke-width="2">
      <circle cx="7.5" cy="7.5" r="7.5" stroke="none"/>
      <circle cx="7.5" cy="7.5" r="6.5" fill="none"/>
    </g>
    <g id="타원_185" data-name="타원 185" transform="translate(809 1889.805)" fill="#fff" stroke="#e1e4ec" stroke-width="2">
      <circle cx="7.5" cy="7.5" r="7.5" stroke="none"/>
      <circle cx="7.5" cy="7.5" r="6.5" fill="none"/>
    </g>
    <g id="타원_164" data-name="타원 164" transform="translate(916 1738)" fill="#fff" stroke="#0d64b7" stroke-width="2">
      <circle cx="7.5" cy="7.5" r="7.5" stroke="none"/>
      <circle cx="7.5" cy="7.5" r="6.5" fill="none"/>
    </g>
    <g id="타원_176" data-name="타원 176" transform="translate(965 2031.805)" fill="#fff" stroke="#e1e4ec" stroke-width="2">
      <circle cx="7.5" cy="7.5" r="7.5" stroke="none"/>
      <circle cx="7.5" cy="7.5" r="6.5" fill="none"/>
    </g>
    <g id="타원_157" data-name="타원 157" transform="translate(1343 1670)" fill="#fff" stroke="#e1e4ec" stroke-width="2">
      <circle cx="7.5" cy="7.5" r="7.5" stroke="none"/>
      <circle cx="7.5" cy="7.5" r="6.5" fill="none"/>
    </g>
    <g id="타원_186" data-name="타원 186" transform="translate(1343 1889.805)" fill="#fff" stroke="#e1e4ec" stroke-width="2">
      <circle cx="7.5" cy="7.5" r="7.5" stroke="none"/>
      <circle cx="7.5" cy="7.5" r="6.5" fill="none"/>
    </g>
    <g id="타원_158" data-name="타원 158" transform="translate(1450 1670)" fill="#fff" stroke="#e1e4ec" stroke-width="2">
      <circle cx="7.5" cy="7.5" r="7.5" stroke="none"/>
      <circle cx="7.5" cy="7.5" r="6.5" fill="none"/>
    </g>
    <g id="타원_187" data-name="타원 187" transform="translate(1450 1889.805)" fill="#fff" stroke="#e1e4ec" stroke-width="2">
      <circle cx="7.5" cy="7.5" r="7.5" stroke="none"/>
      <circle cx="7.5" cy="7.5" r="6.5" fill="none"/>
    </g>
    <g id="타원_160" data-name="타원 160" transform="translate(1450 1738)" fill="#fff" stroke="#e1e4ec" stroke-width="2">
      <circle cx="7.5" cy="7.5" r="7.5" stroke="none"/>
      <circle cx="7.5" cy="7.5" r="6.5" fill="none"/>
    </g>
    <g id="타원_177" data-name="타원 177" transform="translate(1450 2031.805)" fill="#fff" stroke="#e1e4ec" stroke-width="2">
      <circle cx="7.5" cy="7.5" r="7.5" stroke="none"/>
      <circle cx="7.5" cy="7.5" r="6.5" fill="none"/>
    </g>
    <g id="패스_1164" data-name="패스 1164" transform="translate(1459.5 1674)" fill="none">
      <path d="M45.5,0C63.449,0,78,16.565,78,37S63.449,74,45.5,74Z" stroke="none"/>
      <path d="M 50.5 5.529975891113281 L 50.5 68.47002410888672 C 63.28526306152344 65.72679138183594 73 52.65895080566406 73 37 C 73 21.34104919433594 63.28526306152344 8.273208618164062 50.5 5.529975891113281 M 45.5 0 C 63.44925689697266 0 78 16.56547164916992 78 37 C 78 57.43452835083008 63.44925689697266 74 45.5 74 L 45.5 0 Z" stroke="none" fill="#e1e4ec"/>
    </g>
    <path id="패스_1166" data-name="패스 1166" d="M45.5,0C60.688,0,73,14.327,73,32S60.688,64,45.5,64Z" transform="translate(1459.5 1679)" fill="#fff"/>
    <g id="패스_1165" data-name="패스 1165" transform="translate(1461.416 1894.805)" fill="none">
      <path d="M45.5,0c37.175,0,67.312,32.907,67.312,73.5S82.675,147,45.5,147Z" stroke="none"/>
      <path d="M 50.50000762939453 5.215652465820312 L 50.50000762939453 141.7843475341797 C 57.09382629394531 141.2122192382812 63.50041961669922 139.5038909912109 69.60450744628906 136.6847534179688 C 73.28636932373047 134.9842681884766 76.84000396728516 132.8777770996094 80.16666412353516 130.4237060546875 C 83.47152709960938 127.9857482910156 86.58127593994141 125.1837005615234 89.40955352783203 122.0954284667969 C 92.24498748779297 118.9993591308594 94.82041931152344 115.5905914306641 97.06434631347656 111.9638214111328 C 99.33393859863281 108.2955474853516 101.2838897705078 104.3724517822266 102.8600311279297 100.3034973144531 C 106.1460571289062 91.8203125 107.8121871948242 82.80231475830078 107.8121871948242 73.5 C 107.8121871948242 64.19768524169922 106.1460571289062 55.17967987060547 102.8600311279297 46.69650268554688 C 101.2838897705078 42.62754821777344 99.33393859863281 38.70445251464844 97.06434631347656 35.03617858886719 C 94.82041931152344 31.40940856933594 92.24498748779297 28.00063323974609 89.40955352783203 24.90457153320312 C 86.58127593994141 21.81629180908203 83.47152709960938 19.01425170898438 80.16666412353516 16.5762939453125 C 76.84000396728516 14.12222290039062 73.28636932373047 12.01573181152344 69.60450744628906 10.31524658203125 C 63.50041961669922 7.496109008789062 57.09382629394531 5.78778076171875 50.50000762939453 5.215652465820312 M 45.50000762939453 0 C 82.67548370361328 0 112.8121871948242 32.90706634521484 112.8121871948242 73.5 C 112.8121871948242 114.0929336547852 82.67548370361328 147 45.50000762939453 147 L 45.50000762939453 0 Z" stroke="none" fill="#e1e4ec"/>
    </g>
    <path id="패스_1167" data-name="패스 1167" d="M45.5,0c31.456,0,56.956,30.678,56.956,68.521s-25.5,68.521-56.956,68.521Z" transform="translate(1461.5 1899.805)" fill="#fff"/>
    <g id="icon_arrow3" transform="translate(-970.723 -4)">
      <path id="ico_nav_arrow" d="M0,0,5.223,5.223,0,10.446" transform="translate(1476.277 1873)" fill="none" stroke="#129ba9" stroke-linecap="round" stroke-linejoin="round" stroke-miterlimit="10" stroke-width="3"/>
      <path id="ico_nav_arrow-2" data-name="ico_nav_arrow" d="M0,0,5.223,5.223,0,10.446" transform="translate(1465 1873)" fill="none" stroke="#129ba9" stroke-linecap="round" stroke-linejoin="round" stroke-miterlimit="10" stroke-width="3"/>
      <path id="ico_nav_arrow-3" data-name="ico_nav_arrow" d="M0,0,5.223,5.223,0,10.446" transform="translate(1453.723 1873)" fill="none" stroke="#129ba9" stroke-linecap="round" stroke-linejoin="round" stroke-miterlimit="10" stroke-width="3"/>
    </g>
    <g id="icon_arrow3-2" data-name="icon_arrow3" transform="translate(-981.724 212)">
      <path id="ico_nav_arrow-4" data-name="ico_nav_arrow" d="M0,0,5.223,5.223,0,10.446" transform="translate(1476.277 1873)" fill="none" stroke="#129ba9" stroke-linecap="round" stroke-linejoin="round" stroke-miterlimit="10" stroke-width="3"/>
      <path id="ico_nav_arrow-5" data-name="ico_nav_arrow" d="M0,0,5.223,5.223,0,10.446" transform="translate(1465 1873)" fill="none" stroke="#129ba9" stroke-linecap="round" stroke-linejoin="round" stroke-miterlimit="10" stroke-width="3"/>
      <path id="ico_nav_arrow-6" data-name="ico_nav_arrow" d="M0,0,5.223,5.223,0,10.446" transform="translate(1453.723 1873)" fill="none" stroke="#129ba9" stroke-linecap="round" stroke-linejoin="round" stroke-miterlimit="10" stroke-width="3"/>
    </g>
    <g id="icon_arrow3-3" data-name="icon_arrow3" transform="translate(2436.5 3866.446) rotate(180)">
      <path id="ico_nav_arrow-7" data-name="ico_nav_arrow" d="M0,0,5.223,5.223,0,10.446" transform="translate(1476.277 1873)" fill="none" stroke="#129ba9" stroke-linecap="round" stroke-linejoin="round" stroke-miterlimit="10" stroke-width="3"/>
      <path id="ico_nav_arrow-8" data-name="ico_nav_arrow" d="M0,0,5.223,5.223,0,10.446" transform="translate(1465 1873)" fill="none" stroke="#129ba9" stroke-linecap="round" stroke-linejoin="round" stroke-miterlimit="10" stroke-width="3"/>
      <path id="ico_nav_arrow-9" data-name="ico_nav_arrow" d="M0,0,5.223,5.223,0,10.446" transform="translate(1453.723 1873)" fill="none" stroke="#129ba9" stroke-linecap="round" stroke-linejoin="round" stroke-miterlimit="10" stroke-width="3"/>
    </g>
    <g id="icon_arrow3-4" data-name="icon_arrow3" transform="translate(2817.5 3826.446) rotate(180)">
      <path id="ico_nav_arrow-10" data-name="ico_nav_arrow" d="M0,0,5.223,5.223,0,10.446" transform="translate(1476.277 1873)" fill="none" stroke="#129ba9" stroke-linecap="round" stroke-linejoin="round" stroke-miterlimit="10" stroke-width="3"/>
      <path id="ico_nav_arrow-11" data-name="ico_nav_arrow" d="M0,0,5.223,5.223,0,10.446" transform="translate(1465 1873)" fill="none" stroke="#129ba9" stroke-linecap="round" stroke-linejoin="round" stroke-miterlimit="10" stroke-width="3"/>
      <path id="ico_nav_arrow-12" data-name="ico_nav_arrow" d="M0,0,5.223,5.223,0,10.446" transform="translate(1453.723 1873)" fill="none" stroke="#129ba9" stroke-linecap="round" stroke-linejoin="round" stroke-miterlimit="10" stroke-width="3"/>
    </g>
  </g>
</svg>
