<svg xmlns="http://www.w3.org/2000/svg" width="1243.565" height="230.689" viewBox="0 0 1243.565 230.689">
  <g id="loca_map_pc1" transform="translate(-330.663 -1866.879)">
    <text id="신성교하차고지" transform="translate(344.626 1928)" fill="#707070" font-size="15" font-family="Pretendard-Regular, Pretendard"><tspan x="0" y="0">신성교하차고지</tspan></text>
    <text id="국민은행" transform="translate(555.572 2017)" fill="#707070" font-size="15" font-family="Pretendard-Regular, Pretendard"><tspan x="0" y="0">국민은행</tspan></text>
    <text id="문산터미널" transform="translate(452.59 2070)" fill="#707070" font-size="15" font-family="Pretendard-Regular, Pretendard"><tspan x="0" y="0">문산터미널</tspan></text>
    <text id="문산읍행정복지센터" transform="translate(330.663 2017)" fill="#707070" font-size="15" font-family="Pretendard-Regular, Pretendard"><tspan x="0" y="0">문산읍행정복지센터</tspan></text>
    <g id="그룹">
      <text id="교하동" transform="translate(476.554 1928)" fill="#707070" font-size="15" font-family="Pretendard-Regular, Pretendard"><tspan x="0" y="0">교하동</tspan></text>
      <text id="행정복지센터" transform="translate(457.108 1948)" fill="#707070" font-size="15" font-family="Pretendard-Regular, Pretendard"><tspan x="0" y="0">행정복지센터</tspan></text>
    </g>
    <text id="안골입구" transform="translate(654.072 2073)" fill="#707070" font-size="15" font-family="Pretendard-Regular, Pretendard"><tspan x="0" y="0">안골입구</tspan></text>
    <text id="교하파출소" transform="translate(566.59 1928)" fill="#707070" font-size="15" font-family="Pretendard-Regular, Pretendard"><tspan x="0" y="0">교하파출소</tspan></text>
    <text id="낙하리입구" transform="translate(744.09 2017)" fill="#707070" font-size="15" font-family="Pretendard-Regular, Pretendard"><tspan x="0" y="0">낙하리입구</tspan></text>
    <text id="메디인병원" transform="translate(666.787 1933)" fill="#4378b5" font-size="20" font-family="Pretendard-SemiBold, Pretendard" font-weight="600"><tspan x="0" y="0">메디인병원</tspan></text>
    <text id="목장앞" transform="translate(854.554 2070)" fill="#707070" font-size="15" font-family="Pretendard-Regular, Pretendard"><tspan x="0" y="0">목장앞</tspan></text>
    <text id="금화초등학교" transform="translate(779.108 1928)" fill="#707070" font-size="15" font-family="Pretendard-Regular, Pretendard"><tspan x="0" y="0">금화초등학교</tspan></text>
    <text id="오금리입구" transform="translate(940.09 2017)" fill="#707070" font-size="15" font-family="Pretendard-Regular, Pretendard"><tspan x="0" y="0">오금리입구</tspan></text>
    <text id="쇠재마을5단지" transform="translate(883.633 1928)" fill="#707070" font-size="15" font-family="Pretendard-Regular, Pretendard"><tspan x="0" y="0">쇠재마을5단지</tspan></text>
    <text id="맥금13통._상골" data-name="맥금13통. 상골" transform="translate(1025.886 2070)" fill="#707070" font-size="15" font-family="Pretendard-Regular, Pretendard"><tspan x="0" y="0">맥금13통. 상골</tspan></text>
    <text id="흰돌아파트" transform="translate(995.59 1928)" fill="#707070" font-size="15" font-family="Pretendard-Regular, Pretendard"><tspan x="0" y="0">흰돌아파트</tspan></text>
    <text id="검산초등학교" transform="translate(1127.608 2070)" fill="#707070" font-size="15" font-family="Pretendard-Regular, Pretendard"><tspan x="0" y="0">검산초등학교</tspan></text>
    <text id="파주병원" transform="translate(1110.072 1928)" fill="#707070" font-size="15" font-family="Pretendard-Regular, Pretendard"><tspan x="0" y="0">파주병원</tspan></text>
    <text id="대방아파트" transform="translate(1231.09 2070)" fill="#707070" font-size="15" font-family="Pretendard-Regular, Pretendard"><tspan x="0" y="0">대방아파트</tspan></text>
    <text id="파주보건소" transform="translate(1211.59 1928)" fill="#707070" font-size="15" font-family="Pretendard-Regular, Pretendard"><tspan x="0" y="0">파주보건소</tspan></text>
    <text id="문산제일고등학교" transform="translate(1309.145 2017)" fill="#707070" font-size="15" font-family="Pretendard-Regular, Pretendard"><tspan x="0" y="0">문산제일고등학교</tspan></text>
    <text id="금촌사거리" transform="translate(1318.59 1928)" fill="#707070" font-size="15" font-family="Pretendard-Regular, Pretendard"><tspan x="0" y="0">금촌사거리</tspan></text>
    <text id="금촌역" transform="translate(1438.554 1928)" fill="#707070" font-size="15" font-family="Pretendard-Regular, Pretendard"><tspan x="0" y="0">금촌역</tspan></text>
    <text id="팜스프링아파트" transform="translate(1412.626 2070)" fill="#707070" font-size="15" font-family="Pretendard-Regular, Pretendard"><tspan x="0" y="0">팜스프링아파트</tspan></text>
    <rect id="사각형_1044" data-name="사각형 1044" width="1117" height="5" transform="translate(392 1894.805)" fill="#e1e4ec"/>
    <rect id="사각형_1043" data-name="사각형 1043" width="1115" height="5" transform="translate(392 2036.805)" fill="#e1e4ec"/>
    <g id="타원_188" data-name="타원 188" transform="translate(382 1889.805)" fill="#fff" stroke="#e1e4ec" stroke-width="2">
      <circle cx="7.5" cy="7.5" r="7.5" stroke="none"/>
      <circle cx="7.5" cy="7.5" r="6.5" fill="none"/>
    </g>
    <g id="타원_189" data-name="타원 189" transform="translate(576 2031.805)" fill="#fff" stroke="#e1e4ec" stroke-width="2">
      <circle cx="7.5" cy="7.5" r="7.5" stroke="none"/>
      <circle cx="7.5" cy="7.5" r="6.5" fill="none"/>
    </g>
    <g id="타원_190" data-name="타원 190" transform="translate(479 2031.805)" fill="#fff" stroke="#e1e4ec" stroke-width="2">
      <circle cx="7.5" cy="7.5" r="7.5" stroke="none"/>
      <circle cx="7.5" cy="7.5" r="6.5" fill="none"/>
    </g>
    <g id="타원_191" data-name="타원 191" transform="translate(382 2031.805)" fill="#fff" stroke="#e1e4ec" stroke-width="2">
      <circle cx="7.5" cy="7.5" r="7.5" stroke="none"/>
      <circle cx="7.5" cy="7.5" r="6.5" fill="none"/>
    </g>
    <g id="타원_178" data-name="타원 178" transform="translate(916 1889.805)" fill="#fff" stroke="#e1e4ec" stroke-width="2">
      <circle cx="7.5" cy="7.5" r="7.5" stroke="none"/>
      <circle cx="7.5" cy="7.5" r="6.5" fill="none"/>
    </g>
    <g id="타원_169" data-name="타원 169" transform="translate(1062 2031.805)" fill="#fff" stroke="#e1e4ec" stroke-width="2">
      <circle cx="7.5" cy="7.5" r="7.5" stroke="none"/>
      <circle cx="7.5" cy="7.5" r="6.5" fill="none"/>
    </g>
    <g id="타원_179" data-name="타원 179" transform="translate(489 1889.805)" fill="#fff" stroke="#e1e4ec" stroke-width="2">
      <circle cx="7.5" cy="7.5" r="7.5" stroke="none"/>
      <circle cx="7.5" cy="7.5" r="6.5" fill="none"/>
    </g>
    <g id="타원_170" data-name="타원 170" transform="translate(673 2031.805)" fill="#fff" stroke="#e1e4ec" stroke-width="2">
      <circle cx="7.5" cy="7.5" r="7.5" stroke="none"/>
      <circle cx="7.5" cy="7.5" r="6.5" fill="none"/>
    </g>
    <g id="타원_180" data-name="타원 180" transform="translate(1023 1889.805)" fill="#fff" stroke="#e1e4ec" stroke-width="2">
      <circle cx="7.5" cy="7.5" r="7.5" stroke="none"/>
      <circle cx="7.5" cy="7.5" r="6.5" fill="none"/>
    </g>
    <g id="타원_171" data-name="타원 171" transform="translate(1159 2031.805)" fill="#fff" stroke="#e1e4ec" stroke-width="2">
      <circle cx="7.5" cy="7.5" r="7.5" stroke="none"/>
      <circle cx="7.5" cy="7.5" r="6.5" fill="none"/>
    </g>
    <g id="타원_181" data-name="타원 181" transform="translate(596 1889.805)" fill="#fff" stroke="#e1e4ec" stroke-width="2">
      <circle cx="7.5" cy="7.5" r="7.5" stroke="none"/>
      <circle cx="7.5" cy="7.5" r="6.5" fill="none"/>
    </g>
    <g id="타원_172" data-name="타원 172" transform="translate(770 2031.805)" fill="#fff" stroke="#e1e4ec" stroke-width="2">
      <circle cx="7.5" cy="7.5" r="7.5" stroke="none"/>
      <circle cx="7.5" cy="7.5" r="6.5" fill="none"/>
    </g>
    <g id="타원_182" data-name="타원 182" transform="translate(1130 1889.805)" fill="#fff" stroke="#e1e4ec" stroke-width="2">
      <circle cx="7.5" cy="7.5" r="7.5" stroke="none"/>
      <circle cx="7.5" cy="7.5" r="6.5" fill="none"/>
    </g>
    <g id="타원_173" data-name="타원 173" transform="translate(1256 2031.805)" fill="#fff" stroke="#e1e4ec" stroke-width="2">
      <circle cx="7.5" cy="7.5" r="7.5" stroke="none"/>
      <circle cx="7.5" cy="7.5" r="6.5" fill="none"/>
    </g>
    <g id="타원_183" data-name="타원 183" transform="translate(702 1889.805)" fill="#fff" stroke="#0d64b7" stroke-width="2">
      <circle cx="7.5" cy="7.5" r="7.5" stroke="none"/>
      <circle cx="7.5" cy="7.5" r="6.5" fill="none"/>
    </g>
    <g id="타원_174" data-name="타원 174" transform="translate(867 2031.805)" fill="#fff" stroke="#e1e4ec" stroke-width="2">
      <circle cx="7.5" cy="7.5" r="7.5" stroke="none"/>
      <circle cx="7.5" cy="7.5" r="6.5" fill="none"/>
    </g>
    <g id="타원_184" data-name="타원 184" transform="translate(1236 1889.805)" fill="#fff" stroke="#e1e4ec" stroke-width="2">
      <circle cx="7.5" cy="7.5" r="7.5" stroke="none"/>
      <circle cx="7.5" cy="7.5" r="6.5" fill="none"/>
    </g>
    <g id="타원_175" data-name="타원 175" transform="translate(1353 2031.805)" fill="#fff" stroke="#e1e4ec" stroke-width="2">
      <circle cx="7.5" cy="7.5" r="7.5" stroke="none"/>
      <circle cx="7.5" cy="7.5" r="6.5" fill="none"/>
    </g>
    <g id="타원_185" data-name="타원 185" transform="translate(809 1889.805)" fill="#fff" stroke="#e1e4ec" stroke-width="2">
      <circle cx="7.5" cy="7.5" r="7.5" stroke="none"/>
      <circle cx="7.5" cy="7.5" r="6.5" fill="none"/>
    </g>
    <g id="타원_176" data-name="타원 176" transform="translate(965 2031.805)" fill="#fff" stroke="#e1e4ec" stroke-width="2">
      <circle cx="7.5" cy="7.5" r="7.5" stroke="none"/>
      <circle cx="7.5" cy="7.5" r="6.5" fill="none"/>
    </g>
    <g id="타원_186" data-name="타원 186" transform="translate(1343 1889.805)" fill="#fff" stroke="#e1e4ec" stroke-width="2">
      <circle cx="7.5" cy="7.5" r="7.5" stroke="none"/>
      <circle cx="7.5" cy="7.5" r="6.5" fill="none"/>
    </g>
    <g id="타원_187" data-name="타원 187" transform="translate(1450 1889.805)" fill="#fff" stroke="#e1e4ec" stroke-width="2">
      <circle cx="7.5" cy="7.5" r="7.5" stroke="none"/>
      <circle cx="7.5" cy="7.5" r="6.5" fill="none"/>
    </g>
    <g id="타원_177" data-name="타원 177" transform="translate(1450 2031.805)" fill="#fff" stroke="#e1e4ec" stroke-width="2">
      <circle cx="7.5" cy="7.5" r="7.5" stroke="none"/>
      <circle cx="7.5" cy="7.5" r="6.5" fill="none"/>
    </g>
    <g id="패스_1165" data-name="패스 1165" transform="translate(1461.416 1894.805)">
      <path id="패스_1175" data-name="패스 1175" d="M45.5,0c37.175,0,67.312,32.907,67.312,73.5S82.675,147,45.5,147Z" fill="none"/>
      <path id="패스_1176" data-name="패스 1176" d="M50.5,5.216V141.784a57.161,57.161,0,0,0,19.1-5.1,60.783,60.783,0,0,0,10.562-6.261A64.442,64.442,0,0,0,89.41,122.1a68,68,0,0,0,7.655-10.131,70.84,70.84,0,0,0,5.8-11.661,75.014,75.014,0,0,0,0-53.607,70.844,70.844,0,0,0-5.8-11.66A68.018,68.018,0,0,0,89.41,24.9a64.479,64.479,0,0,0-9.243-8.328A60.746,60.746,0,0,0,69.6,10.315a57.163,57.163,0,0,0-19.1-5.1M45.5,0c37.175,0,67.312,32.907,67.312,73.5S82.675,147,45.5,147Z" fill="#e1e4ec"/>
    </g>
    <path id="패스_1167" data-name="패스 1167" d="M45.5,0c31.456,0,56.956,30.678,56.956,68.521s-25.5,68.521-56.956,68.521Z" transform="translate(1461.5 1899.805)" fill="#fff"/>
    <g id="icon_arrow3" transform="translate(-970.723 -4)">
      <path id="ico_nav_arrow" d="M0,0,5.223,5.223,0,10.446" transform="translate(1476.277 1873)" fill="none" stroke="#129ba9" stroke-linecap="round" stroke-linejoin="round" stroke-miterlimit="10" stroke-width="3"/>
      <path id="ico_nav_arrow-2" data-name="ico_nav_arrow" d="M0,0,5.223,5.223,0,10.446" transform="translate(1465 1873)" fill="none" stroke="#129ba9" stroke-linecap="round" stroke-linejoin="round" stroke-miterlimit="10" stroke-width="3"/>
      <path id="ico_nav_arrow-3" data-name="ico_nav_arrow" d="M0,0,5.223,5.223,0,10.446" transform="translate(1453.723 1873)" fill="none" stroke="#129ba9" stroke-linecap="round" stroke-linejoin="round" stroke-miterlimit="10" stroke-width="3"/>
    </g>
    <g id="icon_arrow3-2" data-name="icon_arrow3" transform="translate(-981.724 212)">
      <path id="ico_nav_arrow-4" data-name="ico_nav_arrow" d="M0,0,5.223,5.223,0,10.446" transform="translate(1476.277 1873)" fill="none" stroke="#129ba9" stroke-linecap="round" stroke-linejoin="round" stroke-miterlimit="10" stroke-width="3"/>
      <path id="ico_nav_arrow-5" data-name="ico_nav_arrow" d="M0,0,5.223,5.223,0,10.446" transform="translate(1465 1873)" fill="none" stroke="#129ba9" stroke-linecap="round" stroke-linejoin="round" stroke-miterlimit="10" stroke-width="3"/>
      <path id="ico_nav_arrow-6" data-name="ico_nav_arrow" d="M0,0,5.223,5.223,0,10.446" transform="translate(1453.723 1873)" fill="none" stroke="#129ba9" stroke-linecap="round" stroke-linejoin="round" stroke-miterlimit="10" stroke-width="3"/>
    </g>
    <g id="icon_arrow3-3" data-name="icon_arrow3" transform="translate(2436.5 3866.446) rotate(180)">
      <path id="ico_nav_arrow-7" data-name="ico_nav_arrow" d="M0,0,5.223,5.223,0,10.446" transform="translate(1476.277 1873)" fill="none" stroke="#129ba9" stroke-linecap="round" stroke-linejoin="round" stroke-miterlimit="10" stroke-width="3"/>
      <path id="ico_nav_arrow-8" data-name="ico_nav_arrow" d="M0,0,5.223,5.223,0,10.446" transform="translate(1465 1873)" fill="none" stroke="#129ba9" stroke-linecap="round" stroke-linejoin="round" stroke-miterlimit="10" stroke-width="3"/>
      <path id="ico_nav_arrow-9" data-name="ico_nav_arrow" d="M0,0,5.223,5.223,0,10.446" transform="translate(1453.723 1873)" fill="none" stroke="#129ba9" stroke-linecap="round" stroke-linejoin="round" stroke-miterlimit="10" stroke-width="3"/>
    </g>
    <g id="icon_arrow3-4" data-name="icon_arrow3" transform="translate(2817.5 3826.446) rotate(180)">
      <path id="ico_nav_arrow-10" data-name="ico_nav_arrow" d="M0,0,5.223,5.223,0,10.446" transform="translate(1476.277 1873)" fill="none" stroke="#129ba9" stroke-linecap="round" stroke-linejoin="round" stroke-miterlimit="10" stroke-width="3"/>
      <path id="ico_nav_arrow-11" data-name="ico_nav_arrow" d="M0,0,5.223,5.223,0,10.446" transform="translate(1465 1873)" fill="none" stroke="#129ba9" stroke-linecap="round" stroke-linejoin="round" stroke-miterlimit="10" stroke-width="3"/>
      <path id="ico_nav_arrow-12" data-name="ico_nav_arrow" d="M0,0,5.223,5.223,0,10.446" transform="translate(1453.723 1873)" fill="none" stroke="#129ba9" stroke-linecap="round" stroke-linejoin="round" stroke-miterlimit="10" stroke-width="3"/>
    </g>
  </g>
</svg>
