<svg xmlns="http://www.w3.org/2000/svg" width="1184.476" height="181" viewBox="0 0 1184.476 181">
  <g id="loca_map_pc3" transform="translate(-370.554 -1638)">
    <g id="line">
      <g id="코너1" transform="translate(1459.5 1674)">
        <path id="패스_1174" data-name="패스 1174" d="M53.2,8.513V105.4c19.682-4.223,34.636-24.339,34.636-48.444S72.878,12.736,53.2,8.513M45.5,0C73.131,0,95.53,25.5,95.53,56.957s-22.4,56.957-50.03,56.957Z" transform="translate(0)" fill="#e1e4ec"/>
        <path id="패스_1166" data-name="패스 1166" d="M45.5,0C71.173,0,91.985,23.281,91.985,52S71.173,104,45.5,104Z" transform="translate(-1.798 5)" fill="#fff"/>
      </g>
      <rect id="line2" width="1078.5" height="5" transform="translate(427.5 1783)" fill="#e1e4ec"/>
      <rect id="line1" width="1114" height="5" transform="translate(392 1674)" fill="#e1e4ec"/>
    </g>
    <g id="text">
      <g id="text2">
        <g id="타원_159" data-name="타원 159" transform="translate(424 1778)" fill="#fff" stroke="#e1e4ec" stroke-width="2">
          <circle cx="7.5" cy="7.5" r="7.5" stroke="none"/>
          <circle cx="7.5" cy="7.5" r="6.5" fill="none"/>
        </g>
        <g id="타원_165" data-name="타원 165" transform="translate(1189 1778)" fill="#fff" stroke="#e1e4ec" stroke-width="2">
          <circle cx="7.5" cy="7.5" r="7.5" stroke="none"/>
          <circle cx="7.5" cy="7.5" r="6.5" fill="none"/>
        </g>
        <g id="타원_161" data-name="타원 161" transform="translate(509 1778)" fill="#fff" stroke="#e1e4ec" stroke-width="2">
          <circle cx="7.5" cy="7.5" r="7.5" stroke="none"/>
          <circle cx="7.5" cy="7.5" r="6.5" fill="none"/>
        </g>
        <g id="타원_166" data-name="타원 166" transform="translate(1274 1778)" fill="#fff" stroke="#e1e4ec" stroke-width="2">
          <circle cx="7.5" cy="7.5" r="7.5" stroke="none"/>
          <circle cx="7.5" cy="7.5" r="6.5" fill="none"/>
        </g>
        <g id="타원_162" data-name="타원 162" transform="translate(1019 1778)" fill="#fff" stroke="#e1e4ec" stroke-width="2">
          <circle cx="7.5" cy="7.5" r="7.5" stroke="none"/>
          <circle cx="7.5" cy="7.5" r="6.5" fill="none"/>
        </g>
        <g id="타원_162-2" data-name="타원 162" transform="translate(934 1778)" fill="#fff" stroke="#e1e4ec" stroke-width="2">
          <circle cx="7.5" cy="7.5" r="7.5" stroke="none"/>
          <circle cx="7.5" cy="7.5" r="6.5" fill="none"/>
        </g>
        <g id="타원_162-3" data-name="타원 162" transform="translate(849 1778)" fill="#fff" stroke="#e1e4ec" stroke-width="2">
          <circle cx="7.5" cy="7.5" r="7.5" stroke="none"/>
          <circle cx="7.5" cy="7.5" r="6.5" fill="none"/>
        </g>
        <g id="타원_162-4" data-name="타원 162" transform="translate(764 1778)" fill="#fff" stroke="#e1e4ec" stroke-width="2">
          <circle cx="7.5" cy="7.5" r="7.5" stroke="none"/>
          <circle cx="7.5" cy="7.5" r="6.5" fill="none"/>
        </g>
        <g id="타원_162-5" data-name="타원 162" transform="translate(679 1778)" fill="#fff" stroke="#e1e4ec" stroke-width="2">
          <circle cx="7.5" cy="7.5" r="7.5" stroke="none"/>
          <circle cx="7.5" cy="7.5" r="6.5" fill="none"/>
        </g>
        <g id="타원_162-6" data-name="타원 162" transform="translate(594 1778)" fill="#fff" stroke="#e1e4ec" stroke-width="2">
          <circle cx="7.5" cy="7.5" r="7.5" stroke="none"/>
          <circle cx="7.5" cy="7.5" r="6.5" fill="none"/>
        </g>
        <g id="타원_167" data-name="타원 167" transform="translate(1359 1778)" fill="#fff" stroke="#e1e4ec" stroke-width="2">
          <circle cx="7.5" cy="7.5" r="7.5" stroke="none"/>
          <circle cx="7.5" cy="7.5" r="6.5" fill="none"/>
        </g>
        <g id="타원_163" data-name="타원 163" transform="translate(1104 1778)" fill="#fff" stroke="#e1e4ec" stroke-width="2">
          <circle cx="7.5" cy="7.5" r="7.5" stroke="none"/>
          <circle cx="7.5" cy="7.5" r="6.5" fill="none"/>
        </g>
        <g id="타원_160" data-name="타원 160" transform="translate(1444 1778)" fill="#fff" stroke="#e1e4ec" stroke-width="2">
          <circle cx="7.5" cy="7.5" r="7.5" stroke="none"/>
          <circle cx="7.5" cy="7.5" r="6.5" fill="none"/>
        </g>
        <text id="용상골" transform="translate(1163.554 1766)" fill="#707070" font-size="15" font-family="Pretendard-Regular, Pretendard"><tspan x="0" y="0">장안아파트</tspan></text>
        <text id="용상골-2" data-name="용상골" transform="translate(1078.554 1815)" fill="#707070" font-size="15" font-family="Pretendard-Regular, Pretendard"><tspan x="0" y="0">금촌사거리</tspan></text>
        <text id="용상골-3" data-name="용상골" transform="translate(987.554 1766)" fill="#707070" font-size="15" font-family="Pretendard-Regular, Pretendard"><tspan x="0" y="0">금촌통일시장</tspan></text>
        <text id="용상골-4" data-name="용상골" transform="translate(921.554 1815)" fill="#707070" font-size="15" font-family="Pretendard-Regular, Pretendard"><tspan x="0" y="0">금촌역</tspan></text>
        <text id="용상골-5" data-name="용상골" transform="translate(833.554 1766)" fill="#707070" font-size="15" font-family="Pretendard-Regular, Pretendard"><tspan x="0" y="0">금촌1동</tspan></text>
        <text id="용상골-6" data-name="용상골" transform="translate(745.554 1815)" fill="#707070" font-size="15" font-family="Pretendard-Regular, Pretendard"><tspan x="0" y="0">주유소앞</tspan></text>
        <text id="용상골-7" data-name="용상골" transform="translate(640.554 1766)" fill="#707070" font-size="15" font-family="Pretendard-Regular, Pretendard"><tspan x="0" y="0">순복음평화교회</tspan></text>
        <text id="용상골-8" data-name="용상골" transform="translate(492.554 1766)" fill="#707070" font-size="15" font-family="Pretendard-Regular, Pretendard"><tspan x="0" y="0">영태5리</tspan></text>
        <text id="용상골-9" data-name="용상골" transform="translate(556.5 1815)" fill="#707070" font-size="15" font-family="Pretendard-Regular, Pretendard"><tspan x="0" y="0">파주여고광일중</tspan></text>
        <text id="용상골-10" data-name="용상골" transform="translate(405.5 1815)" fill="#707070" font-size="15" font-family="Pretendard-Regular, Pretendard"><tspan x="0" y="0">대림슈퍼</tspan></text>
        <text id="명성슈퍼" transform="translate(1220.572 1815)" fill="#707070" font-size="15" font-family="Pretendard-Regular, Pretendard"><tspan x="0" y="0">KT파주지사보훈회관</tspan></text>
        <text id="문산제일고" transform="translate(1302 1766)" fill="#707070" font-size="15" font-family="Pretendard-Regular, Pretendard"><tspan x="0" y="0">금촌로타리평생학습관</tspan></text>
        <text id="금촌체육공원" transform="translate(1425.5 1815)" fill="#707070" font-size="15" font-family="Pretendard-Regular, Pretendard"><tspan x="0" y="0">대하마트</tspan></text>
      </g>
      <g id="text1">
        <g id="타원_148" data-name="타원 148" transform="translate(382 1670)" fill="#fff" stroke="#e1e4ec" stroke-width="2">
          <circle cx="7.5" cy="7.5" r="7.5" stroke="none"/>
          <circle cx="7.5" cy="7.5" r="6.5" fill="none"/>
        </g>
        <g id="타원_153" data-name="타원 153" transform="translate(722 1670)" fill="#fff" stroke="#e1e4ec" stroke-width="2">
          <circle cx="7.5" cy="7.5" r="7.5" stroke="none"/>
          <circle cx="7.5" cy="7.5" r="6.5" fill="none"/>
        </g>
        <g id="타원_149" data-name="타원 149" transform="translate(467 1670)" fill="#fff" stroke="#e1e4ec" stroke-width="2">
          <circle cx="7.5" cy="7.5" r="7.5" stroke="none"/>
          <circle cx="7.5" cy="7.5" r="6.5" fill="none"/>
        </g>
        <g id="타원_154" data-name="타원 154" transform="translate(807 1670)" fill="#fff" stroke="#e1e4ec" stroke-width="2">
          <circle cx="7.5" cy="7.5" r="7.5" stroke="none"/>
          <circle cx="7.5" cy="7.5" r="6.5" fill="none"/>
        </g>
        <g id="타원_150" data-name="타원 150" transform="translate(552 1670)" fill="#fff" stroke="#e1e4ec" stroke-width="2">
          <circle cx="7.5" cy="7.5" r="7.5" stroke="none"/>
          <circle cx="7.5" cy="7.5" r="6.5" fill="none"/>
        </g>
        <g id="타원_150-2" data-name="타원 150" transform="translate(637 1670)" fill="#fff" stroke="#e1e4ec" stroke-width="2">
          <circle cx="7.5" cy="7.5" r="7.5" stroke="none"/>
          <circle cx="7.5" cy="7.5" r="6.5" fill="none"/>
        </g>
        <g id="타원_155" data-name="타원 155" transform="translate(1062 1670)" fill="#fff" stroke="#e1e4ec" stroke-width="2">
          <circle cx="7.5" cy="7.5" r="7.5" stroke="none"/>
          <circle cx="7.5" cy="7.5" r="6.5" fill="none"/>
        </g>
        <g id="타원_155-2" data-name="타원 155" transform="translate(892 1670)" fill="#fff" stroke="#e1e4ec" stroke-width="2">
          <circle cx="7.5" cy="7.5" r="7.5" stroke="none"/>
          <circle cx="7.5" cy="7.5" r="6.5" fill="none"/>
        </g>
        <g id="타원_155-3" data-name="타원 155" transform="translate(977 1670)" fill="#fff" stroke="#e1e4ec" stroke-width="2">
          <circle cx="7.5" cy="7.5" r="7.5" stroke="none"/>
          <circle cx="7.5" cy="7.5" r="6.5" fill="none"/>
        </g>
        <g id="타원_156" data-name="타원 156" transform="translate(1147 1670)" fill="#fff" stroke="#e1e4ec" stroke-width="2">
          <circle cx="7.5" cy="7.5" r="7.5" stroke="none"/>
          <circle cx="7.5" cy="7.5" r="6.5" fill="none"/>
        </g>
        <g id="파랑" transform="translate(1317 1670)" fill="#fff" stroke="#0d64b7" stroke-width="2">
          <circle cx="7.5" cy="7.5" r="7.5" stroke="none"/>
          <circle cx="7.5" cy="7.5" r="6.5" fill="none"/>
        </g>
        <g id="타원_157" data-name="타원 157" transform="translate(1232 1670)" fill="#fff" stroke="#e1e4ec" stroke-width="2">
          <circle cx="7.5" cy="7.5" r="7.5" stroke="none"/>
          <circle cx="7.5" cy="7.5" r="6.5" fill="none"/>
        </g>
        <g id="타원_158" data-name="타원 158" transform="translate(1402 1670)" fill="#fff" stroke="#e1e4ec" stroke-width="2">
          <circle cx="7.5" cy="7.5" r="7.5" stroke="none"/>
          <circle cx="7.5" cy="7.5" r="6.5" fill="none"/>
        </g>
        <g id="타원_158-2" data-name="타원 158" transform="translate(1487 1670)" fill="#fff" stroke="#e1e4ec" stroke-width="2">
          <circle cx="7.5" cy="7.5" r="7.5" stroke="none"/>
          <circle cx="7.5" cy="7.5" r="6.5" fill="none"/>
        </g>
        <text id="용상골-11" data-name="용상골" transform="translate(370.554 1707)" fill="#707070" font-size="15" font-family="Pretendard-Regular, Pretendard"><tspan x="0" y="0">월롱시민공원</tspan></text>
        <text id="명성슈퍼-2" data-name="명성슈퍼" transform="translate(436 1658)" fill="#707070" font-size="15" font-family="Pretendard-Regular, Pretendard"><tspan x="0" y="0">이주단지입구</tspan></text>
        <text id="명성슈퍼-3" data-name="명성슈퍼" transform="translate(619 1658)" fill="#707070" font-size="15" font-family="Pretendard-Regular, Pretendard"><tspan x="0" y="0">양양산업</tspan></text>
        <text id="문산제일고-2" data-name="문산제일고" transform="translate(539.59 1707)" fill="#707070" font-size="15" font-family="Pretendard-Regular, Pretendard"><tspan x="0" y="0">용상골</tspan></text>
        <text id="주공단지입구" transform="translate(703.108 1707)" fill="#707070" font-size="15" font-family="Pretendard-Regular, Pretendard"><tspan x="0" y="0">명성슈퍼</tspan></text>
        <text id="주공단지입구-2" data-name="주공단지입구" transform="translate(1456 1658)" fill="#707070" font-size="15" font-family="Pretendard-Regular, Pretendard"><tspan x="0" y="0">주공단지입구</tspan></text>
        <text id="금촌로타리" transform="translate(795.5 1658)" fill="#707070" font-size="15" font-family="Pretendard-Regular, Pretendard"><tspan x="0" y="0">부대앞</tspan></text>
        <text id="금촌로타리-2" data-name="금촌로타리" transform="translate(1370.5 1707)" fill="#707070" font-size="15" font-family="Pretendard-Regular, Pretendard"><tspan x="0" y="0">금촌초등학교</tspan></text>
        <text id="장안아파트" transform="translate(848 1707)" fill="#707070" font-size="15" font-family="Pretendard-Regular, Pretendard"><tspan x="0" y="0">문산제일고등학교</tspan></text>
        <text id="금촌역" transform="translate(932.554 1658)" fill="#707070" font-size="15" font-family="Pretendard-Regular, Pretendard"><tspan x="0" y="0">문산제일고삼거리</tspan></text>
        <text id="금촌역-2" data-name="금촌역" transform="translate(1213.5 1707)" fill="#707070" font-size="15" font-family="Pretendard-Regular, Pretendard"><tspan x="0" y="0">금촌초교</tspan></text>
        <text id="파주여고" transform="translate(1030.072 1707)" fill="#707070" font-size="15" font-family="Pretendard-Regular, Pretendard"><tspan x="0" y="0">금촌체육공원</tspan></text>
        <text id="영태5리" transform="translate(1135.5 1658)" fill="#707070" font-size="15" font-family="Pretendard-Regular, Pretendard"><tspan x="0" y="0">순달교</tspan></text>
        <text id="메디인병원" transform="translate(1281.787 1657)" fill="#4378b5" font-size="20" font-family="Pretendard-SemiBold, Pretendard" font-weight="600"><tspan x="0" y="0">메디인병원</tspan></text>
      </g>
    </g>
  </g>
</svg>
