<svg xmlns="http://www.w3.org/2000/svg" width="707" height="248.122" viewBox="0 0 707 248.122">
  <g id="loca_shuttle_pc" transform="translate(-320.188 -1866.879)">
    <text id="금릉역_1번출구_" data-name="금릉역(1번출구)" transform="translate(575.283 2070)" fill="#707070" font-size="15" font-family="Pretendard-Regular, Pretendard"><tspan x="-47.292" y="0">금릉역(1번출구)</tspan></text>
    <text id="금촌_전자랜드" data-name="금촌 전자랜드" transform="translate(927.139 2070)" fill="#707070" font-size="15" font-family="Pretendard-Regular, Pretendard"><tspan x="-40.774" y="0">금촌 전자랜드</tspan></text>
    <text id="새꽃마을_1단지" data-name="새꽃마을 1단지" transform="translate(541.722 1928)" fill="#707070" font-size="15" font-family="Pretendard-Regular, Pretendard"><tspan x="-44.063" y="0">새꽃마을 1단지</tspan></text>
    <text id="첫차_-_08:23_막차_-_18:33" data-name="첫차 - 08:23
막차 - 18:33" transform="translate(541.716 1948)" fill="#129ba9" font-size="13" font-family="Pretendard-Regular, Pretendard"><tspan x="-34.601" y="0">첫차 - 08:23</tspan><tspan x="-33.776" y="16">막차 - 18:33</tspan></text>
    <text id="첫차_-_08:00_막차_-_18:10" data-name="첫차 - 08:00
막차 - 18:10" transform="translate(745.291 1954)" fill="#129ba9" font-size="13" font-family="Pretendard-Regular, Pretendard"><tspan x="-34.519" y="0">첫차 - 08:00</tspan><tspan x="-32.475" y="16">막차 - 18:10</tspan></text>
    <text id="금릉역_스타벅스_" data-name="금릉역(스타벅스)" transform="translate(399.614 2070)" fill="#707070" font-size="15" font-family="Pretendard-Regular, Pretendard"><tspan x="-50.486" y="0">금릉역(스타벅스)</tspan></text>
    <text id="메디인병원" transform="translate(745.288 1933)" fill="#4378b5" font-size="20" font-family="Pretendard-SemiBold, Pretendard" font-weight="600"><tspan x="-43.213" y="0">메디인병원</tspan></text>
    <text id="메디인병원-2" data-name="메디인병원" transform="translate(752.003 2075)" fill="#4378b5" font-size="20" font-family="Pretendard-SemiBold, Pretendard" font-weight="600"><tspan x="-43.213" y="0">메디인병원</tspan></text>
    <rect id="사각형_1044" data-name="사각형 1044" width="570.639" height="5" transform="translate(392 1894.805)" fill="#e1e4ec"/>
    <rect id="사각형_1043" data-name="사각형 1043" width="570.639" height="5" transform="translate(392 2036.805)" fill="#e1e4ec"/>
    <g id="패스_1165" data-name="패스 1165" transform="translate(914.376 1894.805)" fill="none">
      <path d="M45.5,0c37.175,0,67.312,32.907,67.312,73.5S82.675,147,45.5,147Z" stroke="none"/>
      <path d="M 50.50000762939453 5.215652465820312 L 50.50000762939453 141.7843475341797 C 57.09382629394531 141.2122192382812 63.50041961669922 139.5038909912109 69.60450744628906 136.6847534179688 C 73.28636932373047 134.9842681884766 76.84000396728516 132.8777770996094 80.16666412353516 130.4237060546875 C 83.47152709960938 127.9857482910156 86.58127593994141 125.1837005615234 89.40955352783203 122.0954284667969 C 92.24498748779297 118.9993591308594 94.82041931152344 115.5905914306641 97.06434631347656 111.9638214111328 C 99.33393859863281 108.2955474853516 101.2838897705078 104.3724517822266 102.8600311279297 100.3034973144531 C 106.1460571289062 91.8203125 107.8121871948242 82.80231475830078 107.8121871948242 73.5 C 107.8121871948242 64.19768524169922 106.1460571289062 55.17967987060547 102.8600311279297 46.69650268554688 C 101.2838897705078 42.62754821777344 99.33393859863281 38.70445251464844 97.06434631347656 35.03617858886719 C 94.82041931152344 31.40940856933594 92.24498748779297 28.00063323974609 89.40955352783203 24.90457153320312 C 86.58127593994141 21.81629180908203 83.47152709960938 19.01425170898438 80.16666412353516 16.5762939453125 C 76.84000396728516 14.12222290039062 73.28636932373047 12.01573181152344 69.60450744628906 10.31524658203125 C 63.50041961669922 7.496109008789062 57.09382629394531 5.78778076171875 50.50000762939453 5.215652465820312 M 45.50000762939453 0 C 82.67548370361328 0 112.8121871948242 32.90706634521484 112.8121871948242 73.5 C 112.8121871948242 114.0929336547852 82.67548370361328 147 45.50000762939453 147 L 45.50000762939453 0 Z" stroke="none" fill="#e1e4ec"/>
    </g>
    <g id="icon_arrow3" transform="translate(731.41 1869)">
      <path id="ico_nav_arrow" d="M0,0,5.223,5.223,0,10.446" transform="translate(22.554)" fill="none" stroke="#129ba9" stroke-linecap="round" stroke-linejoin="round" stroke-miterlimit="10" stroke-width="3"/>
      <path id="ico_nav_arrow-2" data-name="ico_nav_arrow" d="M0,0,5.223,5.223,0,10.446" transform="translate(11.277 0)" fill="none" stroke="#129ba9" stroke-linecap="round" stroke-linejoin="round" stroke-miterlimit="10" stroke-width="3"/>
      <path id="ico_nav_arrow-3" data-name="ico_nav_arrow" d="M0,0,5.223,5.223,0,10.446" fill="none" stroke="#129ba9" stroke-linecap="round" stroke-linejoin="round" stroke-miterlimit="10" stroke-width="3"/>
    </g>
    <g id="icon_arrow3-2" data-name="icon_arrow3" transform="translate(765.178 2021.609) rotate(180)">
      <path id="ico_nav_arrow-4" data-name="ico_nav_arrow" d="M0,0,5.223,5.223,0,10.446" transform="translate(22.554)" fill="none" stroke="#129ba9" stroke-linecap="round" stroke-linejoin="round" stroke-miterlimit="10" stroke-width="3"/>
      <path id="ico_nav_arrow-5" data-name="ico_nav_arrow" d="M0,0,5.223,5.223,0,10.446" transform="translate(11.277 0)" fill="none" stroke="#129ba9" stroke-linecap="round" stroke-linejoin="round" stroke-miterlimit="10" stroke-width="3"/>
      <path id="ico_nav_arrow-6" data-name="ico_nav_arrow" d="M0,0,5.223,5.223,0,10.446" fill="none" stroke="#129ba9" stroke-linecap="round" stroke-linejoin="round" stroke-miterlimit="10" stroke-width="3"/>
    </g>
    <g id="패스_1472" data-name="패스 1472" transform="translate(279.188 1894.805)" fill="none">
      <path d="M112.812,0C75.637,0,45.5,32.907,45.5,73.5S75.637,147,112.812,147Z" stroke="none"/>
      <path d="M 107.8122634887695 5.215652465820312 C 101.2184371948242 5.78778076171875 94.81182861328125 7.496109008789062 88.70771789550781 10.31524658203125 C 85.02585601806641 12.01573181152344 81.47222137451172 14.12222290039062 78.14553833007812 16.5762939453125 C 74.84067535400391 19.01425170898438 71.73092651367188 21.81629180908203 68.90262603759766 24.90457153320312 C 66.06722259521484 28.00063323974609 63.49176788330078 31.40940856933594 61.24783325195312 35.03617858886719 C 58.97824096679688 38.70445251464844 57.02828979492188 42.62754821777344 55.4521484375 46.69650268554688 C 52.16615295410156 55.17967987060547 50.49999237060547 64.19768524169922 50.49999237060547 73.5 C 50.49999237060547 82.80231475830078 52.16615295410156 91.8203125 55.4521484375 100.3034973144531 C 57.02828979492188 104.3724517822266 58.97824096679688 108.2955474853516 61.24783325195312 111.9638214111328 C 63.49176788330078 115.5905914306641 66.06722259521484 118.9993591308594 68.90262603759766 122.0954284667969 C 71.73092651367188 125.1837005615234 74.84067535400391 127.9857482910156 78.14553833007812 130.4237060546875 C 81.47222137451172 132.8777770996094 85.02585601806641 134.9842681884766 88.70771789550781 136.6847534179688 C 94.81182861328125 139.5038909912109 101.2184371948242 141.2122192382812 107.8122634887695 141.7843475341797 L 107.8122634887695 5.215652465820312 M 112.8122634887695 0 L 112.8122634887695 147 C 75.63671875 147 45.49999237060547 114.0929336547852 45.49999237060547 73.5 C 45.49999237060547 32.90706634521484 75.63671875 0 112.8122634887695 0 Z" stroke="none" fill="#e1e4ec"/>
    </g>
    <path id="패스_1473" data-name="패스 1473" d="M109.45,0C74.132,0,45.5,30.678,45.5,68.521s28.632,68.521,63.95,68.521Z" transform="translate(285.043 1899.805)" fill="#fff"/>
    <g id="타원_326" data-name="타원 326" transform="translate(320.188 1948)" fill="#fff" stroke="#e1e4ec" stroke-width="2">
      <circle cx="7.5" cy="7.5" r="7.5" stroke="none"/>
      <circle cx="7.5" cy="7.5" r="6.5" fill="none"/>
    </g>
    <g id="타원_190" data-name="타원 190" transform="translate(567.04 2031.805)" fill="#fff" stroke="#e1e4ec" stroke-width="2">
      <circle cx="7.5" cy="7.5" r="7.5" stroke="none"/>
      <circle cx="7.5" cy="7.5" r="6.5" fill="none"/>
    </g>
    <g id="타원_329" data-name="타원 329" transform="translate(919.413 2031.805)" fill="#fff" stroke="#e1e4ec" stroke-width="2">
      <circle cx="7.5" cy="7.5" r="7.5" stroke="none"/>
      <circle cx="7.5" cy="7.5" r="6.5" fill="none"/>
    </g>
    <g id="타원_327" data-name="타원 327" transform="translate(391.388 2031.805)" fill="#fff" stroke="#e1e4ec" stroke-width="2">
      <circle cx="7.5" cy="7.5" r="7.5" stroke="none"/>
      <circle cx="7.5" cy="7.5" r="6.5" fill="none"/>
    </g>
    <g id="타원_328" data-name="타원 328" transform="translate(743.791 2031.805)" fill="#fff" stroke="#0d64b7" stroke-width="2">
      <circle cx="7.5" cy="7.5" r="7.5" stroke="none"/>
      <circle cx="7.5" cy="7.5" r="6.5" fill="none"/>
    </g>
    <g id="타원_179" data-name="타원 179" transform="translate(534.087 1889.805)" fill="#fff" stroke="#e1e4ec" stroke-width="2">
      <circle cx="7.5" cy="7.5" r="7.5" stroke="none"/>
      <circle cx="7.5" cy="7.5" r="6.5" fill="none"/>
    </g>
    <g id="타원_330" data-name="타원 330" transform="translate(941.413 1889.805)" fill="#fff" stroke="#e1e4ec" stroke-width="2">
      <circle cx="7.5" cy="7.5" r="7.5" stroke="none"/>
      <circle cx="7.5" cy="7.5" r="6.5" fill="none"/>
    </g>
    <g id="타원_183" data-name="타원 183" transform="translate(737.8 1889.805)" fill="#fff" stroke="#0d64b7" stroke-width="2">
      <circle cx="7.5" cy="7.5" r="7.5" stroke="none"/>
      <circle cx="7.5" cy="7.5" r="6.5" fill="none"/>
    </g>
    <text id="새꽃마을_1단지_후문_" data-name="새꽃마을 1단지(후문)" transform="translate(406.614 1960.5)" fill="#707070" font-size="15" font-family="Pretendard-Regular, Pretendard"><tspan x="-62.139" y="0">새꽃마을 1단지(후문)</tspan></text>
    <path id="패스_1167" data-name="패스 1167" d="M45.5,0c33.729,0,61.072,30.678,61.072,68.521S79.229,137.041,45.5,137.041Z" transform="translate(913.913 1899.764)" fill="#fff"/>
    <text id="금촌역_사거리" data-name="금촌역 사거리" transform="translate(948.413 1928)" fill="#707070" font-size="15" font-family="Pretendard-Regular, Pretendard"><tspan x="-40.774" y="0">금촌역 사거리</tspan></text>
    <text id="첫차_-_08:07_막차_-_18:17" data-name="첫차 - 08:07
막차 - 18:17" transform="translate(948.413 1948)" fill="#129ba9" font-size="13" font-family="Pretendard-Regular, Pretendard"><tspan x="-34.233" y="0">첫차 - 08:07</tspan><tspan x="-32.189" y="16">막차 - 18:17</tspan></text>
    <text id="첫차_-_08:23_막차_-_18:33-2" data-name="첫차 - 08:23
막차 - 18:33" transform="translate(406.614 1980.5)" fill="#129ba9" font-size="13" font-family="Pretendard-Regular, Pretendard"><tspan x="-34.601" y="0">첫차 - 08:23</tspan><tspan x="-33.776" y="16">막차 - 18:33</tspan></text>
    <text id="첫차_-_08:15_막차_-_18:25" data-name="첫차 - 08:15
막차 - 18:25" transform="translate(399.614 2090)" fill="#129ba9" font-size="13" font-family="Pretendard-Regular, Pretendard"><tspan x="-33.503" y="0">첫차 - 08:15</tspan><tspan x="-33.446" y="16">막차 - 18:25</tspan></text>
    <text id="첫차_-_08:13_막차_-_18:23" data-name="첫차 - 08:13
막차 - 18:23" transform="translate(575.276 2090)" fill="#129ba9" font-size="13" font-family="Pretendard-Regular, Pretendard"><tspan x="-33.636" y="0">첫차 - 08:13</tspan><tspan x="-33.579" y="16">막차 - 18:23</tspan></text>
    <text id="첫차_-_08:10_막차_-_18:20" data-name="첫차 - 08:10
막차 - 18:20" transform="translate(752.007 2096)" fill="#129ba9" font-size="13" font-family="Pretendard-Regular, Pretendard"><tspan x="-33.497" y="0">첫차 - 08:10</tspan><tspan x="-33.439" y="16">막차 - 18:20</tspan></text>
    <text id="첫차_-_08:08_막차_-_18:18" data-name="첫차 - 08:08
막차 - 18:18" transform="translate(927.139 2090)" fill="#129ba9" font-size="13" font-family="Pretendard-Regular, Pretendard"><tspan x="-34.588" y="0">첫차 - 08:08</tspan><tspan x="-32.544" y="16">막차 - 18:18</tspan></text>
  </g>
</svg>
