<svg xmlns="http://www.w3.org/2000/svg" xmlns:xlink="http://www.w3.org/1999/xlink" width="52" height="52" viewBox="0 0 52 52">
  <defs>
    <clipPath id="clip-path">
      <rect id="사각형_1138" data-name="사각형 1138" width="52" height="52" transform="translate(-6.442 -3.471)" fill="none"/>
    </clipPath>
  </defs>
  <g id="icon4" transform="translate(6.442 2.471)">
    <g id="그룹_939" data-name="그룹 939" transform="translate(0 1)" clip-path="url(#clip-path)">
      <path id="패스_1244" data-name="패스 1244" d="M19.558,46.657a1.343,1.343,0,0,1-.953-.4L5.729,33.387A19.557,19.557,0,1,1,33.387,5.729a19.557,19.557,0,0,1,0,27.658L20.512,46.262a1.342,1.342,0,0,1-.953.4m0-43.96A16.861,16.861,0,0,0,7.635,31.48L19.558,43.4,31.48,31.48A16.861,16.861,0,0,0,19.558,2.7" transform="translate(0 0)" fill="#707070"/>
      <path id="패스_1245" data-name="패스 1245" d="M21.827,36.305a14.86,14.86,0,1,1,14.861-14.86,14.877,14.877,0,0,1-14.861,14.86m0-27.023A12.163,12.163,0,1,0,33.991,21.445,12.177,12.177,0,0,0,21.827,9.282" transform="translate(-2.269 -2.145)" fill="#707070"/>
      <path id="패스_1246" data-name="패스 1246" d="M27.077,32.791H22.955a1.349,1.349,0,0,1-1.349-1.349v-3.5H18.1a1.349,1.349,0,0,1-1.349-1.349V22.471A1.349,1.349,0,0,1,18.1,21.122h3.5v-3.5a1.349,1.349,0,0,1,1.349-1.349h4.122a1.349,1.349,0,0,1,1.349,1.349v3.5h3.5a1.349,1.349,0,0,1,1.349,1.349v4.122a1.349,1.349,0,0,1-1.349,1.349h-3.5v3.5a1.348,1.348,0,0,1-1.349,1.349m-2.774-2.7h1.425v-3.5a1.349,1.349,0,0,1,1.349-1.349h3.5V23.819h-3.5a1.349,1.349,0,0,1-1.349-1.349v-3.5H24.3v3.5a1.348,1.348,0,0,1-1.349,1.349h-3.5v1.425h3.5A1.348,1.348,0,0,1,24.3,26.593Z" transform="translate(-5.458 -5.301)" fill="#129ba9"/>
    </g>
  </g>
</svg>
