<svg xmlns="http://www.w3.org/2000/svg" xmlns:xlink="http://www.w3.org/1999/xlink" width="52" height="52" viewBox="0 0 52 52">
  <defs>
    <clipPath id="clip-path">
      <rect id="사각형_1135" data-name="사각형 1135" width="52" height="52" transform="translate(-0.162 -4.701)" fill="none"/>
    </clipPath>
  </defs>
  <g id="icon1" transform="translate(0.162 4.701)">
    <g id="그룹_933" data-name="그룹 933" transform="translate(0 0)" clip-path="url(#clip-path)">
      <path id="패스_1226" data-name="패스 1226" d="M49.722,27.81a1.481,1.481,0,0,1-.562-.111l-3.081-1.253L43,27.7a1.5,1.5,0,0,1-1.126,0l-3.078-1.252L35.721,27.7a1.5,1.5,0,0,1-1.128,0L31.52,26.447,28.446,27.7a1.5,1.5,0,0,1-1.128,0l-3.075-1.252L21.169,27.7a1.5,1.5,0,0,1-1.128,0l-3.073-1.252L13.9,27.7a1.494,1.494,0,0,1-1.127,0L9.7,26.447,6.627,27.7a1.492,1.492,0,0,1-1.128,0L1.862,26.217A1.494,1.494,0,1,1,2.989,23.45L6.063,24.7,9.132,23.45a1.5,1.5,0,0,1,1.128,0L13.333,24.7,16.4,23.45a1.494,1.494,0,0,1,1.127,0L20.606,24.7l3.074-1.252a1.5,1.5,0,0,1,1.128,0L27.882,24.7l3.075-1.252a1.492,1.492,0,0,1,1.128,0L35.157,24.7l3.074-1.252a1.494,1.494,0,0,1,1.127,0L42.436,24.7l3.08-1.252a1.492,1.492,0,0,1,1.126,0l3.644,1.482a1.494,1.494,0,0,1-.564,2.877" transform="translate(-0.236 -5.91)" fill="#129ba9"/>
      <path id="패스_1227" data-name="패스 1227" d="M46.611,46.315H5.064A5.07,5.07,0,0,1,0,41.251V8.574A5.071,5.071,0,0,1,5.064,3.508H46.611a5.071,5.071,0,0,1,5.064,5.066V41.251a5.07,5.07,0,0,1-5.064,5.064M5.064,6.5A2.08,2.08,0,0,0,2.987,8.574V41.251a2.079,2.079,0,0,0,2.077,2.077H46.611a2.079,2.079,0,0,0,2.077-2.077V8.574A2.08,2.08,0,0,0,46.611,6.5Z" transform="translate(0 -0.888)" fill="#707070"/>
      <path id="패스_1228" data-name="패스 1228" d="M11.258,8.215A1.494,1.494,0,0,1,9.764,6.721V1.494a1.494,1.494,0,0,1,2.987,0V6.721a1.494,1.494,0,0,1-1.494,1.494" transform="translate(-2.472 0)" fill="#707070"/>
      <path id="패스_1229" data-name="패스 1229" d="M19.926,8.215a1.494,1.494,0,0,1-1.494-1.494V1.494a1.494,1.494,0,1,1,2.987,0V6.721a1.494,1.494,0,0,1-1.494,1.494" transform="translate(-4.667 0)" fill="#707070"/>
      <path id="패스_1230" data-name="패스 1230" d="M48.258,8.215a1.494,1.494,0,0,1-1.494-1.494V1.494a1.494,1.494,0,1,1,2.987,0V6.721a1.494,1.494,0,0,1-1.494,1.494" transform="translate(-11.84 0)" fill="#707070"/>
      <path id="패스_1231" data-name="패스 1231" d="M56.926,8.215a1.494,1.494,0,0,1-1.494-1.494V1.494a1.494,1.494,0,1,1,2.987,0V6.721a1.494,1.494,0,0,1-1.494,1.494" transform="translate(-14.035 0)" fill="#707070"/>
      <path id="패스_1232" data-name="패스 1232" d="M49.723,18.653H2.426a1.494,1.494,0,1,1,0-2.987h47.3a1.494,1.494,0,1,1,0,2.987" transform="translate(-0.236 -3.967)" fill="#707070"/>
    </g>
  </g>
</svg>
