<svg xmlns="http://www.w3.org/2000/svg" xmlns:xlink="http://www.w3.org/1999/xlink" width="52" height="52" viewBox="0 0 52 52">
  <defs>
    <clipPath id="clip-path">
      <rect id="사각형_1139" data-name="사각형 1139" width="52" height="52" transform="translate(-2.671 -2.671)" fill="none"/>
    </clipPath>
  </defs>
  <g id="icon5" transform="translate(2.671 2.47)">
    <g id="그룹_941" data-name="그룹 941" transform="translate(0 0.2)" clip-path="url(#clip-path)">
      <path id="패스_1247" data-name="패스 1247" d="M23.329,46.657A23.329,23.329,0,1,1,46.658,23.329,23.355,23.355,0,0,1,23.329,46.657m0-43.96A20.631,20.631,0,1,0,43.961,23.329,20.655,20.655,0,0,0,23.329,2.7" transform="translate(0 0)" fill="#707070"/>
      <path id="패스_1248" data-name="패스 1248" d="M24.438,28.461a5.819,5.819,0,0,1-5.812-5.813V18.7a1.349,1.349,0,0,1,2.7,0v3.945a3.115,3.115,0,1,0,6.231,0V18.7a1.349,1.349,0,1,1,2.7,0v3.945a5.819,5.819,0,0,1-5.813,5.813" transform="translate(-6.067 -5.653)" fill="#129ba9"/>
      <path id="패스_1249" data-name="패스 1249" d="M26.595,40.609a1.348,1.348,0,0,1-1.349-1.349V18.7a1.349,1.349,0,1,1,2.7,0V39.26a1.349,1.349,0,0,1-1.349,1.349" transform="translate(-8.224 -5.654)" fill="#129ba9"/>
      <path id="패스_1250" data-name="패스 1250" d="M45.513,40.4a1.348,1.348,0,0,1-1.349-1.349V33.2a6.343,6.343,0,0,1-4.983-6.187V23.687a6.339,6.339,0,0,1,6.332-6.332A1.349,1.349,0,0,1,46.862,18.7V39.052A1.349,1.349,0,0,1,45.513,40.4M44.164,20.312a3.641,3.641,0,0,0-2.286,3.375v3.322a3.639,3.639,0,0,0,2.286,3.375Z" transform="translate(-12.763 -5.653)" fill="#129ba9"/>
    </g>
  </g>
</svg>
