<svg xmlns="http://www.w3.org/2000/svg" xmlns:xlink="http://www.w3.org/1999/xlink" width="52" height="52" viewBox="0 0 52 52">
  <defs>
    <clipPath id="clip-path">
      <rect id="사각형_1137" data-name="사각형 1137" width="52" height="52" transform="translate(-2.671 -3.471)" fill="none"/>
    </clipPath>
  </defs>
  <g id="icon3" transform="translate(2.671 2.471)">
    <g id="그룹_937" data-name="그룹 937" transform="translate(0 1)" clip-path="url(#clip-path)">
      <path id="패스_1240" data-name="패스 1240" d="M23.467,46.657a23.467,23.467,0,0,1-3.7-46.64,1.348,1.348,0,0,1,1.348,2.057A17,17,0,0,0,44.585,25.541a1.349,1.349,0,0,1,2.056,1.349A23.344,23.344,0,0,1,23.467,46.657M17.408,3.316A20.774,20.774,0,1,0,43.342,29.25,19.7,19.7,0,0,1,17.408,3.316" transform="translate(0 0)" fill="#727171"/>
      <path id="패스_1241" data-name="패스 1241" d="M56.843,24.433H51.552a1.349,1.349,0,0,1,0-2.7h5.291a1.349,1.349,0,0,1,0,2.7" transform="translate(-16.353 -7.08)" fill="#36bfff"/>
      <path id="패스_1242" data-name="패스 1242" d="M55.476,26.409a1.349,1.349,0,0,1-1.349-1.349V17.419a1.349,1.349,0,0,1,2.7,0v7.642a1.348,1.348,0,0,1-1.349,1.349" transform="translate(-17.631 -5.235)" fill="#36bfff"/>
      <path id="패스_1243" data-name="패스 1243" d="M41.607,11.976a1.573,1.573,0,1,0-1.574,1.574,1.574,1.574,0,0,0,1.574-1.574" transform="translate(-12.528 -3.389)" fill="#36bfff"/>
    </g>
  </g>
</svg>
