<svg xmlns="http://www.w3.org/2000/svg" xmlns:xlink="http://www.w3.org/1999/xlink" width="52" height="52" viewBox="0 0 52 52">
  <defs>
    <clipPath id="clip-path">
      <rect id="사각형_1136" data-name="사각형 1136" width="52" height="52" transform="translate(0.537 -1.471)" fill="none"/>
    </clipPath>
  </defs>
  <g id="icon2" transform="translate(-0.537 2.47)">
    <g id="마스크_그룹_935" data-name="마스크 그룹 935" transform="translate(0 -1)" clip-path="url(#clip-path)">
      <path id="패스_1239" data-name="패스 1239" d="M27.771,44.388a3.241,3.241,0,0,1-3.082-4.242l.768-2.365L23.445,36.32a3.241,3.241,0,0,1,1.905-5.863h2.487l.769-2.366a3.24,3.24,0,0,1,6.162,0l.769,2.364h2.487a3.241,3.241,0,0,1,1.907,5.862l-2.013,1.463.769,2.364a3.234,3.234,0,0,1-1.177,3.624,3.292,3.292,0,0,1-3.808,0l-2.013-1.462-2.012,1.462a3.218,3.218,0,0,1-1.9.619M25.35,33.525a.173.173,0,0,0-.1.313l2.913,2.116a1.536,1.536,0,0,1,.558,1.716l-1.113,3.424a.172.172,0,0,0,.264.194l2.915-2.119a1.538,1.538,0,0,1,1.8,0L35.5,41.287a.142.142,0,0,0,.2,0,.175.175,0,0,0,.065-.2L34.655,37.67a1.536,1.536,0,0,1,.557-1.716l2.914-2.117a.173.173,0,0,0-.1-.312h-3.6a1.535,1.535,0,0,1-1.459-1.06L31.851,29.04a.18.18,0,0,0-.327,0l-1.114,3.426a1.533,1.533,0,0,1-1.459,1.06Z" transform="translate(-5.151 -6.023)" fill="#129ba9"/>
      <path id="패스_1423" data-name="패스 1423" d="M46.611,46.315H5.064A5.07,5.07,0,0,1,0,41.251V8.574A5.071,5.071,0,0,1,5.064,3.508H46.611a5.071,5.071,0,0,1,5.064,5.066V41.251a5.07,5.07,0,0,1-5.064,5.064M5.064,6.5A2.08,2.08,0,0,0,2.987,8.574V41.251a2.079,2.079,0,0,0,2.077,2.077H46.611a2.079,2.079,0,0,0,2.077-2.077V8.574A2.08,2.08,0,0,0,46.611,6.5Z" transform="translate(1.074 1.072)" fill="#707070"/>
      <path id="패스_1424" data-name="패스 1424" d="M11.258,8.215A1.494,1.494,0,0,1,9.764,6.721V1.494a1.494,1.494,0,0,1,2.987,0V6.721a1.494,1.494,0,0,1-1.494,1.494" transform="translate(-1.398 1.961)" fill="#707070"/>
      <path id="패스_1425" data-name="패스 1425" d="M19.926,8.215a1.494,1.494,0,0,1-1.494-1.494V1.494a1.494,1.494,0,1,1,2.987,0V6.721a1.494,1.494,0,0,1-1.494,1.494" transform="translate(-3.592 1.961)" fill="#707070"/>
      <path id="패스_1426" data-name="패스 1426" d="M48.258,8.215a1.494,1.494,0,0,1-1.494-1.494V1.494a1.494,1.494,0,1,1,2.987,0V6.721a1.494,1.494,0,0,1-1.494,1.494" transform="translate(-10.766 1.961)" fill="#707070"/>
      <path id="패스_1427" data-name="패스 1427" d="M56.926,8.215a1.494,1.494,0,0,1-1.494-1.494V1.494a1.494,1.494,0,1,1,2.987,0V6.721a1.494,1.494,0,0,1-1.494,1.494" transform="translate(-12.961 1.961)" fill="#707070"/>
      <path id="패스_1428" data-name="패스 1428" d="M49.723,18.653H2.426a1.494,1.494,0,1,1,0-2.987h47.3a1.494,1.494,0,1,1,0,2.987" transform="translate(0.838 -2.006)" fill="#707070"/>
    </g>
  </g>
</svg>
