<svg width="140" height="140" viewBox="0 0 140 140" fill="none" xmlns="http://www.w3.org/2000/svg">
<g clip-path="url(#clip0_19_359)">
<mask id="mask0_19_359" style="mask-type:luminance" maskUnits="userSpaceOnUse" x="0" y="0" width="140" height="140">
<path d="M140 0H0V140H140V0Z" fill="white"/>
</mask>
<g mask="url(#mask0_19_359)">
<path d="M60.6364 6.24385C63.6637 4.49599 67.0963 3.57212 70.592 3.56432C74.0876 3.55652 77.5243 4.46508 80.5594 6.19942L120.766 29.1739C123.841 30.9307 126.394 33.4724 128.165 36.5391C129.935 39.6058 130.86 43.0876 130.844 46.6287L130.637 92.9362C130.621 96.4317 129.689 99.8621 127.935 102.885C126.18 105.909 123.664 108.419 120.636 110.167L79.9107 133.68C76.8834 135.428 73.4508 136.352 69.9551 136.359C66.4595 136.367 63.0228 135.459 59.9877 133.724L19.7808 110.75C16.7062 108.993 14.1531 106.451 12.3826 103.385C10.612 100.318 9.68741 96.8362 9.70327 93.2951L9.91024 46.9876C9.926 43.492 10.8576 40.0617 12.6123 37.0384C14.367 34.0151 16.8834 31.5045 19.9107 29.7568L60.6364 6.24385Z" fill="white"/>
</g>
<path d="M87.2344 98.6H53.6818C51.1068 98.6 49 96.4932 49 93.9182V45.3839C49 42.8089 51.1068 40.7021 53.6818 40.7021H87.2344C89.8094 40.7021 91.9162 42.8089 91.9162 45.3839V93.9182C91.9162 96.4932 89.8094 98.6 87.2344 98.6Z" fill="#BEEAF8" stroke="#3A4851" stroke-width="1.5" stroke-miterlimit="10" stroke-linecap="round" stroke-linejoin="round"/>
<path d="M86.457 93.1632L86.457 46.1895L54.465 46.1895L54.465 93.1632H86.457Z" fill="white" stroke="#3A4851" stroke-width="1.5" stroke-miterlimit="10" stroke-linecap="round" stroke-linejoin="round"/>
<path d="M81.3814 40H59.5332V46.1643H81.3814V40Z" fill="white" stroke="#3A4851" stroke-width="1.5" stroke-miterlimit="10" stroke-linecap="round" stroke-linejoin="round"/>
<path d="M71.8135 53.0781V55.9648H74.7002V58.6787H71.8135V61.5654H69.0996V58.6787H66.2129V55.9648H69.0996V53.0781H71.8135Z" fill="#FE6D33" stroke="#3A4851" stroke-width="1.5"/>
<path d="M63.0437 65.4375H58.8301V69.6511H63.0437V65.4375Z" fill="white" stroke="#3A4851" stroke-width="1.5" stroke-miterlimit="10" stroke-linecap="round" stroke-linejoin="round"/>
<path d="M67.3359 67.5439H82.0835" stroke="#3A4851" stroke-width="1.5" stroke-miterlimit="10" stroke-linecap="round" stroke-linejoin="round"/>
<path d="M63.0437 73.709H58.8301V77.9226H63.0437V73.709Z" fill="white" stroke="#3A4851" stroke-width="1.5" stroke-miterlimit="10" stroke-linecap="round" stroke-linejoin="round"/>
<path d="M67.3359 75.8154H82.0835" stroke="#3A4851" stroke-width="1.5" stroke-miterlimit="10" stroke-linecap="round" stroke-linejoin="round"/>
<path d="M63.0437 81.9795H58.8301V86.1931H63.0437V81.9795Z" fill="white" stroke="#3A4851" stroke-width="1.5" stroke-miterlimit="10" stroke-linecap="round" stroke-linejoin="round"/>
<path d="M67.3359 84.0869H82.0835" stroke="#3A4851" stroke-width="1.5" stroke-miterlimit="10" stroke-linecap="round" stroke-linejoin="round"/>
<path d="M101.781 65.7553L98.084 62.0586L78.7177 81.4249L82.4144 85.1216L101.781 65.7553Z" fill="#FE6D33" stroke="#3A4851" stroke-width="1.5" stroke-miterlimit="10" stroke-linecap="round" stroke-linejoin="round"/>
<path d="M75.0605 88.7684L78.7279 81.4336L82.3953 85.101L75.0605 88.7684Z" fill="white" stroke="#3A4851" stroke-width="1.5" stroke-miterlimit="10" stroke-linecap="round" stroke-linejoin="round"/>
</g>
<defs>
<clipPath id="clip0_19_359">
<rect width="140" height="140" fill="white"/>
</clipPath>
</defs>
</svg>
