<svg width="120" height="120" viewBox="0 0 120 120" fill="none" xmlns="http://www.w3.org/2000/svg">
<path d="M0 60C0 26.8629 26.8629 0 60 0V0C93.1371 0 120 26.8629 120 60V60C120 93.1371 93.1371 120 60 120V120C26.8629 120 0 93.1371 0 60V60Z" fill="#F4F5F9"/>
<path d="M87.6714 49.6572H31.9863C30.8904 49.6572 30 48.7668 30 47.6709V41.164C30 40.0681 30.8904 39.1777 31.9863 39.1777H87.6714C88.7673 39.1777 89.6577 40.0681 89.6577 41.164V47.6709C89.7262 48.7668 88.7673 49.6572 87.6714 49.6572Z" fill="#BEEAF8" stroke="#3A4851" stroke-width="1.5" stroke-miterlimit="10" stroke-linecap="round" stroke-linejoin="round"/>
<path d="M31.8496 74.7268V49.6582H87.8771V81.7131C87.8771 83.5624 86.3703 85.0008 84.5895 85.0008H35.1373C33.288 85.0008 31.8496 83.4939 31.8496 81.7131V78.4939" fill="white"/>
<path d="M31.8496 74.7268V49.6582H87.8771V81.7131C87.8771 83.5624 86.3703 85.0008 84.5895 85.0008H35.1373C33.288 85.0008 31.8496 83.4939 31.8496 81.7131V78.4939" stroke="#3A4851" stroke-width="1.5" stroke-miterlimit="10" stroke-linecap="round" stroke-linejoin="round"/>
<path d="M37.7401 45.2055H37.6031C36.6442 45.2055 35.8223 44.4521 35.8223 43.4247V36.7808C35.8223 35.8219 36.5757 35 37.6031 35H37.7401C38.699 35 39.5209 35.7534 39.5209 36.7808V43.4932C39.5209 44.3836 38.699 45.2055 37.7401 45.2055Z" fill="white" stroke="#3A4851" stroke-width="1.5" stroke-miterlimit="10" stroke-linecap="round" stroke-linejoin="round"/>
<path d="M48.8358 45.2055H48.6988C47.7399 45.2055 46.918 44.4521 46.918 43.4247V36.7808C46.918 35.8219 47.6714 35 48.6988 35H48.8358C49.7947 35 50.6166 35.7534 50.6166 36.7808V43.4932C50.6166 44.3836 49.7947 45.2055 48.8358 45.2055Z" fill="white" stroke="#3A4851" stroke-width="1.5" stroke-miterlimit="10" stroke-linecap="round" stroke-linejoin="round"/>
<path d="M59.9315 45.2055H59.7945C58.8356 45.2055 58.0137 44.4521 58.0137 43.4247V36.7808C58.0137 35.8219 58.7671 35 59.7945 35H59.9315C60.8904 35 61.7123 35.7534 61.7123 36.7808V43.4932C61.6438 44.3836 60.8904 45.2055 59.9315 45.2055Z" fill="white" stroke="#3A4851" stroke-width="1.5" stroke-miterlimit="10" stroke-linecap="round" stroke-linejoin="round"/>
<path d="M70.9588 45.2055H70.8218C69.8629 45.2055 69.041 44.4521 69.041 43.4247V36.7808C69.041 35.8219 69.7944 35 70.8218 35H70.9588C71.9177 35 72.7397 35.7534 72.7397 36.7808V43.4932C72.7397 44.3836 71.9862 45.2055 70.9588 45.2055Z" fill="white" stroke="#3A4851" stroke-width="1.5" stroke-miterlimit="10" stroke-linecap="round" stroke-linejoin="round"/>
<path d="M82.0545 45.2055H81.9175C80.9586 45.2055 80.1367 44.4521 80.1367 43.4247V36.7808C80.1367 35.8219 80.8901 35 81.9175 35H82.0545C83.0134 35 83.8354 35.7534 83.8354 36.7808V43.4932C83.8354 44.3836 83.0134 45.2055 82.0545 45.2055Z" fill="white" stroke="#3A4851" stroke-width="1.5" stroke-miterlimit="10" stroke-linecap="round" stroke-linejoin="round"/>
<path d="M40.6859 61.507H38.0147C37.1927 61.507 36.5078 60.8221 36.5078 60.0002V56.918C36.5078 56.0961 37.1927 55.4111 38.0147 55.4111H40.6859C41.5078 55.4111 42.1928 56.0961 42.1928 56.918V60.0687C42.1928 60.8221 41.5078 61.507 40.6859 61.507Z" fill="white" stroke="#3A4851" stroke-width="1.5" stroke-miterlimit="10" stroke-linecap="round" stroke-linejoin="round"/>
<path d="M50.9593 61.507H48.2881C47.4662 61.507 46.7812 60.8221 46.7812 60.0002V56.918C46.7812 56.0961 47.4662 55.4111 48.2881 55.4111H50.9593C51.7813 55.4111 52.4662 56.0961 52.4662 56.918V60.0687C52.3977 60.8221 51.7813 61.507 50.9593 61.507Z" fill="white" stroke="#3A4851" stroke-width="1.5" stroke-miterlimit="10" stroke-linecap="round" stroke-linejoin="round"/>
<path d="M61.1644 61.507H58.4932C57.6713 61.507 56.9863 60.8221 56.9863 60.0002V56.918C56.9863 56.0961 57.6713 55.4111 58.4932 55.4111H61.1644C61.9863 55.4111 62.6713 56.0961 62.6713 56.918V60.0687C62.6713 60.8221 61.9863 61.507 61.1644 61.507Z" stroke="#3A4851" stroke-width="1.5" stroke-miterlimit="10" stroke-linecap="round" stroke-linejoin="round"/>
<path d="M71.4379 61.507H68.7666C67.9447 61.507 67.2598 60.8221 67.2598 60.0002V56.918C67.2598 56.0961 67.9447 55.4111 68.7666 55.4111H71.4379C72.2598 55.4111 72.9447 56.0961 72.9447 56.918V60.0687C72.9447 60.8221 72.2598 61.507 71.4379 61.507Z" fill="white" stroke="#3A4851" stroke-width="1.5" stroke-miterlimit="10" stroke-linecap="round" stroke-linejoin="round"/>
<path d="M81.7132 61.507H79.042C78.2201 61.507 77.5352 60.8221 77.5352 60.0002V56.918C77.5352 56.0961 78.2201 55.4111 79.042 55.4111H81.7132C82.5352 55.4111 83.2201 56.0961 83.2201 56.918V60.0687C83.1516 60.8221 82.5352 61.507 81.7132 61.507Z" fill="#FE6D33" stroke="#3A4851" stroke-width="1.5" stroke-miterlimit="10" stroke-linecap="round" stroke-linejoin="round"/>
<path d="M40.6859 73.3558H38.0147C37.1927 73.3558 36.5078 72.6709 36.5078 71.849V68.6983C36.5078 67.8763 37.1927 67.1914 38.0147 67.1914H40.6859C41.5078 67.1914 42.1928 67.8763 42.1928 68.6983V71.849C42.1928 72.6709 41.5078 73.3558 40.6859 73.3558Z" stroke="#3A4851" stroke-width="1.5" stroke-miterlimit="10" stroke-linecap="round" stroke-linejoin="round"/>
<path d="M50.9593 73.3558H48.2881C47.4662 73.3558 46.7812 72.6709 46.7812 71.849V68.6983C46.7812 67.8763 47.4662 67.1914 48.2881 67.1914H50.9593C51.7813 67.1914 52.4662 67.8763 52.4662 68.6983V71.849C52.3977 72.6709 51.7813 73.3558 50.9593 73.3558Z" fill="white" stroke="#3A4851" stroke-width="1.5" stroke-miterlimit="10" stroke-linecap="round" stroke-linejoin="round"/>
<path d="M61.1644 73.3558H58.4932C57.6713 73.3558 56.9863 72.6709 56.9863 71.849V68.6983C56.9863 67.8763 57.6713 67.1914 58.4932 67.1914H61.1644C61.9863 67.1914 62.6713 67.8763 62.6713 68.6983V71.849C62.6713 72.6709 61.9863 73.3558 61.1644 73.3558Z" fill="white" stroke="#3A4851" stroke-width="1.5" stroke-miterlimit="10" stroke-linecap="round" stroke-linejoin="round"/>
<path d="M71.4379 73.3558H68.7666C67.9447 73.3558 67.2598 72.6709 67.2598 71.849V68.6983C67.2598 67.8763 67.9447 67.1914 68.7666 67.1914H71.4379C72.2598 67.1914 72.9447 67.8763 72.9447 68.6983V71.849C72.9447 72.6709 72.2598 73.3558 71.4379 73.3558Z" stroke="#3A4851" stroke-width="1.5" stroke-miterlimit="10" stroke-linecap="round" stroke-linejoin="round"/>
<path d="M81.7132 73.3558H79.042C78.2201 73.3558 77.5352 72.6709 77.5352 71.849V68.6983C77.5352 67.8763 78.2201 67.1914 79.042 67.1914H81.7132C82.5352 67.1914 83.2201 67.8763 83.2201 68.6983V71.849C83.1516 72.6709 82.5352 73.3558 81.7132 73.3558Z" fill="#FE6D33" stroke="#3A4851" stroke-width="1.5" stroke-miterlimit="10" stroke-linecap="round" stroke-linejoin="round"/>
</svg>
