<svg width="120" height="120" viewBox="0 0 120 120" fill="none" xmlns="http://www.w3.org/2000/svg">
<path d="M0 60C0 26.8629 26.8629 0 60 0V0C93.1371 0 120 26.8629 120 60V60C120 93.1371 93.1371 120 60 120V120C26.8629 120 0 93.1371 0 60V60Z" fill="#F4F5F9"/>
<path d="M78.3943 51.8974C78.3943 62.3696 59.497 86.7 59.497 86.7C59.497 86.7 40.5996 62.3696 40.5996 51.8974C40.5996 41.4251 49.1034 33 59.497 33C69.8905 33 78.3943 41.5038 78.3943 51.8974Z" fill="white" stroke="#3A4851" stroke-width="1.5" stroke-miterlimit="10" stroke-linecap="round" stroke-linejoin="round"/>
<path d="M68.3933 48.4331H62.6453V42.6064H56.2675V48.4331H50.5195V54.7323H56.2675V60.4802H62.6453V54.7323H68.3933V48.4331Z" fill="#FE6D33" stroke="#3A4851" stroke-width="1.5" stroke-miterlimit="10" stroke-linecap="round" stroke-linejoin="round"/>
</svg>
