<svg xmlns="http://www.w3.org/2000/svg" width="20" height="20" viewBox="0 0 20 20">
  <g id="ico_cal_off" transform="translate(-1361.638 -1033)">
    <path id="패스_164" data-name="패스 164" d="M16.686,1.942V.878a.866.866,0,1,0-1.732,0l-.011,2.027a.866.866,0,1,1-1.732,0V1.942H5.046V.878a.866.866,0,1,0-1.733,0L3.3,2.905a.866.866,0,1,1-1.733,0V1.942H0V16.6A3.377,3.377,0,0,0,3.35,20h13.3A3.378,3.378,0,0,0,20,16.6V1.942ZM18.134,16.6a1.5,1.5,0,0,1-1.484,1.5H3.35a1.5,1.5,0,0,1-1.484-1.5V6.266H18.134Z" transform="translate(1361.638 1033)" fill="#10a0b4"/>
    <rect id="사각형_181" data-name="사각형 181" width="2.88" height="2.88" transform="translate(1365.611 1040.978)" fill="#10a0b4"/>
    <rect id="사각형_182" data-name="사각형 182" width="2.88" height="2.88" transform="translate(1370.198 1040.978)" fill="#10a0b4"/>
    <rect id="사각형_183" data-name="사각형 183" width="2.88" height="2.88" transform="translate(1374.785 1040.978)" fill="#10a0b4"/>
    <rect id="사각형_184" data-name="사각형 184" width="2.88" height="2.88" transform="translate(1370.198 1045.504)" fill="#10a0b4"/>
    <rect id="사각형_185" data-name="사각형 185" width="2.88" height="2.88" transform="translate(1374.785 1045.504)" fill="#10a0b4"/>
    <path id="패스_165" data-name="패스 165" d="M14.684,40.9H13.671V42.22H12.349v1.013h1.322v1.322h1.013V43.233h1.322V42.22H14.684Z" transform="translate(1352.884 1004.21)" fill="#10a0b4"/>
  </g>
</svg>
