<svg width="140" height="140" viewBox="0 0 140 140" fill="none" xmlns="http://www.w3.org/2000/svg">
<g clip-path="url(#clip0_19_565)">
<mask id="mask0_19_565" style="mask-type:luminance" maskUnits="userSpaceOnUse" x="0" y="0" width="140" height="140">
<path d="M140 0H0V140H140V0Z" fill="white"/>
</mask>
<g mask="url(#mask0_19_565)">
<path d="M60.6364 6.24385C63.6637 4.49599 67.0963 3.57212 70.592 3.56432C74.0876 3.55652 77.5243 4.46508 80.5594 6.19942L120.766 29.1739C123.841 30.9307 126.394 33.4724 128.165 36.5391C129.935 39.6058 130.86 43.0876 130.844 46.6287L130.637 92.9362C130.621 96.4317 129.689 99.8621 127.935 102.885C126.18 105.909 123.664 108.419 120.636 110.167L79.9107 133.68C76.8834 135.428 73.4508 136.352 69.9551 136.359C66.4595 136.367 63.0228 135.459 59.9877 133.724L19.7808 110.75C16.7062 108.993 14.1531 106.451 12.3826 103.385C10.612 100.318 9.68741 96.8362 9.70327 93.2951L9.91024 46.9876C9.926 43.492 10.8576 40.0617 12.6123 37.0384C14.367 34.0151 16.8834 31.5045 19.9107 29.7568L60.6364 6.24385Z" fill="white"/>
</g>
<path d="M48.5371 40.8584V97.0684H92.3521V48.0804L85.1361 40.8584H48.5371Z" fill="white"/>
<mask id="mask1_19_565" style="mask-type:luminance" maskUnits="userSpaceOnUse" x="41" y="40" width="60" height="58">
<path d="M100.325 40.3535H41.8887V97.5725H100.325V40.3535Z" fill="white"/>
</mask>
<g mask="url(#mask1_19_565)">
<path d="M85.1361 40.8584H48.5371V97.0684H92.3521V48.0804L85.1361 40.8584Z" stroke="#3A4851" stroke-width="1.5" stroke-linecap="round" stroke-linejoin="round"/>
</g>
<path d="M85.1367 48.0805H92.3567L85.1367 40.8585V48.0805Z" fill="white"/>
<mask id="mask2_19_565" style="mask-type:luminance" maskUnits="userSpaceOnUse" x="41" y="40" width="60" height="58">
<path d="M100.325 40.3535H41.8887V97.5725H100.325V40.3535Z" fill="white"/>
</mask>
<g mask="url(#mask2_19_565)">
<path d="M85.1367 48.0805H92.3567L85.1367 40.8585V48.0805Z" stroke="#3A4851" stroke-width="1.5" stroke-linecap="round" stroke-linejoin="round"/>
</g>
<path d="M79.5957 70.9092L89.0237 80.3342" stroke="#3A4851" stroke-width="1.5" stroke-linecap="round" stroke-linejoin="round"/>
<mask id="mask3_19_565" style="mask-type:luminance" maskUnits="userSpaceOnUse" x="41" y="40" width="60" height="58">
<path d="M100.325 40.3535H41.8887V97.5725H100.325V40.3535Z" fill="white"/>
</mask>
<g mask="url(#mask3_19_565)">
<path d="M87.3155 82.042L77.8885 72.617C77.4461 72.1619 77.2006 71.5509 77.2051 70.9162C77.2097 70.2815 77.464 69.6741 77.9129 69.2254C78.3619 68.7767 78.9694 68.5228 79.6041 68.5186C80.2388 68.5144 80.8497 68.7603 81.3045 69.203L90.7315 78.628C91.1739 79.0831 91.4194 79.6941 91.4149 80.3288C91.4103 80.9635 91.156 81.5709 90.7071 82.0195C90.2582 82.4682 89.6506 82.7221 89.0159 82.7263C88.3812 82.7305 87.7703 82.4847 87.3155 82.042Z" fill="white"/>
<path d="M87.3155 82.042L77.8885 72.617C77.4461 72.1619 77.2006 71.5509 77.2051 70.9162C77.2097 70.2815 77.464 69.6741 77.9129 69.2254C78.3619 68.7767 78.9694 68.5228 79.6041 68.5186C80.2388 68.5144 80.8497 68.7603 81.3045 69.203L90.7315 78.628C91.1739 79.0831 91.4194 79.6941 91.4149 80.3288C91.4103 80.9635 91.156 81.5709 90.7071 82.0195C90.2582 82.4682 89.6506 82.7221 89.0159 82.7263C88.3812 82.7305 87.7703 82.4847 87.3155 82.042Z" stroke="#3A4851" stroke-width="1.5" stroke-linecap="round" stroke-linejoin="round"/>
<path d="M81.7109 78.7374L92.9209 89.9484C93.6792 90.7063 94.7074 91.1319 95.7795 91.1316C96.8516 91.1313 97.8796 90.7052 98.6374 89.9469C99.3953 89.1887 99.8209 88.1604 99.8206 87.0884C99.8203 86.0163 99.3942 84.9883 98.6359 84.2304L87.4259 73.0234L81.7109 78.7374Z" fill="#5BA7FB"/>
<path d="M81.7109 78.7374L92.9209 89.9484C93.6792 90.7063 94.7074 91.1319 95.7795 91.1316C96.8516 91.1313 97.8796 90.7052 98.6374 89.9469C99.3953 89.1887 99.8209 88.1604 99.8206 87.0884C99.8203 86.0163 99.3942 84.9883 98.6359 84.2304L87.4259 73.0234L81.7109 78.7374Z" stroke="#3A4851" stroke-width="1.5"/>
<path d="M80.6347 53.2406C82.4845 55.0904 83.7442 57.4472 84.2546 60.013C84.7649 62.5788 84.503 65.2383 83.5018 67.6552C82.5007 70.0721 80.8054 72.1378 78.6302 73.5912C76.455 75.0446 73.8977 75.8204 71.2817 75.8204C68.6657 75.8204 66.1084 75.0446 63.9332 73.5912C61.758 72.1378 60.0627 70.0721 59.0616 67.6552C58.0604 65.2383 57.7985 62.5788 58.3088 60.013C58.8192 57.4472 60.0789 55.0904 61.9287 53.2406C63.1567 52.0119 64.6148 51.0373 66.2196 50.3723C67.8245 49.7074 69.5446 49.3651 71.2817 49.3651C73.0188 49.3651 74.7389 49.7074 76.3438 50.3723C77.9486 51.0373 79.4066 52.0119 80.6347 53.2406Z" fill="white"/>
<path d="M80.6347 53.2406C82.4845 55.0904 83.7442 57.4472 84.2546 60.013C84.7649 62.5788 84.503 65.2383 83.5018 67.6552C82.5007 70.0721 80.8054 72.1378 78.6302 73.5912C76.455 75.0446 73.8977 75.8204 71.2817 75.8204C68.6657 75.8204 66.1084 75.0446 63.9332 73.5912C61.758 72.1378 60.0627 70.0721 59.0616 67.6552C58.0604 65.2383 57.7985 62.5788 58.3088 60.013C58.8192 57.4472 60.0789 55.0904 61.9287 53.2406C63.1567 52.0119 64.6148 51.0373 66.2196 50.3723C67.8245 49.7074 69.5446 49.3651 71.2817 49.3651C73.0188 49.3651 74.7389 49.7074 76.3438 50.3723C77.9486 51.0373 79.4066 52.0119 80.6347 53.2406Z" stroke="#3A4851" stroke-width="1.5" stroke-linecap="round" stroke-linejoin="round"/>
<path d="M71.2833 72.798C68.9206 72.7987 66.6307 71.9801 64.8039 70.4816C62.9772 68.9832 61.7265 66.8977 61.265 64.5805C60.8036 62.2632 61.1599 59.8577 62.2733 57.7737C63.3867 55.6898 65.1883 54.0564 67.3711 53.1519C69.5538 52.2474 71.9827 52.1278 74.2437 52.8134C76.5048 53.4991 78.4582 54.9475 79.7709 56.912C81.0837 58.8764 81.6747 61.2353 81.4432 63.5866C81.2117 65.938 80.172 68.1363 78.5013 69.807C77.5557 70.758 76.4308 71.5119 75.1918 72.0253C73.9529 72.5387 72.6244 72.8014 71.2833 72.798Z" fill="#BEEAF8"/>
<path d="M71.2833 72.798C68.9206 72.7987 66.6307 71.9801 64.8039 70.4816C62.9772 68.9832 61.7265 66.8977 61.265 64.5805C60.8036 62.2632 61.1599 59.8577 62.2733 57.7737C63.3867 55.6898 65.1883 54.0564 67.3711 53.1519C69.5538 52.2474 71.9827 52.1278 74.2437 52.8134C76.5048 53.4991 78.4582 54.9475 79.7709 56.912C81.0837 58.8764 81.6747 61.2353 81.4432 63.5866C81.2117 65.938 80.172 68.1363 78.5013 69.807C77.5557 70.758 76.4308 71.5119 75.1918 72.0253C73.9529 72.5387 72.6244 72.8014 71.2833 72.798Z" stroke="#3A4851" stroke-width="1.5" stroke-linecap="round" stroke-linejoin="round"/>
<path d="M49.5 78.2619L46.334 81.4279L50.075 85.1699L53.241 82.0039C53.4934 81.7598 53.6947 81.4678 53.8331 81.1451C53.9715 80.8224 54.0443 80.4754 54.0473 80.1242C54.0502 79.7731 53.9832 79.4249 53.8502 79.0999C53.7172 78.7749 53.5209 78.4796 53.2726 78.2313C53.0243 77.983 52.7291 77.7865 52.4042 77.6534C52.0792 77.5204 51.731 77.4533 51.3799 77.4561C51.0287 77.459 50.6817 77.5317 50.3589 77.67C50.0362 77.8084 49.7442 78.0096 49.5 78.2619Z" fill="#5BA7FB"/>
<path d="M49.5 78.2619L46.334 81.4279L50.075 85.1699L53.241 82.0039C53.4934 81.7598 53.6947 81.4678 53.8331 81.1451C53.9715 80.8224 54.0443 80.4754 54.0473 80.1242C54.0502 79.7731 53.9832 79.4249 53.8502 79.0999C53.7172 78.7749 53.5209 78.4796 53.2726 78.2313C53.0243 77.983 52.7291 77.7865 52.4042 77.6534C52.0792 77.5204 51.731 77.4533 51.3799 77.4561C51.0287 77.459 50.6817 77.5317 50.3589 77.67C50.0362 77.8084 49.7442 78.0096 49.5 78.2619Z" stroke="#3A4851" stroke-width="1.5"/>
<path d="M43.1677 84.5935C42.9153 84.8376 42.714 85.1295 42.5756 85.4523C42.4372 85.775 42.3644 86.122 42.3614 86.4731C42.3585 86.8243 42.4255 87.1725 42.5585 87.4975C42.6915 87.8225 42.8878 88.1177 43.1361 88.3661C43.3843 88.6144 43.6796 88.8108 44.0045 88.9439C44.3295 89.077 44.6777 89.1441 45.0288 89.1412C45.3799 89.1384 45.727 89.0657 46.0497 88.9273C46.3725 88.789 46.6645 88.5878 46.9087 88.3355L50.0747 85.1665L46.3337 81.4285L43.1677 84.5935Z" fill="white"/>
<path d="M43.1677 84.5935C42.9153 84.8376 42.714 85.1295 42.5756 85.4523C42.4372 85.775 42.3644 86.122 42.3614 86.4731C42.3585 86.8243 42.4255 87.1725 42.5585 87.4975C42.6915 87.8225 42.8878 88.1177 43.1361 88.3661C43.3843 88.6144 43.6796 88.8108 44.0045 88.9439C44.3295 89.077 44.6777 89.1441 45.0288 89.1412C45.3799 89.1384 45.727 89.0657 46.0497 88.9273C46.3725 88.789 46.6645 88.5878 46.9087 88.3355L50.0747 85.1665L46.3337 81.4285L43.1677 84.5935Z" stroke="#3A4851" stroke-width="1.5" stroke-linecap="round" stroke-linejoin="round"/>
<path d="M49.5 60.0998L46.334 63.2658L50.075 67.0078L53.241 63.8418C53.4934 63.5977 53.6947 63.3057 53.8331 62.983C53.9715 62.6603 54.0443 62.3133 54.0473 61.9621C54.0502 61.611 53.9832 61.2628 53.8502 60.9378C53.7172 60.6128 53.5209 60.3175 53.2726 60.0692C53.0243 59.8209 52.7291 59.6244 52.4042 59.4913C52.0792 59.3583 51.731 59.2912 51.3799 59.294C51.0287 59.2969 50.6817 59.3696 50.3589 59.5079C50.0362 59.6463 49.7442 59.8475 49.5 60.0998Z" fill="#5BA7FB"/>
<path d="M49.5 60.0998L46.334 63.2658L50.075 67.0078L53.241 63.8418C53.4934 63.5977 53.6947 63.3057 53.8331 62.983C53.9715 62.6603 54.0443 62.3133 54.0473 61.9621C54.0502 61.611 53.9832 61.2628 53.8502 60.9378C53.7172 60.6128 53.5209 60.3175 53.2726 60.0692C53.0243 59.8209 52.7291 59.6244 52.4042 59.4913C52.0792 59.3583 51.731 59.2912 51.3799 59.294C51.0287 59.2969 50.6817 59.3696 50.3589 59.5079C50.0362 59.6463 49.7442 59.8475 49.5 60.0998Z" stroke="#3A4851" stroke-width="1.5"/>
<path d="M43.1685 66.4306C42.6857 66.9295 42.4183 67.5981 42.4239 68.2922C42.4295 68.9864 42.7078 69.6506 43.1986 70.1415C43.6894 70.6325 44.3535 70.9109 45.0477 70.9167C45.7418 70.9225 46.4105 70.6553 46.9095 70.1726L50.0755 67.0036L46.3345 63.2656L43.1685 66.4306Z" fill="white"/>
<path d="M43.1685 66.4306C42.6857 66.9295 42.4183 67.5981 42.4239 68.2922C42.4295 68.9864 42.7078 69.6506 43.1986 70.1415C43.6894 70.6325 44.3535 70.9109 45.0477 70.9167C45.7418 70.9225 46.4105 70.6553 46.9095 70.1726L50.0755 67.0036L46.3345 63.2656L43.1685 66.4306Z" stroke="#3A4851" stroke-width="1.5" stroke-linecap="round" stroke-linejoin="round"/>
<path d="M68.4922 83.1758H71.5652" stroke="#3A4851" stroke-width="1.5" stroke-linecap="round" stroke-linejoin="round"/>
<path d="M68.4922 86.8623H71.5652" stroke="#3A4851" stroke-width="1.5" stroke-linecap="round" stroke-linejoin="round"/>
<path d="M68.4922 90.5479H78.3222" stroke="#3A4851" stroke-width="1.5" stroke-linecap="round" stroke-linejoin="round"/>
<path d="M52.8759 49.2295H44.1309V53.8445H52.8759V49.2295Z" fill="white"/>
<path d="M52.8759 49.2295H44.1309V53.8445H52.8759V49.2295Z" stroke="#3A4851" stroke-width="1.5" stroke-linecap="round" stroke-linejoin="round"/>
</g>
</g>
<defs>
<clipPath id="clip0_19_565">
<rect width="140" height="140" fill="white"/>
</clipPath>
</defs>
</svg>
