<svg xmlns="http://www.w3.org/2000/svg" width="70" height="70" viewBox="0 0 70 70">
  <g id="ico_dpt10" transform="translate(-30 -30)">
    <path id="패스_900" data-name="패스 900" d="M70,35A35,35,0,1,1,35,0,35,35,0,0,1,70,35" transform="translate(30 30)" fill="#f4f5f9"/>
    <g id="그룹_710" data-name="그룹 710" transform="translate(40.672 45.755)">
      <path id="패스_786" data-name="패스 786" d="M30.589,58.526H26.741V35.756c0-3.817-3.623-3.927-4.036-3.927V27.98c3.168,0,7.884,2.071,7.884,7.776Z" transform="translate(-7.956 -15.036)" fill="#fff"/>
      <path id="패스_787" data-name="패스 787" d="M30.589,58.526H26.741V35.756c0-3.817-3.623-3.927-4.036-3.927V27.98c3.168,0,7.884,2.071,7.884,7.776Z" transform="translate(-7.956 -15.036)" fill="none" stroke="#202020" stroke-linejoin="round" stroke-width="1.5"/>
      <path id="패스_788" data-name="패스 788" d="M19.987,27.52a10.9,10.9,0,0,0,1.049-1.5c2.624-4.544,1.533-10.085-2.435-12.376s-9.313-.465-11.936,4.079a10.363,10.363,0,0,0-1.416,5.618q.181,4.184,0,8.365a10.363,10.363,0,0,0,1.416,5.618C9.287,41.866,14.632,43.691,18.6,41.4s5.059-7.832,2.435-12.376a10.9,10.9,0,0,0-1.049-1.5" transform="translate(-5.239 -12.652)" fill="#ffd4dc"/>
      <path id="패스_789" data-name="패스 789" d="M19.987,27.52a10.9,10.9,0,0,0,1.049-1.5c2.624-4.544,1.533-10.085-2.435-12.376s-9.313-.465-11.936,4.079a10.363,10.363,0,0,0-1.416,5.618q.181,4.184,0,8.365a10.363,10.363,0,0,0,1.416,5.618C9.287,41.866,14.632,43.691,18.6,41.4s5.059-7.832,2.435-12.376A10.9,10.9,0,0,0,19.987,27.52Z" transform="translate(-5.239 -12.652)" fill="none" stroke="#202020" stroke-linejoin="round" stroke-width="1.5"/>
      <path id="패스_790" data-name="패스 790" d="M36.06,58.526h3.848V35.756c0-3.817,3.623-3.927,4.036-3.927V27.98c-3.169,0-7.884,2.071-7.884,7.776Z" transform="translate(-10.034 -15.036)" fill="#fff"/>
      <path id="패스_791" data-name="패스 791" d="M36.06,58.526h3.848V35.756c0-3.817,3.623-3.927,4.036-3.927V27.98c-3.169,0-7.884,2.071-7.884,7.776Z" transform="translate(-10.034 -15.036)" fill="none" stroke="#202020" stroke-linejoin="round" stroke-width="1.5"/>
      <path id="패스_792" data-name="패스 792" d="M44.941,27.52a10.9,10.9,0,0,1-1.049-1.5c-2.624-4.544-1.533-10.085,2.435-12.376s9.313-.465,11.937,4.079a10.369,10.369,0,0,1,1.415,5.618q-.181,4.184,0,8.365a10.369,10.369,0,0,1-1.415,5.618C55.64,41.866,50.3,43.691,46.327,41.4s-5.059-7.832-2.435-12.376a10.9,10.9,0,0,1,1.049-1.5" transform="translate(-11.03 -12.652)" fill="#ffd4dc"/>
      <path id="패스_793" data-name="패스 793" d="M44.941,27.52a10.9,10.9,0,0,1-1.049-1.5c-2.624-4.544-1.533-10.085,2.435-12.376s9.313-.465,11.937,4.079a10.369,10.369,0,0,1,1.415,5.618q-.181,4.184,0,8.365a10.369,10.369,0,0,1-1.415,5.618C55.64,41.866,50.3,43.691,46.327,41.4s-5.059-7.832-2.435-12.376A10.9,10.9,0,0,1,44.941,27.52Z" transform="translate(-11.03 -12.652)" fill="none" stroke="#202020" stroke-linejoin="round" stroke-width="1.5"/>
      <path id="패스_794" data-name="패스 794" d="M22.15,29.7s-2.764-.723-3-3.048" transform="translate(-7.403 -14.829)" fill="#fff"/>
      <path id="패스_795" data-name="패스 795" d="M22.15,29.7s-2.764-.723-3-3.048" transform="translate(-7.403 -14.829)" fill="none" stroke="#202020" stroke-linejoin="round" stroke-width="1.5"/>
      <path id="패스_796" data-name="패스 796" d="M22.15,30.259s-2.764.723-3,3.048" transform="translate(-7.403 -15.391)" fill="#fff"/>
      <path id="패스_797" data-name="패스 797" d="M22.15,30.259s-2.764.723-3,3.048" transform="translate(-7.403 -15.391)" fill="none" stroke="#202020" stroke-linejoin="round" stroke-width="1.5"/>
      <path id="패스_798" data-name="패스 798" d="M45.4,29.7s2.765-.723,3-3.048" transform="translate(-11.487 -14.829)" fill="#fff"/>
      <path id="패스_799" data-name="패스 799" d="M45.4,29.7s2.765-.723,3-3.048" transform="translate(-11.487 -14.829)" fill="none" stroke="#202020" stroke-linejoin="round" stroke-width="1.5"/>
      <path id="패스_800" data-name="패스 800" d="M45.4,30.259s2.765.723,3,3.048" transform="translate(-11.487 -15.391)" fill="#fff"/>
      <path id="패스_801" data-name="패스 801" d="M45.4,30.259s2.765.723,3,3.048" transform="translate(-11.487 -15.391)" fill="none" stroke="#202020" stroke-linejoin="round" stroke-width="1.5"/>
    </g>
  </g>
</svg>
