<svg xmlns="http://www.w3.org/2000/svg" xmlns:xlink="http://www.w3.org/1999/xlink" width="90" height="90" viewBox="0 0 90 90">
  <defs>
    <clipPath id="clip-path">
      <rect id="사각형_675" data-name="사각형 675" width="49.592" height="54.979" fill="none"/>
    </clipPath>
  </defs>
  <g id="ico_cont_223_7" transform="translate(-260 -3009)">
    <g id="타원_133" data-name="타원 133" transform="translate(260 3009)" fill="none" stroke="#f5f5f5" stroke-width="1">
      <circle cx="45" cy="45" r="45" stroke="none"/>
      <circle cx="45" cy="45" r="44.5" fill="none"/>
    </g>
    <g id="그룹_827" data-name="그룹 827" transform="translate(280.204 3026.511)">
      <g id="그룹_826" data-name="그룹 826" clip-path="url(#clip-path)">
        <path id="패스_1064" data-name="패스 1064" d="M50.455,54.979h-10.5A1.051,1.051,0,0,1,38.9,53.894c.006-.188.011-.38.012-.578h-.71a2.714,2.714,0,1,1,0-5.427h.229c-.134-.764-.3-1.545-.491-2.333l-.965.123a2.714,2.714,0,0,1-.7-5.383q-.471-1.208-1.023-2.415a2.739,2.739,0,0,1-.378.026h-1.4a2.714,2.714,0,0,1-1-5.235q-.236-.385-.465-.747c-.375-.589-.744-1.2-1.1-1.819l-1.282.165a2.714,2.714,0,0,1-1.248-5.252c-.351-.831-.678-1.674-.976-2.519H26.124a2.714,2.714,0,0,1-.249-5.417c-.163-.759-.305-1.523-.428-2.288H24.023a2.714,2.714,0,1,1,0-5.428h.9c-.026-.762-.032-1.522-.017-2.277h-.361a2.714,2.714,0,1,1,0-5.428h.807c.04-.272.082-.535.125-.789A1.051,1.051,0,0,1,26.517,0H37.233a1.05,1.05,0,0,1,1.016,1.316c-.735,2.817-2.591,12.859,4.4,23.84,7.971,12.526,8.972,23.417,8.859,28.794a1.051,1.051,0,0,1-1.051,1.028m-9.439-2.1h8.4c-.046-5.425-1.345-15.291-8.537-26.593A33.186,33.186,0,0,1,35.917,2.1h-8.5c-.036.252-.07.511-.1.775a1.05,1.05,0,0,1-1.241.9.644.644,0,0,0-.12-.013h-1.4a.613.613,0,1,0,0,1.225H25.9l.06,0a1.051,1.051,0,0,1,1.085,1.1,41.713,41.713,0,0,0,.04,4.39,1.051,1.051,0,0,1-1.435,1.041.6.6,0,0,0-.224-.045h-1.4a.613.613,0,1,0,0,1.225h1.4a.6.6,0,0,0,.327-.1,1.052,1.052,0,0,1,1.609.747,41.647,41.647,0,0,0,.853,4.528,1.051,1.051,0,0,1-1.02,1.3H26.124a.613.613,0,1,0,0,1.225h1.4a.593.593,0,0,0,.217-.045,1.051,1.051,0,0,1,1.374.652,42.563,42.563,0,0,0,1.723,4.381,1.05,1.05,0,0,1-.82,1.479l-.814.106a.613.613,0,0,0,.157,1.215l1.389-.179a.6.6,0,0,0,.2-.067,1.051,1.051,0,0,1,1.4.428c.46.832.944,1.649,1.439,2.427.43.676.865,1.4,1.33,2.214a1.051,1.051,0,0,1-.913,1.571h-.721a.612.612,0,1,0,0,1.225h1.4a.61.61,0,0,0,.34-.1,1.051,1.051,0,0,1,1.532.417,47.56,47.56,0,0,1,1.966,4.7,1.051,1.051,0,0,1-.857,1.394l-1.3.167a.614.614,0,0,0-.53.685.621.621,0,0,0,.685.53l1.39-.178a.652.652,0,0,0,.172-.057,1.051,1.051,0,0,1,1.449.682,39.062,39.062,0,0,1,.9,4.195c.025.165.047.322.068.48l.011.085a1.049,1.049,0,0,1-.259.844,1.06,1.06,0,0,1-.811.348l-.073,0H38.206a.612.612,0,1,0,0,1.225h1.4a.652.652,0,0,0,.13-.014A1.05,1.05,0,0,1,41,52.194q.011.348.015.684" transform="translate(-10.116)" fill="#333"/>
        <path id="패스_1065" data-name="패스 1065" d="M39.817,14.934H30.362a1.051,1.051,0,0,1,0-2.1h9.455a1.051,1.051,0,0,1,0,2.1" transform="translate(-13.915 -6.092)" fill="#231815"/>
        <path id="패스_1066" data-name="패스 1066" d="M40.483,29.734H31.028a1.051,1.051,0,1,1,0-2.1h9.455a1.051,1.051,0,1,1,0,2.1" transform="translate(-14.231 -13.118)" fill="#231815"/>
        <path id="패스_1067" data-name="패스 1067" d="M46.149,44.534H36.694a1.051,1.051,0,1,1,0-2.1h9.455a1.051,1.051,0,0,1,0,2.1" transform="translate(-16.92 -20.144)" fill="#231815"/>
        <path id="패스_1068" data-name="패스 1068" d="M53.866,59.333H43.36a1.051,1.051,0,0,1,0-2.1H53.866a1.051,1.051,0,0,1,0,2.1" transform="translate(-20.085 -27.169)" fill="#231815"/>
        <path id="패스_1069" data-name="패스 1069" d="M60.483,74.134H51.028a1.051,1.051,0,1,1,0-2.1h9.455a1.051,1.051,0,0,1,0,2.1" transform="translate(-23.725 -34.196)" fill="#231815"/>
        <path id="패스_1070" data-name="패스 1070" d="M64.816,88.933H55.361a1.051,1.051,0,1,1,0-2.1h9.455a1.051,1.051,0,1,1,0,2.1" transform="translate(-25.782 -41.221)" fill="#231815"/>
        <path id="패스_1071" data-name="패스 1071" d="M14.871,47.824,8.821,43.86,7.569,47.824.683,41.774,5.69,42.817l1.252-3.755Z" transform="translate(-0.324 -18.544)" fill="#a3daf7"/>
        <path id="패스_1072" data-name="패스 1072" d="M19.31,60.842,9.83,62.41l2.342,5L0,67.692l5.833-3.486-2.155-4.8Z" transform="translate(0 -28.203)" fill="#a3daf7"/>
        <path id="패스_1073" data-name="패스 1073" d="M66.146,33.8l8-5.315-4.186-3.6,10.988-5.244-3.892,5.57L80.993,28.7Z" transform="translate(-31.401 -9.323)" fill="#a3daf7"/>
      </g>
    </g>
  </g>
</svg>
