<svg xmlns="http://www.w3.org/2000/svg" xmlns:xlink="http://www.w3.org/1999/xlink" width="90" height="90" viewBox="0 0 90 90">
  <defs>
    <clipPath id="clip-path">
      <rect id="사각형_679" data-name="사각형 679" width="57.947" height="54.979" fill="#a3daf7"/>
    </clipPath>
  </defs>
  <g id="ico_cont_223_12" transform="translate(-260 -4411)">
    <g id="타원_138" data-name="타원 138" transform="translate(260 4411)" fill="none" stroke="#f5f5f5" stroke-width="1">
      <circle cx="45" cy="45" r="45" stroke="none"/>
      <circle cx="45" cy="45" r="44.5" fill="none"/>
    </g>
    <g id="그룹_839" data-name="그룹 839" transform="translate(272 4429.773)">
      <g id="그룹_838" data-name="그룹 838" clip-path="url(#clip-path)">
        <path id="패스_1105" data-name="패스 1105" d="M71.011,54.979h-10.2a1.007,1.007,0,0,1-.734-.32,1.071,1.071,0,0,1-.287-.765c.006-.188.01-.38.011-.578h-.689a2.715,2.715,0,0,1,0-5.427h.222c-.13-.764-.289-1.545-.477-2.333l-.937.123a2.665,2.665,0,0,1-2.949-2.347,2.7,2.7,0,0,1,2.27-3.036q-.458-1.208-.994-2.415a2.585,2.585,0,0,1-.367.026h-1.36a2.679,2.679,0,0,1-2.636-2.714,2.718,2.718,0,0,1,1.662-2.522q-.229-.385-.452-.747c-.364-.589-.723-1.2-1.069-1.819l-1.245.165a2.658,2.658,0,0,1-2.951-2.345,2.725,2.725,0,0,1,1.739-2.907c-.341-.831-.658-1.674-.948-2.519H47.377a2.719,2.719,0,0,1-.242-5.417c-.158-.759-.3-1.523-.415-2.288H45.336a2.715,2.715,0,0,1,0-5.428h.878c-.025-.762-.031-1.522-.017-2.277h-.351A2.68,2.68,0,0,1,43.21,4.377a2.679,2.679,0,0,1,2.636-2.714h.784c.039-.272.08-.535.121-.789A1.03,1.03,0,0,1,47.759,0H58.168a1.011,1.011,0,0,1,.808.408,1.074,1.074,0,0,1,.18.908,31.439,31.439,0,0,0,4.271,23.84c7.742,12.526,8.715,23.417,8.606,28.794a1.036,1.036,0,0,1-1.02,1.029m-9.169-2.1H70c-.044-5.425-1.306-15.291-8.293-26.593A34.011,34.011,0,0,1,56.89,2.1H48.631c-.035.252-.068.511-.1.775a1.056,1.056,0,0,1-.413.72.992.992,0,0,1-.793.181.608.608,0,0,0-.117-.013h-1.36a.613.613,0,0,0,0,1.225h1.31l.059,0a1.011,1.011,0,0,1,.76.311,1.065,1.065,0,0,1,.294.785,42.939,42.939,0,0,0,.039,4.39,1.062,1.062,0,0,1-.419.915,1,1,0,0,1-.975.127.569.569,0,0,0-.217-.045h-1.36a.613.613,0,0,0,0,1.225H46.7a.568.568,0,0,0,.318-.1A1,1,0,0,1,48,12.527a1.049,1.049,0,0,1,.582.815,42.748,42.748,0,0,0,.829,4.528,1.076,1.076,0,0,1-.188.9,1.01,1.01,0,0,1-.8.4H47.377a.613.613,0,0,0,0,1.225h1.36a.562.562,0,0,0,.211-.045,1,1,0,0,1,.8.032,1.044,1.044,0,0,1,.532.62,43.32,43.32,0,0,0,1.674,4.381,1.078,1.078,0,0,1-.035.947,1.021,1.021,0,0,1-.762.532l-.791.106a.61.61,0,0,0-.514.685.6.6,0,0,0,.666.53l1.35-.179a.571.571,0,0,0,.19-.067,1.006,1.006,0,0,1,1.358.428c.446.832.917,1.649,1.4,2.427.418.676.84,1.4,1.292,2.214a1.078,1.078,0,0,1,0,1.048,1.015,1.015,0,0,1-.883.523h-.7a.613.613,0,0,0,0,1.225h1.36a.581.581,0,0,0,.331-.1,1,1,0,0,1,.836-.141,1.028,1.028,0,0,1,.652.558,48.345,48.345,0,0,1,1.91,4.7,1.08,1.08,0,0,1-.092.9,1.02,1.02,0,0,1-.74.492l-1.265.167a.612.612,0,0,0,.151,1.215l1.351-.178a.621.621,0,0,0,.167-.057.991.991,0,0,1,.857.006,1.042,1.042,0,0,1,.551.677,40.065,40.065,0,0,1,.871,4.195c.024.165.045.322.066.48l.011.085a1.069,1.069,0,0,1-.252.844,1.016,1.016,0,0,1-.788.348l-.071,0H59.113a.613.613,0,0,0,0,1.225h1.36A.616.616,0,0,0,60.6,51.2a1,1,0,0,1,.838.2,1.065,1.065,0,0,1,.39.791q.011.348.015.684" transform="translate(-20.913)" fill="#333"/>
        <path id="패스_1106" data-name="패스 1106" d="M60.906,14.934H51.721a1.051,1.051,0,0,1,0-2.1h9.184a1.051,1.051,0,0,1,0,2.1" transform="translate(-24.831 -6.092)" fill="#231815"/>
        <path id="패스_1107" data-name="패스 1107" d="M61.572,29.734H52.387a1.051,1.051,0,0,1,0-2.1h9.184a1.051,1.051,0,0,1,0,2.1" transform="translate(-25.157 -13.118)" fill="#231815"/>
        <path id="패스_1108" data-name="패스 1108" d="M67.238,44.534H58.053a1.051,1.051,0,0,1,0-2.1h9.184a1.051,1.051,0,0,1,0,2.1" transform="translate(-27.932 -20.144)" fill="#231815"/>
        <path id="패스_1109" data-name="패스 1109" d="M74.925,59.333H64.719a1.051,1.051,0,0,1,0-2.1H74.925a1.051,1.051,0,0,1,0,2.1" transform="translate(-31.197 -27.169)" fill="#231815"/>
        <path id="패스_1110" data-name="패스 1110" d="M81.572,74.134H72.387a1.051,1.051,0,0,1,0-2.1h9.184a1.051,1.051,0,0,1,0,2.1" transform="translate(-34.952 -34.196)" fill="#231815"/>
        <path id="패스_1111" data-name="패스 1111" d="M85.9,88.933H76.72a1.051,1.051,0,0,1,0-2.1H85.9a1.051,1.051,0,0,1,0,2.1" transform="translate(-37.075 -41.221)" fill="#231815"/>
        <path id="패스_1112" data-name="패스 1112" d="M112.344,53.861h-1.276v-2.1h1.276Zm0-4.2h-1.276v-2.1h1.276Zm0-4.2h-1.276v-2.1h1.276Zm0-4.2h-1.276v-2.1h1.276Zm0-4.2h-1.276v-2.1h1.276Zm0-4.2h-1.276v-2.1h1.276Zm0-4.2h-1.276v-2.1h1.276Zm0-4.2h-1.276v-2.1h1.276Zm0-4.2h-1.276v-2.1h1.276Zm0-4.2h-1.276v-2.1h1.276Zm0-4.2h-1.276v-2.1h1.276Zm0-4.2h-1.276v-2.1h1.276Zm0-4.2h-1.276v-2.1h1.276Z" transform="translate(-54.396 -0.633)" fill="#8ad8f0"/>
        <path id="패스_1113" data-name="패스 1113" d="M6.241,50.1a.878.878,0,0,1-.646-.285A20.455,20.455,0,0,1,.134,33.546,19.94,19.94,0,0,1,6.557,21.174a.875.875,0,0,1,1.26.079.938.938,0,0,1-.077,1.3A17.843,17.843,0,0,0,1.907,33.769a18.587,18.587,0,0,0,4.98,14.776.939.939,0,0,1-.03,1.3.876.876,0,0,1-.616.254" transform="translate(0 -9.942)" fill="#a3daf7"/>
        <path id="패스_1114" data-name="패스 1114" d="M17.1,50.377a.877.877,0,0,1-.625-.262A14.785,14.785,0,0,1,12.14,37.947a14.437,14.437,0,0,1,4.834-9.124.875.875,0,0,1,1.259.1.938.938,0,0,1-.1,1.3,12.584,12.584,0,0,0-4.223,7.95A12.926,12.926,0,0,0,17.725,48.8a.939.939,0,0,1,.014,1.3.879.879,0,0,1-.638.276" transform="translate(-5.897 -13.578)" fill="#a3daf7"/>
        <path id="패스_1115" data-name="패스 1115" d="M27.363,50.631a.875.875,0,0,1-.575-.216,9.56,9.56,0,0,1-3.337-8.309,9.23,9.23,0,0,1,3.367-6.064.875.875,0,0,1,1.255.147.938.938,0,0,1-.143,1.292,7.389,7.389,0,0,0-2.705,4.847,7.7,7.7,0,0,0,2.714,6.681.939.939,0,0,1,.108,1.3.882.882,0,0,1-.684.327" transform="translate(-11.455 -17.015)" fill="#a3daf7"/>
      </g>
    </g>
  </g>
</svg>
