<svg xmlns="http://www.w3.org/2000/svg" width="70" height="70" viewBox="0 0 70 70">
  <g id="ico_dpt15" transform="translate(-29.999 -30)">
    <path id="패스_963" data-name="패스 963" d="M70.265,35.534a35,35,0,1,1-35-35,35,35,0,0,1,35,35" transform="translate(29.734 29.466)" fill="#f4f5f9"/>
    <g id="그룹_606" data-name="그룹 606" transform="translate(39.283 45.026)">
      <g id="그룹_617" data-name="그룹 617">
        <path id="패스_734" data-name="패스 734" d="M.75,25.965V31.59c0,9.231,11.514,16.71,25.717,16.71s25.717-7.479,25.717-16.71V25.965Z" transform="translate(-0.75 -8.353)" fill="#e5e5e5"/>
        <path id="패스_735" data-name="패스 735" d="M.75,25.965V31.59c0,9.231,11.514,16.71,25.717,16.71s25.717-7.479,25.717-16.71V25.965Z" transform="translate(-0.75 -8.353)" fill="none" stroke="#202020" stroke-miterlimit="10" stroke-width="1.5"/>
        <path id="패스_736" data-name="패스 736" d="M52.184,17.459c0,9.228-11.514,16.709-25.717,16.709S.75,26.687.75,17.459,12.264.75,26.467.75,52.184,8.231,52.184,17.459" transform="translate(-0.75 -0.75)" fill="#fff" stroke="#333" stroke-width="1"/>
        <path id="패스_737" data-name="패스 737" d="M52.184,17.459c0,9.228-11.514,16.709-25.717,16.709S.75,26.687.75,17.459,12.264.75,26.467.75,52.184,8.231,52.184,17.459Z" transform="translate(-0.75 -0.75)" fill="none" stroke="#202020" stroke-miterlimit="10" stroke-width="1.5"/>
        <path id="패스_738" data-name="패스 738" d="M32.19,3.487a35.375,35.375,0,0,1,3.756-.2c8.719,0,16.3,3.154,20.2,7.8" transform="translate(-10.23 -1.516)" fill="#fff"/>
        <path id="패스_739" data-name="패스 739" d="M32.19,3.487a35.375,35.375,0,0,1,3.756-.2c8.719,0,16.3,3.154,20.2,7.8" transform="translate(-10.23 -1.516)" fill="none" stroke="#202020" stroke-miterlimit="10" stroke-width="1.5"/>
        <path id="패스_740" data-name="패스 740" d="M22.366,5.183a30.566,30.566,0,0,1,3.327-.918q.73-.158,1.481-.286" transform="translate(-7.268 -1.723)" fill="#fff"/>
        <path id="패스_741" data-name="패스 741" d="M22.366,5.183a30.566,30.566,0,0,1,3.327-.918q.73-.158,1.481-.286" transform="translate(-7.268 -1.723)" fill="none" stroke="#202020" stroke-miterlimit="10" stroke-width="1.5"/>
        <path id="패스_742" data-name="패스 742" d="M4.658,19.755c0-4.564,3.151-8.65,8.116-11.389" transform="translate(-1.928 -3.047)" fill="#fff" stroke="#333" stroke-width="1"/>
        <path id="패스_743" data-name="패스 743" d="M4.658,19.755c0-4.564,3.151-8.65,8.116-11.389" transform="translate(-1.928 -3.047)" fill="none" stroke="#202020" stroke-miterlimit="10" stroke-width="1.5"/>
        <path id="패스_744" data-name="패스 744" d="M43.044,10.753c-4.516,0-8.176,2.378-8.176,5.313a3.458,3.458,0,0,0,.04.512c-2.335.4-4.06,1.775-4.06,3.417,0,1.954,2.437,3.537,5.443,3.537,2.316,0,4.289-.942,5.075-2.267a12.4,12.4,0,0,0,1.678.113c4.516,0,8.176-2.378,8.176-5.313s-3.661-5.313-8.176-5.313" transform="translate(-9.826 -3.766)" fill="#ebaf34"/>
        <path id="패스_745" data-name="패스 745" d="M43.044,10.753c-4.516,0-8.176,2.378-8.176,5.313a3.458,3.458,0,0,0,.04.512c-2.335.4-4.06,1.775-4.06,3.417,0,1.954,2.437,3.537,5.443,3.537,2.316,0,4.289-.942,5.075-2.267a12.4,12.4,0,0,0,1.678.113c4.516,0,8.176-2.378,8.176-5.313S47.56,10.753,43.044,10.753Z" transform="translate(-9.826 -3.766)" fill="none" stroke="#202020" stroke-miterlimit="10" stroke-width="1.5"/>
        <path id="패스_746" data-name="패스 746" d="M35.965,28.148c0,1.919-2.4,3.475-5.35,3.475s-5.348-1.555-5.348-3.475,2.394-3.475,5.348-3.475,5.35,1.555,5.35,3.475" transform="translate(-8.142 -7.964)" fill="#ebaf34"/>
        <path id="패스_747" data-name="패스 747" d="M35.965,28.148c0,1.919-2.4,3.475-5.35,3.475s-5.348-1.555-5.348-3.475,2.394-3.475,5.348-3.475S35.965,26.228,35.965,28.148Z" transform="translate(-8.142 -7.964)" fill="none" stroke="#202020" stroke-miterlimit="10" stroke-width="1.5"/>
        <path id="패스_748" data-name="패스 748" d="M19.936,18.934c0,1.194-1.491,2.163-3.329,2.163s-3.33-.969-3.33-2.163,1.491-2.163,3.33-2.163,3.329.969,3.329,2.163" transform="translate(-4.527 -5.581)" fill="#ebaf34"/>
        <path id="패스_749" data-name="패스 749" d="M19.936,18.934c0,1.194-1.491,2.163-3.329,2.163s-3.33-.969-3.33-2.163,1.491-2.163,3.33-2.163S19.936,17.74,19.936,18.934Z" transform="translate(-4.527 -5.581)" fill="none" stroke="#202020" stroke-miterlimit="10" stroke-width="1.5"/>
        <path id="패스_750" data-name="패스 750" d="M50.659,34.5c0,.85-1.061,1.539-2.369,1.539s-2.369-.689-2.369-1.539,1.061-1.539,2.369-1.539,2.369.689,2.369,1.539" transform="translate(-14.37 -10.464)" fill="#ebaf34"/>
        <ellipse id="타원_45" data-name="타원 45" cx="2.369" cy="1.539" rx="2.369" ry="1.539" transform="translate(31.55 22.501)" fill="none" stroke="#202020" stroke-miterlimit="10" stroke-width="1.5"/>
      </g>
    </g>
  </g>
</svg>
