<svg xmlns="http://www.w3.org/2000/svg" width="70" height="70" viewBox="0 0 70 70">
  <g id="ico_dpt14" transform="translate(-29.999 -30)">
    <path id="패스_827" data-name="패스 827" d="M70.265,35.534a35,35,0,1,1-35-35,35,35,0,0,1,35,35" transform="translate(29.734 29.466)" fill="#f4f5f9"/>
    <g id="그룹_608" data-name="그룹 608" transform="translate(35.656 43.019)">
      <g id="그룹_609" data-name="그룹 609" transform="translate(0 0)">
        <path id="패스_1292" data-name="패스 1292" d="M-17874.762-4666.981h28.83l.664,8.279,5.3,11.6.83,10.771-3.148,12.593h-35.625l-3.811-14.416,1.49-10.936,4.8-9.61Z" transform="translate(17889.344 4666.981)" fill="#fff5f7"/>
        <path id="패스_751" data-name="패스 751" d="M15.7,43.48a.453.453,0,0,1-.4-.234c-4.15-7.471-3.529-17.991-3.5-18.434.139-6.368,4.693-13.941,4.887-14.26,1.843-2.9,2-10.034,2-10.106A.438.438,0,0,1,19.156,0,.455.455,0,0,1,19.6.464c-.006.3-.164,7.464-2.139,10.568-.041.068-4.616,7.678-4.751,13.819-.007.125-.631,10.72,3.387,17.954a.455.455,0,0,1-.4.675" transform="translate(-4.635 0)" fill="#202020" stroke="#202020" stroke-width="0.5"/>
        <path id="패스_752" data-name="패스 752" d="M74.949,43.481a.455.455,0,0,1-.4-.675c4.018-7.235,3.394-17.83,3.387-17.936-.134-6.16-4.71-13.77-4.757-13.846C71.214,7.928,71.057.767,71.051.464A.455.455,0,0,1,71.5,0h.008a.454.454,0,0,1,.454.446c0,.072.158,7.209,1.995,10.1.2.327,4.754,7.9,4.893,14.287.027.425.649,10.945-3.5,18.415a.453.453,0,0,1-.4.234" transform="translate(-28.007 -0.001)" fill="#202020" stroke="#202020" stroke-width="0.5"/>
        <path id="패스_753" data-name="패스 753" d="M43.643,63.418a.452.452,0,0,1-.322-.134l-6.337-6.337a.454.454,0,0,1,.643-.642l6.024,6.025L50.013,56.3a.454.454,0,0,1,.625.659l-6.682,6.338a.451.451,0,0,1-.312.125" transform="translate(-14.526 -22.142)" fill="#333" stroke="#333" stroke-width="0.5"/>
        <path id="패스_754" data-name="패스 754" d="M47.767,70.228a.454.454,0,0,1-.454-.454V67.087a.454.454,0,0,1,.909,0v2.686a.455.455,0,0,1-.454.454" transform="translate(-18.65 -26.266)" fill="#333" stroke="#333" stroke-width="0.5"/>
        <path id="패스_755" data-name="패스 755" d="M48.314,24.936c-3.489-.967-5.63,3.542-5.893,4.974,0-1.124-2.4-5.941-5.894-4.974,0,0-4.313,1.045-2.947,6.2a21.936,21.936,0,0,0,8.839,10.171v0h0v0c7.213-4.17,8.839-10.171,8.839-10.171,1.366-5.158-2.947-6.2-2.947-6.2" transform="translate(-13.132 -9.777)" fill="#ff375a" stroke="#202020" stroke-width="1.5"/>
        <path id="패스_757" data-name="패스 757" d="M72.774,28.436l-5.327,5.833-2.219-.242a3.588,3.588,0,0,0-2.686.761L59.23,39.024l-3.363,3.5L52.2,42.5a2.366,2.366,0,0,0-2.03.728s-.439.287-.062,1.174l9.287,2.3a2.581,2.581,0,0,0,2.416-1.188l6.514-5.3,9.146-6.871" transform="translate(-19.692 -11.209)" fill="#fff5f7"/>
        <path id="패스_758" data-name="패스 758" d="M59.349,46.871a1.847,1.847,0,0,1-.336-.026l-9.307-2.3a.456.456,0,0,1-.31-.263,1.406,1.406,0,0,1,.147-1.666,2.833,2.833,0,0,1,2.415-.864l3.422.021,3.227-3.359,3.283-4.2a.467.467,0,0,1,.053-.056A4.023,4.023,0,0,1,65,33.283l1.972.214,5.171-5.663a.455.455,0,0,1,.671.613l-5.327,5.833a.448.448,0,0,1-.385.145l-2.219-.241a3.176,3.176,0,0,0-2.3.621l-3.288,4.2L55.9,42.543a.456.456,0,0,1-.328.14h0L51.9,42.657c-.058,0-1.208-.12-1.652.529a.447.447,0,0,1-.127.124.732.732,0,0,0,.033.411l9.051,2.238a2.168,2.168,0,0,0,1.946-1.023.5.5,0,0,1,.075-.077l6.514-5.3L76.9,32.676a.454.454,0,0,1,.545.727L68.3,40.273,61.845,45.53a3.149,3.149,0,0,1-2.5,1.341" transform="translate(-19.398 -10.914)" fill="#202020" stroke="#202020" stroke-width="0.5"/>
        <path id="패스_759" data-name="패스 759" d="M61.259,48.741s-.845,1.83.861,2.039L67.758,46.7" transform="translate(-24.065 -18.407)" fill="#fff"/>
        <path id="패스_760" data-name="패스 760" d="M61.824,50.938a.421.421,0,0,1-.055,0,1.571,1.571,0,0,1-1.279-.76,2.351,2.351,0,0,1,.06-1.92.454.454,0,0,1,.826.38,1.507,1.507,0,0,0-.091,1.1.573.573,0,0,0,.428.27L67.2,46.032a.454.454,0,0,1,.533.736L62.09,50.851a.452.452,0,0,1-.266.087" transform="translate(-23.769 -18.112)" fill="#202020" stroke="#202020" stroke-width="0.5"/>
        <path id="패스_761" data-name="패스 761" d="M5.447,28.436l5.328,5.833,2.219-.242a3.59,3.59,0,0,1,2.686.761l3.311,4.235,3.363,3.5,3.666-.026a2.367,2.367,0,0,1,2.03.728s.439.287.062,1.174l-9.287,2.3a2.58,2.58,0,0,1-2.415-1.188L9.9,40.206.75,33.335" transform="translate(-0.296 -11.209)" fill="#fff5f7"/>
        <path id="패스_762" data-name="패스 762" d="M18.283,46.87a3.145,3.145,0,0,1-2.5-1.34L9.313,40.263.182,33.4a.454.454,0,0,1,.545-.727l9.146,6.871L16.4,44.859a.5.5,0,0,1,.075.077,2.146,2.146,0,0,0,1.97,1.017l9.026-2.232c.078-.268.032-.4,0-.435a.277.277,0,0,1-.094-.1c-.442-.646-1.593-.534-1.6-.533l-3.715.028h0a.456.456,0,0,1-.328-.14l-3.362-3.5-3.317-4.237a3.159,3.159,0,0,0-2.286-.623l-2.237.243a.45.45,0,0,1-.385-.145L4.816,28.447a.454.454,0,0,1,.671-.613L10.66,33.5l1.99-.216a4.02,4.02,0,0,1,3.041.877.468.468,0,0,1,.053.056l3.311,4.235,3.2,3.323,3.471-.024a2.806,2.806,0,0,1,2.367.868,1.405,1.405,0,0,1,.147,1.666.456.456,0,0,1-.31.263l-9.287,2.3a1.858,1.858,0,0,1-.357.03" transform="translate(-0.001 -10.914)" fill="#202020" stroke="#202020" stroke-width="0.5"/>
        <path id="패스_763" data-name="패스 763" d="M30.5,48.741s.846,1.83-.862,2.039L24,46.7" transform="translate(-9.462 -18.407)" fill="#fff"/>
        <path id="패스_764" data-name="패스 764" d="M29.344,50.938a.453.453,0,0,1-.266-.087l-5.638-4.083a.454.454,0,1,1,.533-.736L29.456,50a.573.573,0,0,0,.428-.27,1.506,1.506,0,0,0-.091-1.1.454.454,0,0,1,.826-.38,2.35,2.35,0,0,1,.06,1.92,1.571,1.571,0,0,1-1.279.76.421.421,0,0,1-.055,0" transform="translate(-9.621 -18.112)" fill="#202020" stroke="#202020" stroke-width="0.5"/>
      </g>
    </g>
  </g>
</svg>
