<svg xmlns="http://www.w3.org/2000/svg" xmlns:xlink="http://www.w3.org/1999/xlink" width="70" height="70" viewBox="0 0 70 70">
  <defs>
    <clipPath id="clip-path">
      <rect id="사각형_545" data-name="사각형 545" width="51.4" height="47.071" transform="translate(-2 -2)" fill="none"/>
    </clipPath>
    <clipPath id="clip-path-2">
      <rect id="사각형_1188" data-name="사각형 1188" width="24.758" height="22.619" fill="none"/>
    </clipPath>
  </defs>
  <g id="ico_dpt3" transform="translate(11.301 13.965)">
    <path id="패스_896" data-name="패스 896" d="M70.265,35.534a35,35,0,1,1-35-35,35,35,0,0,1,35,35" transform="translate(-11.566 -14.499)" fill="#f4f5f9"/>
    <g id="그룹_711" data-name="그룹 711" clip-path="url(#clip-path)">
      <path id="패스_828" data-name="패스 828" d="M20.661.75H16.006V.767a7.5,7.5,0,0,0-4.835,2.047A4.066,4.066,0,0,0,6.683,8.941a5.272,5.272,0,0,0-3.034,7.814,5.272,5.272,0,0,0-.805,8.914,5.271,5.271,0,0,0,1.948,7.382,3.951,3.951,0,0,0,3.485,5.813,4.029,4.029,0,0,0,.48-.032c.023.019.045.04.068.059a4.927,4.927,0,0,0,8.968,1.424,9.275,9.275,0,0,0,6.069-8.7V3.949a3.2,3.2,0,0,0-3.2-3.2" transform="translate(-0.16 -0.16)" fill="#ffd4dc" stroke="#333" stroke-width="1"/>
      <path id="패스_829" data-name="패스 829" d="M20.661.75H16.006V.767a7.5,7.5,0,0,0-4.835,2.047A4.066,4.066,0,0,0,6.683,8.941a5.272,5.272,0,0,0-3.034,7.814,5.272,5.272,0,0,0-.805,8.914,5.271,5.271,0,0,0,1.948,7.382,3.951,3.951,0,0,0,3.485,5.813,4.029,4.029,0,0,0,.48-.032c.023.019.045.04.068.059a4.927,4.927,0,0,0,8.968,1.424,9.275,9.275,0,0,0,6.069-8.7V3.949A3.2,3.2,0,0,0,20.661.75Z" transform="translate(-0.16 -0.16)" fill="none" stroke="#202020" stroke-linecap="round" stroke-linejoin="round" stroke-width="1.5"/>
      <path id="패스_830" data-name="패스 830" d="M33.328.75h4.656V.767a7.5,7.5,0,0,1,4.835,2.047,4.066,4.066,0,0,1,4.488,6.128,5.272,5.272,0,0,1,3.034,7.814,5.272,5.272,0,0,1,.805,8.914A5.271,5.271,0,0,1,49.2,33.051a3.951,3.951,0,0,1-3.485,5.813,4.015,4.015,0,0,1-.479-.032c-.023.019-.045.04-.068.059A4.927,4.927,0,0,1,36.2,40.315a9.275,9.275,0,0,1-6.069-8.7V3.949a3.2,3.2,0,0,1,3.2-3.2" transform="translate(-6.429 -0.16)" fill="#ffd4dc"/>
      <path id="패스_831" data-name="패스 831" d="M33.328.75h4.656V.767a7.5,7.5,0,0,1,4.835,2.047,4.066,4.066,0,0,1,4.488,6.128,5.272,5.272,0,0,1,3.034,7.814,5.272,5.272,0,0,1,.805,8.914A5.271,5.271,0,0,1,49.2,33.051a3.951,3.951,0,0,1-3.485,5.813,4.015,4.015,0,0,1-.479-.032c-.023.019-.045.04-.068.059A4.927,4.927,0,0,1,36.2,40.315a9.275,9.275,0,0,1-6.069-8.7V3.949A3.2,3.2,0,0,1,33.328.75Z" transform="translate(-6.429 -0.16)" fill="none" stroke="#202020" stroke-linecap="round" stroke-linejoin="round" stroke-width="1.5"/>
      <path id="패스_832" data-name="패스 832" d="M11.679,30.455A5.27,5.27,0,0,0,12.874,23.6" transform="translate(-2.492 -5.036)" fill="#fff"/>
      <path id="패스_833" data-name="패스 833" d="M11.679,30.455A5.27,5.27,0,0,0,12.874,23.6" transform="translate(-2.492 -5.036)" fill="#ffd4dc" stroke="#202020" stroke-linecap="round" stroke-linejoin="round" stroke-width="1.5"/>
      <path id="패스_834" data-name="패스 834" d="M8.158,10.893A5.276,5.276,0,0,0,3.649,18.92a5.279,5.279,0,0,0-2.9,4.709" transform="translate(-0.16 -2.325)" fill="#ffd4dc"/>
      <path id="패스_835" data-name="패스 835" d="M8.158,10.893A5.276,5.276,0,0,0,3.649,18.92a5.279,5.279,0,0,0-2.9,4.709" transform="translate(-0.16 -2.325)" fill="none" stroke="#202020" stroke-linecap="round" stroke-linejoin="round" stroke-width="1.5"/>
      <path id="패스_836" data-name="패스 836" d="M4.85,39.61a5.283,5.283,0,0,1-1.6-7.3" transform="translate(-0.515 -6.895)" fill="#ffd4dc"/>
      <path id="패스_837" data-name="패스 837" d="M4.85,39.61a5.283,5.283,0,0,1-1.6-7.3" transform="translate(-0.515 -6.895)" fill="none" stroke="#202020" stroke-linecap="round" stroke-linejoin="round" stroke-width="1.5"/>
      <path id="패스_838" data-name="패스 838" d="M9.246,39.157a3.952,3.952,0,1,0,0,7.9,4.073,4.073,0,0,0,.53-.039A4.933,4.933,0,0,0,19.513,45.9" transform="translate(-1.129 -8.356)" fill="#ffd4dc" stroke="#333" stroke-width="1"/>
      <path id="패스_839" data-name="패스 839" d="M9.246,39.157a3.952,3.952,0,1,0,0,7.9,4.073,4.073,0,0,0,.53-.039A4.933,4.933,0,0,0,19.513,45.9" transform="translate(-1.129 -8.356)" fill="none" stroke="#202020" stroke-linecap="round" stroke-linejoin="round" stroke-width="1.5"/>
      <path id="패스_840" data-name="패스 840" d="M11.538,11.333a4.072,4.072,0,1,1,0-8.145" transform="translate(-1.593 -0.681)" fill="#ffd4dc"/>
      <path id="패스_841" data-name="패스 841" d="M11.538,11.333a4.072,4.072,0,1,1,0-8.145" transform="translate(-1.593 -0.681)" fill="none" stroke="#202020" stroke-linecap="round" stroke-linejoin="round" stroke-width="1.5"/>
      <path id="패스_842" data-name="패스 842" d="M26.261,27.084A3.043,3.043,0,0,1,29.3,30.127" transform="translate(-5.604 -5.78)" fill="#fff"/>
      <path id="패스_843" data-name="패스 843" d="M26.261,27.084A3.043,3.043,0,0,1,29.3,30.127" transform="translate(-5.604 -5.78)" fill="#ffd4dc" stroke="#202020" stroke-linecap="round" stroke-linejoin="round" stroke-width="1.5"/>
      <path id="패스_844" data-name="패스 844" d="M19.4,40.34a4,4,0,0,1,4-4" transform="translate(-4.139 -7.756)" fill="#ffd4dc"/>
      <path id="패스_845" data-name="패스 845" d="M19.4,40.34a4,4,0,0,1,4-4" transform="translate(-4.139 -7.756)" fill="none" stroke="#202020" stroke-linecap="round" stroke-linejoin="round" stroke-width="1.5"/>
      <path id="패스_846" data-name="패스 846" d="M21.172,36.185a2.823,2.823,0,0,0-2.823-2.822" transform="translate(-3.915 -7.12)" fill="#fff"/>
      <path id="패스_847" data-name="패스 847" d="M21.172,36.185a2.823,2.823,0,0,0-2.823-2.822" transform="translate(-3.915 -7.12)" fill="none" stroke="#202020" stroke-linecap="round" stroke-linejoin="round" stroke-width="1.5"/>
      <path id="패스_848" data-name="패스 848" d="M18.79,14.727A3.6,3.6,0,0,1,13.7,9.635" transform="translate(-2.698 -2.056)" fill="#ffd4dc"/>
      <path id="패스_849" data-name="패스 849" d="M18.79,14.727A3.6,3.6,0,0,1,13.7,9.635" transform="translate(-2.698 -2.056)" fill="none" stroke="#202020" stroke-linecap="round" stroke-linejoin="round" stroke-width="1.5"/>
      <path id="패스_850" data-name="패스 850" d="M47.852,26.392a4.618,4.618,0,0,1-4.989-3.509" transform="translate(-9.146 -4.883)" fill="#ffd4dc"/>
      <path id="패스_851" data-name="패스 851" d="M47.852,26.392a4.618,4.618,0,0,1-4.989-3.509" transform="translate(-9.146 -4.883)" fill="none" stroke="#202020" stroke-linecap="round" stroke-linejoin="round" stroke-width="1.5"/>
      <path id="패스_852" data-name="패스 852" d="M50.092,10.893A5.276,5.276,0,0,1,54.6,18.92a5.279,5.279,0,0,1,2.9,4.709" transform="translate(-10.689 -2.325)" fill="#ffd4dc"/>
      <path id="패스_853" data-name="패스 853" d="M50.092,10.893A5.276,5.276,0,0,1,54.6,18.92a5.279,5.279,0,0,1,2.9,4.709" transform="translate(-10.689 -2.325)" fill="none" stroke="#202020" stroke-linecap="round" stroke-linejoin="round" stroke-width="1.5"/>
      <path id="패스_854" data-name="패스 854" d="M54.75,39.61a5.284,5.284,0,0,0,1.6-7.3" transform="translate(-11.683 -6.895)" fill="#ffd4dc"/>
      <path id="패스_855" data-name="패스 855" d="M54.75,39.61a5.284,5.284,0,0,0,1.6-7.3" transform="translate(-11.683 -6.895)" fill="none" stroke="#202020" stroke-linecap="round" stroke-linejoin="round" stroke-width="1.5"/>
      <path id="패스_856" data-name="패스 856" d="M47.157,39.157a3.952,3.952,0,1,1,0,7.9,4.075,4.075,0,0,1-.531-.039A4.932,4.932,0,0,1,36.889,45.9" transform="translate(-7.872 -8.356)" fill="#ffd4dc"/>
      <path id="패스_857" data-name="패스 857" d="M47.157,39.157a3.952,3.952,0,1,1,0,7.9,4.075,4.075,0,0,1-.531-.039A4.932,4.932,0,0,1,36.889,45.9" transform="translate(-7.872 -8.356)" fill="none" stroke="#202020" stroke-linecap="round" stroke-linejoin="round" stroke-width="1.5"/>
      <path id="패스_858" data-name="패스 858" d="M47.616,11.333a4.072,4.072,0,1,0,0-8.145" transform="translate(-10.161 -0.681)" fill="#ffd4dc"/>
      <path id="패스_859" data-name="패스 859" d="M47.616,11.333a4.072,4.072,0,1,0,0-8.145" transform="translate(-10.161 -0.681)" fill="none" stroke="#202020" stroke-linecap="round" stroke-linejoin="round" stroke-width="1.5"/>
      <path id="패스_860" data-name="패스 860" d="M33.173,15.515a3.043,3.043,0,0,0-3.043,3.043" transform="translate(-6.429 -3.311)" fill="#fff"/>
      <path id="패스_861" data-name="패스 861" d="M33.173,15.515a3.043,3.043,0,0,0-3.043,3.043" transform="translate(-6.429 -3.311)" fill="none" stroke="#202020" stroke-linecap="round" stroke-linejoin="round" stroke-width="1.5"/>
      <path id="패스_862" data-name="패스 862" d="M48.122,39.39a7.5,7.5,0,0,0-7.5-7.5" transform="translate(-8.669 -6.806)" fill="#ffd4dc"/>
      <path id="패스_863" data-name="패스 863" d="M48.122,39.39a7.5,7.5,0,0,0-7.5-7.5" transform="translate(-8.669 -6.806)" fill="none" stroke="#202020" stroke-linecap="round" stroke-linejoin="round" stroke-width="1.5"/>
      <path id="패스_864" data-name="패스 864" d="M36.768,41.979a2.822,2.822,0,0,1,2.822-2.822" transform="translate(-7.846 -8.356)" fill="#fff"/>
      <path id="패스_865" data-name="패스 865" d="M36.768,41.979a2.822,2.822,0,0,1,2.822-2.822" transform="translate(-7.846 -8.356)" fill="none" stroke="#333" stroke-linecap="round" stroke-linejoin="round" stroke-width="1.5"/>
      <path id="패스_866" data-name="패스 866" d="M39.8,14.727a3.6,3.6,0,1,0,5.092-5.092" transform="translate(-8.494 -2.056)" fill="#ffd4dc"/>
      <path id="패스_867" data-name="패스 867" d="M39.8,14.727a3.6,3.6,0,1,0,5.092-5.092" transform="translate(-8.494 -2.056)" fill="none" stroke="#202020" stroke-linecap="round" stroke-linejoin="round" stroke-width="1.5"/>
    </g>
    <g id="그룹_970" data-name="그룹 970" transform="translate(22.699 21.036)" clip-path="url(#clip-path-2)">
      <path id="패스_1296" data-name="패스 1296" d="M16.893,5A1.969,1.969,0,0,0,13.47,5L4.255,21.208a1.97,1.97,0,0,0,1.712,2.943H24.4a1.97,1.97,0,0,0,1.712-2.943Z" transform="translate(-2.803 -2.904)" fill="#fff"/>
      <path id="패스_1297" data-name="패스 1297" d="M21.28,22.619H3.479a3.48,3.48,0,0,1-3.025-5.2L9.354,1.76a3.48,3.48,0,0,1,6.051,0l8.9,15.659a3.48,3.48,0,0,1-3.026,5.2m-8.9-21.041a1.907,1.907,0,0,0-1.654.962L1.825,18.2a1.9,1.9,0,0,0,1.654,2.841h17.8A1.9,1.9,0,0,0,22.934,18.2L14.033,2.54a1.906,1.906,0,0,0-1.653-.962" transform="translate(0 0)" fill="#ebaf34"/>
      <path id="패스_1298" data-name="패스 1298" d="M30.166,24.945a.789.789,0,0,1-.789-.789V17.068a.789.789,0,1,1,1.578,0v7.087a.789.789,0,0,1-.789.789" transform="translate(-17.787 -9.856)" fill="#ebaf34"/>
      <path id="패스_1299" data-name="패스 1299" d="M30.864,41.508a.959.959,0,1,0-.96.96.96.96,0,0,0,.96-.96" transform="translate(-17.525 -24.551)" fill="#ebaf34"/>
    </g>
  </g>
</svg>
