<svg width="71" height="70" viewBox="0 0 71 70" fill="none" xmlns="http://www.w3.org/2000/svg">
<g clip-path="url(#clip0_2294_280)">
<path d="M71 35C71 41.9223 68.918 48.6892 65.0172 54.445C61.1164 60.2007 55.5721 64.6867 49.0853 67.3358C42.5985 69.9849 35.4606 70.678 28.5743 69.3275C21.688 67.977 15.3625 64.6436 10.3977 59.7487C5.43296 54.8539 2.05191 48.6175 0.682138 41.8282C-0.687637 35.0388 0.0153815 28.0015 2.70229 21.6061C5.3892 15.2107 9.93933 9.74441 15.7773 5.89856C21.6152 2.05271 28.4788 0 35.5 0C44.9152 0 53.9448 3.68749 60.6023 10.2513C67.2598 16.815 71 25.7174 71 35Z" fill="#F4F5F9"/>
<mask id="mask0_2294_280" style="mask-type:luminance" maskUnits="userSpaceOnUse" x="6" y="12" width="59" height="45">
<path d="M64.3982 12H6.08569V56.514H64.3982V12Z" fill="white"/>
</mask>
<g mask="url(#mask0_2294_280)">
<mask id="path-3-inside-1_2294_280" fill="white">
<path d="M60.5 54.5C60.5 54.7761 60.2761 55 60 55H56C55.7239 55 55.5 54.7761 55.5 54.5V50.5C55.5 50.2239 55.2761 50 55 50H15C14.7239 50 14.5 50.2239 14.5 50.5V54.5C14.5 54.7761 14.2761 55 14 55H10C9.72386 55 9.5 54.7761 9.5 54.5V46.5C9.5 46.2239 9.72386 46 10 46H60C60.2761 46 60.5 46.2239 60.5 46.5V54.5Z"/>
</mask>
<path d="M60.5 54.5C60.5 54.7761 60.2761 55 60 55H56C55.7239 55 55.5 54.7761 55.5 54.5V50.5C55.5 50.2239 55.2761 50 55 50H15C14.7239 50 14.5 50.2239 14.5 50.5V54.5C14.5 54.7761 14.2761 55 14 55H10C9.72386 55 9.5 54.7761 9.5 54.5V46.5C9.5 46.2239 9.72386 46 10 46H60C60.2761 46 60.5 46.2239 60.5 46.5V54.5Z" fill="#FFD4DC"/>
<path d="M60 55V54H56V55V56H60V55ZM55.5 54.5H56.5V50.5H55.5H54.5V54.5H55.5ZM55 50V49H15V50V51H55V50ZM14.5 50.5H13.5V54.5H14.5H15.5V50.5H14.5ZM14 55V54H10V55V56H14V55ZM9.5 54.5H10.5V46.5H9.5H8.5V54.5H9.5ZM10 46V47H60V46V45H10V46ZM60.5 46.5H59.5V54.5H60.5H61.5V46.5H60.5ZM60 46V47C59.7239 47 59.5 46.7761 59.5 46.5H60.5H61.5C61.5 45.6716 60.8284 45 60 45V46ZM9.5 46.5H10.5C10.5 46.7761 10.2761 47 10 47V46V45C9.17157 45 8.5 45.6716 8.5 46.5H9.5ZM10 55V54C10.2761 54 10.5 54.2239 10.5 54.5H9.5H8.5C8.5 55.3284 9.17157 56 10 56V55ZM14.5 54.5H13.5C13.5 54.2239 13.7239 54 14 54V55V56C14.8284 56 15.5 55.3284 15.5 54.5H14.5ZM15 50V49C14.1716 49 13.5 49.6716 13.5 50.5H14.5H15.5C15.5 50.7761 15.2761 51 15 51V50ZM55.5 50.5H56.5C56.5 49.6716 55.8284 49 55 49V50V51C54.7239 51 54.5 50.7761 54.5 50.5H55.5ZM56 55V54C56.2761 54 56.5 54.2239 56.5 54.5H55.5H54.5C54.5 55.3284 55.1716 56 56 56V55ZM60 55V56C60.8284 56 61.5 55.3284 61.5 54.5H60.5H59.5C59.5 54.2239 59.7239 54 60 54V55Z" fill="#202020" mask="url(#path-3-inside-1_2294_280)"/>
<path d="M36.9434 40.9069C37.045 41.007 36.7403 42.0085 36.7403 42.0085H30.2392L26.176 38.954L27.6997 35.4488L33.185 34.1469H38.3656L41.1082 36.951" fill="white"/>
<path d="M59.748 20.176H55.888V16.3704H52.3327V20.176H48.4727V23.6812H52.3327V27.4368H55.888V23.6812H59.748V20.176Z" fill="#FF375A"/>
<path d="M55.888 27.9876H52.3327C52.028 27.9876 51.774 27.7373 51.774 27.4368V24.182H48.4727C48.1679 24.182 47.914 23.9316 47.914 23.6312V20.126C47.914 19.8255 48.1679 19.5752 48.4727 19.5752H51.774V16.3704C51.774 16.07 52.028 15.8196 52.3327 15.8196H55.888C56.1927 15.8196 56.4467 16.07 56.4467 16.3704V19.6252H59.748C60.0527 19.6252 60.3067 19.8756 60.3067 20.176V23.6813C60.3067 23.9817 60.0527 24.2321 59.748 24.2321H56.4467V27.4869C56.3959 27.7373 56.1927 27.9876 55.888 27.9876ZM52.8406 26.9361H55.3293V23.6813C55.3293 23.3808 55.5833 23.1304 55.888 23.1304H59.1893V20.6768H55.888C55.5833 20.6768 55.3293 20.4264 55.3293 20.126V16.8711H52.8406V20.126C52.8406 20.4264 52.5867 20.6768 52.2819 20.6768H48.9806V23.1304H52.2819C52.5867 23.1304 52.8406 23.3808 52.8406 23.6813V26.9361Z" fill="#202020"/>
<path d="M15.2054 31.3927C14.9007 31.3927 14.6467 31.1424 14.6467 30.8419V14.1171C14.6467 13.8167 14.9007 13.5663 15.2054 13.5663C15.5102 13.5663 15.7641 13.8167 15.7641 14.1171V30.892C15.7641 31.1424 15.5102 31.3927 15.2054 31.3927Z" fill="#202020"/>
<path d="M22.7732 16.0699H15.7643C15.4595 16.0699 15.2056 15.8195 15.2056 15.5191C15.2056 15.2186 15.4595 14.9683 15.7643 14.9683H22.7732C23.078 14.9683 23.3319 15.2186 23.3319 15.5191C23.3319 15.8195 23.078 16.0699 22.7732 16.0699Z" fill="#202020"/>
<path d="M22.8239 25.6844H20.8939C20.4368 25.6844 20.0813 25.3339 20.0813 24.8832V18.9244C20.0813 18.4737 20.4368 18.1232 20.8939 18.1232H22.8239C23.2811 18.1232 23.6366 18.4737 23.6366 18.9244V24.8331C23.6366 25.3339 23.2811 25.6844 22.8239 25.6844Z" fill="#00D0A6"/>
<path d="M22.824 26.185H20.894C20.1321 26.185 19.5734 25.5841 19.5734 24.8831V18.9242C19.5734 18.1731 20.1829 17.6223 20.894 17.6223H22.824C23.5858 17.6223 24.1445 18.2232 24.1445 18.9242V24.833C24.1445 25.5841 23.535 26.185 22.824 26.185ZM20.894 18.6739C20.7416 18.6739 20.64 18.774 20.64 18.9242V24.833C20.64 24.9832 20.7416 25.0834 20.894 25.0834H22.824C22.9763 25.0834 23.0779 24.9832 23.0779 24.833V18.9242C23.0779 18.774 22.9763 18.6739 22.824 18.6739H20.894Z" fill="#202020"/>
<path d="M21.8081 18.123C21.5034 18.123 21.2495 17.8727 21.2495 17.5722V15.5693C21.2495 15.2688 21.5034 15.0184 21.8081 15.0184C22.1129 15.0184 22.3668 15.2688 22.3668 15.5693V17.5722C22.316 17.8727 22.1129 18.123 21.8081 18.123Z" fill="#202020"/>
<path d="M17.6942 32.5445C17.6942 30.191 19.6242 28.2882 22.0113 28.2882C24.3984 28.2882 26.3284 30.191 26.3284 32.5445C26.3284 34.4974 25.0079 36.1499 23.2302 36.6506" fill="white"/>
<path d="M23.2303 37.1513C22.9763 37.1513 22.7732 37.0011 22.7224 36.7507C22.6208 36.4503 22.824 36.1999 23.0779 36.0997C24.7032 35.6491 25.8205 34.1468 25.8205 32.4944C25.8205 30.4413 24.0937 28.7388 22.0113 28.7388C19.9289 28.7388 18.2021 30.4413 18.2021 32.4944C18.2021 32.7948 17.9481 33.0452 17.6434 33.0452C17.3387 33.0452 17.0847 32.7948 17.0847 32.4944C17.0847 29.8405 19.2687 27.6873 21.9605 27.6873C24.6524 27.6873 26.8363 29.8405 26.8363 32.4944C26.8363 34.5975 25.4142 36.5003 23.3319 37.1012C23.3319 37.1513 23.2811 37.1513 23.2303 37.1513Z" fill="#202020"/>
<path d="M26.0238 38.9539C25.5159 37.8523 25.4143 36.0997 26.0238 34.8979C27.0903 32.7948 29.579 31.8433 31.6106 32.8448L33.0327 33.5459L33.9977 34.0466H35.4199" fill="white"/>
<path d="M26.0237 39.5047C25.8206 39.5047 25.6174 39.4045 25.5158 39.2042C24.8556 37.8522 24.8556 35.9995 25.5158 34.6475C26.684 32.294 29.5282 31.2424 31.8138 32.3441L34.0485 33.4457H35.3182C35.623 33.4457 35.8769 33.6961 35.8769 33.9965C35.8769 34.297 35.623 34.5473 35.3182 34.5473H33.8961C33.7946 34.5473 33.7438 34.5473 33.6422 34.4973L32.6772 33.9965L31.3566 33.2955C29.579 32.4442 27.395 33.2454 26.4808 35.0981C25.9221 36.2499 26.0745 37.8022 26.4808 38.7035C26.5824 38.9539 26.4808 39.3044 26.2269 39.4045C26.1761 39.5047 26.1253 39.5047 26.0237 39.5047Z" fill="#202020"/>
<path d="M58.9354 41.5077V36.8007V35.4487V35.1482C58.9354 33.646 57.5641 32.4442 55.8372 32.4442H50.1996H47.3554H35.5214V32.995V35.4987V39.5548V41.2573V41.5077" fill="#E5E5E5"/>
<path d="M58.9354 42.0585C58.6307 42.0585 58.3767 41.8082 58.3767 41.5077V35.1483C58.3767 33.9465 57.2085 32.945 55.8372 32.945H36.08V41.4576C36.08 41.7581 35.8261 42.0085 35.5213 42.0085C35.2166 42.0085 34.9626 41.7581 34.9626 41.4576V32.4443C34.9626 32.1438 35.2166 31.8934 35.5213 31.8934H55.8372C57.818 31.8934 59.4433 33.3456 59.4433 35.1483V41.5077C59.4433 41.8082 59.2401 42.0585 58.9354 42.0585Z" fill="#202020"/>
<path d="M29.0203 47.166H59.8497C60.4084 47.166 60.8655 46.7153 60.8655 46.1645V43.0098C60.8655 42.459 60.4084 42.0083 59.8497 42.0083H30.2393L13.7834 29.9905C13.4279 29.7401 12.9708 29.7902 12.7168 30.1407L10.4821 33.0951C10.2281 33.4456 10.2789 33.8963 10.6345 34.1466L29.0203 47.166Z" fill="#62B6F5"/>
<path d="M59.8497 47.6667H29.0203C28.8679 47.6667 28.6648 47.5666 28.614 47.4664C28.4616 47.5666 28.2077 47.5666 28.0553 47.4164L10.3297 34.5473C10.0757 34.347 9.87257 34.0465 9.82178 33.696C9.77099 33.3455 9.87257 33.045 10.0757 32.7446L12.2597 29.8403C12.666 29.2895 13.4786 29.1392 14.0881 29.5899L30.4424 41.5076H59.9004C60.7639 41.5076 61.4241 42.2086 61.4241 43.0098V46.1645C61.3733 47.0158 60.7131 47.6667 59.8497 47.6667ZM13.2755 30.3911C13.2247 30.3911 13.1231 30.4412 13.0723 30.4912L10.8884 33.3956C10.8376 33.4456 10.8376 33.5458 10.8376 33.5458C10.8376 33.5959 10.8376 33.6459 10.9392 33.696L28.614 46.5651C28.6648 46.6152 28.7156 46.6152 28.7156 46.6653C28.8171 46.6152 28.8679 46.6152 28.9695 46.6152H59.7989C60.0528 46.6152 60.256 46.4149 60.256 46.1645V43.0098C60.256 42.7595 60.0528 42.5592 59.7989 42.5592H30.2392C30.1377 42.5592 30.0361 42.5091 29.9345 42.459L13.4786 30.4412C13.3771 30.3911 13.3263 30.3911 13.2755 30.3911Z" fill="#202020"/>
<path d="M30.7979 36.6005L32.7787 37.7522H35.5214" fill="white"/>
<path d="M35.5214 38.303H32.7787C32.6771 38.303 32.5756 38.303 32.5248 38.2529L30.544 37.1012C30.29 36.951 30.1884 36.6505 30.3408 36.4002C30.4932 36.1498 30.7979 36.0496 31.0519 36.1999L32.9311 37.2514H35.5214C35.8261 37.2514 36.0801 37.5018 36.0801 37.8022C36.0801 38.0526 35.8261 38.303 35.5214 38.303Z" fill="#202020"/>
</g>
</g>
<defs>
<clipPath id="clip0_2294_280">
<rect width="71" height="70" fill="white"/>
</clipPath>
</defs>
</svg>
