<svg xmlns="http://www.w3.org/2000/svg" xmlns:xlink="http://www.w3.org/1999/xlink" width="70" height="70" viewBox="0 0 70 70">
  <defs>
    <clipPath id="clip-path">
      <rect id="사각형_564" data-name="사각형 564" width="52.143" height="53.144" transform="translate(-2 -2)" fill="none"/>
    </clipPath>
  </defs>
  <g id="ico_dpt7" transform="translate(-30.339 -30)">
    <path id="패스_914" data-name="패스 914" d="M70.265,35.534a35,35,0,1,1-35-35,35,35,0,0,1,35,35" transform="translate(30.074 29.466)" fill="#f4f5f9"/>
    <g id="그룹_725" data-name="그룹 725" transform="translate(43.818 40.797)">
      <g id="그룹_724" data-name="그룹 724" transform="translate(-0.89 3.131)" clip-path="url(#clip-path)">
        <path id="패스_901" data-name="패스 901" d="M23.7,56.036a6.934,6.934,0,0,1-6.927-6.927V36.852a1.738,1.738,0,1,1,3.476,0V49.11a3.45,3.45,0,1,0,6.9,0V41.857a5.812,5.812,0,1,1,11.625,0v.772a2.369,2.369,0,1,0,4.738,0V29.591a1.738,1.738,0,1,1,3.476,0V42.629a5.845,5.845,0,1,1-11.69,0v-.772a2.336,2.336,0,1,0-4.673,0V49.11A6.935,6.935,0,0,1,23.7,56.036" transform="translate(-4.466 -7.364)" fill="#fff"/>
        <path id="패스_902" data-name="패스 902" d="M23.7,56.036a6.934,6.934,0,0,1-6.927-6.927V36.852a1.738,1.738,0,1,1,3.476,0V49.11a3.45,3.45,0,1,0,6.9,0V41.857a5.812,5.812,0,1,1,11.625,0v.772a2.369,2.369,0,1,0,4.738,0V29.591a1.738,1.738,0,1,1,3.476,0V42.629a5.845,5.845,0,1,1-11.69,0v-.772a2.336,2.336,0,1,0-4.673,0V49.11A6.935,6.935,0,0,1,23.7,56.036Z" transform="translate(-4.466 -7.364)" fill="none" stroke="#202020" stroke-linecap="round" stroke-linejoin="round" stroke-width="1.5"/>
        <path id="패스_903" data-name="패스 903" d="M14.318,29.778A13.568,13.568,0,0,1,.75,16.2V4.373A1.738,1.738,0,0,1,2.489,2.635H7.443a1.738,1.738,0,1,1,0,3.476H4.226V16.2a10.092,10.092,0,1,0,20.184,0V6.111H21.188a1.738,1.738,0,0,1,0-3.476h4.961a1.738,1.738,0,0,1,1.739,1.738V16.2A13.587,13.587,0,0,1,14.318,29.778" transform="translate(-0.278 -0.77)" fill="#fff"/>
        <path id="패스_904" data-name="패스 904" d="M14.318,29.778A13.568,13.568,0,0,1,.75,16.2V4.373A1.738,1.738,0,0,1,2.489,2.635H7.443a1.738,1.738,0,1,1,0,3.476H4.226V16.2a10.092,10.092,0,1,0,20.184,0V6.111H21.188a1.738,1.738,0,0,1,0-3.476h4.961a1.738,1.738,0,0,1,1.739,1.738V16.2A13.587,13.587,0,0,1,14.318,29.778Z" transform="translate(-0.278 -0.77)" fill="none" stroke="#202020" stroke-linecap="round" stroke-linejoin="round" stroke-width="1.5"/>
        <path id="패스_905" data-name="패스 905" d="M10.477,7.011h0a1.75,1.75,0,0,1-1.75-1.75V2.5a1.75,1.75,0,1,1,3.5,0V5.261a1.75,1.75,0,0,1-1.75,1.75" transform="translate(-2.363 -0.278)" fill="#a3daf7"/>
        <path id="패스_906" data-name="패스 906" d="M10.477,7.011h0a1.75,1.75,0,0,1-1.75-1.75V2.5a1.75,1.75,0,1,1,3.5,0V5.261A1.75,1.75,0,0,1,10.477,7.011Z" transform="translate(-2.363 -0.278)" fill="none" stroke="#202020" stroke-linecap="round" stroke-linejoin="round" stroke-width="1.5"/>
        <path id="패스_907" data-name="패스 907" d="M26.529,7.011h0a1.75,1.75,0,0,0,1.75-1.75V2.5a1.75,1.75,0,0,0-3.5,0V5.261a1.75,1.75,0,0,0,1.75,1.75" transform="translate(-6.56 -0.278)" fill="#a3daf7"/>
        <path id="패스_908" data-name="패스 908" d="M26.529,7.011h0a1.75,1.75,0,0,0,1.75-1.75V2.5a1.75,1.75,0,0,0-3.5,0V5.261A1.75,1.75,0,0,0,26.529,7.011Z" transform="translate(-6.56 -0.278)" fill="none" stroke="#202020" stroke-linecap="round" stroke-linejoin="round" stroke-width="1.5"/>
        <path id="패스_909" data-name="패스 909" d="M22.894,32.319H11.215v4.837h3.6v3.116H19.3V37.157h3.6Z" transform="translate(-3.014 -8.532)" fill="#e5e5e5"/>
        <path id="패스_910" data-name="패스 910" d="M22.894,32.319H11.215v4.837h3.6v3.116H19.3V37.157h3.6Z" transform="translate(-3.014 -8.532)" fill="#62b6f5" stroke="#202020" stroke-miterlimit="10" stroke-width="1.5"/>
        <path id="패스_911" data-name="패스 911" d="M59.78,18.949a6.89,6.89,0,1,1-6.89-6.89,6.89,6.89,0,0,1,6.89,6.89" transform="translate(-12.109 -3.234)" fill="#ebaf34"/>
        <circle id="타원_50" data-name="타원 50" cx="6.89" cy="6.89" r="6.89" transform="translate(33.891 8.825)" fill="none" stroke="#202020" stroke-linecap="round" stroke-linejoin="round" stroke-width="1.5"/>
        <path id="패스_912" data-name="패스 912" d="M56.667,20.655A2.072,2.072,0,1,1,54.6,18.583a2.072,2.072,0,0,1,2.072,2.072" transform="translate(-13.814 -4.94)" fill="#fff"/>
        <path id="패스_913" data-name="패스 913" d="M56.667,20.655A2.072,2.072,0,1,1,54.6,18.583,2.072,2.072,0,0,1,56.667,20.655Z" transform="translate(-13.814 -4.94)" fill="none" stroke="#202020" stroke-linecap="round" stroke-linejoin="round" stroke-width="1.5"/>
      </g>
    </g>
  </g>
</svg>
