<svg xmlns="http://www.w3.org/2000/svg" xmlns:xlink="http://www.w3.org/1999/xlink" width="72" height="70" viewBox="0 0 72 70">
  <defs>
    <clipPath id="clip-path">
      <rect id="사각형_1186" data-name="사각형 1186" width="52.311" height="57.294" transform="translate(-1 -1)" fill="none"/>
    </clipPath>
  </defs>
  <g id="ico_dpt2" transform="translate(-0.342)">
    <g id="그룹_722" data-name="그룹 722">
      <path id="패스_712" data-name="패스 712" d="M72.265,35.534c0,19.33-16.118,35-36,35s-36-15.67-36-35,16.118-35,36-35,36,15.67,36,35" transform="translate(0.077 -0.534)" fill="#f4f5f9"/>
    </g>
    <g id="그룹_966" data-name="그룹 966" transform="translate(11.688 6.206)">
      <g id="그룹_965" data-name="그룹 965" transform="translate(0 0)" clip-path="url(#clip-path)">
        <path id="패스_1277" data-name="패스 1277" d="M46.09,1l-7.176,9.114c-1.5,1.9-2.12,3.067-6.935,6.695A13.859,13.859,0,0,0,26.43,27.9a54.02,54.02,0,0,0,.865,9.99c.91,5.136,1.118,13.833,1.118,17.466H50c0-13.135-1.477-20.882-1.025-22.842.467-2.019,1.357-2.776,2.924-4.11,2.354-2,8.261-6.714,11.951-9.641Z" transform="translate(-14.011 -0.53)" fill="#fff5f7"/>
        <path id="패스_1278" data-name="패스 1278" d="M74.812,75.334a.469.469,0,0,1-.47-.47c0-7.5-.488-13.3-.811-17.142-.257-3.053-.412-4.9-.2-5.805.5-2.169,1.471-2.994,3.077-4.361C78.8,45.52,84.929,40.634,88.37,37.9a.47.47,0,1,1,.585.736c-3.437,2.728-9.558,7.606-11.938,9.631-1.558,1.326-2.34,1.991-2.771,3.858a28.637,28.637,0,0,0,.223,5.515c.324,3.857.814,9.685.814,17.221a.469.469,0,0,1-.47.47" transform="translate(-38.822 -20.04)" fill="#202020" stroke="#202020" stroke-linecap="round" stroke-width="0.5"/>
        <path id="패스_1279" data-name="패스 1279" d="M27.882,55.295a.469.469,0,0,1-.47-.47A125.485,125.485,0,0,0,26.3,37.44a54.533,54.533,0,0,1-.873-10.072A14.247,14.247,0,0,1,31.165,15.9c4.2-3.161,5.144-4.4,6.343-5.957.162-.211.328-.427.506-.652L45.189.18a.47.47,0,1,1,.739.581L38.752,9.875c-.175.223-.339.436-.5.643-1.194,1.555-2.225,2.9-6.523,6.136a13.315,13.315,0,0,0-5.361,10.714,53.694,53.694,0,0,0,.858,9.909,123.892,123.892,0,0,1,1.125,17.548.469.469,0,0,1-.47.47" transform="translate(-13.481 0)" fill="#202020" stroke="#202020" stroke-linecap="round" stroke-width="0.5"/>
        <path id="패스_1280" data-name="패스 1280" d="M40.52,50.764a3.414,3.414,0,1,0-2.612,6.308l7.57,3.135,1.7-3.342L48.09,53.9Z" transform="translate(-18.978 -26.773)" fill="#ff375a"/>
        <path id="패스_1281" data-name="패스 1281" d="M44.947,60.146a.467.467,0,0,1-.18-.036L37.2,56.975A3.883,3.883,0,1,1,40.17,49.8l7.57,3.136a.47.47,0,0,1,.27.572L47.1,56.473a.545.545,0,0,1-.03.075l-1.7,3.341a.471.471,0,0,1-.419.257m-6.262-9.7a2.944,2.944,0,0,0-1.128,5.664l7.168,2.969,1.486-2.918.774-2.518L39.81,50.668a2.92,2.92,0,0,0-1.124-.225" transform="translate(-18.449 -26.243)" fill="#202020" stroke="#202020" stroke-linecap="round" stroke-width="0.5"/>
        <path id="패스_1282" data-name="패스 1282" d="M66.1,19.442,60.868,14.2,50.7,24.373c-1.235,1.235-1.725.725-3.4.619a4.712,4.712,0,0,0-3.63,1.273c-1.664,1.664-1.269,3.968.395,5.632a4.25,4.25,0,0,0,3.1,1.244,4.247,4.247,0,0,0,1.244,3.1c1.664,1.664,3.968,2.059,5.631.395a4.712,4.712,0,0,0,1.273-3.631c-.106-1.674-.615-2.164.619-3.4L66.1,19.442" transform="translate(-22.584 -7.53)" fill="#fff"/>
        <path id="패스_1283" data-name="패스 1283" d="M51.053,37.648c-.133,0-.266-.007-.4-.02a5.215,5.215,0,0,1-3.1-1.581,4.683,4.683,0,0,1-1.369-2.979A4.683,4.683,0,0,1,43.2,31.7a5.214,5.214,0,0,1-1.581-3.1A3.868,3.868,0,0,1,42.807,25.4a5.158,5.158,0,0,1,3.992-1.41c.416.026.756.076,1.055.118a1.747,1.747,0,0,0,1.983-.6L60.005,13.343a.47.47,0,0,1,.664.664L50.5,24.176a2.635,2.635,0,0,1-2.782.866c-.281-.04-.6-.087-.979-.11a4.228,4.228,0,0,0-3.269,1.136c-1.579,1.58-.94,3.633.395,4.967a3.815,3.815,0,0,0,2.762,1.107.461.461,0,0,1,.342.138.473.473,0,0,1,.138.342,3.761,3.761,0,0,0,1.106,2.761,4.284,4.284,0,0,0,2.53,1.31,2.952,2.952,0,0,0,2.437-.916,4.213,4.213,0,0,0,1.136-3.269c-.023-.378-.07-.7-.11-.978a2.638,2.638,0,0,1,.867-2.782L65.242,18.58a.47.47,0,0,1,.664.664L55.738,29.413a1.749,1.749,0,0,0-.6,1.982c.043.3.093.639.118,1.054a5.152,5.152,0,0,1-1.41,3.992,3.885,3.885,0,0,1-2.793,1.206" transform="translate(-22.054 -7.001)" fill="#202020" stroke="#202020" stroke-linecap="round" stroke-width="0.5"/>
        <path id="패스_1284" data-name="패스 1284" d="M51.781,51.237a.469.469,0,0,1-.47-.47A4.7,4.7,0,0,1,52.7,47.423a.47.47,0,0,1,.664.664,3.769,3.769,0,0,0-1.111,2.681.469.469,0,0,1-.47.47" transform="translate(-27.201 -25.067)" fill="#202020" stroke="#202020" stroke-width="0.5"/>
        <path id="패스_1285" data-name="패스 1285" d="M45.919,63.818a4.243,4.243,0,0,0-3.074,1.315,4.245,4.245,0,0,0-3.074-1.315c-2.353,0-4.261,1.349-4.261,3.7a4.714,4.714,0,0,0,1.668,3.468c1.258,1.108,1.965,1.094,1.965,2.841V88.656h7.406V73.83c0-1.747.707-1.732,1.965-2.842a4.711,4.711,0,0,0,1.668-3.467c0-2.354-1.908-3.7-4.261-3.7" transform="translate(-18.824 -33.832)" fill="#fff"/>
        <path id="패스_1286" data-name="패스 1286" d="M46.018,88.6a.469.469,0,0,1-.47-.47V73.3a2.639,2.639,0,0,1,1.354-2.58c.228-.17.486-.363.77-.614A4.211,4.211,0,0,0,49.18,66.99,2.953,2.953,0,0,0,48.1,64.62a4.274,4.274,0,0,0-2.714-.862h0a3.754,3.754,0,0,0-2.735,1.169.484.484,0,0,1-.678,0,3.759,3.759,0,0,0-2.735-1.17c-1.887,0-3.791,1-3.791,3.233a4.219,4.219,0,0,0,1.508,3.116c.284.25.542.444.77.614a2.638,2.638,0,0,1,1.354,2.58V88.126a.47.47,0,1,1-.94,0V73.3a1.747,1.747,0,0,0-.977-1.826c-.242-.181-.517-.387-.829-.662a5.156,5.156,0,0,1-1.827-3.821c0-2.456,1.945-4.172,4.731-4.172a4.683,4.683,0,0,1,3.074,1.138,4.68,4.68,0,0,1,3.074-1.137h0a5.214,5.214,0,0,1,3.31,1.075,3.865,3.865,0,0,1,1.42,3.1,5.152,5.152,0,0,1-1.826,3.82c-.312.275-.587.481-.829.662a1.748,1.748,0,0,0-.976,1.827V88.126a.469.469,0,0,1-.47.47" transform="translate(-18.294 -33.302)" fill="#202020" stroke="#202020" stroke-linecap="round" stroke-width="0.5"/>
        <path id="패스_1287" data-name="패스 1287" d="M51.71,69.428a.469.469,0,0,1-.47-.47,3.771,3.771,0,0,0-1.11-2.681.47.47,0,1,1,.664-.664,4.7,4.7,0,0,1,1.386,3.345.469.469,0,0,1-.47.47" transform="translate(-26.502 -34.71)" fill="#202020" stroke="#202020" stroke-linecap="round" stroke-width="0.5"/>
        <path id="패스_1288" data-name="패스 1288" d="M11.912,40.165a.467.467,0,0,1-.18-.036L4.993,37.337a.47.47,0,1,1,.36-.868l6.739,2.792a.47.47,0,0,1-.18.9" transform="translate(-2.493 -19.315)" fill="#202020" stroke="#202020" stroke-linecap="round" stroke-width="0.5"/>
        <path id="패스_1289" data-name="패스 1289" d="M7.758,58.9H7.737L.449,58.581A.47.47,0,0,1,0,58.091a.459.459,0,0,1,.49-.449l7.288.318a.47.47,0,0,1-.02.939" transform="translate(0 -30.557)" fill="#202020" stroke="#202020" stroke-linecap="round" stroke-width="0.5"/>
        <path id="패스_1290" data-name="패스 1290" d="M22.222,23.98a.47.47,0,0,1-.318-.124l-5.378-4.928a.47.47,0,0,1,.635-.693l5.378,4.929a.47.47,0,0,1-.318.816" transform="translate(-8.681 -9.601)" fill="#202020" stroke="#202020" stroke-linecap="round" stroke-width="0.5"/>
      </g>
    </g>
  </g>
</svg>
